<?xml version="1.0" encoding="utf-8" standalone="no"?>
<!DOCTYPE svg PUBLIC "-//W3C//DTD SVG 1.1//EN"
  "http://www.w3.org/Graphics/SVG/1.1/DTD/svg11.dtd">
<svg xmlns:xlink="http://www.w3.org/1999/xlink" width="864.289063pt" height="383.303281pt" viewBox="0 0 864.289063 383.303281" xmlns="http://www.w3.org/2000/svg" version="1.1">
 <metadata>
  <rdf:RDF xmlns:dc="http://purl.org/dc/elements/1.1/" xmlns:cc="http://creativecommons.org/ns#" xmlns:rdf="http://www.w3.org/1999/02/22-rdf-syntax-ns#">
   <cc:Work>
    <dc:type rdf:resource="http://purl.org/dc/dcmitype/StillImage"/>
    <dc:date>2022-05-10T15:23:10.232105</dc:date>
    <dc:format>image/svg+xml</dc:format>
    <dc:creator>
     <cc:Agent>
      <dc:title>Matplotlib v3.5.2, https://matplotlib.org/</dc:title>
     </cc:Agent>
    </dc:creator>
   </cc:Work>
  </rdf:RDF>
 </metadata>
 <defs>
  <style type="text/css">*{stroke-linejoin: round; stroke-linecap: butt}</style>
 </defs>
 <g id="figure_1">
  <g id="patch_1">
   <path d="M 0 383.303281 
L 864.289063 383.303281 
L 864.289063 0 
L 0 0 
z
" style="fill: #ffffff"/>
  </g>
  <g id="axes_1">
   <g id="patch_2">
    <path d="M 49.94375 343.418906 
L 434.771336 343.418906 
L 434.771336 10.778906 
L 49.94375 10.778906 
z
" style="fill: #ffffff"/>
   </g>
   <g id="matplotlib.axis_1">
    <g id="xtick_1">
     <g id="line2d_1">
      <defs>
       <path id="m8729cf5b46" d="M 0 0 
L 0 3.5 
" style="stroke: #000000; stroke-width: 0.8"/>
      </defs>
      <g>
       <use xlink:href="#m8729cf5b46" x="116.740894" y="343.418906" style="stroke: #000000; stroke-width: 0.8"/>
      </g>
     </g>
     <g id="text_1">
      <!-- $\mathdefault{10^{-6}}$ -->
      <g transform="translate(107.690894 360.731406)scale(0.1 -0.1)">
       <defs>
        <path id="ArialMT-31" d="M 2384 0 
L 1822 0 
L 1822 3584 
Q 1619 3391 1289 3197 
Q 959 3003 697 2906 
L 697 3450 
Q 1169 3672 1522 3987 
Q 1875 4303 2022 4600 
L 2384 4600 
L 2384 0 
z
" transform="scale(0.015625)"/>
        <path id="ArialMT-30" d="M 266 2259 
Q 266 3072 433 3567 
Q 600 4063 929 4331 
Q 1259 4600 1759 4600 
Q 2128 4600 2406 4451 
Q 2684 4303 2865 4023 
Q 3047 3744 3150 3342 
Q 3253 2941 3253 2259 
Q 3253 1453 3087 958 
Q 2922 463 2592 192 
Q 2263 -78 1759 -78 
Q 1097 -78 719 397 
Q 266 969 266 2259 
z
M 844 2259 
Q 844 1131 1108 757 
Q 1372 384 1759 384 
Q 2147 384 2411 759 
Q 2675 1134 2675 2259 
Q 2675 3391 2411 3762 
Q 2147 4134 1753 4134 
Q 1366 4134 1134 3806 
Q 844 3388 844 2259 
z
" transform="scale(0.015625)"/>
        <path id="ArialMT-2d" d="M 203 1375 
L 203 1941 
L 1931 1941 
L 1931 1375 
L 203 1375 
z
" transform="scale(0.015625)"/>
        <path id="ArialMT-36" d="M 3184 3459 
L 2625 3416 
Q 2550 3747 2413 3897 
Q 2184 4138 1850 4138 
Q 1581 4138 1378 3988 
Q 1113 3794 959 3422 
Q 806 3050 800 2363 
Q 1003 2672 1297 2822 
Q 1591 2972 1913 2972 
Q 2475 2972 2870 2558 
Q 3266 2144 3266 1488 
Q 3266 1056 3080 686 
Q 2894 316 2569 119 
Q 2244 -78 1831 -78 
Q 1128 -78 684 439 
Q 241 956 241 2144 
Q 241 3472 731 4075 
Q 1159 4600 1884 4600 
Q 2425 4600 2770 4297 
Q 3116 3994 3184 3459 
z
M 888 1484 
Q 888 1194 1011 928 
Q 1134 663 1356 523 
Q 1578 384 1822 384 
Q 2178 384 2434 671 
Q 2691 959 2691 1453 
Q 2691 1928 2437 2201 
Q 2184 2475 1800 2475 
Q 1419 2475 1153 2201 
Q 888 1928 888 1484 
z
" transform="scale(0.015625)"/>
       </defs>
       <use xlink:href="#ArialMT-31" transform="translate(0 0.99375)"/>
       <use xlink:href="#ArialMT-30" transform="translate(55.615234 0.99375)"/>
       <use xlink:href="#ArialMT-2d" transform="translate(112.972813 70.6875)scale(0.7)"/>
       <use xlink:href="#ArialMT-36" transform="translate(136.283359 70.6875)scale(0.7)"/>
      </g>
     </g>
    </g>
    <g id="xtick_2">
     <g id="line2d_2">
      <g>
       <use xlink:href="#m8729cf5b46" x="196.248504" y="343.418906" style="stroke: #000000; stroke-width: 0.8"/>
      </g>
     </g>
     <g id="text_2">
      <!-- $\mathdefault{10^{-4}}$ -->
      <g transform="translate(187.198504 360.631406)scale(0.1 -0.1)">
       <defs>
        <path id="ArialMT-34" d="M 2069 0 
L 2069 1097 
L 81 1097 
L 81 1613 
L 2172 4581 
L 2631 4581 
L 2631 1613 
L 3250 1613 
L 3250 1097 
L 2631 1097 
L 2631 0 
L 2069 0 
z
M 2069 1613 
L 2069 3678 
L 634 1613 
L 2069 1613 
z
" transform="scale(0.015625)"/>
       </defs>
       <use xlink:href="#ArialMT-31" transform="translate(0 0.201563)"/>
       <use xlink:href="#ArialMT-30" transform="translate(55.615234 0.201563)"/>
       <use xlink:href="#ArialMT-2d" transform="translate(112.972813 69.895313)scale(0.7)"/>
       <use xlink:href="#ArialMT-34" transform="translate(136.283359 69.895313)scale(0.7)"/>
      </g>
     </g>
    </g>
    <g id="xtick_3">
     <g id="line2d_3">
      <g>
       <use xlink:href="#m8729cf5b46" x="275.756115" y="343.418906" style="stroke: #000000; stroke-width: 0.8"/>
      </g>
     </g>
     <g id="text_3">
      <!-- $\mathdefault{10^{-2}}$ -->
      <g transform="translate(266.706115 360.731406)scale(0.1 -0.1)">
       <defs>
        <path id="ArialMT-32" d="M 3222 541 
L 3222 0 
L 194 0 
Q 188 203 259 391 
Q 375 700 629 1000 
Q 884 1300 1366 1694 
Q 2113 2306 2375 2664 
Q 2638 3022 2638 3341 
Q 2638 3675 2398 3904 
Q 2159 4134 1775 4134 
Q 1369 4134 1125 3890 
Q 881 3647 878 3216 
L 300 3275 
Q 359 3922 746 4261 
Q 1134 4600 1788 4600 
Q 2447 4600 2831 4234 
Q 3216 3869 3216 3328 
Q 3216 3053 3103 2787 
Q 2991 2522 2730 2228 
Q 2469 1934 1863 1422 
Q 1356 997 1212 845 
Q 1069 694 975 541 
L 3222 541 
z
" transform="scale(0.015625)"/>
       </defs>
       <use xlink:href="#ArialMT-31" transform="translate(0 0.99375)"/>
       <use xlink:href="#ArialMT-30" transform="translate(55.615234 0.99375)"/>
       <use xlink:href="#ArialMT-2d" transform="translate(112.972813 70.6875)scale(0.7)"/>
       <use xlink:href="#ArialMT-32" transform="translate(136.283359 70.6875)scale(0.7)"/>
      </g>
     </g>
    </g>
    <g id="xtick_4">
     <g id="line2d_4">
      <g>
       <use xlink:href="#m8729cf5b46" x="355.263726" y="343.418906" style="stroke: #000000; stroke-width: 0.8"/>
      </g>
     </g>
     <g id="text_4">
      <!-- $\mathdefault{10^{0}}$ -->
      <g transform="translate(347.413726 360.731406)scale(0.1 -0.1)">
       <use xlink:href="#ArialMT-31" transform="translate(0 0.99375)"/>
       <use xlink:href="#ArialMT-30" transform="translate(55.615234 0.99375)"/>
       <use xlink:href="#ArialMT-30" transform="translate(112.972813 70.6875)scale(0.7)"/>
      </g>
     </g>
    </g>
    <g id="xtick_5">
     <g id="line2d_5">
      <g>
       <use xlink:href="#m8729cf5b46" x="434.771336" y="343.418906" style="stroke: #000000; stroke-width: 0.8"/>
      </g>
     </g>
     <g id="text_5">
      <!-- $\mathdefault{10^{2}}$ -->
      <g transform="translate(426.921336 360.731406)scale(0.1 -0.1)">
       <use xlink:href="#ArialMT-31" transform="translate(0 0.99375)"/>
       <use xlink:href="#ArialMT-30" transform="translate(55.615234 0.99375)"/>
       <use xlink:href="#ArialMT-32" transform="translate(112.972813 70.6875)scale(0.7)"/>
      </g>
     </g>
    </g>
    <g id="text_6">
     <!-- Salinity (wt.% NaCl) -->
     <g transform="translate(198.183324 373.998594)scale(0.1 -0.1)">
      <defs>
       <path id="ArialMT-53" d="M 288 1472 
L 859 1522 
Q 900 1178 1048 958 
Q 1197 738 1509 602 
Q 1822 466 2213 466 
Q 2559 466 2825 569 
Q 3091 672 3220 851 
Q 3350 1031 3350 1244 
Q 3350 1459 3225 1620 
Q 3100 1781 2813 1891 
Q 2628 1963 1997 2114 
Q 1366 2266 1113 2400 
Q 784 2572 623 2826 
Q 463 3081 463 3397 
Q 463 3744 659 4045 
Q 856 4347 1234 4503 
Q 1613 4659 2075 4659 
Q 2584 4659 2973 4495 
Q 3363 4331 3572 4012 
Q 3781 3694 3797 3291 
L 3216 3247 
Q 3169 3681 2898 3903 
Q 2628 4125 2100 4125 
Q 1550 4125 1298 3923 
Q 1047 3722 1047 3438 
Q 1047 3191 1225 3031 
Q 1400 2872 2139 2705 
Q 2878 2538 3153 2413 
Q 3553 2228 3743 1945 
Q 3934 1663 3934 1294 
Q 3934 928 3725 604 
Q 3516 281 3123 101 
Q 2731 -78 2241 -78 
Q 1619 -78 1198 103 
Q 778 284 539 648 
Q 300 1013 288 1472 
z
" transform="scale(0.015625)"/>
       <path id="ArialMT-61" d="M 2588 409 
Q 2275 144 1986 34 
Q 1697 -75 1366 -75 
Q 819 -75 525 192 
Q 231 459 231 875 
Q 231 1119 342 1320 
Q 453 1522 633 1644 
Q 813 1766 1038 1828 
Q 1203 1872 1538 1913 
Q 2219 1994 2541 2106 
Q 2544 2222 2544 2253 
Q 2544 2597 2384 2738 
Q 2169 2928 1744 2928 
Q 1347 2928 1158 2789 
Q 969 2650 878 2297 
L 328 2372 
Q 403 2725 575 2942 
Q 747 3159 1072 3276 
Q 1397 3394 1825 3394 
Q 2250 3394 2515 3294 
Q 2781 3194 2906 3042 
Q 3031 2891 3081 2659 
Q 3109 2516 3109 2141 
L 3109 1391 
Q 3109 606 3145 398 
Q 3181 191 3288 0 
L 2700 0 
Q 2613 175 2588 409 
z
M 2541 1666 
Q 2234 1541 1622 1453 
Q 1275 1403 1131 1340 
Q 988 1278 909 1158 
Q 831 1038 831 891 
Q 831 666 1001 516 
Q 1172 366 1500 366 
Q 1825 366 2078 508 
Q 2331 650 2450 897 
Q 2541 1088 2541 1459 
L 2541 1666 
z
" transform="scale(0.015625)"/>
       <path id="ArialMT-6c" d="M 409 0 
L 409 4581 
L 972 4581 
L 972 0 
L 409 0 
z
" transform="scale(0.015625)"/>
       <path id="ArialMT-69" d="M 425 3934 
L 425 4581 
L 988 4581 
L 988 3934 
L 425 3934 
z
M 425 0 
L 425 3319 
L 988 3319 
L 988 0 
L 425 0 
z
" transform="scale(0.015625)"/>
       <path id="ArialMT-6e" d="M 422 0 
L 422 3319 
L 928 3319 
L 928 2847 
Q 1294 3394 1984 3394 
Q 2284 3394 2536 3286 
Q 2788 3178 2913 3003 
Q 3038 2828 3088 2588 
Q 3119 2431 3119 2041 
L 3119 0 
L 2556 0 
L 2556 2019 
Q 2556 2363 2490 2533 
Q 2425 2703 2258 2804 
Q 2091 2906 1866 2906 
Q 1506 2906 1245 2678 
Q 984 2450 984 1813 
L 984 0 
L 422 0 
z
" transform="scale(0.015625)"/>
       <path id="ArialMT-74" d="M 1650 503 
L 1731 6 
Q 1494 -44 1306 -44 
Q 1000 -44 831 53 
Q 663 150 594 308 
Q 525 466 525 972 
L 525 2881 
L 113 2881 
L 113 3319 
L 525 3319 
L 525 4141 
L 1084 4478 
L 1084 3319 
L 1650 3319 
L 1650 2881 
L 1084 2881 
L 1084 941 
Q 1084 700 1114 631 
Q 1144 563 1211 522 
Q 1278 481 1403 481 
Q 1497 481 1650 503 
z
" transform="scale(0.015625)"/>
       <path id="ArialMT-79" d="M 397 -1278 
L 334 -750 
Q 519 -800 656 -800 
Q 844 -800 956 -737 
Q 1069 -675 1141 -563 
Q 1194 -478 1313 -144 
Q 1328 -97 1363 -6 
L 103 3319 
L 709 3319 
L 1400 1397 
Q 1534 1031 1641 628 
Q 1738 1016 1872 1384 
L 2581 3319 
L 3144 3319 
L 1881 -56 
Q 1678 -603 1566 -809 
Q 1416 -1088 1222 -1217 
Q 1028 -1347 759 -1347 
Q 597 -1347 397 -1278 
z
" transform="scale(0.015625)"/>
       <path id="ArialMT-20" transform="scale(0.015625)"/>
       <path id="ArialMT-28" d="M 1497 -1347 
Q 1031 -759 709 28 
Q 388 816 388 1659 
Q 388 2403 628 3084 
Q 909 3875 1497 4659 
L 1900 4659 
Q 1522 4009 1400 3731 
Q 1209 3300 1100 2831 
Q 966 2247 966 1656 
Q 966 153 1900 -1347 
L 1497 -1347 
z
" transform="scale(0.015625)"/>
       <path id="ArialMT-77" d="M 1034 0 
L 19 3319 
L 600 3319 
L 1128 1403 
L 1325 691 
Q 1338 744 1497 1375 
L 2025 3319 
L 2603 3319 
L 3100 1394 
L 3266 759 
L 3456 1400 
L 4025 3319 
L 4572 3319 
L 3534 0 
L 2950 0 
L 2422 1988 
L 2294 2553 
L 1622 0 
L 1034 0 
z
" transform="scale(0.015625)"/>
       <path id="ArialMT-2e" d="M 581 0 
L 581 641 
L 1222 641 
L 1222 0 
L 581 0 
z
" transform="scale(0.015625)"/>
       <path id="ArialMT-25" d="M 372 3481 
Q 372 3972 619 4315 
Q 866 4659 1334 4659 
Q 1766 4659 2048 4351 
Q 2331 4044 2331 3447 
Q 2331 2866 2045 2552 
Q 1759 2238 1341 2238 
Q 925 2238 648 2547 
Q 372 2856 372 3481 
z
M 1350 4272 
Q 1141 4272 1002 4090 
Q 863 3909 863 3425 
Q 863 2984 1003 2804 
Q 1144 2625 1350 2625 
Q 1563 2625 1702 2806 
Q 1841 2988 1841 3469 
Q 1841 3913 1700 4092 
Q 1559 4272 1350 4272 
z
M 1353 -169 
L 3859 4659 
L 4316 4659 
L 1819 -169 
L 1353 -169 
z
M 3334 1075 
Q 3334 1569 3581 1911 
Q 3828 2253 4300 2253 
Q 4731 2253 5014 1945 
Q 5297 1638 5297 1041 
Q 5297 459 5011 145 
Q 4725 -169 4303 -169 
Q 3888 -169 3611 142 
Q 3334 453 3334 1075 
z
M 4316 1866 
Q 4103 1866 3964 1684 
Q 3825 1503 3825 1019 
Q 3825 581 3965 400 
Q 4106 219 4313 219 
Q 4528 219 4667 400 
Q 4806 581 4806 1063 
Q 4806 1506 4665 1686 
Q 4525 1866 4316 1866 
z
" transform="scale(0.015625)"/>
       <path id="ArialMT-4e" d="M 488 0 
L 488 4581 
L 1109 4581 
L 3516 984 
L 3516 4581 
L 4097 4581 
L 4097 0 
L 3475 0 
L 1069 3600 
L 1069 0 
L 488 0 
z
" transform="scale(0.015625)"/>
       <path id="ArialMT-43" d="M 3763 1606 
L 4369 1453 
Q 4178 706 3683 314 
Q 3188 -78 2472 -78 
Q 1731 -78 1267 223 
Q 803 525 561 1097 
Q 319 1669 319 2325 
Q 319 3041 592 3573 
Q 866 4106 1370 4382 
Q 1875 4659 2481 4659 
Q 3169 4659 3637 4309 
Q 4106 3959 4291 3325 
L 3694 3184 
Q 3534 3684 3231 3912 
Q 2928 4141 2469 4141 
Q 1941 4141 1586 3887 
Q 1231 3634 1087 3207 
Q 944 2781 944 2328 
Q 944 1744 1114 1308 
Q 1284 872 1643 656 
Q 2003 441 2422 441 
Q 2931 441 3284 734 
Q 3638 1028 3763 1606 
z
" transform="scale(0.015625)"/>
       <path id="ArialMT-29" d="M 791 -1347 
L 388 -1347 
Q 1322 153 1322 1656 
Q 1322 2244 1188 2822 
Q 1081 3291 891 3722 
Q 769 4003 388 4659 
L 791 4659 
Q 1378 3875 1659 3084 
Q 1900 2403 1900 1659 
Q 1900 816 1576 28 
Q 1253 -759 791 -1347 
z
" transform="scale(0.015625)"/>
      </defs>
      <use xlink:href="#ArialMT-53"/>
      <use xlink:href="#ArialMT-61" x="66.699219"/>
      <use xlink:href="#ArialMT-6c" x="122.314453"/>
      <use xlink:href="#ArialMT-69" x="144.53125"/>
      <use xlink:href="#ArialMT-6e" x="166.748047"/>
      <use xlink:href="#ArialMT-69" x="222.363281"/>
      <use xlink:href="#ArialMT-74" x="244.580078"/>
      <use xlink:href="#ArialMT-79" x="272.363281"/>
      <use xlink:href="#ArialMT-20" x="322.363281"/>
      <use xlink:href="#ArialMT-28" x="350.146484"/>
      <use xlink:href="#ArialMT-77" x="383.447266"/>
      <use xlink:href="#ArialMT-74" x="455.664062"/>
      <use xlink:href="#ArialMT-2e" x="483.447266"/>
      <use xlink:href="#ArialMT-25" x="511.230469"/>
      <use xlink:href="#ArialMT-20" x="600.146484"/>
      <use xlink:href="#ArialMT-4e" x="627.929688"/>
      <use xlink:href="#ArialMT-61" x="700.146484"/>
      <use xlink:href="#ArialMT-43" x="755.761719"/>
      <use xlink:href="#ArialMT-6c" x="827.978516"/>
      <use xlink:href="#ArialMT-29" x="850.195312"/>
     </g>
    </g>
   </g>
   <g id="matplotlib.axis_2">
    <g id="ytick_1">
     <g id="line2d_6">
      <defs>
       <path id="m564e866990" d="M 0 0 
L -3.5 0 
" style="stroke: #000000; stroke-width: 0.8"/>
      </defs>
      <g>
       <use xlink:href="#m564e866990" x="49.94375" y="343.418906" style="stroke: #000000; stroke-width: 0.8"/>
      </g>
     </g>
     <g id="text_7">
      <!-- 0 -->
      <g transform="translate(37.382813 346.997812)scale(0.1 -0.1)">
       <use xlink:href="#ArialMT-30"/>
      </g>
     </g>
    </g>
    <g id="ytick_2">
     <g id="line2d_7">
      <g>
       <use xlink:href="#m564e866990" x="49.94375" y="276.890906" style="stroke: #000000; stroke-width: 0.8"/>
      </g>
     </g>
     <g id="text_8">
      <!-- 200 -->
      <g transform="translate(26.260938 280.469812)scale(0.1 -0.1)">
       <use xlink:href="#ArialMT-32"/>
       <use xlink:href="#ArialMT-30" x="55.615234"/>
       <use xlink:href="#ArialMT-30" x="111.230469"/>
      </g>
     </g>
    </g>
    <g id="ytick_3">
     <g id="line2d_8">
      <g>
       <use xlink:href="#m564e866990" x="49.94375" y="210.362906" style="stroke: #000000; stroke-width: 0.8"/>
      </g>
     </g>
     <g id="text_9">
      <!-- 400 -->
      <g transform="translate(26.260938 213.941812)scale(0.1 -0.1)">
       <use xlink:href="#ArialMT-34"/>
       <use xlink:href="#ArialMT-30" x="55.615234"/>
       <use xlink:href="#ArialMT-30" x="111.230469"/>
      </g>
     </g>
    </g>
    <g id="ytick_4">
     <g id="line2d_9">
      <g>
       <use xlink:href="#m564e866990" x="49.94375" y="143.834906" style="stroke: #000000; stroke-width: 0.8"/>
      </g>
     </g>
     <g id="text_10">
      <!-- 600 -->
      <g transform="translate(26.260938 147.413812)scale(0.1 -0.1)">
       <use xlink:href="#ArialMT-36"/>
       <use xlink:href="#ArialMT-30" x="55.615234"/>
       <use xlink:href="#ArialMT-30" x="111.230469"/>
      </g>
     </g>
    </g>
    <g id="ytick_5">
     <g id="line2d_10">
      <g>
       <use xlink:href="#m564e866990" x="49.94375" y="77.306906" style="stroke: #000000; stroke-width: 0.8"/>
      </g>
     </g>
     <g id="text_11">
      <!-- 800 -->
      <g transform="translate(26.260938 80.885812)scale(0.1 -0.1)">
       <defs>
        <path id="ArialMT-38" d="M 1131 2484 
Q 781 2613 612 2850 
Q 444 3088 444 3419 
Q 444 3919 803 4259 
Q 1163 4600 1759 4600 
Q 2359 4600 2725 4251 
Q 3091 3903 3091 3403 
Q 3091 3084 2923 2848 
Q 2756 2613 2416 2484 
Q 2838 2347 3058 2040 
Q 3278 1734 3278 1309 
Q 3278 722 2862 322 
Q 2447 -78 1769 -78 
Q 1091 -78 675 323 
Q 259 725 259 1325 
Q 259 1772 486 2073 
Q 713 2375 1131 2484 
z
M 1019 3438 
Q 1019 3113 1228 2906 
Q 1438 2700 1772 2700 
Q 2097 2700 2305 2904 
Q 2513 3109 2513 3406 
Q 2513 3716 2298 3927 
Q 2084 4138 1766 4138 
Q 1444 4138 1231 3931 
Q 1019 3725 1019 3438 
z
M 838 1322 
Q 838 1081 952 856 
Q 1066 631 1291 507 
Q 1516 384 1775 384 
Q 2178 384 2440 643 
Q 2703 903 2703 1303 
Q 2703 1709 2433 1975 
Q 2163 2241 1756 2241 
Q 1359 2241 1098 1978 
Q 838 1716 838 1322 
z
" transform="scale(0.015625)"/>
       </defs>
       <use xlink:href="#ArialMT-38"/>
       <use xlink:href="#ArialMT-30" x="55.615234"/>
       <use xlink:href="#ArialMT-30" x="111.230469"/>
      </g>
     </g>
    </g>
    <g id="ytick_6">
     <g id="line2d_11">
      <g>
       <use xlink:href="#m564e866990" x="49.94375" y="10.778906" style="stroke: #000000; stroke-width: 0.8"/>
      </g>
     </g>
     <g id="text_12">
      <!-- 1000 -->
      <g transform="translate(20.7 14.357812)scale(0.1 -0.1)">
       <use xlink:href="#ArialMT-31"/>
       <use xlink:href="#ArialMT-30" x="55.615234"/>
       <use xlink:href="#ArialMT-30" x="111.230469"/>
       <use xlink:href="#ArialMT-30" x="166.845703"/>
      </g>
     </g>
    </g>
    <g id="text_13">
     <!-- Temperature ($^{\circ}$C) -->
     <g transform="translate(14.5 216.348906)rotate(-90)scale(0.1 -0.1)">
      <defs>
       <path id="ArialMT-54" d="M 1659 0 
L 1659 4041 
L 150 4041 
L 150 4581 
L 3781 4581 
L 3781 4041 
L 2266 4041 
L 2266 0 
L 1659 0 
z
" transform="scale(0.015625)"/>
       <path id="ArialMT-65" d="M 2694 1069 
L 3275 997 
Q 3138 488 2766 206 
Q 2394 -75 1816 -75 
Q 1088 -75 661 373 
Q 234 822 234 1631 
Q 234 2469 665 2931 
Q 1097 3394 1784 3394 
Q 2450 3394 2872 2941 
Q 3294 2488 3294 1666 
Q 3294 1616 3291 1516 
L 816 1516 
Q 847 969 1125 678 
Q 1403 388 1819 388 
Q 2128 388 2347 550 
Q 2566 713 2694 1069 
z
M 847 1978 
L 2700 1978 
Q 2663 2397 2488 2606 
Q 2219 2931 1791 2931 
Q 1403 2931 1139 2672 
Q 875 2413 847 1978 
z
" transform="scale(0.015625)"/>
       <path id="ArialMT-6d" d="M 422 0 
L 422 3319 
L 925 3319 
L 925 2853 
Q 1081 3097 1340 3245 
Q 1600 3394 1931 3394 
Q 2300 3394 2536 3241 
Q 2772 3088 2869 2813 
Q 3263 3394 3894 3394 
Q 4388 3394 4653 3120 
Q 4919 2847 4919 2278 
L 4919 0 
L 4359 0 
L 4359 2091 
Q 4359 2428 4304 2576 
Q 4250 2725 4106 2815 
Q 3963 2906 3769 2906 
Q 3419 2906 3187 2673 
Q 2956 2441 2956 1928 
L 2956 0 
L 2394 0 
L 2394 2156 
Q 2394 2531 2256 2718 
Q 2119 2906 1806 2906 
Q 1569 2906 1367 2781 
Q 1166 2656 1075 2415 
Q 984 2175 984 1722 
L 984 0 
L 422 0 
z
" transform="scale(0.015625)"/>
       <path id="ArialMT-70" d="M 422 -1272 
L 422 3319 
L 934 3319 
L 934 2888 
Q 1116 3141 1344 3267 
Q 1572 3394 1897 3394 
Q 2322 3394 2647 3175 
Q 2972 2956 3137 2557 
Q 3303 2159 3303 1684 
Q 3303 1175 3120 767 
Q 2938 359 2589 142 
Q 2241 -75 1856 -75 
Q 1575 -75 1351 44 
Q 1128 163 984 344 
L 984 -1272 
L 422 -1272 
z
M 931 1641 
Q 931 1000 1190 694 
Q 1450 388 1819 388 
Q 2194 388 2461 705 
Q 2728 1022 2728 1688 
Q 2728 2322 2467 2637 
Q 2206 2953 1844 2953 
Q 1484 2953 1207 2617 
Q 931 2281 931 1641 
z
" transform="scale(0.015625)"/>
       <path id="ArialMT-72" d="M 416 0 
L 416 3319 
L 922 3319 
L 922 2816 
Q 1116 3169 1280 3281 
Q 1444 3394 1641 3394 
Q 1925 3394 2219 3213 
L 2025 2691 
Q 1819 2813 1613 2813 
Q 1428 2813 1281 2702 
Q 1134 2591 1072 2394 
Q 978 2094 978 1738 
L 978 0 
L 416 0 
z
" transform="scale(0.015625)"/>
       <path id="ArialMT-75" d="M 2597 0 
L 2597 488 
Q 2209 -75 1544 -75 
Q 1250 -75 995 37 
Q 741 150 617 320 
Q 494 491 444 738 
Q 409 903 409 1263 
L 409 3319 
L 972 3319 
L 972 1478 
Q 972 1038 1006 884 
Q 1059 663 1231 536 
Q 1403 409 1656 409 
Q 1909 409 2131 539 
Q 2353 669 2445 892 
Q 2538 1116 2538 1541 
L 2538 3319 
L 3100 3319 
L 3100 0 
L 2597 0 
z
" transform="scale(0.015625)"/>
       <path id="Cmsy10-b1" d="M 1600 359 
Q 1269 359 983 526 
Q 697 694 528 984 
Q 359 1275 359 1600 
Q 359 1925 528 2215 
Q 697 2506 983 2673 
Q 1269 2841 1600 2841 
Q 1931 2841 2215 2672 
Q 2500 2503 2667 2214 
Q 2834 1925 2834 1600 
Q 2834 1275 2667 986 
Q 2500 697 2215 528 
Q 1931 359 1600 359 
z
M 1600 616 
Q 2000 616 2289 908 
Q 2578 1200 2578 1600 
Q 2578 1856 2445 2086 
Q 2313 2316 2088 2450 
Q 1863 2584 1600 2584 
Q 1403 2584 1225 2507 
Q 1047 2431 906 2290 
Q 766 2150 691 1973 
Q 616 1797 616 1600 
Q 616 1200 905 908 
Q 1194 616 1600 616 
z
" transform="scale(0.015625)"/>
      </defs>
      <use xlink:href="#ArialMT-54" transform="translate(0 0.203125)"/>
      <use xlink:href="#ArialMT-65" transform="translate(61.083984 0.203125)"/>
      <use xlink:href="#ArialMT-6d" transform="translate(116.699219 0.203125)"/>
      <use xlink:href="#ArialMT-70" transform="translate(200 0.203125)"/>
      <use xlink:href="#ArialMT-65" transform="translate(255.615234 0.203125)"/>
      <use xlink:href="#ArialMT-72" transform="translate(311.230469 0.203125)"/>
      <use xlink:href="#ArialMT-61" transform="translate(344.53125 0.203125)"/>
      <use xlink:href="#ArialMT-74" transform="translate(400.146484 0.203125)"/>
      <use xlink:href="#ArialMT-75" transform="translate(427.929688 0.203125)"/>
      <use xlink:href="#ArialMT-72" transform="translate(483.544922 0.203125)"/>
      <use xlink:href="#ArialMT-65" transform="translate(516.845703 0.203125)"/>
      <use xlink:href="#ArialMT-20" transform="translate(572.460938 0.203125)"/>
      <use xlink:href="#ArialMT-28" transform="translate(600.244141 0.203125)"/>
      <use xlink:href="#Cmsy10-b1" transform="translate(638.009063 38.467188)scale(0.7)"/>
      <use xlink:href="#ArialMT-43" transform="translate(679.386406 0.203125)"/>
      <use xlink:href="#ArialMT-29" transform="translate(751.603203 0.203125)"/>
     </g>
    </g>
   </g>
   <g id="line2d_12">
    <defs>
     <path id="m972a9b2ced" d="M 0 1.5 
C 0.397805 1.5 0.77937 1.341951 1.06066 1.06066 
C 1.341951 0.77937 1.5 0.397805 1.5 0 
C 1.5 -0.397805 1.341951 -0.77937 1.06066 -1.06066 
C 0.77937 -1.341951 0.397805 -1.5 0 -1.5 
C -0.397805 -1.5 -0.77937 -1.341951 -1.06066 -1.06066 
C -1.341951 -0.77937 -1.5 -0.397805 -1.5 0 
C -1.5 0.397805 -1.341951 0.77937 -1.06066 1.06066 
C -0.77937 1.341951 -0.397805 1.5 0 1.5 
z
" style="stroke: #1f77b4"/>
    </defs>
    <g clip-path="url(#p61a5ef0482)">
     <use xlink:href="#m972a9b2ced" x="-1" y="283.476386" style="fill: #1f77b4; stroke: #1f77b4"/>
     <use xlink:href="#m972a9b2ced" x="356.237162" y="283.475475" style="fill: #1f77b4; stroke: #1f77b4"/>
     <use xlink:href="#m972a9b2ced" x="368.405718" y="283.374115" style="fill: #1f77b4; stroke: #1f77b4"/>
     <use xlink:href="#m972a9b2ced" x="375.296447" y="283.272755" style="fill: #1f77b4; stroke: #1f77b4"/>
     <use xlink:href="#m972a9b2ced" x="380.080684" y="283.171394" style="fill: #1f77b4; stroke: #1f77b4"/>
     <use xlink:href="#m972a9b2ced" x="383.724162" y="283.070034" style="fill: #1f77b4; stroke: #1f77b4"/>
     <use xlink:href="#m972a9b2ced" x="386.651611" y="282.968674" style="fill: #1f77b4; stroke: #1f77b4"/>
     <use xlink:href="#m972a9b2ced" x="389.087885" y="282.867313" style="fill: #1f77b4; stroke: #1f77b4"/>
     <use xlink:href="#m972a9b2ced" x="391.166511" y="282.765953" style="fill: #1f77b4; stroke: #1f77b4"/>
     <use xlink:href="#m972a9b2ced" x="392.973281" y="282.664593" style="fill: #1f77b4; stroke: #1f77b4"/>
     <use xlink:href="#m972a9b2ced" x="394.566589" y="282.563233" style="fill: #1f77b4; stroke: #1f77b4"/>
     <use xlink:href="#m972a9b2ced" x="395.987973" y="282.461872" style="fill: #1f77b4; stroke: #1f77b4"/>
     <use xlink:href="#m972a9b2ced" x="397.268031" y="282.360512" style="fill: #1f77b4; stroke: #1f77b4"/>
     <use xlink:href="#m972a9b2ced" x="398.429948" y="282.259152" style="fill: #1f77b4; stroke: #1f77b4"/>
     <use xlink:href="#m972a9b2ced" x="399.491708" y="282.157791" style="fill: #1f77b4; stroke: #1f77b4"/>
     <use xlink:href="#m972a9b2ced" x="400.467539" y="282.056431" style="fill: #1f77b4; stroke: #1f77b4"/>
     <use xlink:href="#m972a9b2ced" x="401.368889" y="281.955071" style="fill: #1f77b4; stroke: #1f77b4"/>
     <use xlink:href="#m972a9b2ced" x="402.205101" y="281.85371" style="fill: #1f77b4; stroke: #1f77b4"/>
     <use xlink:href="#m972a9b2ced" x="402.983902" y="281.75235" style="fill: #1f77b4; stroke: #1f77b4"/>
     <use xlink:href="#m972a9b2ced" x="403.711749" y="281.65099" style="fill: #1f77b4; stroke: #1f77b4"/>
     <use xlink:href="#m972a9b2ced" x="404.394094" y="281.549629" style="fill: #1f77b4; stroke: #1f77b4"/>
     <use xlink:href="#m972a9b2ced" x="405.035583" y="281.448269" style="fill: #1f77b4; stroke: #1f77b4"/>
     <use xlink:href="#m972a9b2ced" x="405.640201" y="281.346909" style="fill: #1f77b4; stroke: #1f77b4"/>
     <use xlink:href="#m972a9b2ced" x="406.211398" y="281.245548" style="fill: #1f77b4; stroke: #1f77b4"/>
     <use xlink:href="#m972a9b2ced" x="406.752172" y="281.144188" style="fill: #1f77b4; stroke: #1f77b4"/>
     <use xlink:href="#m972a9b2ced" x="407.265152" y="281.042828" style="fill: #1f77b4; stroke: #1f77b4"/>
     <use xlink:href="#m972a9b2ced" x="407.75265" y="280.941467" style="fill: #1f77b4; stroke: #1f77b4"/>
     <use xlink:href="#m972a9b2ced" x="408.216711" y="280.840107" style="fill: #1f77b4; stroke: #1f77b4"/>
     <use xlink:href="#m972a9b2ced" x="408.659153" y="280.738747" style="fill: #1f77b4; stroke: #1f77b4"/>
     <use xlink:href="#m972a9b2ced" x="409.0816" y="280.637386" style="fill: #1f77b4; stroke: #1f77b4"/>
     <use xlink:href="#m972a9b2ced" x="409.485504" y="280.536026" style="fill: #1f77b4; stroke: #1f77b4"/>
     <use xlink:href="#m972a9b2ced" x="409.872174" y="280.434666" style="fill: #1f77b4; stroke: #1f77b4"/>
     <use xlink:href="#m972a9b2ced" x="410.24279" y="280.333305" style="fill: #1f77b4; stroke: #1f77b4"/>
     <use xlink:href="#m972a9b2ced" x="410.598419" y="280.231945" style="fill: #1f77b4; stroke: #1f77b4"/>
     <use xlink:href="#m972a9b2ced" x="410.940031" y="280.130585" style="fill: #1f77b4; stroke: #1f77b4"/>
     <use xlink:href="#m972a9b2ced" x="411.26851" y="280.029224" style="fill: #1f77b4; stroke: #1f77b4"/>
     <use xlink:href="#m972a9b2ced" x="411.584662" y="279.927864" style="fill: #1f77b4; stroke: #1f77b4"/>
     <use xlink:href="#m972a9b2ced" x="411.889225" y="279.826504" style="fill: #1f77b4; stroke: #1f77b4"/>
     <use xlink:href="#m972a9b2ced" x="412.182875" y="279.725143" style="fill: #1f77b4; stroke: #1f77b4"/>
     <use xlink:href="#m972a9b2ced" x="412.466236" y="279.623783" style="fill: #1f77b4; stroke: #1f77b4"/>
     <use xlink:href="#m972a9b2ced" x="412.73988" y="279.522423" style="fill: #1f77b4; stroke: #1f77b4"/>
     <use xlink:href="#m972a9b2ced" x="413.004338" y="279.421062" style="fill: #1f77b4; stroke: #1f77b4"/>
     <use xlink:href="#m972a9b2ced" x="413.260099" y="279.319702" style="fill: #1f77b4; stroke: #1f77b4"/>
     <use xlink:href="#m972a9b2ced" x="413.507616" y="279.218342" style="fill: #1f77b4; stroke: #1f77b4"/>
     <use xlink:href="#m972a9b2ced" x="413.747312" y="279.116981" style="fill: #1f77b4; stroke: #1f77b4"/>
     <use xlink:href="#m972a9b2ced" x="413.979578" y="279.015621" style="fill: #1f77b4; stroke: #1f77b4"/>
     <use xlink:href="#m972a9b2ced" x="414.204779" y="278.914261" style="fill: #1f77b4; stroke: #1f77b4"/>
     <use xlink:href="#m972a9b2ced" x="414.423255" y="278.8129" style="fill: #1f77b4; stroke: #1f77b4"/>
     <use xlink:href="#m972a9b2ced" x="414.635324" y="278.71154" style="fill: #1f77b4; stroke: #1f77b4"/>
     <use xlink:href="#m972a9b2ced" x="414.841283" y="278.61018" style="fill: #1f77b4; stroke: #1f77b4"/>
    </g>
   </g>
   <g id="line2d_13">
    <path d="M -1 283.475651 
L 67.319823 283.475475 
L 79.226672 283.374115 
L 85.859742 283.272755 
L 90.389916 283.171394 
L 93.782496 283.070034 
L 96.461794 282.968674 
L 98.652273 282.867313 
L 100.48708 282.765953 
L 102.051647 282.664593 
L 103.404024 282.563233 
L 104.585424 282.461872 
L 105.62613 282.360512 
L 106.549033 282.259152 
L 107.371834 282.157791 
L 108.108493 282.056431 
L 108.770203 281.955071 
L 109.366068 281.85371 
L 109.903584 281.75235 
L 110.388993 281.65099 
L 110.827542 281.549629 
L 111.223684 281.448269 
L 111.581222 281.346909 
L 111.903434 281.245548 
L 112.193158 281.144188 
L 112.452869 281.042828 
L 112.684739 280.941467 
L 112.890679 280.840107 
L 113.072385 280.738747 
L 113.231362 280.637386 
L 113.368958 280.536026 
L 113.48638 280.434666 
L 113.584716 280.333305 
L 113.66495 280.231945 
L 113.727973 280.130585 
L 113.774598 280.029224 
L 113.805566 279.927864 
L 113.821558 279.826504 
L 113.823197 279.725143 
L 113.811059 279.623783 
L 113.785677 279.522423 
L 113.747545 279.421062 
L 113.697121 279.319702 
L 113.634833 279.218342 
L 113.561082 279.116981 
L 113.476242 279.015621 
L 113.380666 278.914261 
L 113.274685 278.8129 
L 113.158613 278.71154 
L 113.032746 278.61018 
" clip-path="url(#p61a5ef0482)" style="fill: none; stroke: #ff7f0e; stroke-width: 1.5; stroke-linecap: square"/>
   </g>
   <g id="patch_3">
    <path d="M 49.94375 343.418906 
L 49.94375 10.778906 
" style="fill: none; stroke: #000000; stroke-width: 0.8; stroke-linejoin: miter; stroke-linecap: square"/>
   </g>
   <g id="patch_4">
    <path d="M 434.771336 343.418906 
L 434.771336 10.778906 
" style="fill: none; stroke: #000000; stroke-width: 0.8; stroke-linejoin: miter; stroke-linecap: square"/>
   </g>
   <g id="patch_5">
    <path d="M 49.94375 343.418906 
L 434.771336 343.418906 
" style="fill: none; stroke: #000000; stroke-width: 0.8; stroke-linejoin: miter; stroke-linecap: square"/>
   </g>
   <g id="patch_6">
    <path d="M 49.94375 10.778906 
L 434.771336 10.778906 
" style="fill: none; stroke: #000000; stroke-width: 0.8; stroke-linejoin: miter; stroke-linecap: square"/>
   </g>
   <g id="text_14">
    <!-- P = 10 bar -->
    <g transform="translate(380.831034 334.778606)scale(0.1 -0.1)">
     <defs>
      <path id="ArialMT-50" d="M 494 0 
L 494 4581 
L 2222 4581 
Q 2678 4581 2919 4538 
Q 3256 4481 3484 4323 
Q 3713 4166 3852 3881 
Q 3991 3597 3991 3256 
Q 3991 2672 3619 2267 
Q 3247 1863 2275 1863 
L 1100 1863 
L 1100 0 
L 494 0 
z
M 1100 2403 
L 2284 2403 
Q 2872 2403 3119 2622 
Q 3366 2841 3366 3238 
Q 3366 3525 3220 3729 
Q 3075 3934 2838 4000 
Q 2684 4041 2272 4041 
L 1100 4041 
L 1100 2403 
z
" transform="scale(0.015625)"/>
      <path id="ArialMT-3d" d="M 3381 2694 
L 356 2694 
L 356 3219 
L 3381 3219 
L 3381 2694 
z
M 3381 1303 
L 356 1303 
L 356 1828 
L 3381 1828 
L 3381 1303 
z
" transform="scale(0.015625)"/>
      <path id="ArialMT-62" d="M 941 0 
L 419 0 
L 419 4581 
L 981 4581 
L 981 2947 
Q 1338 3394 1891 3394 
Q 2197 3394 2470 3270 
Q 2744 3147 2920 2923 
Q 3097 2700 3197 2384 
Q 3297 2069 3297 1709 
Q 3297 856 2875 390 
Q 2453 -75 1863 -75 
Q 1275 -75 941 416 
L 941 0 
z
M 934 1684 
Q 934 1088 1097 822 
Q 1363 388 1816 388 
Q 2184 388 2453 708 
Q 2722 1028 2722 1663 
Q 2722 2313 2464 2622 
Q 2206 2931 1841 2931 
Q 1472 2931 1203 2611 
Q 934 2291 934 1684 
z
" transform="scale(0.015625)"/>
     </defs>
     <use xlink:href="#ArialMT-50"/>
     <use xlink:href="#ArialMT-20" x="64.949219"/>
     <use xlink:href="#ArialMT-3d" x="92.732422"/>
     <use xlink:href="#ArialMT-20" x="151.130859"/>
     <use xlink:href="#ArialMT-31" x="178.914062"/>
     <use xlink:href="#ArialMT-30" x="234.529297"/>
     <use xlink:href="#ArialMT-20" x="290.144531"/>
     <use xlink:href="#ArialMT-62" x="317.927734"/>
     <use xlink:href="#ArialMT-61" x="373.542969"/>
     <use xlink:href="#ArialMT-72" x="429.158203"/>
    </g>
   </g>
  </g>
  <g id="axes_2">
   <g id="patch_7">
    <path d="M 446.316164 343.418906 
L 831.14375 343.418906 
L 831.14375 10.778906 
L 446.316164 10.778906 
z
" style="fill: #ffffff"/>
   </g>
   <g id="matplotlib.axis_3">
    <g id="xtick_6">
     <g id="line2d_14">
      <g>
       <use xlink:href="#m8729cf5b46" x="513.113308" y="343.418906" style="stroke: #000000; stroke-width: 0.8"/>
      </g>
     </g>
     <g id="text_15">
      <!-- $\mathdefault{10^{-6}}$ -->
      <g transform="translate(504.063308 360.731406)scale(0.1 -0.1)">
       <use xlink:href="#ArialMT-31" transform="translate(0 0.99375)"/>
       <use xlink:href="#ArialMT-30" transform="translate(55.615234 0.99375)"/>
       <use xlink:href="#ArialMT-2d" transform="translate(112.972813 70.6875)scale(0.7)"/>
       <use xlink:href="#ArialMT-36" transform="translate(136.283359 70.6875)scale(0.7)"/>
      </g>
     </g>
    </g>
    <g id="xtick_7">
     <g id="line2d_15">
      <g>
       <use xlink:href="#m8729cf5b46" x="592.620918" y="343.418906" style="stroke: #000000; stroke-width: 0.8"/>
      </g>
     </g>
     <g id="text_16">
      <!-- $\mathdefault{10^{-4}}$ -->
      <g transform="translate(583.570918 360.631406)scale(0.1 -0.1)">
       <use xlink:href="#ArialMT-31" transform="translate(0 0.201563)"/>
       <use xlink:href="#ArialMT-30" transform="translate(55.615234 0.201563)"/>
       <use xlink:href="#ArialMT-2d" transform="translate(112.972813 69.895313)scale(0.7)"/>
       <use xlink:href="#ArialMT-34" transform="translate(136.283359 69.895313)scale(0.7)"/>
      </g>
     </g>
    </g>
    <g id="xtick_8">
     <g id="line2d_16">
      <g>
       <use xlink:href="#m8729cf5b46" x="672.128529" y="343.418906" style="stroke: #000000; stroke-width: 0.8"/>
      </g>
     </g>
     <g id="text_17">
      <!-- $\mathdefault{10^{-2}}$ -->
      <g transform="translate(663.078529 360.731406)scale(0.1 -0.1)">
       <use xlink:href="#ArialMT-31" transform="translate(0 0.99375)"/>
       <use xlink:href="#ArialMT-30" transform="translate(55.615234 0.99375)"/>
       <use xlink:href="#ArialMT-2d" transform="translate(112.972813 70.6875)scale(0.7)"/>
       <use xlink:href="#ArialMT-32" transform="translate(136.283359 70.6875)scale(0.7)"/>
      </g>
     </g>
    </g>
    <g id="xtick_9">
     <g id="line2d_17">
      <g>
       <use xlink:href="#m8729cf5b46" x="751.636139" y="343.418906" style="stroke: #000000; stroke-width: 0.8"/>
      </g>
     </g>
     <g id="text_18">
      <!-- $\mathdefault{10^{0}}$ -->
      <g transform="translate(743.786139 360.731406)scale(0.1 -0.1)">
       <use xlink:href="#ArialMT-31" transform="translate(0 0.99375)"/>
       <use xlink:href="#ArialMT-30" transform="translate(55.615234 0.99375)"/>
       <use xlink:href="#ArialMT-30" transform="translate(112.972813 70.6875)scale(0.7)"/>
      </g>
     </g>
    </g>
    <g id="xtick_10">
     <g id="line2d_18">
      <g>
       <use xlink:href="#m8729cf5b46" x="831.14375" y="343.418906" style="stroke: #000000; stroke-width: 0.8"/>
      </g>
     </g>
     <g id="text_19">
      <!-- $\mathdefault{10^{2}}$ -->
      <g transform="translate(823.29375 360.731406)scale(0.1 -0.1)">
       <use xlink:href="#ArialMT-31" transform="translate(0 0.99375)"/>
       <use xlink:href="#ArialMT-30" transform="translate(55.615234 0.99375)"/>
       <use xlink:href="#ArialMT-32" transform="translate(112.972813 70.6875)scale(0.7)"/>
      </g>
     </g>
    </g>
    <g id="text_20">
     <!-- Salinity (wt.% NaCl) -->
     <g transform="translate(594.555738 373.998594)scale(0.1 -0.1)">
      <use xlink:href="#ArialMT-53"/>
      <use xlink:href="#ArialMT-61" x="66.699219"/>
      <use xlink:href="#ArialMT-6c" x="122.314453"/>
      <use xlink:href="#ArialMT-69" x="144.53125"/>
      <use xlink:href="#ArialMT-6e" x="166.748047"/>
      <use xlink:href="#ArialMT-69" x="222.363281"/>
      <use xlink:href="#ArialMT-74" x="244.580078"/>
      <use xlink:href="#ArialMT-79" x="272.363281"/>
      <use xlink:href="#ArialMT-20" x="322.363281"/>
      <use xlink:href="#ArialMT-28" x="350.146484"/>
      <use xlink:href="#ArialMT-77" x="383.447266"/>
      <use xlink:href="#ArialMT-74" x="455.664062"/>
      <use xlink:href="#ArialMT-2e" x="483.447266"/>
      <use xlink:href="#ArialMT-25" x="511.230469"/>
      <use xlink:href="#ArialMT-20" x="600.146484"/>
      <use xlink:href="#ArialMT-4e" x="627.929688"/>
      <use xlink:href="#ArialMT-61" x="700.146484"/>
      <use xlink:href="#ArialMT-43" x="755.761719"/>
      <use xlink:href="#ArialMT-6c" x="827.978516"/>
      <use xlink:href="#ArialMT-29" x="850.195312"/>
     </g>
    </g>
   </g>
   <g id="matplotlib.axis_4">
    <g id="ytick_7">
     <g id="line2d_19">
      <defs>
       <path id="mf8cb4024bf" d="M 0 0 
L 3.5 0 
" style="stroke: #000000; stroke-width: 0.8"/>
      </defs>
      <g>
       <use xlink:href="#mf8cb4024bf" x="831.14375" y="343.418906" style="stroke: #000000; stroke-width: 0.8"/>
      </g>
     </g>
     <g id="text_21">
      <!-- 0 -->
      <g transform="translate(838.14375 346.997812)scale(0.1 -0.1)">
       <use xlink:href="#ArialMT-30"/>
      </g>
     </g>
    </g>
    <g id="ytick_8">
     <g id="line2d_20">
      <g>
       <use xlink:href="#mf8cb4024bf" x="831.14375" y="272.644438" style="stroke: #000000; stroke-width: 0.8"/>
      </g>
     </g>
     <g id="text_22">
      <!-- 1 -->
      <g transform="translate(838.14375 276.223344)scale(0.1 -0.1)">
       <use xlink:href="#ArialMT-31"/>
      </g>
     </g>
    </g>
    <g id="ytick_9">
     <g id="line2d_21">
      <g>
       <use xlink:href="#mf8cb4024bf" x="831.14375" y="201.86997" style="stroke: #000000; stroke-width: 0.8"/>
      </g>
     </g>
     <g id="text_23">
      <!-- 2 -->
      <g transform="translate(838.14375 205.448876)scale(0.1 -0.1)">
       <use xlink:href="#ArialMT-32"/>
      </g>
     </g>
    </g>
    <g id="ytick_10">
     <g id="line2d_22">
      <g>
       <use xlink:href="#mf8cb4024bf" x="831.14375" y="131.095502" style="stroke: #000000; stroke-width: 0.8"/>
      </g>
     </g>
     <g id="text_24">
      <!-- 3 -->
      <g transform="translate(838.14375 134.674408)scale(0.1 -0.1)">
       <defs>
        <path id="ArialMT-33" d="M 269 1209 
L 831 1284 
Q 928 806 1161 595 
Q 1394 384 1728 384 
Q 2125 384 2398 659 
Q 2672 934 2672 1341 
Q 2672 1728 2419 1979 
Q 2166 2231 1775 2231 
Q 1616 2231 1378 2169 
L 1441 2663 
Q 1497 2656 1531 2656 
Q 1891 2656 2178 2843 
Q 2466 3031 2466 3422 
Q 2466 3731 2256 3934 
Q 2047 4138 1716 4138 
Q 1388 4138 1169 3931 
Q 950 3725 888 3313 
L 325 3413 
Q 428 3978 793 4289 
Q 1159 4600 1703 4600 
Q 2078 4600 2393 4439 
Q 2709 4278 2876 4000 
Q 3044 3722 3044 3409 
Q 3044 3113 2884 2869 
Q 2725 2625 2413 2481 
Q 2819 2388 3044 2092 
Q 3269 1797 3269 1353 
Q 3269 753 2831 336 
Q 2394 -81 1725 -81 
Q 1122 -81 723 278 
Q 325 638 269 1209 
z
" transform="scale(0.015625)"/>
       </defs>
       <use xlink:href="#ArialMT-33"/>
      </g>
     </g>
    </g>
    <g id="ytick_11">
     <g id="line2d_23">
      <g>
       <use xlink:href="#mf8cb4024bf" x="831.14375" y="60.321034" style="stroke: #000000; stroke-width: 0.8"/>
      </g>
     </g>
     <g id="text_25">
      <!-- 4 -->
      <g transform="translate(838.14375 63.89994)scale(0.1 -0.1)">
       <use xlink:href="#ArialMT-34"/>
      </g>
     </g>
    </g>
    <g id="text_26">
     <!-- Specific enthalpy (MJ/kg) -->
     <g transform="translate(854.984375 232.950469)rotate(-90)scale(0.1 -0.1)">
      <defs>
       <path id="ArialMT-63" d="M 2588 1216 
L 3141 1144 
Q 3050 572 2676 248 
Q 2303 -75 1759 -75 
Q 1078 -75 664 370 
Q 250 816 250 1647 
Q 250 2184 428 2587 
Q 606 2991 970 3192 
Q 1334 3394 1763 3394 
Q 2303 3394 2647 3120 
Q 2991 2847 3088 2344 
L 2541 2259 
Q 2463 2594 2264 2762 
Q 2066 2931 1784 2931 
Q 1359 2931 1093 2626 
Q 828 2322 828 1663 
Q 828 994 1084 691 
Q 1341 388 1753 388 
Q 2084 388 2306 591 
Q 2528 794 2588 1216 
z
" transform="scale(0.015625)"/>
       <path id="ArialMT-66" d="M 556 0 
L 556 2881 
L 59 2881 
L 59 3319 
L 556 3319 
L 556 3672 
Q 556 4006 616 4169 
Q 697 4388 901 4523 
Q 1106 4659 1475 4659 
Q 1713 4659 2000 4603 
L 1916 4113 
Q 1741 4144 1584 4144 
Q 1328 4144 1222 4034 
Q 1116 3925 1116 3625 
L 1116 3319 
L 1763 3319 
L 1763 2881 
L 1116 2881 
L 1116 0 
L 556 0 
z
" transform="scale(0.015625)"/>
       <path id="ArialMT-68" d="M 422 0 
L 422 4581 
L 984 4581 
L 984 2938 
Q 1378 3394 1978 3394 
Q 2347 3394 2619 3248 
Q 2891 3103 3008 2847 
Q 3125 2591 3125 2103 
L 3125 0 
L 2563 0 
L 2563 2103 
Q 2563 2525 2380 2717 
Q 2197 2909 1863 2909 
Q 1613 2909 1392 2779 
Q 1172 2650 1078 2428 
Q 984 2206 984 1816 
L 984 0 
L 422 0 
z
" transform="scale(0.015625)"/>
       <path id="ArialMT-4d" d="M 475 0 
L 475 4581 
L 1388 4581 
L 2472 1338 
Q 2622 884 2691 659 
Q 2769 909 2934 1394 
L 4031 4581 
L 4847 4581 
L 4847 0 
L 4263 0 
L 4263 3834 
L 2931 0 
L 2384 0 
L 1059 3900 
L 1059 0 
L 475 0 
z
" transform="scale(0.015625)"/>
       <path id="ArialMT-4a" d="M 184 1300 
L 731 1375 
Q 753 850 928 656 
Q 1103 463 1413 463 
Q 1641 463 1806 567 
Q 1972 672 2034 851 
Q 2097 1031 2097 1425 
L 2097 4581 
L 2703 4581 
L 2703 1459 
Q 2703 884 2564 568 
Q 2425 253 2123 87 
Q 1822 -78 1416 -78 
Q 813 -78 492 269 
Q 172 616 184 1300 
z
" transform="scale(0.015625)"/>
       <path id="ArialMT-2f" d="M 0 -78 
L 1328 4659 
L 1778 4659 
L 453 -78 
L 0 -78 
z
" transform="scale(0.015625)"/>
       <path id="ArialMT-6b" d="M 425 0 
L 425 4581 
L 988 4581 
L 988 1969 
L 2319 3319 
L 3047 3319 
L 1778 2088 
L 3175 0 
L 2481 0 
L 1384 1697 
L 988 1316 
L 988 0 
L 425 0 
z
" transform="scale(0.015625)"/>
       <path id="ArialMT-67" d="M 319 -275 
L 866 -356 
Q 900 -609 1056 -725 
Q 1266 -881 1628 -881 
Q 2019 -881 2231 -725 
Q 2444 -569 2519 -288 
Q 2563 -116 2559 434 
Q 2191 0 1641 0 
Q 956 0 581 494 
Q 206 988 206 1678 
Q 206 2153 378 2554 
Q 550 2956 876 3175 
Q 1203 3394 1644 3394 
Q 2231 3394 2613 2919 
L 2613 3319 
L 3131 3319 
L 3131 450 
Q 3131 -325 2973 -648 
Q 2816 -972 2473 -1159 
Q 2131 -1347 1631 -1347 
Q 1038 -1347 672 -1080 
Q 306 -813 319 -275 
z
M 784 1719 
Q 784 1066 1043 766 
Q 1303 466 1694 466 
Q 2081 466 2343 764 
Q 2606 1063 2606 1700 
Q 2606 2309 2336 2618 
Q 2066 2928 1684 2928 
Q 1309 2928 1046 2623 
Q 784 2319 784 1719 
z
" transform="scale(0.015625)"/>
      </defs>
      <use xlink:href="#ArialMT-53"/>
      <use xlink:href="#ArialMT-70" x="66.699219"/>
      <use xlink:href="#ArialMT-65" x="122.314453"/>
      <use xlink:href="#ArialMT-63" x="177.929688"/>
      <use xlink:href="#ArialMT-69" x="227.929688"/>
      <use xlink:href="#ArialMT-66" x="250.146484"/>
      <use xlink:href="#ArialMT-69" x="277.929688"/>
      <use xlink:href="#ArialMT-63" x="300.146484"/>
      <use xlink:href="#ArialMT-20" x="350.146484"/>
      <use xlink:href="#ArialMT-65" x="377.929688"/>
      <use xlink:href="#ArialMT-6e" x="433.544922"/>
      <use xlink:href="#ArialMT-74" x="489.160156"/>
      <use xlink:href="#ArialMT-68" x="516.943359"/>
      <use xlink:href="#ArialMT-61" x="572.558594"/>
      <use xlink:href="#ArialMT-6c" x="628.173828"/>
      <use xlink:href="#ArialMT-70" x="650.390625"/>
      <use xlink:href="#ArialMT-79" x="706.005859"/>
      <use xlink:href="#ArialMT-20" x="756.005859"/>
      <use xlink:href="#ArialMT-28" x="783.789062"/>
      <use xlink:href="#ArialMT-4d" x="817.089844"/>
      <use xlink:href="#ArialMT-4a" x="900.390625"/>
      <use xlink:href="#ArialMT-2f" x="950.390625"/>
      <use xlink:href="#ArialMT-6b" x="978.173828"/>
      <use xlink:href="#ArialMT-67" x="1028.173828"/>
      <use xlink:href="#ArialMT-29" x="1083.789062"/>
     </g>
    </g>
   </g>
   <g id="line2d_24">
    <g clip-path="url(#pa6370b7c99)">
     <use xlink:href="#m972a9b2ced" x="-1" y="289.782831" style="fill: #1f77b4; stroke: #1f77b4"/>
     <use xlink:href="#m972a9b2ced" x="752.609576" y="289.789716" style="fill: #1f77b4; stroke: #1f77b4"/>
     <use xlink:href="#m972a9b2ced" x="764.778132" y="290.15052" style="fill: #1f77b4; stroke: #1f77b4"/>
     <use xlink:href="#m972a9b2ced" x="771.668861" y="290.490467" style="fill: #1f77b4; stroke: #1f77b4"/>
     <use xlink:href="#m972a9b2ced" x="776.453098" y="290.811427" style="fill: #1f77b4; stroke: #1f77b4"/>
     <use xlink:href="#m972a9b2ced" x="780.096576" y="291.115027" style="fill: #1f77b4; stroke: #1f77b4"/>
     <use xlink:href="#m972a9b2ced" x="783.024024" y="291.40269" style="fill: #1f77b4; stroke: #1f77b4"/>
     <use xlink:href="#m972a9b2ced" x="785.460299" y="291.675668" style="fill: #1f77b4; stroke: #1f77b4"/>
     <use xlink:href="#m972a9b2ced" x="787.538925" y="291.935073" style="fill: #1f77b4; stroke: #1f77b4"/>
     <use xlink:href="#m972a9b2ced" x="789.345695" y="292.181894" style="fill: #1f77b4; stroke: #1f77b4"/>
     <use xlink:href="#m972a9b2ced" x="790.939003" y="292.417015" style="fill: #1f77b4; stroke: #1f77b4"/>
     <use xlink:href="#m972a9b2ced" x="792.360387" y="292.641231" style="fill: #1f77b4; stroke: #1f77b4"/>
     <use xlink:href="#m972a9b2ced" x="793.640445" y="292.855259" style="fill: #1f77b4; stroke: #1f77b4"/>
     <use xlink:href="#m972a9b2ced" x="794.802362" y="293.059748" style="fill: #1f77b4; stroke: #1f77b4"/>
     <use xlink:href="#m972a9b2ced" x="795.864122" y="293.255289" style="fill: #1f77b4; stroke: #1f77b4"/>
     <use xlink:href="#m972a9b2ced" x="796.839953" y="293.442419" style="fill: #1f77b4; stroke: #1f77b4"/>
     <use xlink:href="#m972a9b2ced" x="797.741302" y="293.62163" style="fill: #1f77b4; stroke: #1f77b4"/>
     <use xlink:href="#m972a9b2ced" x="798.577515" y="293.793371" style="fill: #1f77b4; stroke: #1f77b4"/>
     <use xlink:href="#m972a9b2ced" x="799.356316" y="293.958057" style="fill: #1f77b4; stroke: #1f77b4"/>
     <use xlink:href="#m972a9b2ced" x="800.084162" y="294.11607" style="fill: #1f77b4; stroke: #1f77b4"/>
     <use xlink:href="#m972a9b2ced" x="800.766508" y="294.267761" style="fill: #1f77b4; stroke: #1f77b4"/>
     <use xlink:href="#m972a9b2ced" x="801.407997" y="294.413456" style="fill: #1f77b4; stroke: #1f77b4"/>
     <use xlink:href="#m972a9b2ced" x="802.012615" y="294.553457" style="fill: #1f77b4; stroke: #1f77b4"/>
     <use xlink:href="#m972a9b2ced" x="802.583811" y="294.688044" style="fill: #1f77b4; stroke: #1f77b4"/>
     <use xlink:href="#m972a9b2ced" x="803.124586" y="294.817479" style="fill: #1f77b4; stroke: #1f77b4"/>
     <use xlink:href="#m972a9b2ced" x="803.637566" y="294.942004" style="fill: #1f77b4; stroke: #1f77b4"/>
     <use xlink:href="#m972a9b2ced" x="804.125063" y="295.061848" style="fill: #1f77b4; stroke: #1f77b4"/>
     <use xlink:href="#m972a9b2ced" x="804.589124" y="295.177221" style="fill: #1f77b4; stroke: #1f77b4"/>
     <use xlink:href="#m972a9b2ced" x="805.031567" y="295.288324" style="fill: #1f77b4; stroke: #1f77b4"/>
     <use xlink:href="#m972a9b2ced" x="805.454014" y="295.395343" style="fill: #1f77b4; stroke: #1f77b4"/>
     <use xlink:href="#m972a9b2ced" x="805.857918" y="295.498452" style="fill: #1f77b4; stroke: #1f77b4"/>
     <use xlink:href="#m972a9b2ced" x="806.244588" y="295.597818" style="fill: #1f77b4; stroke: #1f77b4"/>
     <use xlink:href="#m972a9b2ced" x="806.615204" y="295.693593" style="fill: #1f77b4; stroke: #1f77b4"/>
     <use xlink:href="#m972a9b2ced" x="806.970833" y="295.785926" style="fill: #1f77b4; stroke: #1f77b4"/>
     <use xlink:href="#m972a9b2ced" x="807.312445" y="295.874953" style="fill: #1f77b4; stroke: #1f77b4"/>
     <use xlink:href="#m972a9b2ced" x="807.640924" y="295.960805" style="fill: #1f77b4; stroke: #1f77b4"/>
     <use xlink:href="#m972a9b2ced" x="807.957076" y="296.043605" style="fill: #1f77b4; stroke: #1f77b4"/>
     <use xlink:href="#m972a9b2ced" x="808.261639" y="296.123469" style="fill: #1f77b4; stroke: #1f77b4"/>
     <use xlink:href="#m972a9b2ced" x="808.555289" y="296.200508" style="fill: #1f77b4; stroke: #1f77b4"/>
     <use xlink:href="#m972a9b2ced" x="808.83865" y="296.274827" style="fill: #1f77b4; stroke: #1f77b4"/>
     <use xlink:href="#m972a9b2ced" x="809.112294" y="296.346525" style="fill: #1f77b4; stroke: #1f77b4"/>
     <use xlink:href="#m972a9b2ced" x="809.376752" y="296.415696" style="fill: #1f77b4; stroke: #1f77b4"/>
     <use xlink:href="#m972a9b2ced" x="809.632512" y="296.48243" style="fill: #1f77b4; stroke: #1f77b4"/>
     <use xlink:href="#m972a9b2ced" x="809.88003" y="296.546812" style="fill: #1f77b4; stroke: #1f77b4"/>
     <use xlink:href="#m972a9b2ced" x="810.119726" y="296.608924" style="fill: #1f77b4; stroke: #1f77b4"/>
     <use xlink:href="#m972a9b2ced" x="810.351992" y="296.668844" style="fill: #1f77b4; stroke: #1f77b4"/>
     <use xlink:href="#m972a9b2ced" x="810.577193" y="296.726644" style="fill: #1f77b4; stroke: #1f77b4"/>
     <use xlink:href="#m972a9b2ced" x="810.795669" y="296.782396" style="fill: #1f77b4; stroke: #1f77b4"/>
     <use xlink:href="#m972a9b2ced" x="811.007738" y="296.836167" style="fill: #1f77b4; stroke: #1f77b4"/>
     <use xlink:href="#m972a9b2ced" x="811.213697" y="296.888021" style="fill: #1f77b4; stroke: #1f77b4"/>
    </g>
   </g>
   <g id="line2d_25">
    <path d="M -1 146.776268 
L 463.692237 146.775653 
L 475.599085 146.720604 
L 482.232156 146.665619 
L 486.76233 146.610696 
L 490.154909 146.555836 
L 492.834208 146.501038 
L 495.024686 146.446302 
L 496.859493 146.391627 
L 498.424061 146.337012 
L 499.776438 146.282458 
L 500.957837 146.227964 
L 501.998544 146.173529 
L 502.921447 146.119154 
L 503.744248 146.064836 
L 504.480907 146.010577 
L 505.142617 145.956376 
L 505.738482 145.902231 
L 506.275998 145.848144 
L 506.761406 145.794113 
L 507.199956 145.740138 
L 507.596098 145.686219 
L 507.953636 145.632355 
L 508.275848 145.578546 
L 508.565571 145.524791 
L 508.825283 145.47109 
L 509.057152 145.417443 
L 509.263093 145.363849 
L 509.444799 145.310309 
L 509.603776 145.25682 
L 509.741372 145.203384 
L 509.858794 145.149999 
L 509.95713 145.096666 
L 510.037363 145.043384 
L 510.100387 144.990152 
L 510.147012 144.936971 
L 510.17798 144.88384 
L 510.193971 144.830758 
L 510.19561 144.777726 
L 510.183473 144.724742 
L 510.158091 144.671807 
L 510.119958 144.618921 
L 510.069535 144.566082 
L 510.007247 144.51329 
L 509.933496 144.460546 
L 509.848656 144.407849 
L 509.75308 144.355198 
L 509.647099 144.302593 
L 509.531027 144.250035 
L 509.40516 144.197521 
" clip-path="url(#pa6370b7c99)" style="fill: none; stroke: #ff7f0e; stroke-width: 1.5; stroke-linecap: square"/>
   </g>
   <g id="patch_8">
    <path d="M 446.316164 343.418906 
L 446.316164 10.778906 
" style="fill: none; stroke: #000000; stroke-width: 0.8; stroke-linejoin: miter; stroke-linecap: square"/>
   </g>
   <g id="patch_9">
    <path d="M 831.14375 343.418906 
L 831.14375 10.778906 
" style="fill: none; stroke: #000000; stroke-width: 0.8; stroke-linejoin: miter; stroke-linecap: square"/>
   </g>
   <g id="patch_10">
    <path d="M 446.316164 343.418906 
L 831.14375 343.418906 
" style="fill: none; stroke: #000000; stroke-width: 0.8; stroke-linejoin: miter; stroke-linecap: square"/>
   </g>
   <g id="patch_11">
    <path d="M 446.316164 10.778906 
L 831.14375 10.778906 
" style="fill: none; stroke: #000000; stroke-width: 0.8; stroke-linejoin: miter; stroke-linecap: square"/>
   </g>
   <g id="text_27">
    <!-- P = 10 bar -->
    <g transform="translate(777.203448 334.778606)scale(0.1 -0.1)">
     <use xlink:href="#ArialMT-50"/>
     <use xlink:href="#ArialMT-20" x="64.949219"/>
     <use xlink:href="#ArialMT-3d" x="92.732422"/>
     <use xlink:href="#ArialMT-20" x="151.130859"/>
     <use xlink:href="#ArialMT-31" x="178.914062"/>
     <use xlink:href="#ArialMT-30" x="234.529297"/>
     <use xlink:href="#ArialMT-20" x="290.144531"/>
     <use xlink:href="#ArialMT-62" x="317.927734"/>
     <use xlink:href="#ArialMT-61" x="373.542969"/>
     <use xlink:href="#ArialMT-72" x="429.158203"/>
    </g>
   </g>
  </g>
 </g>
 <defs>
  <clipPath id="p61a5ef0482">
   <rect x="49.94375" y="10.778906" width="384.827586" height="332.64"/>
  </clipPath>
  <clipPath id="pa6370b7c99">
   <rect x="446.316164" y="10.778906" width="384.827586" height="332.64"/>
  </clipPath>
 </defs>
</svg>
