<?xml version="1.0" encoding="utf-8" standalone="no"?>
<!DOCTYPE svg PUBLIC "-//W3C//DTD SVG 1.1//EN"
  "http://www.w3.org/Graphics/SVG/1.1/DTD/svg11.dtd">
<svg xmlns:xlink="http://www.w3.org/1999/xlink" width="942.776562pt" height="432.125312pt" viewBox="0 0 942.776562 432.125312" xmlns="http://www.w3.org/2000/svg" version="1.1">
 <metadata>
  <rdf:RDF xmlns:dc="http://purl.org/dc/elements/1.1/" xmlns:cc="http://creativecommons.org/ns#" xmlns:rdf="http://www.w3.org/1999/02/22-rdf-syntax-ns#">
   <cc:Work>
    <dc:type rdf:resource="http://purl.org/dc/dcmitype/StillImage"/>
    <dc:date>2022-04-30T19:01:01.483269</dc:date>
    <dc:format>image/svg+xml</dc:format>
    <dc:creator>
     <cc:Agent>
      <dc:title>Matplotlib v3.5.1, https://matplotlib.org/</dc:title>
     </cc:Agent>
    </dc:creator>
   </cc:Work>
  </rdf:RDF>
 </metadata>
 <defs>
  <style type="text/css">*{stroke-linejoin: round; stroke-linecap: butt}</style>
 </defs>
 <g id="figure_1">
  <g id="patch_1">
   <path d="M 0 432.125312 
L 942.776562 432.125312 
L 942.776562 0 
L 0 0 
z
" style="fill: #ffffff"/>
  </g>
  <g id="axes_1">
   <g id="patch_2">
    <path d="M 61.229688 395.28 
L 475.586123 395.28 
L 475.586123 7.2 
L 61.229688 7.2 
z
" style="fill: #ffffff"/>
   </g>
   <g id="matplotlib.axis_1">
    <g id="xtick_1">
     <g id="line2d_1">
      <defs>
       <path id="ma0187b5d78" d="M 0 0 
L 0 3.5 
" style="stroke: #000000; stroke-width: 0.8"/>
      </defs>
      <g>
       <use xlink:href="#ma0187b5d78" x="79.711175" y="395.28" style="stroke: #000000; stroke-width: 0.8"/>
      </g>
     </g>
     <g id="text_1">
      <!-- 0 -->
      <g transform="translate(76.930706 409.437812)scale(0.1 -0.1)">
       <defs>
        <path id="ArialMT-30" d="M 266 2259 
Q 266 3072 433 3567 
Q 600 4063 929 4331 
Q 1259 4600 1759 4600 
Q 2128 4600 2406 4451 
Q 2684 4303 2865 4023 
Q 3047 3744 3150 3342 
Q 3253 2941 3253 2259 
Q 3253 1453 3087 958 
Q 2922 463 2592 192 
Q 2263 -78 1759 -78 
Q 1097 -78 719 397 
Q 266 969 266 2259 
z
M 844 2259 
Q 844 1131 1108 757 
Q 1372 384 1759 384 
Q 2147 384 2411 759 
Q 2675 1134 2675 2259 
Q 2675 3391 2411 3762 
Q 2147 4134 1753 4134 
Q 1366 4134 1134 3806 
Q 844 3388 844 2259 
z
" transform="scale(0.015625)"/>
       </defs>
       <use xlink:href="#ArialMT-30"/>
      </g>
     </g>
    </g>
    <g id="xtick_2">
     <g id="line2d_2">
      <g>
       <use xlink:href="#ma0187b5d78" x="130.124946" y="395.28" style="stroke: #000000; stroke-width: 0.8"/>
      </g>
     </g>
     <g id="text_2">
      <!-- 50 -->
      <g transform="translate(124.564009 409.437812)scale(0.1 -0.1)">
       <defs>
        <path id="ArialMT-35" d="M 266 1200 
L 856 1250 
Q 922 819 1161 601 
Q 1400 384 1738 384 
Q 2144 384 2425 690 
Q 2706 997 2706 1503 
Q 2706 1984 2436 2262 
Q 2166 2541 1728 2541 
Q 1456 2541 1237 2417 
Q 1019 2294 894 2097 
L 366 2166 
L 809 4519 
L 3088 4519 
L 3088 3981 
L 1259 3981 
L 1013 2750 
Q 1425 3038 1878 3038 
Q 2478 3038 2890 2622 
Q 3303 2206 3303 1553 
Q 3303 931 2941 478 
Q 2500 -78 1738 -78 
Q 1113 -78 717 272 
Q 322 622 266 1200 
z
" transform="scale(0.015625)"/>
       </defs>
       <use xlink:href="#ArialMT-35"/>
       <use xlink:href="#ArialMT-30" x="55.615234"/>
      </g>
     </g>
    </g>
    <g id="xtick_3">
     <g id="line2d_3">
      <g>
       <use xlink:href="#ma0187b5d78" x="180.538718" y="395.28" style="stroke: #000000; stroke-width: 0.8"/>
      </g>
     </g>
     <g id="text_3">
      <!-- 100 -->
      <g transform="translate(172.197312 409.437812)scale(0.1 -0.1)">
       <defs>
        <path id="ArialMT-31" d="M 2384 0 
L 1822 0 
L 1822 3584 
Q 1619 3391 1289 3197 
Q 959 3003 697 2906 
L 697 3450 
Q 1169 3672 1522 3987 
Q 1875 4303 2022 4600 
L 2384 4600 
L 2384 0 
z
" transform="scale(0.015625)"/>
       </defs>
       <use xlink:href="#ArialMT-31"/>
       <use xlink:href="#ArialMT-30" x="55.615234"/>
       <use xlink:href="#ArialMT-30" x="111.230469"/>
      </g>
     </g>
    </g>
    <g id="xtick_4">
     <g id="line2d_4">
      <g>
       <use xlink:href="#ma0187b5d78" x="230.95249" y="395.28" style="stroke: #000000; stroke-width: 0.8"/>
      </g>
     </g>
     <g id="text_4">
      <!-- 150 -->
      <g transform="translate(222.611083 409.437812)scale(0.1 -0.1)">
       <use xlink:href="#ArialMT-31"/>
       <use xlink:href="#ArialMT-35" x="55.615234"/>
       <use xlink:href="#ArialMT-30" x="111.230469"/>
      </g>
     </g>
    </g>
    <g id="xtick_5">
     <g id="line2d_5">
      <g>
       <use xlink:href="#ma0187b5d78" x="281.366261" y="395.28" style="stroke: #000000; stroke-width: 0.8"/>
      </g>
     </g>
     <g id="text_5">
      <!-- 200 -->
      <g transform="translate(273.024855 409.437812)scale(0.1 -0.1)">
       <defs>
        <path id="ArialMT-32" d="M 3222 541 
L 3222 0 
L 194 0 
Q 188 203 259 391 
Q 375 700 629 1000 
Q 884 1300 1366 1694 
Q 2113 2306 2375 2664 
Q 2638 3022 2638 3341 
Q 2638 3675 2398 3904 
Q 2159 4134 1775 4134 
Q 1369 4134 1125 3890 
Q 881 3647 878 3216 
L 300 3275 
Q 359 3922 746 4261 
Q 1134 4600 1788 4600 
Q 2447 4600 2831 4234 
Q 3216 3869 3216 3328 
Q 3216 3053 3103 2787 
Q 2991 2522 2730 2228 
Q 2469 1934 1863 1422 
Q 1356 997 1212 845 
Q 1069 694 975 541 
L 3222 541 
z
" transform="scale(0.015625)"/>
       </defs>
       <use xlink:href="#ArialMT-32"/>
       <use xlink:href="#ArialMT-30" x="55.615234"/>
       <use xlink:href="#ArialMT-30" x="111.230469"/>
      </g>
     </g>
    </g>
    <g id="xtick_6">
     <g id="line2d_6">
      <g>
       <use xlink:href="#ma0187b5d78" x="331.780033" y="395.28" style="stroke: #000000; stroke-width: 0.8"/>
      </g>
     </g>
     <g id="text_6">
      <!-- 250 -->
      <g transform="translate(323.438627 409.437812)scale(0.1 -0.1)">
       <use xlink:href="#ArialMT-32"/>
       <use xlink:href="#ArialMT-35" x="55.615234"/>
       <use xlink:href="#ArialMT-30" x="111.230469"/>
      </g>
     </g>
    </g>
    <g id="xtick_7">
     <g id="line2d_7">
      <g>
       <use xlink:href="#ma0187b5d78" x="382.193805" y="395.28" style="stroke: #000000; stroke-width: 0.8"/>
      </g>
     </g>
     <g id="text_7">
      <!-- 300 -->
      <g transform="translate(373.852398 409.437812)scale(0.1 -0.1)">
       <defs>
        <path id="ArialMT-33" d="M 269 1209 
L 831 1284 
Q 928 806 1161 595 
Q 1394 384 1728 384 
Q 2125 384 2398 659 
Q 2672 934 2672 1341 
Q 2672 1728 2419 1979 
Q 2166 2231 1775 2231 
Q 1616 2231 1378 2169 
L 1441 2663 
Q 1497 2656 1531 2656 
Q 1891 2656 2178 2843 
Q 2466 3031 2466 3422 
Q 2466 3731 2256 3934 
Q 2047 4138 1716 4138 
Q 1388 4138 1169 3931 
Q 950 3725 888 3313 
L 325 3413 
Q 428 3978 793 4289 
Q 1159 4600 1703 4600 
Q 2078 4600 2393 4439 
Q 2709 4278 2876 4000 
Q 3044 3722 3044 3409 
Q 3044 3113 2884 2869 
Q 2725 2625 2413 2481 
Q 2819 2388 3044 2092 
Q 3269 1797 3269 1353 
Q 3269 753 2831 336 
Q 2394 -81 1725 -81 
Q 1122 -81 723 278 
Q 325 638 269 1209 
z
" transform="scale(0.015625)"/>
       </defs>
       <use xlink:href="#ArialMT-33"/>
       <use xlink:href="#ArialMT-30" x="55.615234"/>
       <use xlink:href="#ArialMT-30" x="111.230469"/>
      </g>
     </g>
    </g>
    <g id="xtick_8">
     <g id="line2d_8">
      <g>
       <use xlink:href="#ma0187b5d78" x="432.607576" y="395.28" style="stroke: #000000; stroke-width: 0.8"/>
      </g>
     </g>
     <g id="text_8">
      <!-- 350 -->
      <g transform="translate(424.26617 409.437812)scale(0.1 -0.1)">
       <use xlink:href="#ArialMT-33"/>
       <use xlink:href="#ArialMT-35" x="55.615234"/>
       <use xlink:href="#ArialMT-30" x="111.230469"/>
      </g>
     </g>
    </g>
    <g id="text_9">
     <!-- Temperature ($^{\circ}$C) -->
     <g transform="translate(229.157905 422.725312)scale(0.1 -0.1)">
      <defs>
       <path id="ArialMT-54" d="M 1659 0 
L 1659 4041 
L 150 4041 
L 150 4581 
L 3781 4581 
L 3781 4041 
L 2266 4041 
L 2266 0 
L 1659 0 
z
" transform="scale(0.015625)"/>
       <path id="ArialMT-65" d="M 2694 1069 
L 3275 997 
Q 3138 488 2766 206 
Q 2394 -75 1816 -75 
Q 1088 -75 661 373 
Q 234 822 234 1631 
Q 234 2469 665 2931 
Q 1097 3394 1784 3394 
Q 2450 3394 2872 2941 
Q 3294 2488 3294 1666 
Q 3294 1616 3291 1516 
L 816 1516 
Q 847 969 1125 678 
Q 1403 388 1819 388 
Q 2128 388 2347 550 
Q 2566 713 2694 1069 
z
M 847 1978 
L 2700 1978 
Q 2663 2397 2488 2606 
Q 2219 2931 1791 2931 
Q 1403 2931 1139 2672 
Q 875 2413 847 1978 
z
" transform="scale(0.015625)"/>
       <path id="ArialMT-6d" d="M 422 0 
L 422 3319 
L 925 3319 
L 925 2853 
Q 1081 3097 1340 3245 
Q 1600 3394 1931 3394 
Q 2300 3394 2536 3241 
Q 2772 3088 2869 2813 
Q 3263 3394 3894 3394 
Q 4388 3394 4653 3120 
Q 4919 2847 4919 2278 
L 4919 0 
L 4359 0 
L 4359 2091 
Q 4359 2428 4304 2576 
Q 4250 2725 4106 2815 
Q 3963 2906 3769 2906 
Q 3419 2906 3187 2673 
Q 2956 2441 2956 1928 
L 2956 0 
L 2394 0 
L 2394 2156 
Q 2394 2531 2256 2718 
Q 2119 2906 1806 2906 
Q 1569 2906 1367 2781 
Q 1166 2656 1075 2415 
Q 984 2175 984 1722 
L 984 0 
L 422 0 
z
" transform="scale(0.015625)"/>
       <path id="ArialMT-70" d="M 422 -1272 
L 422 3319 
L 934 3319 
L 934 2888 
Q 1116 3141 1344 3267 
Q 1572 3394 1897 3394 
Q 2322 3394 2647 3175 
Q 2972 2956 3137 2557 
Q 3303 2159 3303 1684 
Q 3303 1175 3120 767 
Q 2938 359 2589 142 
Q 2241 -75 1856 -75 
Q 1575 -75 1351 44 
Q 1128 163 984 344 
L 984 -1272 
L 422 -1272 
z
M 931 1641 
Q 931 1000 1190 694 
Q 1450 388 1819 388 
Q 2194 388 2461 705 
Q 2728 1022 2728 1688 
Q 2728 2322 2467 2637 
Q 2206 2953 1844 2953 
Q 1484 2953 1207 2617 
Q 931 2281 931 1641 
z
" transform="scale(0.015625)"/>
       <path id="ArialMT-72" d="M 416 0 
L 416 3319 
L 922 3319 
L 922 2816 
Q 1116 3169 1280 3281 
Q 1444 3394 1641 3394 
Q 1925 3394 2219 3213 
L 2025 2691 
Q 1819 2813 1613 2813 
Q 1428 2813 1281 2702 
Q 1134 2591 1072 2394 
Q 978 2094 978 1738 
L 978 0 
L 416 0 
z
" transform="scale(0.015625)"/>
       <path id="ArialMT-61" d="M 2588 409 
Q 2275 144 1986 34 
Q 1697 -75 1366 -75 
Q 819 -75 525 192 
Q 231 459 231 875 
Q 231 1119 342 1320 
Q 453 1522 633 1644 
Q 813 1766 1038 1828 
Q 1203 1872 1538 1913 
Q 2219 1994 2541 2106 
Q 2544 2222 2544 2253 
Q 2544 2597 2384 2738 
Q 2169 2928 1744 2928 
Q 1347 2928 1158 2789 
Q 969 2650 878 2297 
L 328 2372 
Q 403 2725 575 2942 
Q 747 3159 1072 3276 
Q 1397 3394 1825 3394 
Q 2250 3394 2515 3294 
Q 2781 3194 2906 3042 
Q 3031 2891 3081 2659 
Q 3109 2516 3109 2141 
L 3109 1391 
Q 3109 606 3145 398 
Q 3181 191 3288 0 
L 2700 0 
Q 2613 175 2588 409 
z
M 2541 1666 
Q 2234 1541 1622 1453 
Q 1275 1403 1131 1340 
Q 988 1278 909 1158 
Q 831 1038 831 891 
Q 831 666 1001 516 
Q 1172 366 1500 366 
Q 1825 366 2078 508 
Q 2331 650 2450 897 
Q 2541 1088 2541 1459 
L 2541 1666 
z
" transform="scale(0.015625)"/>
       <path id="ArialMT-74" d="M 1650 503 
L 1731 6 
Q 1494 -44 1306 -44 
Q 1000 -44 831 53 
Q 663 150 594 308 
Q 525 466 525 972 
L 525 2881 
L 113 2881 
L 113 3319 
L 525 3319 
L 525 4141 
L 1084 4478 
L 1084 3319 
L 1650 3319 
L 1650 2881 
L 1084 2881 
L 1084 941 
Q 1084 700 1114 631 
Q 1144 563 1211 522 
Q 1278 481 1403 481 
Q 1497 481 1650 503 
z
" transform="scale(0.015625)"/>
       <path id="ArialMT-75" d="M 2597 0 
L 2597 488 
Q 2209 -75 1544 -75 
Q 1250 -75 995 37 
Q 741 150 617 320 
Q 494 491 444 738 
Q 409 903 409 1263 
L 409 3319 
L 972 3319 
L 972 1478 
Q 972 1038 1006 884 
Q 1059 663 1231 536 
Q 1403 409 1656 409 
Q 1909 409 2131 539 
Q 2353 669 2445 892 
Q 2538 1116 2538 1541 
L 2538 3319 
L 3100 3319 
L 3100 0 
L 2597 0 
z
" transform="scale(0.015625)"/>
       <path id="ArialMT-20" transform="scale(0.015625)"/>
       <path id="ArialMT-28" d="M 1497 -1347 
Q 1031 -759 709 28 
Q 388 816 388 1659 
Q 388 2403 628 3084 
Q 909 3875 1497 4659 
L 1900 4659 
Q 1522 4009 1400 3731 
Q 1209 3300 1100 2831 
Q 966 2247 966 1656 
Q 966 153 1900 -1347 
L 1497 -1347 
z
" transform="scale(0.015625)"/>
       <path id="Cmsy10-b1" d="M 1600 359 
Q 1269 359 983 526 
Q 697 694 528 984 
Q 359 1275 359 1600 
Q 359 1925 528 2215 
Q 697 2506 983 2673 
Q 1269 2841 1600 2841 
Q 1931 2841 2215 2672 
Q 2500 2503 2667 2214 
Q 2834 1925 2834 1600 
Q 2834 1275 2667 986 
Q 2500 697 2215 528 
Q 1931 359 1600 359 
z
M 1600 616 
Q 2000 616 2289 908 
Q 2578 1200 2578 1600 
Q 2578 1856 2445 2086 
Q 2313 2316 2088 2450 
Q 1863 2584 1600 2584 
Q 1403 2584 1225 2507 
Q 1047 2431 906 2290 
Q 766 2150 691 1973 
Q 616 1797 616 1600 
Q 616 1200 905 908 
Q 1194 616 1600 616 
z
" transform="scale(0.015625)"/>
       <path id="ArialMT-43" d="M 3763 1606 
L 4369 1453 
Q 4178 706 3683 314 
Q 3188 -78 2472 -78 
Q 1731 -78 1267 223 
Q 803 525 561 1097 
Q 319 1669 319 2325 
Q 319 3041 592 3573 
Q 866 4106 1370 4382 
Q 1875 4659 2481 4659 
Q 3169 4659 3637 4309 
Q 4106 3959 4291 3325 
L 3694 3184 
Q 3534 3684 3231 3912 
Q 2928 4141 2469 4141 
Q 1941 4141 1586 3887 
Q 1231 3634 1087 3207 
Q 944 2781 944 2328 
Q 944 1744 1114 1308 
Q 1284 872 1643 656 
Q 2003 441 2422 441 
Q 2931 441 3284 734 
Q 3638 1028 3763 1606 
z
" transform="scale(0.015625)"/>
       <path id="ArialMT-29" d="M 791 -1347 
L 388 -1347 
Q 1322 153 1322 1656 
Q 1322 2244 1188 2822 
Q 1081 3291 891 3722 
Q 769 4003 388 4659 
L 791 4659 
Q 1378 3875 1659 3084 
Q 1900 2403 1900 1659 
Q 1900 816 1576 28 
Q 1253 -759 791 -1347 
z
" transform="scale(0.015625)"/>
      </defs>
      <use xlink:href="#ArialMT-54" transform="translate(0 0.203125)"/>
      <use xlink:href="#ArialMT-65" transform="translate(61.083984 0.203125)"/>
      <use xlink:href="#ArialMT-6d" transform="translate(116.699219 0.203125)"/>
      <use xlink:href="#ArialMT-70" transform="translate(200 0.203125)"/>
      <use xlink:href="#ArialMT-65" transform="translate(255.615234 0.203125)"/>
      <use xlink:href="#ArialMT-72" transform="translate(311.230469 0.203125)"/>
      <use xlink:href="#ArialMT-61" transform="translate(344.53125 0.203125)"/>
      <use xlink:href="#ArialMT-74" transform="translate(400.146484 0.203125)"/>
      <use xlink:href="#ArialMT-75" transform="translate(427.929688 0.203125)"/>
      <use xlink:href="#ArialMT-72" transform="translate(483.544922 0.203125)"/>
      <use xlink:href="#ArialMT-65" transform="translate(516.845703 0.203125)"/>
      <use xlink:href="#ArialMT-20" transform="translate(572.460938 0.203125)"/>
      <use xlink:href="#ArialMT-28" transform="translate(600.244141 0.203125)"/>
      <use xlink:href="#Cmsy10-b1" transform="translate(638.009063 38.467188)scale(0.7)"/>
      <use xlink:href="#ArialMT-43" transform="translate(679.386406 0.203125)"/>
      <use xlink:href="#ArialMT-29" transform="translate(751.603203 0.203125)"/>
     </g>
    </g>
   </g>
   <g id="matplotlib.axis_2">
    <g id="ytick_1">
     <g id="line2d_9">
      <defs>
       <path id="m59845870c0" d="M 0 0 
L -3.5 0 
" style="stroke: #000000; stroke-width: 0.8"/>
      </defs>
      <g>
       <use xlink:href="#m59845870c0" x="61.229688" y="382.993699" style="stroke: #000000; stroke-width: 0.8"/>
      </g>
     </g>
     <g id="text_10">
      <!-- −14000 -->
      <g transform="translate(20.584375 386.572606)scale(0.1 -0.1)">
       <defs>
        <path id="ArialMT-2212" d="M 3381 1997 
L 356 1997 
L 356 2522 
L 3381 2522 
L 3381 1997 
z
" transform="scale(0.015625)"/>
        <path id="ArialMT-34" d="M 2069 0 
L 2069 1097 
L 81 1097 
L 81 1613 
L 2172 4581 
L 2631 4581 
L 2631 1613 
L 3250 1613 
L 3250 1097 
L 2631 1097 
L 2631 0 
L 2069 0 
z
M 2069 1613 
L 2069 3678 
L 634 1613 
L 2069 1613 
z
" transform="scale(0.015625)"/>
       </defs>
       <use xlink:href="#ArialMT-2212"/>
       <use xlink:href="#ArialMT-31" x="58.398438"/>
       <use xlink:href="#ArialMT-34" x="114.013672"/>
       <use xlink:href="#ArialMT-30" x="169.628906"/>
       <use xlink:href="#ArialMT-30" x="225.244141"/>
       <use xlink:href="#ArialMT-30" x="280.859375"/>
      </g>
     </g>
    </g>
    <g id="ytick_2">
     <g id="line2d_10">
      <g>
       <use xlink:href="#m59845870c0" x="61.229688" y="331.829159" style="stroke: #000000; stroke-width: 0.8"/>
      </g>
     </g>
     <g id="text_11">
      <!-- −12000 -->
      <g transform="translate(20.584375 335.408065)scale(0.1 -0.1)">
       <use xlink:href="#ArialMT-2212"/>
       <use xlink:href="#ArialMT-31" x="58.398438"/>
       <use xlink:href="#ArialMT-32" x="114.013672"/>
       <use xlink:href="#ArialMT-30" x="169.628906"/>
       <use xlink:href="#ArialMT-30" x="225.244141"/>
       <use xlink:href="#ArialMT-30" x="280.859375"/>
      </g>
     </g>
    </g>
    <g id="ytick_3">
     <g id="line2d_11">
      <g>
       <use xlink:href="#m59845870c0" x="61.229688" y="280.664618" style="stroke: #000000; stroke-width: 0.8"/>
      </g>
     </g>
     <g id="text_12">
      <!-- −10000 -->
      <g transform="translate(20.584375 284.243524)scale(0.1 -0.1)">
       <use xlink:href="#ArialMT-2212"/>
       <use xlink:href="#ArialMT-31" x="58.398438"/>
       <use xlink:href="#ArialMT-30" x="114.013672"/>
       <use xlink:href="#ArialMT-30" x="169.628906"/>
       <use xlink:href="#ArialMT-30" x="225.244141"/>
       <use xlink:href="#ArialMT-30" x="280.859375"/>
      </g>
     </g>
    </g>
    <g id="ytick_4">
     <g id="line2d_12">
      <g>
       <use xlink:href="#m59845870c0" x="61.229688" y="229.500077" style="stroke: #000000; stroke-width: 0.8"/>
      </g>
     </g>
     <g id="text_13">
      <!-- −8000 -->
      <g transform="translate(26.145313 233.078983)scale(0.1 -0.1)">
       <defs>
        <path id="ArialMT-38" d="M 1131 2484 
Q 781 2613 612 2850 
Q 444 3088 444 3419 
Q 444 3919 803 4259 
Q 1163 4600 1759 4600 
Q 2359 4600 2725 4251 
Q 3091 3903 3091 3403 
Q 3091 3084 2923 2848 
Q 2756 2613 2416 2484 
Q 2838 2347 3058 2040 
Q 3278 1734 3278 1309 
Q 3278 722 2862 322 
Q 2447 -78 1769 -78 
Q 1091 -78 675 323 
Q 259 725 259 1325 
Q 259 1772 486 2073 
Q 713 2375 1131 2484 
z
M 1019 3438 
Q 1019 3113 1228 2906 
Q 1438 2700 1772 2700 
Q 2097 2700 2305 2904 
Q 2513 3109 2513 3406 
Q 2513 3716 2298 3927 
Q 2084 4138 1766 4138 
Q 1444 4138 1231 3931 
Q 1019 3725 1019 3438 
z
M 838 1322 
Q 838 1081 952 856 
Q 1066 631 1291 507 
Q 1516 384 1775 384 
Q 2178 384 2440 643 
Q 2703 903 2703 1303 
Q 2703 1709 2433 1975 
Q 2163 2241 1756 2241 
Q 1359 2241 1098 1978 
Q 838 1716 838 1322 
z
" transform="scale(0.015625)"/>
       </defs>
       <use xlink:href="#ArialMT-2212"/>
       <use xlink:href="#ArialMT-38" x="58.398438"/>
       <use xlink:href="#ArialMT-30" x="114.013672"/>
       <use xlink:href="#ArialMT-30" x="169.628906"/>
       <use xlink:href="#ArialMT-30" x="225.244141"/>
      </g>
     </g>
    </g>
    <g id="ytick_5">
     <g id="line2d_13">
      <g>
       <use xlink:href="#m59845870c0" x="61.229688" y="178.335536" style="stroke: #000000; stroke-width: 0.8"/>
      </g>
     </g>
     <g id="text_14">
      <!-- −6000 -->
      <g transform="translate(26.145313 181.914443)scale(0.1 -0.1)">
       <defs>
        <path id="ArialMT-36" d="M 3184 3459 
L 2625 3416 
Q 2550 3747 2413 3897 
Q 2184 4138 1850 4138 
Q 1581 4138 1378 3988 
Q 1113 3794 959 3422 
Q 806 3050 800 2363 
Q 1003 2672 1297 2822 
Q 1591 2972 1913 2972 
Q 2475 2972 2870 2558 
Q 3266 2144 3266 1488 
Q 3266 1056 3080 686 
Q 2894 316 2569 119 
Q 2244 -78 1831 -78 
Q 1128 -78 684 439 
Q 241 956 241 2144 
Q 241 3472 731 4075 
Q 1159 4600 1884 4600 
Q 2425 4600 2770 4297 
Q 3116 3994 3184 3459 
z
M 888 1484 
Q 888 1194 1011 928 
Q 1134 663 1356 523 
Q 1578 384 1822 384 
Q 2178 384 2434 671 
Q 2691 959 2691 1453 
Q 2691 1928 2437 2201 
Q 2184 2475 1800 2475 
Q 1419 2475 1153 2201 
Q 888 1928 888 1484 
z
" transform="scale(0.015625)"/>
       </defs>
       <use xlink:href="#ArialMT-2212"/>
       <use xlink:href="#ArialMT-36" x="58.398438"/>
       <use xlink:href="#ArialMT-30" x="114.013672"/>
       <use xlink:href="#ArialMT-30" x="169.628906"/>
       <use xlink:href="#ArialMT-30" x="225.244141"/>
      </g>
     </g>
    </g>
    <g id="ytick_6">
     <g id="line2d_14">
      <g>
       <use xlink:href="#m59845870c0" x="61.229688" y="127.170996" style="stroke: #000000; stroke-width: 0.8"/>
      </g>
     </g>
     <g id="text_15">
      <!-- −4000 -->
      <g transform="translate(26.145313 130.749902)scale(0.1 -0.1)">
       <use xlink:href="#ArialMT-2212"/>
       <use xlink:href="#ArialMT-34" x="58.398438"/>
       <use xlink:href="#ArialMT-30" x="114.013672"/>
       <use xlink:href="#ArialMT-30" x="169.628906"/>
       <use xlink:href="#ArialMT-30" x="225.244141"/>
      </g>
     </g>
    </g>
    <g id="ytick_7">
     <g id="line2d_15">
      <g>
       <use xlink:href="#m59845870c0" x="61.229688" y="76.006455" style="stroke: #000000; stroke-width: 0.8"/>
      </g>
     </g>
     <g id="text_16">
      <!-- −2000 -->
      <g transform="translate(26.145313 79.585361)scale(0.1 -0.1)">
       <use xlink:href="#ArialMT-2212"/>
       <use xlink:href="#ArialMT-32" x="58.398438"/>
       <use xlink:href="#ArialMT-30" x="114.013672"/>
       <use xlink:href="#ArialMT-30" x="169.628906"/>
       <use xlink:href="#ArialMT-30" x="225.244141"/>
      </g>
     </g>
    </g>
    <g id="ytick_8">
     <g id="line2d_16">
      <g>
       <use xlink:href="#m59845870c0" x="61.229688" y="24.841914" style="stroke: #000000; stroke-width: 0.8"/>
      </g>
     </g>
     <g id="text_17">
      <!-- 0 -->
      <g transform="translate(48.66875 28.42082)scale(0.1 -0.1)">
       <use xlink:href="#ArialMT-30"/>
      </g>
     </g>
    </g>
    <g id="text_18">
     <!-- Saturated pressure (Pa): IAPS84 - IAPWS95 -->
     <g transform="translate(14.479688 300.447031)rotate(-90)scale(0.1 -0.1)">
      <defs>
       <path id="ArialMT-53" d="M 288 1472 
L 859 1522 
Q 900 1178 1048 958 
Q 1197 738 1509 602 
Q 1822 466 2213 466 
Q 2559 466 2825 569 
Q 3091 672 3220 851 
Q 3350 1031 3350 1244 
Q 3350 1459 3225 1620 
Q 3100 1781 2813 1891 
Q 2628 1963 1997 2114 
Q 1366 2266 1113 2400 
Q 784 2572 623 2826 
Q 463 3081 463 3397 
Q 463 3744 659 4045 
Q 856 4347 1234 4503 
Q 1613 4659 2075 4659 
Q 2584 4659 2973 4495 
Q 3363 4331 3572 4012 
Q 3781 3694 3797 3291 
L 3216 3247 
Q 3169 3681 2898 3903 
Q 2628 4125 2100 4125 
Q 1550 4125 1298 3923 
Q 1047 3722 1047 3438 
Q 1047 3191 1225 3031 
Q 1400 2872 2139 2705 
Q 2878 2538 3153 2413 
Q 3553 2228 3743 1945 
Q 3934 1663 3934 1294 
Q 3934 928 3725 604 
Q 3516 281 3123 101 
Q 2731 -78 2241 -78 
Q 1619 -78 1198 103 
Q 778 284 539 648 
Q 300 1013 288 1472 
z
" transform="scale(0.015625)"/>
       <path id="ArialMT-64" d="M 2575 0 
L 2575 419 
Q 2259 -75 1647 -75 
Q 1250 -75 917 144 
Q 584 363 401 755 
Q 219 1147 219 1656 
Q 219 2153 384 2558 
Q 550 2963 881 3178 
Q 1213 3394 1622 3394 
Q 1922 3394 2156 3267 
Q 2391 3141 2538 2938 
L 2538 4581 
L 3097 4581 
L 3097 0 
L 2575 0 
z
M 797 1656 
Q 797 1019 1065 703 
Q 1334 388 1700 388 
Q 2069 388 2326 689 
Q 2584 991 2584 1609 
Q 2584 2291 2321 2609 
Q 2059 2928 1675 2928 
Q 1300 2928 1048 2622 
Q 797 2316 797 1656 
z
" transform="scale(0.015625)"/>
       <path id="ArialMT-73" d="M 197 991 
L 753 1078 
Q 800 744 1014 566 
Q 1228 388 1613 388 
Q 2000 388 2187 545 
Q 2375 703 2375 916 
Q 2375 1106 2209 1216 
Q 2094 1291 1634 1406 
Q 1016 1563 777 1677 
Q 538 1791 414 1992 
Q 291 2194 291 2438 
Q 291 2659 392 2848 
Q 494 3038 669 3163 
Q 800 3259 1026 3326 
Q 1253 3394 1513 3394 
Q 1903 3394 2198 3281 
Q 2494 3169 2634 2976 
Q 2775 2784 2828 2463 
L 2278 2388 
Q 2241 2644 2061 2787 
Q 1881 2931 1553 2931 
Q 1166 2931 1000 2803 
Q 834 2675 834 2503 
Q 834 2394 903 2306 
Q 972 2216 1119 2156 
Q 1203 2125 1616 2013 
Q 2213 1853 2448 1751 
Q 2684 1650 2818 1456 
Q 2953 1263 2953 975 
Q 2953 694 2789 445 
Q 2625 197 2315 61 
Q 2006 -75 1616 -75 
Q 969 -75 630 194 
Q 291 463 197 991 
z
" transform="scale(0.015625)"/>
       <path id="ArialMT-50" d="M 494 0 
L 494 4581 
L 2222 4581 
Q 2678 4581 2919 4538 
Q 3256 4481 3484 4323 
Q 3713 4166 3852 3881 
Q 3991 3597 3991 3256 
Q 3991 2672 3619 2267 
Q 3247 1863 2275 1863 
L 1100 1863 
L 1100 0 
L 494 0 
z
M 1100 2403 
L 2284 2403 
Q 2872 2403 3119 2622 
Q 3366 2841 3366 3238 
Q 3366 3525 3220 3729 
Q 3075 3934 2838 4000 
Q 2684 4041 2272 4041 
L 1100 4041 
L 1100 2403 
z
" transform="scale(0.015625)"/>
       <path id="ArialMT-3a" d="M 578 2678 
L 578 3319 
L 1219 3319 
L 1219 2678 
L 578 2678 
z
M 578 0 
L 578 641 
L 1219 641 
L 1219 0 
L 578 0 
z
" transform="scale(0.015625)"/>
       <path id="ArialMT-49" d="M 597 0 
L 597 4581 
L 1203 4581 
L 1203 0 
L 597 0 
z
" transform="scale(0.015625)"/>
       <path id="ArialMT-41" d="M -9 0 
L 1750 4581 
L 2403 4581 
L 4278 0 
L 3588 0 
L 3053 1388 
L 1138 1388 
L 634 0 
L -9 0 
z
M 1313 1881 
L 2866 1881 
L 2388 3150 
Q 2169 3728 2063 4100 
Q 1975 3659 1816 3225 
L 1313 1881 
z
" transform="scale(0.015625)"/>
       <path id="ArialMT-2d" d="M 203 1375 
L 203 1941 
L 1931 1941 
L 1931 1375 
L 203 1375 
z
" transform="scale(0.015625)"/>
       <path id="ArialMT-57" d="M 1294 0 
L 78 4581 
L 700 4581 
L 1397 1578 
Q 1509 1106 1591 641 
Q 1766 1375 1797 1488 
L 2669 4581 
L 3400 4581 
L 4056 2263 
Q 4303 1400 4413 641 
Q 4500 1075 4641 1638 
L 5359 4581 
L 5969 4581 
L 4713 0 
L 4128 0 
L 3163 3491 
Q 3041 3928 3019 4028 
Q 2947 3713 2884 3491 
L 1913 0 
L 1294 0 
z
" transform="scale(0.015625)"/>
       <path id="ArialMT-39" d="M 350 1059 
L 891 1109 
Q 959 728 1153 556 
Q 1347 384 1650 384 
Q 1909 384 2104 503 
Q 2300 622 2425 820 
Q 2550 1019 2634 1356 
Q 2719 1694 2719 2044 
Q 2719 2081 2716 2156 
Q 2547 1888 2255 1720 
Q 1963 1553 1622 1553 
Q 1053 1553 659 1965 
Q 266 2378 266 3053 
Q 266 3750 677 4175 
Q 1088 4600 1706 4600 
Q 2153 4600 2523 4359 
Q 2894 4119 3086 3673 
Q 3278 3228 3278 2384 
Q 3278 1506 3087 986 
Q 2897 466 2520 194 
Q 2144 -78 1638 -78 
Q 1100 -78 759 220 
Q 419 519 350 1059 
z
M 2653 3081 
Q 2653 3566 2395 3850 
Q 2138 4134 1775 4134 
Q 1400 4134 1122 3828 
Q 844 3522 844 3034 
Q 844 2597 1108 2323 
Q 1372 2050 1759 2050 
Q 2150 2050 2401 2323 
Q 2653 2597 2653 3081 
z
" transform="scale(0.015625)"/>
      </defs>
      <use xlink:href="#ArialMT-53"/>
      <use xlink:href="#ArialMT-61" x="66.699219"/>
      <use xlink:href="#ArialMT-74" x="122.314453"/>
      <use xlink:href="#ArialMT-75" x="150.097656"/>
      <use xlink:href="#ArialMT-72" x="205.712891"/>
      <use xlink:href="#ArialMT-61" x="239.013672"/>
      <use xlink:href="#ArialMT-74" x="294.628906"/>
      <use xlink:href="#ArialMT-65" x="322.412109"/>
      <use xlink:href="#ArialMT-64" x="378.027344"/>
      <use xlink:href="#ArialMT-20" x="433.642578"/>
      <use xlink:href="#ArialMT-70" x="461.425781"/>
      <use xlink:href="#ArialMT-72" x="517.041016"/>
      <use xlink:href="#ArialMT-65" x="550.341797"/>
      <use xlink:href="#ArialMT-73" x="605.957031"/>
      <use xlink:href="#ArialMT-73" x="655.957031"/>
      <use xlink:href="#ArialMT-75" x="705.957031"/>
      <use xlink:href="#ArialMT-72" x="761.572266"/>
      <use xlink:href="#ArialMT-65" x="794.873047"/>
      <use xlink:href="#ArialMT-20" x="850.488281"/>
      <use xlink:href="#ArialMT-28" x="878.271484"/>
      <use xlink:href="#ArialMT-50" x="911.572266"/>
      <use xlink:href="#ArialMT-61" x="978.271484"/>
      <use xlink:href="#ArialMT-29" x="1033.886719"/>
      <use xlink:href="#ArialMT-3a" x="1067.1875"/>
      <use xlink:href="#ArialMT-20" x="1094.970703"/>
      <use xlink:href="#ArialMT-49" x="1122.753906"/>
      <use xlink:href="#ArialMT-41" x="1150.537109"/>
      <use xlink:href="#ArialMT-50" x="1217.236328"/>
      <use xlink:href="#ArialMT-53" x="1283.935547"/>
      <use xlink:href="#ArialMT-38" x="1350.634766"/>
      <use xlink:href="#ArialMT-34" x="1406.25"/>
      <use xlink:href="#ArialMT-20" x="1461.865234"/>
      <use xlink:href="#ArialMT-2d" x="1489.648438"/>
      <use xlink:href="#ArialMT-20" x="1522.949219"/>
      <use xlink:href="#ArialMT-49" x="1550.732422"/>
      <use xlink:href="#ArialMT-41" x="1578.515625"/>
      <use xlink:href="#ArialMT-50" x="1645.214844"/>
      <use xlink:href="#ArialMT-57" x="1711.914062"/>
      <use xlink:href="#ArialMT-53" x="1806.298828"/>
      <use xlink:href="#ArialMT-39" x="1872.998047"/>
      <use xlink:href="#ArialMT-35" x="1928.613281"/>
     </g>
    </g>
   </g>
   <g id="line2d_17">
    <path d="M 80.064071 24.84 
L 83.868997 24.840871 
L 87.673923 24.842413 
L 91.478849 24.84475 
L 95.283775 24.848202 
L 99.088701 24.853079 
L 102.893627 24.859851 
L 106.698553 24.869099 
L 110.503479 24.881535 
L 114.308404 24.897997 
L 118.11333 24.919438 
L 121.918256 24.946987 
L 125.723182 24.981878 
L 129.528108 25.025439 
L 133.333034 25.079153 
L 137.13796 25.144594 
L 140.942886 25.223389 
L 144.747812 25.317271 
L 148.552738 25.428056 
L 152.357664 25.557579 
L 156.16259 25.707765 
L 159.967516 25.8806 
L 163.772442 26.078124 
L 167.577368 26.302435 
L 171.382294 26.555723 
L 175.18722 26.840239 
L 178.992146 27.158337 
L 182.797072 27.512461 
L 186.601997 27.905172 
L 190.406923 28.339128 
L 194.211849 28.817111 
L 198.016775 29.341983 
L 201.821701 29.916715 
L 205.626627 30.544334 
L 209.431553 31.227923 
L 213.236479 31.97057 
L 217.041405 32.775337 
L 220.846331 33.64521 
L 224.651257 34.583043 
L 228.456183 35.591506 
L 232.261109 36.67302 
L 236.066035 37.829697 
L 239.870961 39.063288 
L 243.675887 40.375121 
L 247.480813 41.766062 
L 251.285739 43.23647 
L 255.090665 44.786179 
L 258.89559 46.414485 
L 262.700516 48.120149 
L 266.505442 49.901416 
L 270.310368 51.75606 
L 274.115294 53.68143 
L 277.92022 55.67453 
L 281.725146 57.732097 
L 285.530072 59.850708 
L 289.334998 62.02688 
L 293.139924 64.257189 
L 296.94485 66.538388 
L 300.749776 68.867513 
L 304.554702 71.241999 
L 308.359628 73.659767 
L 312.164554 76.119301 
L 315.96948 78.619702 
L 319.774406 81.160719 
L 323.579332 83.742739 
L 327.384258 86.36676 
L 331.189183 89.034321 
L 334.994109 91.747419 
L 338.799035 94.508385 
L 342.603961 97.319771 
L 346.408887 100.184208 
L 350.213813 103.104315 
L 354.018739 106.082624 
L 357.823665 109.12158 
L 361.628591 112.223647 
L 365.433517 115.391559 
L 369.238443 118.628775 
L 373.043369 121.940217 
L 376.848295 125.333376 
L 380.653221 128.819898 
L 384.458147 132.417811 
L 388.263073 136.154579 
L 392.067999 140.071227 
L 395.872925 144.227862 
L 399.67785 148.710951 
L 403.482776 153.642773 
L 407.287702 159.193329 
L 411.092628 165.594562 
L 414.897554 173.155608 
L 418.70248 182.274935 
L 422.507406 193.439937 
L 426.312332 207.193822 
L 430.117258 224.033066 
L 433.922184 244.179497 
L 437.72711 267.179793 
L 441.532036 291.456423 
L 445.336962 314.749499 
L 449.141888 338.404226 
L 452.946814 377.64 
L 456.75174 365.049312 
" clip-path="url(#p5a5363f2ab)" style="fill: none; stroke: #1f77b4; stroke-width: 1.5; stroke-linecap: square"/>
    <defs>
     <path id="mb0282026bc" d="M 0 1.5 
C 0.397805 1.5 0.77937 1.341951 1.06066 1.06066 
C 1.341951 0.77937 1.5 0.397805 1.5 0 
C 1.5 -0.397805 1.341951 -0.77937 1.06066 -1.06066 
C 0.77937 -1.341951 0.397805 -1.5 0 -1.5 
C -0.397805 -1.5 -0.77937 -1.341951 -1.06066 -1.06066 
C -1.341951 -0.77937 -1.5 -0.397805 -1.5 0 
C -1.5 0.397805 -1.341951 0.77937 -1.06066 1.06066 
C -0.77937 1.341951 -0.397805 1.5 0 1.5 
z
" style="stroke: #1f77b4"/>
    </defs>
    <g clip-path="url(#p5a5363f2ab)">
     <use xlink:href="#mb0282026bc" x="80.064071" y="24.84" style="fill: #1f77b4; stroke: #1f77b4"/>
     <use xlink:href="#mb0282026bc" x="83.868997" y="24.840871" style="fill: #1f77b4; stroke: #1f77b4"/>
     <use xlink:href="#mb0282026bc" x="87.673923" y="24.842413" style="fill: #1f77b4; stroke: #1f77b4"/>
     <use xlink:href="#mb0282026bc" x="91.478849" y="24.84475" style="fill: #1f77b4; stroke: #1f77b4"/>
     <use xlink:href="#mb0282026bc" x="95.283775" y="24.848202" style="fill: #1f77b4; stroke: #1f77b4"/>
     <use xlink:href="#mb0282026bc" x="99.088701" y="24.853079" style="fill: #1f77b4; stroke: #1f77b4"/>
     <use xlink:href="#mb0282026bc" x="102.893627" y="24.859851" style="fill: #1f77b4; stroke: #1f77b4"/>
     <use xlink:href="#mb0282026bc" x="106.698553" y="24.869099" style="fill: #1f77b4; stroke: #1f77b4"/>
     <use xlink:href="#mb0282026bc" x="110.503479" y="24.881535" style="fill: #1f77b4; stroke: #1f77b4"/>
     <use xlink:href="#mb0282026bc" x="114.308404" y="24.897997" style="fill: #1f77b4; stroke: #1f77b4"/>
     <use xlink:href="#mb0282026bc" x="118.11333" y="24.919438" style="fill: #1f77b4; stroke: #1f77b4"/>
     <use xlink:href="#mb0282026bc" x="121.918256" y="24.946987" style="fill: #1f77b4; stroke: #1f77b4"/>
     <use xlink:href="#mb0282026bc" x="125.723182" y="24.981878" style="fill: #1f77b4; stroke: #1f77b4"/>
     <use xlink:href="#mb0282026bc" x="129.528108" y="25.025439" style="fill: #1f77b4; stroke: #1f77b4"/>
     <use xlink:href="#mb0282026bc" x="133.333034" y="25.079153" style="fill: #1f77b4; stroke: #1f77b4"/>
     <use xlink:href="#mb0282026bc" x="137.13796" y="25.144594" style="fill: #1f77b4; stroke: #1f77b4"/>
     <use xlink:href="#mb0282026bc" x="140.942886" y="25.223389" style="fill: #1f77b4; stroke: #1f77b4"/>
     <use xlink:href="#mb0282026bc" x="144.747812" y="25.317271" style="fill: #1f77b4; stroke: #1f77b4"/>
     <use xlink:href="#mb0282026bc" x="148.552738" y="25.428056" style="fill: #1f77b4; stroke: #1f77b4"/>
     <use xlink:href="#mb0282026bc" x="152.357664" y="25.557579" style="fill: #1f77b4; stroke: #1f77b4"/>
     <use xlink:href="#mb0282026bc" x="156.16259" y="25.707765" style="fill: #1f77b4; stroke: #1f77b4"/>
     <use xlink:href="#mb0282026bc" x="159.967516" y="25.8806" style="fill: #1f77b4; stroke: #1f77b4"/>
     <use xlink:href="#mb0282026bc" x="163.772442" y="26.078124" style="fill: #1f77b4; stroke: #1f77b4"/>
     <use xlink:href="#mb0282026bc" x="167.577368" y="26.302435" style="fill: #1f77b4; stroke: #1f77b4"/>
     <use xlink:href="#mb0282026bc" x="171.382294" y="26.555723" style="fill: #1f77b4; stroke: #1f77b4"/>
     <use xlink:href="#mb0282026bc" x="175.18722" y="26.840239" style="fill: #1f77b4; stroke: #1f77b4"/>
     <use xlink:href="#mb0282026bc" x="178.992146" y="27.158337" style="fill: #1f77b4; stroke: #1f77b4"/>
     <use xlink:href="#mb0282026bc" x="182.797072" y="27.512461" style="fill: #1f77b4; stroke: #1f77b4"/>
     <use xlink:href="#mb0282026bc" x="186.601997" y="27.905172" style="fill: #1f77b4; stroke: #1f77b4"/>
     <use xlink:href="#mb0282026bc" x="190.406923" y="28.339128" style="fill: #1f77b4; stroke: #1f77b4"/>
     <use xlink:href="#mb0282026bc" x="194.211849" y="28.817111" style="fill: #1f77b4; stroke: #1f77b4"/>
     <use xlink:href="#mb0282026bc" x="198.016775" y="29.341983" style="fill: #1f77b4; stroke: #1f77b4"/>
     <use xlink:href="#mb0282026bc" x="201.821701" y="29.916715" style="fill: #1f77b4; stroke: #1f77b4"/>
     <use xlink:href="#mb0282026bc" x="205.626627" y="30.544334" style="fill: #1f77b4; stroke: #1f77b4"/>
     <use xlink:href="#mb0282026bc" x="209.431553" y="31.227923" style="fill: #1f77b4; stroke: #1f77b4"/>
     <use xlink:href="#mb0282026bc" x="213.236479" y="31.97057" style="fill: #1f77b4; stroke: #1f77b4"/>
     <use xlink:href="#mb0282026bc" x="217.041405" y="32.775337" style="fill: #1f77b4; stroke: #1f77b4"/>
     <use xlink:href="#mb0282026bc" x="220.846331" y="33.64521" style="fill: #1f77b4; stroke: #1f77b4"/>
     <use xlink:href="#mb0282026bc" x="224.651257" y="34.583043" style="fill: #1f77b4; stroke: #1f77b4"/>
     <use xlink:href="#mb0282026bc" x="228.456183" y="35.591506" style="fill: #1f77b4; stroke: #1f77b4"/>
     <use xlink:href="#mb0282026bc" x="232.261109" y="36.67302" style="fill: #1f77b4; stroke: #1f77b4"/>
     <use xlink:href="#mb0282026bc" x="236.066035" y="37.829697" style="fill: #1f77b4; stroke: #1f77b4"/>
     <use xlink:href="#mb0282026bc" x="239.870961" y="39.063288" style="fill: #1f77b4; stroke: #1f77b4"/>
     <use xlink:href="#mb0282026bc" x="243.675887" y="40.375121" style="fill: #1f77b4; stroke: #1f77b4"/>
     <use xlink:href="#mb0282026bc" x="247.480813" y="41.766062" style="fill: #1f77b4; stroke: #1f77b4"/>
     <use xlink:href="#mb0282026bc" x="251.285739" y="43.23647" style="fill: #1f77b4; stroke: #1f77b4"/>
     <use xlink:href="#mb0282026bc" x="255.090665" y="44.786179" style="fill: #1f77b4; stroke: #1f77b4"/>
     <use xlink:href="#mb0282026bc" x="258.89559" y="46.414485" style="fill: #1f77b4; stroke: #1f77b4"/>
     <use xlink:href="#mb0282026bc" x="262.700516" y="48.120149" style="fill: #1f77b4; stroke: #1f77b4"/>
     <use xlink:href="#mb0282026bc" x="266.505442" y="49.901416" style="fill: #1f77b4; stroke: #1f77b4"/>
     <use xlink:href="#mb0282026bc" x="270.310368" y="51.75606" style="fill: #1f77b4; stroke: #1f77b4"/>
     <use xlink:href="#mb0282026bc" x="274.115294" y="53.68143" style="fill: #1f77b4; stroke: #1f77b4"/>
     <use xlink:href="#mb0282026bc" x="277.92022" y="55.67453" style="fill: #1f77b4; stroke: #1f77b4"/>
     <use xlink:href="#mb0282026bc" x="281.725146" y="57.732097" style="fill: #1f77b4; stroke: #1f77b4"/>
     <use xlink:href="#mb0282026bc" x="285.530072" y="59.850708" style="fill: #1f77b4; stroke: #1f77b4"/>
     <use xlink:href="#mb0282026bc" x="289.334998" y="62.02688" style="fill: #1f77b4; stroke: #1f77b4"/>
     <use xlink:href="#mb0282026bc" x="293.139924" y="64.257189" style="fill: #1f77b4; stroke: #1f77b4"/>
     <use xlink:href="#mb0282026bc" x="296.94485" y="66.538388" style="fill: #1f77b4; stroke: #1f77b4"/>
     <use xlink:href="#mb0282026bc" x="300.749776" y="68.867513" style="fill: #1f77b4; stroke: #1f77b4"/>
     <use xlink:href="#mb0282026bc" x="304.554702" y="71.241999" style="fill: #1f77b4; stroke: #1f77b4"/>
     <use xlink:href="#mb0282026bc" x="308.359628" y="73.659767" style="fill: #1f77b4; stroke: #1f77b4"/>
     <use xlink:href="#mb0282026bc" x="312.164554" y="76.119301" style="fill: #1f77b4; stroke: #1f77b4"/>
     <use xlink:href="#mb0282026bc" x="315.96948" y="78.619702" style="fill: #1f77b4; stroke: #1f77b4"/>
     <use xlink:href="#mb0282026bc" x="319.774406" y="81.160719" style="fill: #1f77b4; stroke: #1f77b4"/>
     <use xlink:href="#mb0282026bc" x="323.579332" y="83.742739" style="fill: #1f77b4; stroke: #1f77b4"/>
     <use xlink:href="#mb0282026bc" x="327.384258" y="86.36676" style="fill: #1f77b4; stroke: #1f77b4"/>
     <use xlink:href="#mb0282026bc" x="331.189183" y="89.034321" style="fill: #1f77b4; stroke: #1f77b4"/>
     <use xlink:href="#mb0282026bc" x="334.994109" y="91.747419" style="fill: #1f77b4; stroke: #1f77b4"/>
     <use xlink:href="#mb0282026bc" x="338.799035" y="94.508385" style="fill: #1f77b4; stroke: #1f77b4"/>
     <use xlink:href="#mb0282026bc" x="342.603961" y="97.319771" style="fill: #1f77b4; stroke: #1f77b4"/>
     <use xlink:href="#mb0282026bc" x="346.408887" y="100.184208" style="fill: #1f77b4; stroke: #1f77b4"/>
     <use xlink:href="#mb0282026bc" x="350.213813" y="103.104315" style="fill: #1f77b4; stroke: #1f77b4"/>
     <use xlink:href="#mb0282026bc" x="354.018739" y="106.082624" style="fill: #1f77b4; stroke: #1f77b4"/>
     <use xlink:href="#mb0282026bc" x="357.823665" y="109.12158" style="fill: #1f77b4; stroke: #1f77b4"/>
     <use xlink:href="#mb0282026bc" x="361.628591" y="112.223647" style="fill: #1f77b4; stroke: #1f77b4"/>
     <use xlink:href="#mb0282026bc" x="365.433517" y="115.391559" style="fill: #1f77b4; stroke: #1f77b4"/>
     <use xlink:href="#mb0282026bc" x="369.238443" y="118.628775" style="fill: #1f77b4; stroke: #1f77b4"/>
     <use xlink:href="#mb0282026bc" x="373.043369" y="121.940217" style="fill: #1f77b4; stroke: #1f77b4"/>
     <use xlink:href="#mb0282026bc" x="376.848295" y="125.333376" style="fill: #1f77b4; stroke: #1f77b4"/>
     <use xlink:href="#mb0282026bc" x="380.653221" y="128.819898" style="fill: #1f77b4; stroke: #1f77b4"/>
     <use xlink:href="#mb0282026bc" x="384.458147" y="132.417811" style="fill: #1f77b4; stroke: #1f77b4"/>
     <use xlink:href="#mb0282026bc" x="388.263073" y="136.154579" style="fill: #1f77b4; stroke: #1f77b4"/>
     <use xlink:href="#mb0282026bc" x="392.067999" y="140.071227" style="fill: #1f77b4; stroke: #1f77b4"/>
     <use xlink:href="#mb0282026bc" x="395.872925" y="144.227862" style="fill: #1f77b4; stroke: #1f77b4"/>
     <use xlink:href="#mb0282026bc" x="399.67785" y="148.710951" style="fill: #1f77b4; stroke: #1f77b4"/>
     <use xlink:href="#mb0282026bc" x="403.482776" y="153.642773" style="fill: #1f77b4; stroke: #1f77b4"/>
     <use xlink:href="#mb0282026bc" x="407.287702" y="159.193329" style="fill: #1f77b4; stroke: #1f77b4"/>
     <use xlink:href="#mb0282026bc" x="411.092628" y="165.594562" style="fill: #1f77b4; stroke: #1f77b4"/>
     <use xlink:href="#mb0282026bc" x="414.897554" y="173.155608" style="fill: #1f77b4; stroke: #1f77b4"/>
     <use xlink:href="#mb0282026bc" x="418.70248" y="182.274935" style="fill: #1f77b4; stroke: #1f77b4"/>
     <use xlink:href="#mb0282026bc" x="422.507406" y="193.439937" style="fill: #1f77b4; stroke: #1f77b4"/>
     <use xlink:href="#mb0282026bc" x="426.312332" y="207.193822" style="fill: #1f77b4; stroke: #1f77b4"/>
     <use xlink:href="#mb0282026bc" x="430.117258" y="224.033066" style="fill: #1f77b4; stroke: #1f77b4"/>
     <use xlink:href="#mb0282026bc" x="433.922184" y="244.179497" style="fill: #1f77b4; stroke: #1f77b4"/>
     <use xlink:href="#mb0282026bc" x="437.72711" y="267.179793" style="fill: #1f77b4; stroke: #1f77b4"/>
     <use xlink:href="#mb0282026bc" x="441.532036" y="291.456423" style="fill: #1f77b4; stroke: #1f77b4"/>
     <use xlink:href="#mb0282026bc" x="445.336962" y="314.749499" style="fill: #1f77b4; stroke: #1f77b4"/>
     <use xlink:href="#mb0282026bc" x="449.141888" y="338.404226" style="fill: #1f77b4; stroke: #1f77b4"/>
     <use xlink:href="#mb0282026bc" x="452.946814" y="377.64" style="fill: #1f77b4; stroke: #1f77b4"/>
     <use xlink:href="#mb0282026bc" x="456.75174" y="365.049312" style="fill: #1f77b4; stroke: #1f77b4"/>
    </g>
   </g>
   <g id="patch_3">
    <path d="M 61.229688 395.28 
L 61.229688 7.2 
" style="fill: none; stroke: #000000; stroke-width: 0.8; stroke-linejoin: miter; stroke-linecap: square"/>
   </g>
   <g id="patch_4">
    <path d="M 475.586123 395.28 
L 475.586123 7.2 
" style="fill: none; stroke: #000000; stroke-width: 0.8; stroke-linejoin: miter; stroke-linecap: square"/>
   </g>
   <g id="patch_5">
    <path d="M 61.229688 395.28 
L 475.586123 395.28 
" style="fill: none; stroke: #000000; stroke-width: 0.8; stroke-linejoin: miter; stroke-linecap: square"/>
   </g>
   <g id="patch_6">
    <path d="M 61.229688 7.2 
L 475.586123 7.2 
" style="fill: none; stroke: #000000; stroke-width: 0.8; stroke-linejoin: miter; stroke-linecap: square"/>
   </g>
  </g>
  <g id="axes_2">
   <g id="patch_7">
    <path d="M 483.873252 395.28 
L 898.229688 395.28 
L 898.229688 7.2 
L 483.873252 7.2 
z
" style="fill: #ffffff"/>
   </g>
   <g id="matplotlib.axis_3">
    <g id="xtick_9">
     <g id="line2d_18">
      <g>
       <use xlink:href="#ma0187b5d78" x="502.354739" y="395.28" style="stroke: #000000; stroke-width: 0.8"/>
      </g>
     </g>
     <g id="text_19">
      <!-- 0 -->
      <g transform="translate(499.57427 409.437812)scale(0.1 -0.1)">
       <use xlink:href="#ArialMT-30"/>
      </g>
     </g>
    </g>
    <g id="xtick_10">
     <g id="line2d_19">
      <g>
       <use xlink:href="#ma0187b5d78" x="552.768511" y="395.28" style="stroke: #000000; stroke-width: 0.8"/>
      </g>
     </g>
     <g id="text_20">
      <!-- 50 -->
      <g transform="translate(547.207573 409.437812)scale(0.1 -0.1)">
       <use xlink:href="#ArialMT-35"/>
       <use xlink:href="#ArialMT-30" x="55.615234"/>
      </g>
     </g>
    </g>
    <g id="xtick_11">
     <g id="line2d_20">
      <g>
       <use xlink:href="#ma0187b5d78" x="603.182282" y="395.28" style="stroke: #000000; stroke-width: 0.8"/>
      </g>
     </g>
     <g id="text_21">
      <!-- 100 -->
      <g transform="translate(594.840876 409.437812)scale(0.1 -0.1)">
       <use xlink:href="#ArialMT-31"/>
       <use xlink:href="#ArialMT-30" x="55.615234"/>
       <use xlink:href="#ArialMT-30" x="111.230469"/>
      </g>
     </g>
    </g>
    <g id="xtick_12">
     <g id="line2d_21">
      <g>
       <use xlink:href="#ma0187b5d78" x="653.596054" y="395.28" style="stroke: #000000; stroke-width: 0.8"/>
      </g>
     </g>
     <g id="text_22">
      <!-- 150 -->
      <g transform="translate(645.254648 409.437812)scale(0.1 -0.1)">
       <use xlink:href="#ArialMT-31"/>
       <use xlink:href="#ArialMT-35" x="55.615234"/>
       <use xlink:href="#ArialMT-30" x="111.230469"/>
      </g>
     </g>
    </g>
    <g id="xtick_13">
     <g id="line2d_22">
      <g>
       <use xlink:href="#ma0187b5d78" x="704.009826" y="395.28" style="stroke: #000000; stroke-width: 0.8"/>
      </g>
     </g>
     <g id="text_23">
      <!-- 200 -->
      <g transform="translate(695.668419 409.437812)scale(0.1 -0.1)">
       <use xlink:href="#ArialMT-32"/>
       <use xlink:href="#ArialMT-30" x="55.615234"/>
       <use xlink:href="#ArialMT-30" x="111.230469"/>
      </g>
     </g>
    </g>
    <g id="xtick_14">
     <g id="line2d_23">
      <g>
       <use xlink:href="#ma0187b5d78" x="754.423597" y="395.28" style="stroke: #000000; stroke-width: 0.8"/>
      </g>
     </g>
     <g id="text_24">
      <!-- 250 -->
      <g transform="translate(746.082191 409.437812)scale(0.1 -0.1)">
       <use xlink:href="#ArialMT-32"/>
       <use xlink:href="#ArialMT-35" x="55.615234"/>
       <use xlink:href="#ArialMT-30" x="111.230469"/>
      </g>
     </g>
    </g>
    <g id="xtick_15">
     <g id="line2d_24">
      <g>
       <use xlink:href="#ma0187b5d78" x="804.837369" y="395.28" style="stroke: #000000; stroke-width: 0.8"/>
      </g>
     </g>
     <g id="text_25">
      <!-- 300 -->
      <g transform="translate(796.495963 409.437812)scale(0.1 -0.1)">
       <use xlink:href="#ArialMT-33"/>
       <use xlink:href="#ArialMT-30" x="55.615234"/>
       <use xlink:href="#ArialMT-30" x="111.230469"/>
      </g>
     </g>
    </g>
    <g id="xtick_16">
     <g id="line2d_25">
      <g>
       <use xlink:href="#ma0187b5d78" x="855.251141" y="395.28" style="stroke: #000000; stroke-width: 0.8"/>
      </g>
     </g>
     <g id="text_26">
      <!-- 350 -->
      <g transform="translate(846.909734 409.437812)scale(0.1 -0.1)">
       <use xlink:href="#ArialMT-33"/>
       <use xlink:href="#ArialMT-35" x="55.615234"/>
       <use xlink:href="#ArialMT-30" x="111.230469"/>
      </g>
     </g>
    </g>
    <g id="text_27">
     <!-- Temperature ($^{\circ}$C) -->
     <g transform="translate(651.80147 422.725312)scale(0.1 -0.1)">
      <use xlink:href="#ArialMT-54" transform="translate(0 0.203125)"/>
      <use xlink:href="#ArialMT-65" transform="translate(61.083984 0.203125)"/>
      <use xlink:href="#ArialMT-6d" transform="translate(116.699219 0.203125)"/>
      <use xlink:href="#ArialMT-70" transform="translate(200 0.203125)"/>
      <use xlink:href="#ArialMT-65" transform="translate(255.615234 0.203125)"/>
      <use xlink:href="#ArialMT-72" transform="translate(311.230469 0.203125)"/>
      <use xlink:href="#ArialMT-61" transform="translate(344.53125 0.203125)"/>
      <use xlink:href="#ArialMT-74" transform="translate(400.146484 0.203125)"/>
      <use xlink:href="#ArialMT-75" transform="translate(427.929688 0.203125)"/>
      <use xlink:href="#ArialMT-72" transform="translate(483.544922 0.203125)"/>
      <use xlink:href="#ArialMT-65" transform="translate(516.845703 0.203125)"/>
      <use xlink:href="#ArialMT-20" transform="translate(572.460938 0.203125)"/>
      <use xlink:href="#ArialMT-28" transform="translate(600.244141 0.203125)"/>
      <use xlink:href="#Cmsy10-b1" transform="translate(638.009063 38.467188)scale(0.7)"/>
      <use xlink:href="#ArialMT-43" transform="translate(679.386406 0.203125)"/>
      <use xlink:href="#ArialMT-29" transform="translate(751.603203 0.203125)"/>
     </g>
    </g>
   </g>
   <g id="matplotlib.axis_4">
    <g id="ytick_9">
     <g id="line2d_26">
      <defs>
       <path id="m39e0e562be" d="M 0 0 
L 3.5 0 
" style="stroke: #000000; stroke-width: 0.8"/>
      </defs>
      <g>
       <use xlink:href="#m39e0e562be" x="898.229688" y="338.009846" style="stroke: #000000; stroke-width: 0.8"/>
      </g>
     </g>
     <g id="text_28">
      <!-- −20 -->
      <g transform="translate(905.229688 341.588753)scale(0.1 -0.1)">
       <use xlink:href="#ArialMT-2212"/>
       <use xlink:href="#ArialMT-32" x="58.398438"/>
       <use xlink:href="#ArialMT-30" x="114.013672"/>
      </g>
     </g>
    </g>
    <g id="ytick_10">
     <g id="line2d_27">
      <g>
       <use xlink:href="#m39e0e562be" x="898.229688" y="269.246726" style="stroke: #000000; stroke-width: 0.8"/>
      </g>
     </g>
     <g id="text_29">
      <!-- −10 -->
      <g transform="translate(905.229688 272.825632)scale(0.1 -0.1)">
       <use xlink:href="#ArialMT-2212"/>
       <use xlink:href="#ArialMT-31" x="58.398438"/>
       <use xlink:href="#ArialMT-30" x="114.013672"/>
      </g>
     </g>
    </g>
    <g id="ytick_11">
     <g id="line2d_28">
      <g>
       <use xlink:href="#m39e0e562be" x="898.229688" y="200.483606" style="stroke: #000000; stroke-width: 0.8"/>
      </g>
     </g>
     <g id="text_30">
      <!-- 0 -->
      <g transform="translate(905.229688 204.062512)scale(0.1 -0.1)">
       <use xlink:href="#ArialMT-30"/>
      </g>
     </g>
    </g>
    <g id="ytick_12">
     <g id="line2d_29">
      <g>
       <use xlink:href="#m39e0e562be" x="898.229688" y="131.720485" style="stroke: #000000; stroke-width: 0.8"/>
      </g>
     </g>
     <g id="text_31">
      <!-- 10 -->
      <g transform="translate(905.229688 135.299392)scale(0.1 -0.1)">
       <use xlink:href="#ArialMT-31"/>
       <use xlink:href="#ArialMT-30" x="55.615234"/>
      </g>
     </g>
    </g>
    <g id="ytick_13">
     <g id="line2d_30">
      <g>
       <use xlink:href="#m39e0e562be" x="898.229688" y="62.957365" style="stroke: #000000; stroke-width: 0.8"/>
      </g>
     </g>
     <g id="text_32">
      <!-- 20 -->
      <g transform="translate(905.229688 66.536271)scale(0.1 -0.1)">
       <use xlink:href="#ArialMT-32"/>
       <use xlink:href="#ArialMT-30" x="55.615234"/>
      </g>
     </g>
    </g>
    <g id="text_33">
     <!-- Saturated density (kg/m^3): IAPS84 - IAPWS95 -->
     <g transform="translate(933.471875 306.682187)rotate(-90)scale(0.1 -0.1)">
      <defs>
       <path id="ArialMT-6e" d="M 422 0 
L 422 3319 
L 928 3319 
L 928 2847 
Q 1294 3394 1984 3394 
Q 2284 3394 2536 3286 
Q 2788 3178 2913 3003 
Q 3038 2828 3088 2588 
Q 3119 2431 3119 2041 
L 3119 0 
L 2556 0 
L 2556 2019 
Q 2556 2363 2490 2533 
Q 2425 2703 2258 2804 
Q 2091 2906 1866 2906 
Q 1506 2906 1245 2678 
Q 984 2450 984 1813 
L 984 0 
L 422 0 
z
" transform="scale(0.015625)"/>
       <path id="ArialMT-69" d="M 425 3934 
L 425 4581 
L 988 4581 
L 988 3934 
L 425 3934 
z
M 425 0 
L 425 3319 
L 988 3319 
L 988 0 
L 425 0 
z
" transform="scale(0.015625)"/>
       <path id="ArialMT-79" d="M 397 -1278 
L 334 -750 
Q 519 -800 656 -800 
Q 844 -800 956 -737 
Q 1069 -675 1141 -563 
Q 1194 -478 1313 -144 
Q 1328 -97 1363 -6 
L 103 3319 
L 709 3319 
L 1400 1397 
Q 1534 1031 1641 628 
Q 1738 1016 1872 1384 
L 2581 3319 
L 3144 3319 
L 1881 -56 
Q 1678 -603 1566 -809 
Q 1416 -1088 1222 -1217 
Q 1028 -1347 759 -1347 
Q 597 -1347 397 -1278 
z
" transform="scale(0.015625)"/>
       <path id="ArialMT-6b" d="M 425 0 
L 425 4581 
L 988 4581 
L 988 1969 
L 2319 3319 
L 3047 3319 
L 1778 2088 
L 3175 0 
L 2481 0 
L 1384 1697 
L 988 1316 
L 988 0 
L 425 0 
z
" transform="scale(0.015625)"/>
       <path id="ArialMT-67" d="M 319 -275 
L 866 -356 
Q 900 -609 1056 -725 
Q 1266 -881 1628 -881 
Q 2019 -881 2231 -725 
Q 2444 -569 2519 -288 
Q 2563 -116 2559 434 
Q 2191 0 1641 0 
Q 956 0 581 494 
Q 206 988 206 1678 
Q 206 2153 378 2554 
Q 550 2956 876 3175 
Q 1203 3394 1644 3394 
Q 2231 3394 2613 2919 
L 2613 3319 
L 3131 3319 
L 3131 450 
Q 3131 -325 2973 -648 
Q 2816 -972 2473 -1159 
Q 2131 -1347 1631 -1347 
Q 1038 -1347 672 -1080 
Q 306 -813 319 -275 
z
M 784 1719 
Q 784 1066 1043 766 
Q 1303 466 1694 466 
Q 2081 466 2343 764 
Q 2606 1063 2606 1700 
Q 2606 2309 2336 2618 
Q 2066 2928 1684 2928 
Q 1309 2928 1046 2623 
Q 784 2319 784 1719 
z
" transform="scale(0.015625)"/>
       <path id="ArialMT-2f" d="M 0 -78 
L 1328 4659 
L 1778 4659 
L 453 -78 
L 0 -78 
z
" transform="scale(0.015625)"/>
       <path id="ArialMT-5e" d="M 747 2156 
L 169 2156 
L 1272 4659 
L 1725 4659 
L 2834 2156 
L 2269 2156 
L 1497 4022 
L 747 2156 
z
" transform="scale(0.015625)"/>
      </defs>
      <use xlink:href="#ArialMT-53"/>
      <use xlink:href="#ArialMT-61" x="66.699219"/>
      <use xlink:href="#ArialMT-74" x="122.314453"/>
      <use xlink:href="#ArialMT-75" x="150.097656"/>
      <use xlink:href="#ArialMT-72" x="205.712891"/>
      <use xlink:href="#ArialMT-61" x="239.013672"/>
      <use xlink:href="#ArialMT-74" x="294.628906"/>
      <use xlink:href="#ArialMT-65" x="322.412109"/>
      <use xlink:href="#ArialMT-64" x="378.027344"/>
      <use xlink:href="#ArialMT-20" x="433.642578"/>
      <use xlink:href="#ArialMT-64" x="461.425781"/>
      <use xlink:href="#ArialMT-65" x="517.041016"/>
      <use xlink:href="#ArialMT-6e" x="572.65625"/>
      <use xlink:href="#ArialMT-73" x="628.271484"/>
      <use xlink:href="#ArialMT-69" x="678.271484"/>
      <use xlink:href="#ArialMT-74" x="700.488281"/>
      <use xlink:href="#ArialMT-79" x="728.271484"/>
      <use xlink:href="#ArialMT-20" x="778.271484"/>
      <use xlink:href="#ArialMT-28" x="806.054688"/>
      <use xlink:href="#ArialMT-6b" x="839.355469"/>
      <use xlink:href="#ArialMT-67" x="889.355469"/>
      <use xlink:href="#ArialMT-2f" x="944.970703"/>
      <use xlink:href="#ArialMT-6d" x="972.753906"/>
      <use xlink:href="#ArialMT-5e" x="1056.054688"/>
      <use xlink:href="#ArialMT-33" x="1102.978516"/>
      <use xlink:href="#ArialMT-29" x="1158.59375"/>
      <use xlink:href="#ArialMT-3a" x="1191.894531"/>
      <use xlink:href="#ArialMT-20" x="1219.677734"/>
      <use xlink:href="#ArialMT-49" x="1247.460938"/>
      <use xlink:href="#ArialMT-41" x="1275.244141"/>
      <use xlink:href="#ArialMT-50" x="1341.943359"/>
      <use xlink:href="#ArialMT-53" x="1408.642578"/>
      <use xlink:href="#ArialMT-38" x="1475.341797"/>
      <use xlink:href="#ArialMT-34" x="1530.957031"/>
      <use xlink:href="#ArialMT-20" x="1586.572266"/>
      <use xlink:href="#ArialMT-2d" x="1614.355469"/>
      <use xlink:href="#ArialMT-20" x="1647.65625"/>
      <use xlink:href="#ArialMT-49" x="1675.439453"/>
      <use xlink:href="#ArialMT-41" x="1703.222656"/>
      <use xlink:href="#ArialMT-50" x="1769.921875"/>
      <use xlink:href="#ArialMT-57" x="1836.621094"/>
      <use xlink:href="#ArialMT-53" x="1931.005859"/>
      <use xlink:href="#ArialMT-39" x="1997.705078"/>
      <use xlink:href="#ArialMT-35" x="2053.320312"/>
     </g>
    </g>
   </g>
   <g id="line2d_31">
    <path d="M 502.707635 200.553655 
L 506.512561 200.331904 
L 510.317487 200.236275 
L 514.122413 200.218854 
L 517.927339 200.246595 
L 521.732265 200.296905 
L 525.537191 200.35467 
L 529.342117 200.410166 
L 533.147043 200.457548 
L 536.951969 200.493733 
L 540.756895 200.517568 
L 544.561821 200.529205 
L 548.366747 200.529637 
L 552.171673 200.520358 
L 555.976599 200.503106 
L 559.781525 200.479692 
L 563.58645 200.451873 
L 567.391376 200.421272 
L 571.196302 200.389328 
L 575.001228 200.357274 
L 578.806154 200.326122 
L 582.61108 200.296671 
L 586.416006 200.269517 
L 590.220932 200.245071 
L 594.025858 200.223577 
L 597.830784 200.205135 
L 601.63571 200.189723 
L 605.440636 200.177216 
L 609.245562 200.167407 
L 613.050488 200.160026 
L 616.855414 200.154757 
L 620.66034 200.151248 
L 624.465266 200.149129 
L 628.270192 200.148021 
L 632.075117 200.147544 
L 635.880043 200.147327 
L 639.684969 200.147011 
L 643.489895 200.146257 
L 647.294821 200.144745 
L 651.099747 200.142183 
L 654.904673 200.138304 
L 658.709599 200.132866 
L 662.514525 200.125656 
L 666.319451 200.11649 
L 670.124377 200.105207 
L 673.929303 200.091676 
L 677.734229 200.075786 
L 681.539155 200.057453 
L 685.344081 200.036613 
L 689.149007 200.013226 
L 692.953933 199.987269 
L 696.758859 199.958737 
L 700.563785 199.927646 
L 704.36871 199.894025 
L 708.173636 199.857921 
L 711.978562 199.819397 
L 715.783488 199.778531 
L 719.588414 199.735417 
L 723.39334 199.690161 
L 727.198266 199.64289 
L 731.003192 199.593744 
L 734.808118 199.542879 
L 738.613044 199.490471 
L 742.41797 199.43671 
L 746.222896 199.381807 
L 750.027822 199.325988 
L 753.832748 199.269498 
L 757.637674 199.212599 
L 761.4426 199.155569 
L 765.247526 199.0987 
L 769.052452 199.042301 
L 772.857378 198.98669 
L 776.662303 198.9322 
L 780.467229 198.87918 
L 784.272155 198.827997 
L 788.077081 198.779051 
L 791.882007 198.732794 
L 795.686933 198.689767 
L 799.491859 198.650658 
L 803.296785 198.616393 
L 807.101711 198.588277 
L 810.906637 198.56819 
L 814.711563 198.55888 
L 818.516489 198.564345 
L 822.321415 198.590315 
L 826.126341 198.644789 
L 829.931267 198.738462 
L 833.736193 198.884662 
L 837.541119 199.097993 
L 841.346045 199.390098 
L 845.150971 199.759719 
L 848.955896 200.172489 
L 852.760822 200.524088 
L 856.565748 200.581554 
L 860.370674 199.914285 
L 864.1756 197.909974 
L 867.980526 194.271599 
L 871.785452 190.698975 
L 875.590378 188.446033 
L 879.395304 24.84 
" clip-path="url(#pcd220ab75e)" style="fill: none; stroke: #1f77b4; stroke-width: 1.5; stroke-linecap: square"/>
    <g clip-path="url(#pcd220ab75e)">
     <use xlink:href="#mb0282026bc" x="502.707635" y="200.553655" style="fill: #1f77b4; stroke: #1f77b4"/>
     <use xlink:href="#mb0282026bc" x="506.512561" y="200.331904" style="fill: #1f77b4; stroke: #1f77b4"/>
     <use xlink:href="#mb0282026bc" x="510.317487" y="200.236275" style="fill: #1f77b4; stroke: #1f77b4"/>
     <use xlink:href="#mb0282026bc" x="514.122413" y="200.218854" style="fill: #1f77b4; stroke: #1f77b4"/>
     <use xlink:href="#mb0282026bc" x="517.927339" y="200.246595" style="fill: #1f77b4; stroke: #1f77b4"/>
     <use xlink:href="#mb0282026bc" x="521.732265" y="200.296905" style="fill: #1f77b4; stroke: #1f77b4"/>
     <use xlink:href="#mb0282026bc" x="525.537191" y="200.35467" style="fill: #1f77b4; stroke: #1f77b4"/>
     <use xlink:href="#mb0282026bc" x="529.342117" y="200.410166" style="fill: #1f77b4; stroke: #1f77b4"/>
     <use xlink:href="#mb0282026bc" x="533.147043" y="200.457548" style="fill: #1f77b4; stroke: #1f77b4"/>
     <use xlink:href="#mb0282026bc" x="536.951969" y="200.493733" style="fill: #1f77b4; stroke: #1f77b4"/>
     <use xlink:href="#mb0282026bc" x="540.756895" y="200.517568" style="fill: #1f77b4; stroke: #1f77b4"/>
     <use xlink:href="#mb0282026bc" x="544.561821" y="200.529205" style="fill: #1f77b4; stroke: #1f77b4"/>
     <use xlink:href="#mb0282026bc" x="548.366747" y="200.529637" style="fill: #1f77b4; stroke: #1f77b4"/>
     <use xlink:href="#mb0282026bc" x="552.171673" y="200.520358" style="fill: #1f77b4; stroke: #1f77b4"/>
     <use xlink:href="#mb0282026bc" x="555.976599" y="200.503106" style="fill: #1f77b4; stroke: #1f77b4"/>
     <use xlink:href="#mb0282026bc" x="559.781525" y="200.479692" style="fill: #1f77b4; stroke: #1f77b4"/>
     <use xlink:href="#mb0282026bc" x="563.58645" y="200.451873" style="fill: #1f77b4; stroke: #1f77b4"/>
     <use xlink:href="#mb0282026bc" x="567.391376" y="200.421272" style="fill: #1f77b4; stroke: #1f77b4"/>
     <use xlink:href="#mb0282026bc" x="571.196302" y="200.389328" style="fill: #1f77b4; stroke: #1f77b4"/>
     <use xlink:href="#mb0282026bc" x="575.001228" y="200.357274" style="fill: #1f77b4; stroke: #1f77b4"/>
     <use xlink:href="#mb0282026bc" x="578.806154" y="200.326122" style="fill: #1f77b4; stroke: #1f77b4"/>
     <use xlink:href="#mb0282026bc" x="582.61108" y="200.296671" style="fill: #1f77b4; stroke: #1f77b4"/>
     <use xlink:href="#mb0282026bc" x="586.416006" y="200.269517" style="fill: #1f77b4; stroke: #1f77b4"/>
     <use xlink:href="#mb0282026bc" x="590.220932" y="200.245071" style="fill: #1f77b4; stroke: #1f77b4"/>
     <use xlink:href="#mb0282026bc" x="594.025858" y="200.223577" style="fill: #1f77b4; stroke: #1f77b4"/>
     <use xlink:href="#mb0282026bc" x="597.830784" y="200.205135" style="fill: #1f77b4; stroke: #1f77b4"/>
     <use xlink:href="#mb0282026bc" x="601.63571" y="200.189723" style="fill: #1f77b4; stroke: #1f77b4"/>
     <use xlink:href="#mb0282026bc" x="605.440636" y="200.177216" style="fill: #1f77b4; stroke: #1f77b4"/>
     <use xlink:href="#mb0282026bc" x="609.245562" y="200.167407" style="fill: #1f77b4; stroke: #1f77b4"/>
     <use xlink:href="#mb0282026bc" x="613.050488" y="200.160026" style="fill: #1f77b4; stroke: #1f77b4"/>
     <use xlink:href="#mb0282026bc" x="616.855414" y="200.154757" style="fill: #1f77b4; stroke: #1f77b4"/>
     <use xlink:href="#mb0282026bc" x="620.66034" y="200.151248" style="fill: #1f77b4; stroke: #1f77b4"/>
     <use xlink:href="#mb0282026bc" x="624.465266" y="200.149129" style="fill: #1f77b4; stroke: #1f77b4"/>
     <use xlink:href="#mb0282026bc" x="628.270192" y="200.148021" style="fill: #1f77b4; stroke: #1f77b4"/>
     <use xlink:href="#mb0282026bc" x="632.075117" y="200.147544" style="fill: #1f77b4; stroke: #1f77b4"/>
     <use xlink:href="#mb0282026bc" x="635.880043" y="200.147327" style="fill: #1f77b4; stroke: #1f77b4"/>
     <use xlink:href="#mb0282026bc" x="639.684969" y="200.147011" style="fill: #1f77b4; stroke: #1f77b4"/>
     <use xlink:href="#mb0282026bc" x="643.489895" y="200.146257" style="fill: #1f77b4; stroke: #1f77b4"/>
     <use xlink:href="#mb0282026bc" x="647.294821" y="200.144745" style="fill: #1f77b4; stroke: #1f77b4"/>
     <use xlink:href="#mb0282026bc" x="651.099747" y="200.142183" style="fill: #1f77b4; stroke: #1f77b4"/>
     <use xlink:href="#mb0282026bc" x="654.904673" y="200.138304" style="fill: #1f77b4; stroke: #1f77b4"/>
     <use xlink:href="#mb0282026bc" x="658.709599" y="200.132866" style="fill: #1f77b4; stroke: #1f77b4"/>
     <use xlink:href="#mb0282026bc" x="662.514525" y="200.125656" style="fill: #1f77b4; stroke: #1f77b4"/>
     <use xlink:href="#mb0282026bc" x="666.319451" y="200.11649" style="fill: #1f77b4; stroke: #1f77b4"/>
     <use xlink:href="#mb0282026bc" x="670.124377" y="200.105207" style="fill: #1f77b4; stroke: #1f77b4"/>
     <use xlink:href="#mb0282026bc" x="673.929303" y="200.091676" style="fill: #1f77b4; stroke: #1f77b4"/>
     <use xlink:href="#mb0282026bc" x="677.734229" y="200.075786" style="fill: #1f77b4; stroke: #1f77b4"/>
     <use xlink:href="#mb0282026bc" x="681.539155" y="200.057453" style="fill: #1f77b4; stroke: #1f77b4"/>
     <use xlink:href="#mb0282026bc" x="685.344081" y="200.036613" style="fill: #1f77b4; stroke: #1f77b4"/>
     <use xlink:href="#mb0282026bc" x="689.149007" y="200.013226" style="fill: #1f77b4; stroke: #1f77b4"/>
     <use xlink:href="#mb0282026bc" x="692.953933" y="199.987269" style="fill: #1f77b4; stroke: #1f77b4"/>
     <use xlink:href="#mb0282026bc" x="696.758859" y="199.958737" style="fill: #1f77b4; stroke: #1f77b4"/>
     <use xlink:href="#mb0282026bc" x="700.563785" y="199.927646" style="fill: #1f77b4; stroke: #1f77b4"/>
     <use xlink:href="#mb0282026bc" x="704.36871" y="199.894025" style="fill: #1f77b4; stroke: #1f77b4"/>
     <use xlink:href="#mb0282026bc" x="708.173636" y="199.857921" style="fill: #1f77b4; stroke: #1f77b4"/>
     <use xlink:href="#mb0282026bc" x="711.978562" y="199.819397" style="fill: #1f77b4; stroke: #1f77b4"/>
     <use xlink:href="#mb0282026bc" x="715.783488" y="199.778531" style="fill: #1f77b4; stroke: #1f77b4"/>
     <use xlink:href="#mb0282026bc" x="719.588414" y="199.735417" style="fill: #1f77b4; stroke: #1f77b4"/>
     <use xlink:href="#mb0282026bc" x="723.39334" y="199.690161" style="fill: #1f77b4; stroke: #1f77b4"/>
     <use xlink:href="#mb0282026bc" x="727.198266" y="199.64289" style="fill: #1f77b4; stroke: #1f77b4"/>
     <use xlink:href="#mb0282026bc" x="731.003192" y="199.593744" style="fill: #1f77b4; stroke: #1f77b4"/>
     <use xlink:href="#mb0282026bc" x="734.808118" y="199.542879" style="fill: #1f77b4; stroke: #1f77b4"/>
     <use xlink:href="#mb0282026bc" x="738.613044" y="199.490471" style="fill: #1f77b4; stroke: #1f77b4"/>
     <use xlink:href="#mb0282026bc" x="742.41797" y="199.43671" style="fill: #1f77b4; stroke: #1f77b4"/>
     <use xlink:href="#mb0282026bc" x="746.222896" y="199.381807" style="fill: #1f77b4; stroke: #1f77b4"/>
     <use xlink:href="#mb0282026bc" x="750.027822" y="199.325988" style="fill: #1f77b4; stroke: #1f77b4"/>
     <use xlink:href="#mb0282026bc" x="753.832748" y="199.269498" style="fill: #1f77b4; stroke: #1f77b4"/>
     <use xlink:href="#mb0282026bc" x="757.637674" y="199.212599" style="fill: #1f77b4; stroke: #1f77b4"/>
     <use xlink:href="#mb0282026bc" x="761.4426" y="199.155569" style="fill: #1f77b4; stroke: #1f77b4"/>
     <use xlink:href="#mb0282026bc" x="765.247526" y="199.0987" style="fill: #1f77b4; stroke: #1f77b4"/>
     <use xlink:href="#mb0282026bc" x="769.052452" y="199.042301" style="fill: #1f77b4; stroke: #1f77b4"/>
     <use xlink:href="#mb0282026bc" x="772.857378" y="198.98669" style="fill: #1f77b4; stroke: #1f77b4"/>
     <use xlink:href="#mb0282026bc" x="776.662303" y="198.9322" style="fill: #1f77b4; stroke: #1f77b4"/>
     <use xlink:href="#mb0282026bc" x="780.467229" y="198.87918" style="fill: #1f77b4; stroke: #1f77b4"/>
     <use xlink:href="#mb0282026bc" x="784.272155" y="198.827997" style="fill: #1f77b4; stroke: #1f77b4"/>
     <use xlink:href="#mb0282026bc" x="788.077081" y="198.779051" style="fill: #1f77b4; stroke: #1f77b4"/>
     <use xlink:href="#mb0282026bc" x="791.882007" y="198.732794" style="fill: #1f77b4; stroke: #1f77b4"/>
     <use xlink:href="#mb0282026bc" x="795.686933" y="198.689767" style="fill: #1f77b4; stroke: #1f77b4"/>
     <use xlink:href="#mb0282026bc" x="799.491859" y="198.650658" style="fill: #1f77b4; stroke: #1f77b4"/>
     <use xlink:href="#mb0282026bc" x="803.296785" y="198.616393" style="fill: #1f77b4; stroke: #1f77b4"/>
     <use xlink:href="#mb0282026bc" x="807.101711" y="198.588277" style="fill: #1f77b4; stroke: #1f77b4"/>
     <use xlink:href="#mb0282026bc" x="810.906637" y="198.56819" style="fill: #1f77b4; stroke: #1f77b4"/>
     <use xlink:href="#mb0282026bc" x="814.711563" y="198.55888" style="fill: #1f77b4; stroke: #1f77b4"/>
     <use xlink:href="#mb0282026bc" x="818.516489" y="198.564345" style="fill: #1f77b4; stroke: #1f77b4"/>
     <use xlink:href="#mb0282026bc" x="822.321415" y="198.590315" style="fill: #1f77b4; stroke: #1f77b4"/>
     <use xlink:href="#mb0282026bc" x="826.126341" y="198.644789" style="fill: #1f77b4; stroke: #1f77b4"/>
     <use xlink:href="#mb0282026bc" x="829.931267" y="198.738462" style="fill: #1f77b4; stroke: #1f77b4"/>
     <use xlink:href="#mb0282026bc" x="833.736193" y="198.884662" style="fill: #1f77b4; stroke: #1f77b4"/>
     <use xlink:href="#mb0282026bc" x="837.541119" y="199.097993" style="fill: #1f77b4; stroke: #1f77b4"/>
     <use xlink:href="#mb0282026bc" x="841.346045" y="199.390098" style="fill: #1f77b4; stroke: #1f77b4"/>
     <use xlink:href="#mb0282026bc" x="845.150971" y="199.759719" style="fill: #1f77b4; stroke: #1f77b4"/>
     <use xlink:href="#mb0282026bc" x="848.955896" y="200.172489" style="fill: #1f77b4; stroke: #1f77b4"/>
     <use xlink:href="#mb0282026bc" x="852.760822" y="200.524088" style="fill: #1f77b4; stroke: #1f77b4"/>
     <use xlink:href="#mb0282026bc" x="856.565748" y="200.581554" style="fill: #1f77b4; stroke: #1f77b4"/>
     <use xlink:href="#mb0282026bc" x="860.370674" y="199.914285" style="fill: #1f77b4; stroke: #1f77b4"/>
     <use xlink:href="#mb0282026bc" x="864.1756" y="197.909974" style="fill: #1f77b4; stroke: #1f77b4"/>
     <use xlink:href="#mb0282026bc" x="867.980526" y="194.271599" style="fill: #1f77b4; stroke: #1f77b4"/>
     <use xlink:href="#mb0282026bc" x="871.785452" y="190.698975" style="fill: #1f77b4; stroke: #1f77b4"/>
     <use xlink:href="#mb0282026bc" x="875.590378" y="188.446033" style="fill: #1f77b4; stroke: #1f77b4"/>
     <use xlink:href="#mb0282026bc" x="879.395304" y="24.84" style="fill: #1f77b4; stroke: #1f77b4"/>
    </g>
   </g>
   <g id="line2d_32">
    <path d="M 502.707635 200.483605 
L 506.512561 200.483609 
L 510.317487 200.483614 
L 514.122413 200.483621 
L 517.927339 200.483632 
L 521.732265 200.483646 
L 525.537191 200.483664 
L 529.342117 200.483689 
L 533.147043 200.48372 
L 536.951969 200.483761 
L 540.756895 200.483812 
L 544.561821 200.483877 
L 548.366747 200.483956 
L 552.171673 200.484052 
L 555.976599 200.484168 
L 559.781525 200.484306 
L 563.58645 200.484468 
L 567.391376 200.484658 
L 571.196302 200.484877 
L 575.001228 200.485127 
L 578.806154 200.485412 
L 582.61108 200.485734 
L 586.416006 200.486094 
L 590.220932 200.486495 
L 594.025858 200.486939 
L 597.830784 200.487429 
L 601.63571 200.487967 
L 605.440636 200.488555 
L 609.245562 200.489196 
L 613.050488 200.489892 
L 616.855414 200.490648 
L 620.66034 200.491466 
L 624.465266 200.49235 
L 628.270192 200.493303 
L 632.075117 200.494331 
L 635.880043 200.495436 
L 639.684969 200.496624 
L 643.489895 200.497898 
L 647.294821 200.499262 
L 651.099747 200.500719 
L 654.904673 200.502274 
L 658.709599 200.503927 
L 662.514525 200.50568 
L 666.319451 200.507533 
L 670.124377 200.509484 
L 673.929303 200.511532 
L 677.734229 200.513671 
L 681.539155 200.515895 
L 685.344081 200.518198 
L 689.149007 200.52057 
L 692.953933 200.523 
L 696.758859 200.525477 
L 700.563785 200.527987 
L 704.36871 200.530516 
L 708.173636 200.533049 
L 711.978562 200.535572 
L 715.783488 200.538068 
L 719.588414 200.540524 
L 723.39334 200.542924 
L 727.198266 200.545255 
L 731.003192 200.547505 
L 734.808118 200.549664 
L 738.613044 200.551722 
L 742.41797 200.553673 
L 746.222896 200.55551 
L 750.027822 200.557231 
L 753.832748 200.558836 
L 757.637674 200.560325 
L 761.4426 200.561704 
L 765.247526 200.562979 
L 769.052452 200.564164 
L 772.857378 200.565276 
L 776.662303 200.566341 
L 780.467229 200.567397 
L 784.272155 200.568499 
L 788.077081 200.569723 
L 791.882007 200.571179 
L 795.686933 200.573018 
L 799.491859 200.575452 
L 803.296785 200.57877 
L 807.101711 200.583364 
L 810.906637 200.589761 
L 814.711563 200.59866 
L 818.516489 200.61098 
L 822.321415 200.627917 
L 826.126341 200.651005 
L 829.931267 200.682196 
L 833.736193 200.72394 
L 837.541119 200.77928 
L 841.346045 200.851937 
L 845.150971 200.946424 
L 848.955896 201.068189 
L 852.760822 201.224046 
L 856.565748 201.423751 
L 860.370674 201.686549 
L 864.1756 202.069303 
L 867.980526 202.785753 
L 871.785452 204.65223 
L 875.590378 211.722428 
L 879.395304 377.64 
" clip-path="url(#pcd220ab75e)" style="fill: none; stroke: #ff7f0e; stroke-width: 1.5; stroke-linecap: square"/>
    <defs>
     <path id="mae48f38abb" d="M 0 1.5 
C 0.397805 1.5 0.77937 1.341951 1.06066 1.06066 
C 1.341951 0.77937 1.5 0.397805 1.5 0 
C 1.5 -0.397805 1.341951 -0.77937 1.06066 -1.06066 
C 0.77937 -1.341951 0.397805 -1.5 0 -1.5 
C -0.397805 -1.5 -0.77937 -1.341951 -1.06066 -1.06066 
C -1.341951 -0.77937 -1.5 -0.397805 -1.5 0 
C -1.5 0.397805 -1.341951 0.77937 -1.06066 1.06066 
C -0.77937 1.341951 -0.397805 1.5 0 1.5 
z
" style="stroke: #ff7f0e"/>
    </defs>
    <g clip-path="url(#pcd220ab75e)">
     <use xlink:href="#mae48f38abb" x="502.707635" y="200.483605" style="fill: #ff7f0e; stroke: #ff7f0e"/>
     <use xlink:href="#mae48f38abb" x="506.512561" y="200.483609" style="fill: #ff7f0e; stroke: #ff7f0e"/>
     <use xlink:href="#mae48f38abb" x="510.317487" y="200.483614" style="fill: #ff7f0e; stroke: #ff7f0e"/>
     <use xlink:href="#mae48f38abb" x="514.122413" y="200.483621" style="fill: #ff7f0e; stroke: #ff7f0e"/>
     <use xlink:href="#mae48f38abb" x="517.927339" y="200.483632" style="fill: #ff7f0e; stroke: #ff7f0e"/>
     <use xlink:href="#mae48f38abb" x="521.732265" y="200.483646" style="fill: #ff7f0e; stroke: #ff7f0e"/>
     <use xlink:href="#mae48f38abb" x="525.537191" y="200.483664" style="fill: #ff7f0e; stroke: #ff7f0e"/>
     <use xlink:href="#mae48f38abb" x="529.342117" y="200.483689" style="fill: #ff7f0e; stroke: #ff7f0e"/>
     <use xlink:href="#mae48f38abb" x="533.147043" y="200.48372" style="fill: #ff7f0e; stroke: #ff7f0e"/>
     <use xlink:href="#mae48f38abb" x="536.951969" y="200.483761" style="fill: #ff7f0e; stroke: #ff7f0e"/>
     <use xlink:href="#mae48f38abb" x="540.756895" y="200.483812" style="fill: #ff7f0e; stroke: #ff7f0e"/>
     <use xlink:href="#mae48f38abb" x="544.561821" y="200.483877" style="fill: #ff7f0e; stroke: #ff7f0e"/>
     <use xlink:href="#mae48f38abb" x="548.366747" y="200.483956" style="fill: #ff7f0e; stroke: #ff7f0e"/>
     <use xlink:href="#mae48f38abb" x="552.171673" y="200.484052" style="fill: #ff7f0e; stroke: #ff7f0e"/>
     <use xlink:href="#mae48f38abb" x="555.976599" y="200.484168" style="fill: #ff7f0e; stroke: #ff7f0e"/>
     <use xlink:href="#mae48f38abb" x="559.781525" y="200.484306" style="fill: #ff7f0e; stroke: #ff7f0e"/>
     <use xlink:href="#mae48f38abb" x="563.58645" y="200.484468" style="fill: #ff7f0e; stroke: #ff7f0e"/>
     <use xlink:href="#mae48f38abb" x="567.391376" y="200.484658" style="fill: #ff7f0e; stroke: #ff7f0e"/>
     <use xlink:href="#mae48f38abb" x="571.196302" y="200.484877" style="fill: #ff7f0e; stroke: #ff7f0e"/>
     <use xlink:href="#mae48f38abb" x="575.001228" y="200.485127" style="fill: #ff7f0e; stroke: #ff7f0e"/>
     <use xlink:href="#mae48f38abb" x="578.806154" y="200.485412" style="fill: #ff7f0e; stroke: #ff7f0e"/>
     <use xlink:href="#mae48f38abb" x="582.61108" y="200.485734" style="fill: #ff7f0e; stroke: #ff7f0e"/>
     <use xlink:href="#mae48f38abb" x="586.416006" y="200.486094" style="fill: #ff7f0e; stroke: #ff7f0e"/>
     <use xlink:href="#mae48f38abb" x="590.220932" y="200.486495" style="fill: #ff7f0e; stroke: #ff7f0e"/>
     <use xlink:href="#mae48f38abb" x="594.025858" y="200.486939" style="fill: #ff7f0e; stroke: #ff7f0e"/>
     <use xlink:href="#mae48f38abb" x="597.830784" y="200.487429" style="fill: #ff7f0e; stroke: #ff7f0e"/>
     <use xlink:href="#mae48f38abb" x="601.63571" y="200.487967" style="fill: #ff7f0e; stroke: #ff7f0e"/>
     <use xlink:href="#mae48f38abb" x="605.440636" y="200.488555" style="fill: #ff7f0e; stroke: #ff7f0e"/>
     <use xlink:href="#mae48f38abb" x="609.245562" y="200.489196" style="fill: #ff7f0e; stroke: #ff7f0e"/>
     <use xlink:href="#mae48f38abb" x="613.050488" y="200.489892" style="fill: #ff7f0e; stroke: #ff7f0e"/>
     <use xlink:href="#mae48f38abb" x="616.855414" y="200.490648" style="fill: #ff7f0e; stroke: #ff7f0e"/>
     <use xlink:href="#mae48f38abb" x="620.66034" y="200.491466" style="fill: #ff7f0e; stroke: #ff7f0e"/>
     <use xlink:href="#mae48f38abb" x="624.465266" y="200.49235" style="fill: #ff7f0e; stroke: #ff7f0e"/>
     <use xlink:href="#mae48f38abb" x="628.270192" y="200.493303" style="fill: #ff7f0e; stroke: #ff7f0e"/>
     <use xlink:href="#mae48f38abb" x="632.075117" y="200.494331" style="fill: #ff7f0e; stroke: #ff7f0e"/>
     <use xlink:href="#mae48f38abb" x="635.880043" y="200.495436" style="fill: #ff7f0e; stroke: #ff7f0e"/>
     <use xlink:href="#mae48f38abb" x="639.684969" y="200.496624" style="fill: #ff7f0e; stroke: #ff7f0e"/>
     <use xlink:href="#mae48f38abb" x="643.489895" y="200.497898" style="fill: #ff7f0e; stroke: #ff7f0e"/>
     <use xlink:href="#mae48f38abb" x="647.294821" y="200.499262" style="fill: #ff7f0e; stroke: #ff7f0e"/>
     <use xlink:href="#mae48f38abb" x="651.099747" y="200.500719" style="fill: #ff7f0e; stroke: #ff7f0e"/>
     <use xlink:href="#mae48f38abb" x="654.904673" y="200.502274" style="fill: #ff7f0e; stroke: #ff7f0e"/>
     <use xlink:href="#mae48f38abb" x="658.709599" y="200.503927" style="fill: #ff7f0e; stroke: #ff7f0e"/>
     <use xlink:href="#mae48f38abb" x="662.514525" y="200.50568" style="fill: #ff7f0e; stroke: #ff7f0e"/>
     <use xlink:href="#mae48f38abb" x="666.319451" y="200.507533" style="fill: #ff7f0e; stroke: #ff7f0e"/>
     <use xlink:href="#mae48f38abb" x="670.124377" y="200.509484" style="fill: #ff7f0e; stroke: #ff7f0e"/>
     <use xlink:href="#mae48f38abb" x="673.929303" y="200.511532" style="fill: #ff7f0e; stroke: #ff7f0e"/>
     <use xlink:href="#mae48f38abb" x="677.734229" y="200.513671" style="fill: #ff7f0e; stroke: #ff7f0e"/>
     <use xlink:href="#mae48f38abb" x="681.539155" y="200.515895" style="fill: #ff7f0e; stroke: #ff7f0e"/>
     <use xlink:href="#mae48f38abb" x="685.344081" y="200.518198" style="fill: #ff7f0e; stroke: #ff7f0e"/>
     <use xlink:href="#mae48f38abb" x="689.149007" y="200.52057" style="fill: #ff7f0e; stroke: #ff7f0e"/>
     <use xlink:href="#mae48f38abb" x="692.953933" y="200.523" style="fill: #ff7f0e; stroke: #ff7f0e"/>
     <use xlink:href="#mae48f38abb" x="696.758859" y="200.525477" style="fill: #ff7f0e; stroke: #ff7f0e"/>
     <use xlink:href="#mae48f38abb" x="700.563785" y="200.527987" style="fill: #ff7f0e; stroke: #ff7f0e"/>
     <use xlink:href="#mae48f38abb" x="704.36871" y="200.530516" style="fill: #ff7f0e; stroke: #ff7f0e"/>
     <use xlink:href="#mae48f38abb" x="708.173636" y="200.533049" style="fill: #ff7f0e; stroke: #ff7f0e"/>
     <use xlink:href="#mae48f38abb" x="711.978562" y="200.535572" style="fill: #ff7f0e; stroke: #ff7f0e"/>
     <use xlink:href="#mae48f38abb" x="715.783488" y="200.538068" style="fill: #ff7f0e; stroke: #ff7f0e"/>
     <use xlink:href="#mae48f38abb" x="719.588414" y="200.540524" style="fill: #ff7f0e; stroke: #ff7f0e"/>
     <use xlink:href="#mae48f38abb" x="723.39334" y="200.542924" style="fill: #ff7f0e; stroke: #ff7f0e"/>
     <use xlink:href="#mae48f38abb" x="727.198266" y="200.545255" style="fill: #ff7f0e; stroke: #ff7f0e"/>
     <use xlink:href="#mae48f38abb" x="731.003192" y="200.547505" style="fill: #ff7f0e; stroke: #ff7f0e"/>
     <use xlink:href="#mae48f38abb" x="734.808118" y="200.549664" style="fill: #ff7f0e; stroke: #ff7f0e"/>
     <use xlink:href="#mae48f38abb" x="738.613044" y="200.551722" style="fill: #ff7f0e; stroke: #ff7f0e"/>
     <use xlink:href="#mae48f38abb" x="742.41797" y="200.553673" style="fill: #ff7f0e; stroke: #ff7f0e"/>
     <use xlink:href="#mae48f38abb" x="746.222896" y="200.55551" style="fill: #ff7f0e; stroke: #ff7f0e"/>
     <use xlink:href="#mae48f38abb" x="750.027822" y="200.557231" style="fill: #ff7f0e; stroke: #ff7f0e"/>
     <use xlink:href="#mae48f38abb" x="753.832748" y="200.558836" style="fill: #ff7f0e; stroke: #ff7f0e"/>
     <use xlink:href="#mae48f38abb" x="757.637674" y="200.560325" style="fill: #ff7f0e; stroke: #ff7f0e"/>
     <use xlink:href="#mae48f38abb" x="761.4426" y="200.561704" style="fill: #ff7f0e; stroke: #ff7f0e"/>
     <use xlink:href="#mae48f38abb" x="765.247526" y="200.562979" style="fill: #ff7f0e; stroke: #ff7f0e"/>
     <use xlink:href="#mae48f38abb" x="769.052452" y="200.564164" style="fill: #ff7f0e; stroke: #ff7f0e"/>
     <use xlink:href="#mae48f38abb" x="772.857378" y="200.565276" style="fill: #ff7f0e; stroke: #ff7f0e"/>
     <use xlink:href="#mae48f38abb" x="776.662303" y="200.566341" style="fill: #ff7f0e; stroke: #ff7f0e"/>
     <use xlink:href="#mae48f38abb" x="780.467229" y="200.567397" style="fill: #ff7f0e; stroke: #ff7f0e"/>
     <use xlink:href="#mae48f38abb" x="784.272155" y="200.568499" style="fill: #ff7f0e; stroke: #ff7f0e"/>
     <use xlink:href="#mae48f38abb" x="788.077081" y="200.569723" style="fill: #ff7f0e; stroke: #ff7f0e"/>
     <use xlink:href="#mae48f38abb" x="791.882007" y="200.571179" style="fill: #ff7f0e; stroke: #ff7f0e"/>
     <use xlink:href="#mae48f38abb" x="795.686933" y="200.573018" style="fill: #ff7f0e; stroke: #ff7f0e"/>
     <use xlink:href="#mae48f38abb" x="799.491859" y="200.575452" style="fill: #ff7f0e; stroke: #ff7f0e"/>
     <use xlink:href="#mae48f38abb" x="803.296785" y="200.57877" style="fill: #ff7f0e; stroke: #ff7f0e"/>
     <use xlink:href="#mae48f38abb" x="807.101711" y="200.583364" style="fill: #ff7f0e; stroke: #ff7f0e"/>
     <use xlink:href="#mae48f38abb" x="810.906637" y="200.589761" style="fill: #ff7f0e; stroke: #ff7f0e"/>
     <use xlink:href="#mae48f38abb" x="814.711563" y="200.59866" style="fill: #ff7f0e; stroke: #ff7f0e"/>
     <use xlink:href="#mae48f38abb" x="818.516489" y="200.61098" style="fill: #ff7f0e; stroke: #ff7f0e"/>
     <use xlink:href="#mae48f38abb" x="822.321415" y="200.627917" style="fill: #ff7f0e; stroke: #ff7f0e"/>
     <use xlink:href="#mae48f38abb" x="826.126341" y="200.651005" style="fill: #ff7f0e; stroke: #ff7f0e"/>
     <use xlink:href="#mae48f38abb" x="829.931267" y="200.682196" style="fill: #ff7f0e; stroke: #ff7f0e"/>
     <use xlink:href="#mae48f38abb" x="833.736193" y="200.72394" style="fill: #ff7f0e; stroke: #ff7f0e"/>
     <use xlink:href="#mae48f38abb" x="837.541119" y="200.77928" style="fill: #ff7f0e; stroke: #ff7f0e"/>
     <use xlink:href="#mae48f38abb" x="841.346045" y="200.851937" style="fill: #ff7f0e; stroke: #ff7f0e"/>
     <use xlink:href="#mae48f38abb" x="845.150971" y="200.946424" style="fill: #ff7f0e; stroke: #ff7f0e"/>
     <use xlink:href="#mae48f38abb" x="848.955896" y="201.068189" style="fill: #ff7f0e; stroke: #ff7f0e"/>
     <use xlink:href="#mae48f38abb" x="852.760822" y="201.224046" style="fill: #ff7f0e; stroke: #ff7f0e"/>
     <use xlink:href="#mae48f38abb" x="856.565748" y="201.423751" style="fill: #ff7f0e; stroke: #ff7f0e"/>
     <use xlink:href="#mae48f38abb" x="860.370674" y="201.686549" style="fill: #ff7f0e; stroke: #ff7f0e"/>
     <use xlink:href="#mae48f38abb" x="864.1756" y="202.069303" style="fill: #ff7f0e; stroke: #ff7f0e"/>
     <use xlink:href="#mae48f38abb" x="867.980526" y="202.785753" style="fill: #ff7f0e; stroke: #ff7f0e"/>
     <use xlink:href="#mae48f38abb" x="871.785452" y="204.65223" style="fill: #ff7f0e; stroke: #ff7f0e"/>
     <use xlink:href="#mae48f38abb" x="875.590378" y="211.722428" style="fill: #ff7f0e; stroke: #ff7f0e"/>
     <use xlink:href="#mae48f38abb" x="879.395304" y="377.64" style="fill: #ff7f0e; stroke: #ff7f0e"/>
    </g>
   </g>
   <g id="patch_8">
    <path d="M 483.873252 395.28 
L 483.873252 7.2 
" style="fill: none; stroke: #000000; stroke-width: 0.8; stroke-linejoin: miter; stroke-linecap: square"/>
   </g>
   <g id="patch_9">
    <path d="M 898.229688 395.28 
L 898.229688 7.2 
" style="fill: none; stroke: #000000; stroke-width: 0.8; stroke-linejoin: miter; stroke-linecap: square"/>
   </g>
   <g id="patch_10">
    <path d="M 483.873252 395.28 
L 898.229688 395.28 
" style="fill: none; stroke: #000000; stroke-width: 0.8; stroke-linejoin: miter; stroke-linecap: square"/>
   </g>
   <g id="patch_11">
    <path d="M 483.873252 7.2 
L 898.229688 7.2 
" style="fill: none; stroke: #000000; stroke-width: 0.8; stroke-linejoin: miter; stroke-linecap: square"/>
   </g>
   <g id="legend_1">
    <g id="patch_12">
     <path d="M 490.873252 43.490625 
L 549.560752 43.490625 
Q 551.560752 43.490625 551.560752 41.490625 
L 551.560752 14.2 
Q 551.560752 12.2 549.560752 12.2 
L 490.873252 12.2 
Q 488.873252 12.2 488.873252 14.2 
L 488.873252 41.490625 
Q 488.873252 43.490625 490.873252 43.490625 
z
" style="fill: #ffffff; opacity: 0.8; stroke: #cccccc; stroke-linejoin: miter"/>
    </g>
    <g id="line2d_33">
     <path d="M 492.873252 19.857812 
L 502.873252 19.857812 
L 512.873252 19.857812 
" style="fill: none; stroke: #1f77b4; stroke-width: 1.5; stroke-linecap: square"/>
     <g>
      <use xlink:href="#mb0282026bc" x="502.873252" y="19.857812" style="fill: #1f77b4; stroke: #1f77b4"/>
     </g>
    </g>
    <g id="text_34">
     <!-- Liquid -->
     <g transform="translate(520.873252 23.357812)scale(0.1 -0.1)">
      <defs>
       <path id="ArialMT-4c" d="M 469 0 
L 469 4581 
L 1075 4581 
L 1075 541 
L 3331 541 
L 3331 0 
L 469 0 
z
" transform="scale(0.015625)"/>
       <path id="ArialMT-71" d="M 2538 -1272 
L 2538 353 
Q 2406 169 2170 47 
Q 1934 -75 1669 -75 
Q 1078 -75 651 397 
Q 225 869 225 1691 
Q 225 2191 398 2587 
Q 572 2984 901 3189 
Q 1231 3394 1625 3394 
Q 2241 3394 2594 2875 
L 2594 3319 
L 3100 3319 
L 3100 -1272 
L 2538 -1272 
z
M 803 1669 
Q 803 1028 1072 708 
Q 1341 388 1716 388 
Q 2075 388 2334 692 
Q 2594 997 2594 1619 
Q 2594 2281 2320 2615 
Q 2047 2950 1678 2950 
Q 1313 2950 1058 2639 
Q 803 2328 803 1669 
z
" transform="scale(0.015625)"/>
      </defs>
      <use xlink:href="#ArialMT-4c"/>
      <use xlink:href="#ArialMT-69" x="55.615234"/>
      <use xlink:href="#ArialMT-71" x="77.832031"/>
      <use xlink:href="#ArialMT-75" x="133.447266"/>
      <use xlink:href="#ArialMT-69" x="189.0625"/>
      <use xlink:href="#ArialMT-64" x="211.279297"/>
     </g>
    </g>
    <g id="line2d_34">
     <path d="M 492.873252 34.003125 
L 502.873252 34.003125 
L 512.873252 34.003125 
" style="fill: none; stroke: #ff7f0e; stroke-width: 1.5; stroke-linecap: square"/>
     <g>
      <use xlink:href="#mae48f38abb" x="502.873252" y="34.003125" style="fill: #ff7f0e; stroke: #ff7f0e"/>
     </g>
    </g>
    <g id="text_35">
     <!-- Vapor -->
     <g transform="translate(520.873252 37.503125)scale(0.1 -0.1)">
      <defs>
       <path id="ArialMT-56" d="M 1803 0 
L 28 4581 
L 684 4581 
L 1875 1253 
Q 2019 853 2116 503 
Q 2222 878 2363 1253 
L 3600 4581 
L 4219 4581 
L 2425 0 
L 1803 0 
z
" transform="scale(0.015625)"/>
       <path id="ArialMT-6f" d="M 213 1659 
Q 213 2581 725 3025 
Q 1153 3394 1769 3394 
Q 2453 3394 2887 2945 
Q 3322 2497 3322 1706 
Q 3322 1066 3130 698 
Q 2938 331 2570 128 
Q 2203 -75 1769 -75 
Q 1072 -75 642 372 
Q 213 819 213 1659 
z
M 791 1659 
Q 791 1022 1069 705 
Q 1347 388 1769 388 
Q 2188 388 2466 706 
Q 2744 1025 2744 1678 
Q 2744 2294 2464 2611 
Q 2184 2928 1769 2928 
Q 1347 2928 1069 2612 
Q 791 2297 791 1659 
z
" transform="scale(0.015625)"/>
      </defs>
      <use xlink:href="#ArialMT-56"/>
      <use xlink:href="#ArialMT-61" x="59.324219"/>
      <use xlink:href="#ArialMT-70" x="114.939453"/>
      <use xlink:href="#ArialMT-6f" x="170.554688"/>
      <use xlink:href="#ArialMT-72" x="226.169922"/>
     </g>
    </g>
   </g>
  </g>
 </g>
 <defs>
  <clipPath id="p5a5363f2ab">
   <rect x="61.229688" y="7.2" width="414.356436" height="388.08"/>
  </clipPath>
  <clipPath id="pcd220ab75e">
   <rect x="483.873252" y="7.2" width="414.356436" height="388.08"/>
  </clipPath>
 </defs>
</svg>
