<?xml version="1.0" encoding="utf-8" standalone="no"?>
<!DOCTYPE svg PUBLIC "-//W3C//DTD SVG 1.1//EN"
  "http://www.w3.org/Graphics/SVG/1.1/DTD/svg11.dtd">
<svg xmlns:xlink="http://www.w3.org/1999/xlink" width="513.9375pt" height="487.565312pt" viewBox="0 0 513.9375 487.565312" xmlns="http://www.w3.org/2000/svg" version="1.1">
 <metadata>
  <rdf:RDF xmlns:dc="http://purl.org/dc/elements/1.1/" xmlns:cc="http://creativecommons.org/ns#" xmlns:rdf="http://www.w3.org/1999/02/22-rdf-syntax-ns#">
   <cc:Work>
    <dc:type rdf:resource="http://purl.org/dc/dcmitype/StillImage"/>
    <dc:date>2022-04-27T16:59:41.211144</dc:date>
    <dc:format>image/svg+xml</dc:format>
    <dc:creator>
     <cc:Agent>
      <dc:title>Matplotlib v3.5.1, https://matplotlib.org/</dc:title>
     </cc:Agent>
    </dc:creator>
   </cc:Work>
  </rdf:RDF>
 </metadata>
 <defs>
  <style type="text/css">*{stroke-linejoin: round; stroke-linecap: butt}</style>
 </defs>
 <g id="figure_1">
  <g id="patch_1">
   <path d="M 0 487.565312 
L 513.9375 487.565312 
L 513.9375 0 
L 0 0 
z
" style="fill: #ffffff"/>
  </g>
  <g id="axes_1">
   <g id="patch_2">
    <path d="M 49.584375 450.72 
L 495.984375 450.72 
L 495.984375 7.2 
L 49.584375 7.2 
z
" style="fill: #ffffff"/>
   </g>
   <g id="PolyCollection_1">
    <path d="M 49.584375 456.305317 
L 49.584375 456.305317 
L 54.093466 448.559482 
L 58.602557 441.026073 
L 63.111648 433.69647 
L 67.620739 426.562513 
L 72.12983 419.616471 
L 76.63892 412.851016 
L 81.148011 406.259196 
L 85.657102 399.834412 
L 90.166193 393.570393 
L 94.675284 387.46118 
L 99.184375 381.501105 
L 103.693466 375.684771 
L 108.202557 370.007042 
L 112.711648 364.463021 
L 117.220739 359.04804 
L 121.72983 353.757645 
L 126.23892 348.587585 
L 130.748011 343.533802 
L 135.257102 338.592416 
L 139.766193 333.759718 
L 144.275284 329.032163 
L 148.784375 324.406354 
L 153.293466 319.879043 
L 157.802557 315.447117 
L 162.311648 311.107593 
L 166.820739 306.857611 
L 171.32983 302.694427 
L 175.83892 298.61541 
L 180.348011 294.618032 
L 184.857102 290.699868 
L 189.366193 286.858585 
L 193.875284 283.091943 
L 198.384375 279.397787 
L 202.893466 275.774044 
L 207.402557 272.218721 
L 211.911648 268.729898 
L 216.420739 265.305726 
L 220.92983 261.944425 
L 225.43892 258.644278 
L 229.948011 255.403633 
L 234.457102 252.220894 
L 238.966193 249.094523 
L 243.475284 246.023036 
L 247.984375 243.004999 
L 252.493466 240.039031 
L 257.002557 237.123794 
L 261.511648 234.257998 
L 266.020739 231.440397 
L 270.52983 228.669784 
L 275.03892 225.944993 
L 279.548011 223.264899 
L 284.057102 220.628408 
L 288.566193 218.034467 
L 293.075284 215.482053 
L 297.584375 212.970176 
L 302.093466 210.49788 
L 306.602557 208.064235 
L 311.111648 205.668342 
L 315.620739 203.30933 
L 320.12983 200.986353 
L 324.63892 198.698592 
L 328.974975 196.531099 
L 329.671799 61.176428 
L 330.368622 53.034438 
L 331.065446 48.271664 
L 331.762269 44.892418 
L 332.459093 42.27127 
L 333.155916 40.129635 
L 333.85274 38.318908 
L 334.549564 36.750384 
L 335.246387 35.366848 
L 335.943211 34.129233 
L 336.640034 33.009674 
L 337.336858 31.987596 
L 338.033681 31.047376 
L 338.730505 30.176868 
L 339.427329 29.366444 
L 340.124152 28.608343 
L 340.820976 27.896217 
L 341.517799 27.224806 
L 342.214623 26.589706 
L 342.911446 25.98719 
L 343.60827 25.414077 
L 344.305093 24.867631 
L 345.001917 24.345479 
L 345.698741 23.845553 
L 346.395564 23.366037 
L 347.092388 22.905332 
L 347.789211 22.462015 
L 348.486035 22.034823 
L 349.182858 21.622624 
L 349.879682 21.224399 
L 350.576506 20.839234 
L 351.273329 20.466298 
L 351.970153 20.104839 
L 352.666976 19.754172 
L 353.3638 19.41367 
L 354.060623 19.082761 
L 354.757447 18.760919 
L 355.454271 18.447661 
L 356.151094 18.14254 
L 356.847918 17.845145 
L 357.544741 17.555093 
L 358.241565 17.272032 
L 358.938388 16.995631 
L 359.635212 16.725585 
L 360.332036 16.461608 
L 361.028859 16.203432 
L 361.725683 15.95081 
L 362.422506 15.703506 
L 363.11933 15.461302 
L 363.816153 15.223991 
L 364.512977 14.99138 
L 365.2098 14.763285 
L 365.906624 14.539536 
L 366.603448 14.319969 
L 367.300271 14.104431 
L 367.997095 13.892777 
L 368.693918 13.684869 
L 369.390742 13.480577 
L 370.087565 13.279777 
L 370.784389 13.082353 
L 371.481213 12.888191 
L 372.178036 12.697187 
L 372.87486 12.509239 
L 373.571683 12.324252 
L 374.268507 12.142132 
L 374.96533 11.962792 
L 375.662154 11.78615 
L 376.358978 11.612125 
L 377.055801 11.44064 
L 377.752625 11.271623 
L 378.449448 11.105003 
L 379.146272 10.940714 
L 379.843095 10.778691 
L 380.539919 10.618872 
L 381.236743 10.461199 
L 381.933566 10.305614 
L 382.63039 10.152063 
L 383.327213 10.000493 
L 384.024037 9.850854 
L 384.72086 9.703098 
L 385.417684 9.557177 
L 386.114507 9.413046 
L 386.811331 9.270663 
L 387.508155 9.129984 
L 388.204978 8.990971 
L 388.901802 8.853584 
L 389.598625 8.717785 
L 390.295449 8.583537 
L 390.992272 8.450807 
L 391.689096 8.31956 
L 392.38592 8.189763 
L 393.082743 8.061385 
L 393.779567 7.934395 
L 394.47639 7.808763 
L 395.173214 7.68446 
L 395.870037 7.561459 
L 396.566861 7.439733 
L 397.263685 7.319255 
L 397.960508 7.2 
L 49.584375 7.2 
L 49.584375 7.2 
L 49.584375 7.319255 
L 49.584375 7.439733 
L 49.584375 7.561459 
L 49.584375 7.68446 
L 49.584375 7.808763 
L 49.584375 7.934395 
L 49.584375 8.061385 
L 49.584375 8.189763 
L 49.584375 8.31956 
L 49.584375 8.450807 
L 49.584375 8.583537 
L 49.584375 8.717785 
L 49.584375 8.853584 
L 49.584375 8.990971 
L 49.584375 9.129984 
L 49.584375 9.270663 
L 49.584375 9.413046 
L 49.584375 9.557177 
L 49.584375 9.703098 
L 49.584375 9.850854 
L 49.584375 10.000493 
L 49.584375 10.152063 
L 49.584375 10.305614 
L 49.584375 10.461199 
L 49.584375 10.618872 
L 49.584375 10.778691 
L 49.584375 10.940714 
L 49.584375 11.105003 
L 49.584375 11.271623 
L 49.584375 11.44064 
L 49.584375 11.612125 
L 49.584375 11.78615 
L 49.584375 11.962792 
L 49.584375 12.142132 
L 49.584375 12.324252 
L 49.584375 12.509239 
L 49.584375 12.697187 
L 49.584375 12.888191 
L 49.584375 13.082353 
L 49.584375 13.279777 
L 49.584375 13.480577 
L 49.584375 13.684869 
L 49.584375 13.892777 
L 49.584375 14.104431 
L 49.584375 14.319969 
L 49.584375 14.539536 
L 49.584375 14.763285 
L 49.584375 14.99138 
L 49.584375 15.223991 
L 49.584375 15.461302 
L 49.584375 15.703506 
L 49.584375 15.95081 
L 49.584375 16.203432 
L 49.584375 16.461608 
L 49.584375 16.725585 
L 49.584375 16.995631 
L 49.584375 17.272032 
L 49.584375 17.555093 
L 49.584375 17.845145 
L 49.584375 18.14254 
L 49.584375 18.447661 
L 49.584375 18.760919 
L 49.584375 19.082761 
L 49.584375 19.41367 
L 49.584375 19.754172 
L 49.584375 20.104839 
L 49.584375 20.466298 
L 49.584375 20.839234 
L 49.584375 21.224399 
L 49.584375 21.622624 
L 49.584375 22.034823 
L 49.584375 22.462015 
L 49.584375 22.905332 
L 49.584375 23.366037 
L 49.584375 23.845553 
L 49.584375 24.345479 
L 49.584375 24.867631 
L 49.584375 25.414077 
L 49.584375 25.98719 
L 49.584375 26.589706 
L 49.584375 27.224806 
L 49.584375 27.896217 
L 49.584375 28.608343 
L 49.584375 29.366444 
L 49.584375 30.176868 
L 49.584375 31.047376 
L 49.584375 31.987596 
L 49.584375 33.009674 
L 49.584375 34.129233 
L 49.584375 35.366848 
L 49.584375 36.750384 
L 49.584375 38.318908 
L 49.584375 40.129635 
L 49.584375 42.27127 
L 49.584375 44.892418 
L 49.584375 48.271664 
L 49.584375 53.034438 
L 49.584375 61.176428 
L 49.584375 196.531099 
L 49.584375 198.698592 
L 49.584375 200.986353 
L 49.584375 203.30933 
L 49.584375 205.668342 
L 49.584375 208.064235 
L 49.584375 210.49788 
L 49.584375 212.970176 
L 49.584375 215.482053 
L 49.584375 218.034467 
L 49.584375 220.628408 
L 49.584375 223.264899 
L 49.584375 225.944993 
L 49.584375 228.669784 
L 49.584375 231.440397 
L 49.584375 234.257998 
L 49.584375 237.123794 
L 49.584375 240.039031 
L 49.584375 243.004999 
L 49.584375 246.023036 
L 49.584375 249.094523 
L 49.584375 252.220894 
L 49.584375 255.403633 
L 49.584375 258.644278 
L 49.584375 261.944425 
L 49.584375 265.305726 
L 49.584375 268.729898 
L 49.584375 272.218721 
L 49.584375 275.774044 
L 49.584375 279.397787 
L 49.584375 283.091943 
L 49.584375 286.858585 
L 49.584375 290.699868 
L 49.584375 294.618032 
L 49.584375 298.61541 
L 49.584375 302.694427 
L 49.584375 306.857611 
L 49.584375 311.107593 
L 49.584375 315.447117 
L 49.584375 319.879043 
L 49.584375 324.406354 
L 49.584375 329.032163 
L 49.584375 333.759718 
L 49.584375 338.592416 
L 49.584375 343.533802 
L 49.584375 348.587585 
L 49.584375 353.757645 
L 49.584375 359.04804 
L 49.584375 364.463021 
L 49.584375 370.007042 
L 49.584375 375.684771 
L 49.584375 381.501105 
L 49.584375 387.46118 
L 49.584375 393.570393 
L 49.584375 399.834412 
L 49.584375 406.259196 
L 49.584375 412.851016 
L 49.584375 419.616471 
L 49.584375 426.562513 
L 49.584375 433.69647 
L 49.584375 441.026073 
L 49.584375 448.559482 
L 49.584375 456.305317 
z
" clip-path="url(#pa26b248922)" style="fill: #add8e6"/>
   </g>
   <g id="patch_3">
    <path d="M 495.984375 144.826015 
L 491.475284 145.924186 
L 486.966193 147.035437 
L 482.457102 148.160002 
L 477.948011 149.298122 
L 473.43892 150.450044 
L 468.92983 151.61602 
L 464.420739 152.796308 
L 459.911648 153.991174 
L 455.402557 155.20089 
L 450.893466 156.425735 
L 446.384375 157.665993 
L 441.875284 158.921958 
L 437.366193 160.19393 
L 432.857102 161.482217 
L 428.348011 162.787135 
L 423.83892 164.109008 
L 419.32983 165.448168 
L 414.820739 166.804958 
L 410.311648 168.179726 
L 405.802557 169.572834 
L 401.293466 170.984651 
L 396.784375 172.415555 
L 392.275284 173.865937 
L 387.766193 175.336198 
L 383.257102 176.826747 
L 378.748011 178.33801 
L 374.23892 179.87042 
L 369.72983 181.424424 
L 365.220739 183.000482 
L 360.711648 184.599066 
L 356.202557 186.220664 
L 351.693466 187.865776 
L 347.184375 189.534917 
L 342.675284 191.228617 
L 338.166193 192.947423 
L 333.657102 194.691896 
L 329.148011 196.462616 
L 328.974975 196.531099 
L 329.671799 61.176428 
L 330.368622 53.034438 
L 331.065446 48.271664 
L 331.762269 44.892418 
L 332.459093 42.27127 
L 333.155916 40.129635 
L 333.85274 38.318908 
L 334.549564 36.750384 
L 335.246387 35.366848 
L 335.943211 34.129233 
L 336.640034 33.009674 
L 337.336858 31.987596 
L 338.033681 31.047376 
L 338.730505 30.176868 
L 339.427329 29.366444 
L 340.124152 28.608343 
L 340.820976 27.896217 
L 341.517799 27.224806 
L 342.214623 26.589706 
L 342.911446 25.98719 
L 343.60827 25.414077 
L 344.305093 24.867631 
L 345.001917 24.345479 
L 345.698741 23.845553 
L 346.395564 23.366037 
L 347.092388 22.905332 
L 347.789211 22.462015 
L 348.486035 22.034823 
L 349.182858 21.622624 
L 349.879682 21.224399 
L 350.576506 20.839234 
L 351.273329 20.466298 
L 351.970153 20.104839 
L 352.666976 19.754172 
L 353.3638 19.41367 
L 354.060623 19.082761 
L 354.757447 18.760919 
L 355.454271 18.447661 
L 356.151094 18.14254 
L 356.847918 17.845145 
L 357.544741 17.555093 
L 358.241565 17.272032 
L 358.938388 16.995631 
L 359.635212 16.725585 
L 360.332036 16.461608 
L 361.028859 16.203432 
L 361.725683 15.95081 
L 362.422506 15.703506 
L 363.11933 15.461302 
L 363.816153 15.223991 
L 364.512977 14.99138 
L 365.2098 14.763285 
L 365.906624 14.539536 
L 366.603448 14.319969 
L 367.300271 14.104431 
L 367.997095 13.892777 
L 368.693918 13.684869 
L 369.390742 13.480577 
L 370.087565 13.279777 
L 370.784389 13.082353 
L 371.481213 12.888191 
L 372.178036 12.697187 
L 372.87486 12.509239 
L 373.571683 12.324252 
L 374.268507 12.142132 
L 374.96533 11.962792 
L 375.662154 11.78615 
L 376.358978 11.612125 
L 377.055801 11.44064 
L 377.752625 11.271623 
L 378.449448 11.105003 
L 379.146272 10.940714 
L 379.843095 10.778691 
L 380.539919 10.618872 
L 381.236743 10.461199 
L 381.933566 10.305614 
L 382.63039 10.152063 
L 383.327213 10.000493 
L 384.024037 9.850854 
L 384.72086 9.703098 
L 385.417684 9.557177 
L 386.114507 9.413046 
L 386.811331 9.270663 
L 387.508155 9.129984 
L 388.204978 8.990971 
L 388.901802 8.853584 
L 389.598625 8.717785 
L 390.295449 8.583537 
L 390.992272 8.450807 
L 391.689096 8.31956 
L 392.38592 8.189763 
L 393.082743 8.061385 
L 393.779567 7.934395 
L 394.47639 7.808763 
L 395.173214 7.68446 
L 395.870037 7.561459 
L 396.566861 7.439733 
L 397.263685 7.319255 
L 397.960508 7.2 
L 495.984375 7.2 
z
" clip-path="url(#pa26b248922)" style="fill: #90ee90"/>
   </g>
   <g id="patch_4">
    <path d="M -117.815625 40.247709 
z
" clip-path="url(#pa26b248922)" style="fill: #90ee90"/>
   </g>
   <g id="PolyCollection_2">
    <path d="M 495.984375 456.305317 
L 49.584375 456.305317 
L 54.093466 448.559482 
L 58.602557 441.026073 
L 63.111648 433.69647 
L 67.620739 426.562513 
L 72.12983 419.616471 
L 76.63892 412.851016 
L 81.148011 406.259196 
L 85.657102 399.834412 
L 90.166193 393.570393 
L 94.675284 387.46118 
L 99.184375 381.501105 
L 103.693466 375.684771 
L 108.202557 370.007042 
L 112.711648 364.463021 
L 117.220739 359.04804 
L 121.72983 353.757645 
L 126.23892 348.587585 
L 130.748011 343.533802 
L 135.257102 338.592416 
L 139.766193 333.759718 
L 144.275284 329.032163 
L 148.784375 324.406354 
L 153.293466 319.879043 
L 157.802557 315.447117 
L 162.311648 311.107593 
L 166.820739 306.857611 
L 171.32983 302.694427 
L 175.83892 298.61541 
L 180.348011 294.618032 
L 184.857102 290.699868 
L 189.366193 286.858585 
L 193.875284 283.091943 
L 198.384375 279.397787 
L 202.893466 275.774044 
L 207.402557 272.218721 
L 211.911648 268.729898 
L 216.420739 265.305726 
L 220.92983 261.944425 
L 225.43892 258.644278 
L 229.948011 255.403633 
L 234.457102 252.220894 
L 238.966193 249.094523 
L 243.475284 246.023036 
L 247.984375 243.004999 
L 252.493466 240.039031 
L 257.002557 237.123794 
L 261.511648 234.257998 
L 266.020739 231.440397 
L 270.52983 228.669784 
L 275.03892 225.944993 
L 279.548011 223.264899 
L 284.057102 220.628408 
L 288.566193 218.034467 
L 293.075284 215.482053 
L 297.584375 212.970176 
L 302.093466 210.49788 
L 306.602557 208.064235 
L 311.111648 205.668342 
L 315.620739 203.30933 
L 320.12983 200.986353 
L 324.63892 198.698592 
L 329.148011 196.462616 
L 333.657102 194.691896 
L 338.166193 192.947423 
L 342.675284 191.228617 
L 347.184375 189.534917 
L 351.693466 187.865776 
L 356.202557 186.220664 
L 360.711648 184.599066 
L 365.220739 183.000482 
L 369.72983 181.424424 
L 374.23892 179.87042 
L 378.748011 178.33801 
L 383.257102 176.826747 
L 387.766193 175.336198 
L 392.275284 173.865937 
L 396.784375 172.415555 
L 401.293466 170.984651 
L 405.802557 169.572834 
L 410.311648 168.179726 
L 414.820739 166.804958 
L 419.32983 165.448168 
L 423.83892 164.109008 
L 428.348011 162.787135 
L 432.857102 161.482217 
L 437.366193 160.19393 
L 441.875284 158.921958 
L 446.384375 157.665993 
L 450.893466 156.425735 
L 455.402557 155.20089 
L 459.911648 153.991174 
L 464.420739 152.796308 
L 468.92983 151.61602 
L 473.43892 150.450044 
L 477.948011 149.298122 
L 482.457102 148.160002 
L 486.966193 147.035437 
L 491.475284 145.924186 
L 495.984375 144.826015 
L 495.984375 144.826015 
L 495.984375 144.826015 
L 495.984375 145.924186 
L 495.984375 147.035437 
L 495.984375 148.160002 
L 495.984375 149.298122 
L 495.984375 150.450044 
L 495.984375 151.61602 
L 495.984375 152.796308 
L 495.984375 153.991174 
L 495.984375 155.20089 
L 495.984375 156.425735 
L 495.984375 157.665993 
L 495.984375 158.921958 
L 495.984375 160.19393 
L 495.984375 161.482217 
L 495.984375 162.787135 
L 495.984375 164.109008 
L 495.984375 165.448168 
L 495.984375 166.804958 
L 495.984375 168.179726 
L 495.984375 169.572834 
L 495.984375 170.984651 
L 495.984375 172.415555 
L 495.984375 173.865937 
L 495.984375 175.336198 
L 495.984375 176.826747 
L 495.984375 178.33801 
L 495.984375 179.87042 
L 495.984375 181.424424 
L 495.984375 183.000482 
L 495.984375 184.599066 
L 495.984375 186.220664 
L 495.984375 187.865776 
L 495.984375 189.534917 
L 495.984375 191.228617 
L 495.984375 192.947423 
L 495.984375 194.691896 
L 495.984375 196.462616 
L 495.984375 198.698592 
L 495.984375 200.986353 
L 495.984375 203.30933 
L 495.984375 205.668342 
L 495.984375 208.064235 
L 495.984375 210.49788 
L 495.984375 212.970176 
L 495.984375 215.482053 
L 495.984375 218.034467 
L 495.984375 220.628408 
L 495.984375 223.264899 
L 495.984375 225.944993 
L 495.984375 228.669784 
L 495.984375 231.440397 
L 495.984375 234.257998 
L 495.984375 237.123794 
L 495.984375 240.039031 
L 495.984375 243.004999 
L 495.984375 246.023036 
L 495.984375 249.094523 
L 495.984375 252.220894 
L 495.984375 255.403633 
L 495.984375 258.644278 
L 495.984375 261.944425 
L 495.984375 265.305726 
L 495.984375 268.729898 
L 495.984375 272.218721 
L 495.984375 275.774044 
L 495.984375 279.397787 
L 495.984375 283.091943 
L 495.984375 286.858585 
L 495.984375 290.699868 
L 495.984375 294.618032 
L 495.984375 298.61541 
L 495.984375 302.694427 
L 495.984375 306.857611 
L 495.984375 311.107593 
L 495.984375 315.447117 
L 495.984375 319.879043 
L 495.984375 324.406354 
L 495.984375 329.032163 
L 495.984375 333.759718 
L 495.984375 338.592416 
L 495.984375 343.533802 
L 495.984375 348.587585 
L 495.984375 353.757645 
L 495.984375 359.04804 
L 495.984375 364.463021 
L 495.984375 370.007042 
L 495.984375 375.684771 
L 495.984375 381.501105 
L 495.984375 387.46118 
L 495.984375 393.570393 
L 495.984375 399.834412 
L 495.984375 406.259196 
L 495.984375 412.851016 
L 495.984375 419.616471 
L 495.984375 426.562513 
L 495.984375 433.69647 
L 495.984375 441.026073 
L 495.984375 448.559482 
L 495.984375 456.305317 
z
" clip-path="url(#pa26b248922)" style="fill: #808080"/>
   </g>
   <g id="PolyCollection_3">
    <path d="M 49.584375 27154.54698 
L 49.584375 107.247151 
L 54.093466 107.247151 
L 58.602557 107.247151 
L 63.111648 107.247151 
L 67.620739 107.247151 
L 72.12983 107.247151 
L 76.63892 107.247151 
L 81.148011 107.247151 
L 85.657102 107.247151 
L 90.166193 107.247151 
L 94.675284 107.247151 
L 99.184375 107.247151 
L 103.693466 107.247151 
L 108.202557 107.247151 
L 112.711648 107.247151 
L 117.220739 107.247151 
L 121.72983 107.247151 
L 126.23892 107.247151 
L 130.748011 107.247151 
L 135.257102 107.247151 
L 139.766193 107.247151 
L 144.275284 107.247151 
L 148.784375 107.247151 
L 153.293466 107.247151 
L 157.802557 107.247151 
L 162.311648 107.247151 
L 166.820739 107.247151 
L 171.32983 107.247151 
L 175.83892 107.247151 
L 180.348011 107.247151 
L 184.857102 107.247151 
L 189.366193 107.247151 
L 193.875284 107.247151 
L 198.384375 107.247151 
L 202.893466 107.247151 
L 207.402557 107.247151 
L 211.911648 107.247151 
L 216.420739 107.247151 
L 220.92983 107.247151 
L 225.43892 107.247151 
L 229.948011 107.247151 
L 234.457102 107.247151 
L 238.966193 107.247151 
L 243.475284 107.247151 
L 247.984375 107.247151 
L 252.493466 107.247151 
L 257.002557 107.247151 
L 261.511648 107.247151 
L 266.020739 107.247151 
L 270.52983 107.247151 
L 275.03892 107.247151 
L 279.548011 107.247151 
L 284.057102 107.247151 
L 288.566193 107.247151 
L 293.075284 107.247151 
L 297.584375 107.247151 
L 302.093466 107.247151 
L 306.602557 107.247151 
L 311.111648 107.247151 
L 315.620739 107.247151 
L 320.12983 107.247151 
L 324.63892 107.247151 
L 329.148011 107.247151 
L 333.657102 107.247151 
L 338.166193 107.247151 
L 342.675284 107.247151 
L 347.184375 107.247151 
L 351.693466 107.247151 
L 356.202557 107.247151 
L 360.711648 107.247151 
L 365.220739 107.247151 
L 369.72983 107.247151 
L 374.23892 107.247151 
L 378.748011 107.247151 
L 383.257102 107.247151 
L 387.766193 107.247151 
L 392.275284 107.247151 
L 396.784375 107.247151 
L 401.293466 107.247151 
L 405.802557 107.247151 
L 410.311648 107.247151 
L 414.820739 107.247151 
L 419.32983 107.247151 
L 423.83892 107.247151 
L 428.348011 107.247151 
L 432.857102 107.247151 
L 437.366193 107.247151 
L 441.875284 107.247151 
L 446.384375 107.247151 
L 450.893466 107.247151 
L 455.402557 107.247151 
L 459.911648 107.247151 
L 464.420739 107.247151 
L 468.92983 107.247151 
L 473.43892 107.247151 
L 477.948011 107.247151 
L 482.457102 107.247151 
L 486.966193 107.247151 
L 491.475284 107.247151 
L 495.984375 107.247151 
L 495.984375 27154.54698 
L 495.984375 27154.54698 
L 491.475284 27154.54698 
L 486.966193 27154.54698 
L 482.457102 27154.54698 
L 477.948011 27154.54698 
L 473.43892 27154.54698 
L 468.92983 27154.54698 
L 464.420739 27154.54698 
L 459.911648 27154.54698 
L 455.402557 27154.54698 
L 450.893466 27154.54698 
L 446.384375 27154.54698 
L 441.875284 27154.54698 
L 437.366193 27154.54698 
L 432.857102 27154.54698 
L 428.348011 27154.54698 
L 423.83892 27154.54698 
L 419.32983 27154.54698 
L 414.820739 27154.54698 
L 410.311648 27154.54698 
L 405.802557 27154.54698 
L 401.293466 27154.54698 
L 396.784375 27154.54698 
L 392.275284 27154.54698 
L 387.766193 27154.54698 
L 383.257102 27154.54698 
L 378.748011 27154.54698 
L 374.23892 27154.54698 
L 369.72983 27154.54698 
L 365.220739 27154.54698 
L 360.711648 27154.54698 
L 356.202557 27154.54698 
L 351.693466 27154.54698 
L 347.184375 27154.54698 
L 342.675284 27154.54698 
L 338.166193 27154.54698 
L 333.657102 27154.54698 
L 329.148011 27154.54698 
L 324.63892 27154.54698 
L 320.12983 27154.54698 
L 315.620739 27154.54698 
L 311.111648 27154.54698 
L 306.602557 27154.54698 
L 302.093466 27154.54698 
L 297.584375 27154.54698 
L 293.075284 27154.54698 
L 288.566193 27154.54698 
L 284.057102 27154.54698 
L 279.548011 27154.54698 
L 275.03892 27154.54698 
L 270.52983 27154.54698 
L 266.020739 27154.54698 
L 261.511648 27154.54698 
L 257.002557 27154.54698 
L 252.493466 27154.54698 
L 247.984375 27154.54698 
L 243.475284 27154.54698 
L 238.966193 27154.54698 
L 234.457102 27154.54698 
L 229.948011 27154.54698 
L 225.43892 27154.54698 
L 220.92983 27154.54698 
L 216.420739 27154.54698 
L 211.911648 27154.54698 
L 207.402557 27154.54698 
L 202.893466 27154.54698 
L 198.384375 27154.54698 
L 193.875284 27154.54698 
L 189.366193 27154.54698 
L 184.857102 27154.54698 
L 180.348011 27154.54698 
L 175.83892 27154.54698 
L 171.32983 27154.54698 
L 166.820739 27154.54698 
L 162.311648 27154.54698 
L 157.802557 27154.54698 
L 153.293466 27154.54698 
L 148.784375 27154.54698 
L 144.275284 27154.54698 
L 139.766193 27154.54698 
L 135.257102 27154.54698 
L 130.748011 27154.54698 
L 126.23892 27154.54698 
L 121.72983 27154.54698 
L 117.220739 27154.54698 
L 112.711648 27154.54698 
L 108.202557 27154.54698 
L 103.693466 27154.54698 
L 99.184375 27154.54698 
L 94.675284 27154.54698 
L 90.166193 27154.54698 
L 85.657102 27154.54698 
L 81.148011 27154.54698 
L 76.63892 27154.54698 
L 72.12983 27154.54698 
L 67.620739 27154.54698 
L 63.111648 27154.54698 
L 58.602557 27154.54698 
L 54.093466 27154.54698 
L 49.584375 27154.54698 
z
" clip-path="url(#pa26b248922)" style="fill: #ffffff; fill-opacity: 0.5"/>
   </g>
   <g id="matplotlib.axis_1">
    <g id="xtick_1">
     <g id="line2d_1">
      <path d="M 49.584375 450.72 
L 49.584375 7.2 
" clip-path="url(#pa26b248922)" style="fill: none; stroke: #808080; stroke-width: 0.2; stroke-linecap: square"/>
     </g>
     <g id="line2d_2">
      <defs>
       <path id="m55b5a56bc6" d="M 0 0 
L 0 3.5 
" style="stroke: #000000; stroke-width: 0.8"/>
      </defs>
      <g>
       <use xlink:href="#m55b5a56bc6" x="49.584375" y="450.72" style="stroke: #000000; stroke-width: 0.8"/>
      </g>
     </g>
     <g id="text_1">
      <!-- 300 -->
      <g transform="translate(41.242969 464.877812)scale(0.1 -0.1)">
       <defs>
        <path id="ArialMT-33" d="M 269 1209 
L 831 1284 
Q 928 806 1161 595 
Q 1394 384 1728 384 
Q 2125 384 2398 659 
Q 2672 934 2672 1341 
Q 2672 1728 2419 1979 
Q 2166 2231 1775 2231 
Q 1616 2231 1378 2169 
L 1441 2663 
Q 1497 2656 1531 2656 
Q 1891 2656 2178 2843 
Q 2466 3031 2466 3422 
Q 2466 3731 2256 3934 
Q 2047 4138 1716 4138 
Q 1388 4138 1169 3931 
Q 950 3725 888 3313 
L 325 3413 
Q 428 3978 793 4289 
Q 1159 4600 1703 4600 
Q 2078 4600 2393 4439 
Q 2709 4278 2876 4000 
Q 3044 3722 3044 3409 
Q 3044 3113 2884 2869 
Q 2725 2625 2413 2481 
Q 2819 2388 3044 2092 
Q 3269 1797 3269 1353 
Q 3269 753 2831 336 
Q 2394 -81 1725 -81 
Q 1122 -81 723 278 
Q 325 638 269 1209 
z
" transform="scale(0.015625)"/>
        <path id="ArialMT-30" d="M 266 2259 
Q 266 3072 433 3567 
Q 600 4063 929 4331 
Q 1259 4600 1759 4600 
Q 2128 4600 2406 4451 
Q 2684 4303 2865 4023 
Q 3047 3744 3150 3342 
Q 3253 2941 3253 2259 
Q 3253 1453 3087 958 
Q 2922 463 2592 192 
Q 2263 -78 1759 -78 
Q 1097 -78 719 397 
Q 266 969 266 2259 
z
M 844 2259 
Q 844 1131 1108 757 
Q 1372 384 1759 384 
Q 2147 384 2411 759 
Q 2675 1134 2675 2259 
Q 2675 3391 2411 3762 
Q 2147 4134 1753 4134 
Q 1366 4134 1134 3806 
Q 844 3388 844 2259 
z
" transform="scale(0.015625)"/>
       </defs>
       <use xlink:href="#ArialMT-33"/>
       <use xlink:href="#ArialMT-30" x="55.615234"/>
       <use xlink:href="#ArialMT-30" x="111.230469"/>
      </g>
     </g>
    </g>
    <g id="xtick_2">
     <g id="line2d_3">
      <path d="M 105.384375 450.72 
L 105.384375 7.2 
" clip-path="url(#pa26b248922)" style="fill: none; stroke: #808080; stroke-width: 0.2; stroke-linecap: square"/>
     </g>
     <g id="line2d_4">
      <g>
       <use xlink:href="#m55b5a56bc6" x="105.384375" y="450.72" style="stroke: #000000; stroke-width: 0.8"/>
      </g>
     </g>
     <g id="text_2">
      <!-- 400 -->
      <g transform="translate(97.042969 464.877812)scale(0.1 -0.1)">
       <defs>
        <path id="ArialMT-34" d="M 2069 0 
L 2069 1097 
L 81 1097 
L 81 1613 
L 2172 4581 
L 2631 4581 
L 2631 1613 
L 3250 1613 
L 3250 1097 
L 2631 1097 
L 2631 0 
L 2069 0 
z
M 2069 1613 
L 2069 3678 
L 634 1613 
L 2069 1613 
z
" transform="scale(0.015625)"/>
       </defs>
       <use xlink:href="#ArialMT-34"/>
       <use xlink:href="#ArialMT-30" x="55.615234"/>
       <use xlink:href="#ArialMT-30" x="111.230469"/>
      </g>
     </g>
    </g>
    <g id="xtick_3">
     <g id="line2d_5">
      <path d="M 161.184375 450.72 
L 161.184375 7.2 
" clip-path="url(#pa26b248922)" style="fill: none; stroke: #808080; stroke-width: 0.2; stroke-linecap: square"/>
     </g>
     <g id="line2d_6">
      <g>
       <use xlink:href="#m55b5a56bc6" x="161.184375" y="450.72" style="stroke: #000000; stroke-width: 0.8"/>
      </g>
     </g>
     <g id="text_3">
      <!-- 500 -->
      <g transform="translate(152.842969 464.877812)scale(0.1 -0.1)">
       <defs>
        <path id="ArialMT-35" d="M 266 1200 
L 856 1250 
Q 922 819 1161 601 
Q 1400 384 1738 384 
Q 2144 384 2425 690 
Q 2706 997 2706 1503 
Q 2706 1984 2436 2262 
Q 2166 2541 1728 2541 
Q 1456 2541 1237 2417 
Q 1019 2294 894 2097 
L 366 2166 
L 809 4519 
L 3088 4519 
L 3088 3981 
L 1259 3981 
L 1013 2750 
Q 1425 3038 1878 3038 
Q 2478 3038 2890 2622 
Q 3303 2206 3303 1553 
Q 3303 931 2941 478 
Q 2500 -78 1738 -78 
Q 1113 -78 717 272 
Q 322 622 266 1200 
z
" transform="scale(0.015625)"/>
       </defs>
       <use xlink:href="#ArialMT-35"/>
       <use xlink:href="#ArialMT-30" x="55.615234"/>
       <use xlink:href="#ArialMT-30" x="111.230469"/>
      </g>
     </g>
    </g>
    <g id="xtick_4">
     <g id="line2d_7">
      <path d="M 216.984375 450.72 
L 216.984375 7.2 
" clip-path="url(#pa26b248922)" style="fill: none; stroke: #808080; stroke-width: 0.2; stroke-linecap: square"/>
     </g>
     <g id="line2d_8">
      <g>
       <use xlink:href="#m55b5a56bc6" x="216.984375" y="450.72" style="stroke: #000000; stroke-width: 0.8"/>
      </g>
     </g>
     <g id="text_4">
      <!-- 600 -->
      <g transform="translate(208.642969 464.877812)scale(0.1 -0.1)">
       <defs>
        <path id="ArialMT-36" d="M 3184 3459 
L 2625 3416 
Q 2550 3747 2413 3897 
Q 2184 4138 1850 4138 
Q 1581 4138 1378 3988 
Q 1113 3794 959 3422 
Q 806 3050 800 2363 
Q 1003 2672 1297 2822 
Q 1591 2972 1913 2972 
Q 2475 2972 2870 2558 
Q 3266 2144 3266 1488 
Q 3266 1056 3080 686 
Q 2894 316 2569 119 
Q 2244 -78 1831 -78 
Q 1128 -78 684 439 
Q 241 956 241 2144 
Q 241 3472 731 4075 
Q 1159 4600 1884 4600 
Q 2425 4600 2770 4297 
Q 3116 3994 3184 3459 
z
M 888 1484 
Q 888 1194 1011 928 
Q 1134 663 1356 523 
Q 1578 384 1822 384 
Q 2178 384 2434 671 
Q 2691 959 2691 1453 
Q 2691 1928 2437 2201 
Q 2184 2475 1800 2475 
Q 1419 2475 1153 2201 
Q 888 1928 888 1484 
z
" transform="scale(0.015625)"/>
       </defs>
       <use xlink:href="#ArialMT-36"/>
       <use xlink:href="#ArialMT-30" x="55.615234"/>
       <use xlink:href="#ArialMT-30" x="111.230469"/>
      </g>
     </g>
    </g>
    <g id="xtick_5">
     <g id="line2d_9">
      <path d="M 272.784375 450.72 
L 272.784375 7.2 
" clip-path="url(#pa26b248922)" style="fill: none; stroke: #808080; stroke-width: 0.2; stroke-linecap: square"/>
     </g>
     <g id="line2d_10">
      <g>
       <use xlink:href="#m55b5a56bc6" x="272.784375" y="450.72" style="stroke: #000000; stroke-width: 0.8"/>
      </g>
     </g>
     <g id="text_5">
      <!-- 700 -->
      <g transform="translate(264.442969 464.877812)scale(0.1 -0.1)">
       <defs>
        <path id="ArialMT-37" d="M 303 3981 
L 303 4522 
L 3269 4522 
L 3269 4084 
Q 2831 3619 2401 2847 
Q 1972 2075 1738 1259 
Q 1569 684 1522 0 
L 944 0 
Q 953 541 1156 1306 
Q 1359 2072 1739 2783 
Q 2119 3494 2547 3981 
L 303 3981 
z
" transform="scale(0.015625)"/>
       </defs>
       <use xlink:href="#ArialMT-37"/>
       <use xlink:href="#ArialMT-30" x="55.615234"/>
       <use xlink:href="#ArialMT-30" x="111.230469"/>
      </g>
     </g>
    </g>
    <g id="xtick_6">
     <g id="line2d_11">
      <path d="M 328.584375 450.72 
L 328.584375 7.2 
" clip-path="url(#pa26b248922)" style="fill: none; stroke: #808080; stroke-width: 0.2; stroke-linecap: square"/>
     </g>
     <g id="line2d_12">
      <g>
       <use xlink:href="#m55b5a56bc6" x="328.584375" y="450.72" style="stroke: #000000; stroke-width: 0.8"/>
      </g>
     </g>
     <g id="text_6">
      <!-- 800 -->
      <g transform="translate(320.242969 464.877812)scale(0.1 -0.1)">
       <defs>
        <path id="ArialMT-38" d="M 1131 2484 
Q 781 2613 612 2850 
Q 444 3088 444 3419 
Q 444 3919 803 4259 
Q 1163 4600 1759 4600 
Q 2359 4600 2725 4251 
Q 3091 3903 3091 3403 
Q 3091 3084 2923 2848 
Q 2756 2613 2416 2484 
Q 2838 2347 3058 2040 
Q 3278 1734 3278 1309 
Q 3278 722 2862 322 
Q 2447 -78 1769 -78 
Q 1091 -78 675 323 
Q 259 725 259 1325 
Q 259 1772 486 2073 
Q 713 2375 1131 2484 
z
M 1019 3438 
Q 1019 3113 1228 2906 
Q 1438 2700 1772 2700 
Q 2097 2700 2305 2904 
Q 2513 3109 2513 3406 
Q 2513 3716 2298 3927 
Q 2084 4138 1766 4138 
Q 1444 4138 1231 3931 
Q 1019 3725 1019 3438 
z
M 838 1322 
Q 838 1081 952 856 
Q 1066 631 1291 507 
Q 1516 384 1775 384 
Q 2178 384 2440 643 
Q 2703 903 2703 1303 
Q 2703 1709 2433 1975 
Q 2163 2241 1756 2241 
Q 1359 2241 1098 1978 
Q 838 1716 838 1322 
z
" transform="scale(0.015625)"/>
       </defs>
       <use xlink:href="#ArialMT-38"/>
       <use xlink:href="#ArialMT-30" x="55.615234"/>
       <use xlink:href="#ArialMT-30" x="111.230469"/>
      </g>
     </g>
    </g>
    <g id="xtick_7">
     <g id="line2d_13">
      <path d="M 384.384375 450.72 
L 384.384375 7.2 
" clip-path="url(#pa26b248922)" style="fill: none; stroke: #808080; stroke-width: 0.2; stroke-linecap: square"/>
     </g>
     <g id="line2d_14">
      <g>
       <use xlink:href="#m55b5a56bc6" x="384.384375" y="450.72" style="stroke: #000000; stroke-width: 0.8"/>
      </g>
     </g>
     <g id="text_7">
      <!-- 900 -->
      <g transform="translate(376.042969 464.877812)scale(0.1 -0.1)">
       <defs>
        <path id="ArialMT-39" d="M 350 1059 
L 891 1109 
Q 959 728 1153 556 
Q 1347 384 1650 384 
Q 1909 384 2104 503 
Q 2300 622 2425 820 
Q 2550 1019 2634 1356 
Q 2719 1694 2719 2044 
Q 2719 2081 2716 2156 
Q 2547 1888 2255 1720 
Q 1963 1553 1622 1553 
Q 1053 1553 659 1965 
Q 266 2378 266 3053 
Q 266 3750 677 4175 
Q 1088 4600 1706 4600 
Q 2153 4600 2523 4359 
Q 2894 4119 3086 3673 
Q 3278 3228 3278 2384 
Q 3278 1506 3087 986 
Q 2897 466 2520 194 
Q 2144 -78 1638 -78 
Q 1100 -78 759 220 
Q 419 519 350 1059 
z
M 2653 3081 
Q 2653 3566 2395 3850 
Q 2138 4134 1775 4134 
Q 1400 4134 1122 3828 
Q 844 3522 844 3034 
Q 844 2597 1108 2323 
Q 1372 2050 1759 2050 
Q 2150 2050 2401 2323 
Q 2653 2597 2653 3081 
z
" transform="scale(0.015625)"/>
       </defs>
       <use xlink:href="#ArialMT-39"/>
       <use xlink:href="#ArialMT-30" x="55.615234"/>
       <use xlink:href="#ArialMT-30" x="111.230469"/>
      </g>
     </g>
    </g>
    <g id="xtick_8">
     <g id="line2d_15">
      <path d="M 440.184375 450.72 
L 440.184375 7.2 
" clip-path="url(#pa26b248922)" style="fill: none; stroke: #808080; stroke-width: 0.2; stroke-linecap: square"/>
     </g>
     <g id="line2d_16">
      <g>
       <use xlink:href="#m55b5a56bc6" x="440.184375" y="450.72" style="stroke: #000000; stroke-width: 0.8"/>
      </g>
     </g>
     <g id="text_8">
      <!-- 1000 -->
      <g transform="translate(429.0625 464.877812)scale(0.1 -0.1)">
       <defs>
        <path id="ArialMT-31" d="M 2384 0 
L 1822 0 
L 1822 3584 
Q 1619 3391 1289 3197 
Q 959 3003 697 2906 
L 697 3450 
Q 1169 3672 1522 3987 
Q 1875 4303 2022 4600 
L 2384 4600 
L 2384 0 
z
" transform="scale(0.015625)"/>
       </defs>
       <use xlink:href="#ArialMT-31"/>
       <use xlink:href="#ArialMT-30" x="55.615234"/>
       <use xlink:href="#ArialMT-30" x="111.230469"/>
       <use xlink:href="#ArialMT-30" x="166.845703"/>
      </g>
     </g>
    </g>
    <g id="xtick_9">
     <g id="line2d_17">
      <path d="M 495.984375 450.72 
L 495.984375 7.2 
" clip-path="url(#pa26b248922)" style="fill: none; stroke: #808080; stroke-width: 0.2; stroke-linecap: square"/>
     </g>
     <g id="line2d_18">
      <g>
       <use xlink:href="#m55b5a56bc6" x="495.984375" y="450.72" style="stroke: #000000; stroke-width: 0.8"/>
      </g>
     </g>
     <g id="text_9">
      <!-- 1100 -->
      <g transform="translate(485.23125 464.877812)scale(0.1 -0.1)">
       <use xlink:href="#ArialMT-31"/>
       <use xlink:href="#ArialMT-31" x="48.240234"/>
       <use xlink:href="#ArialMT-30" x="103.855469"/>
       <use xlink:href="#ArialMT-30" x="159.470703"/>
      </g>
     </g>
    </g>
    <g id="text_10">
     <!-- Temperature ($^{\circ}$C) -->
     <g transform="translate(233.534375 478.165312)scale(0.1 -0.1)">
      <defs>
       <path id="ArialMT-54" d="M 1659 0 
L 1659 4041 
L 150 4041 
L 150 4581 
L 3781 4581 
L 3781 4041 
L 2266 4041 
L 2266 0 
L 1659 0 
z
" transform="scale(0.015625)"/>
       <path id="ArialMT-65" d="M 2694 1069 
L 3275 997 
Q 3138 488 2766 206 
Q 2394 -75 1816 -75 
Q 1088 -75 661 373 
Q 234 822 234 1631 
Q 234 2469 665 2931 
Q 1097 3394 1784 3394 
Q 2450 3394 2872 2941 
Q 3294 2488 3294 1666 
Q 3294 1616 3291 1516 
L 816 1516 
Q 847 969 1125 678 
Q 1403 388 1819 388 
Q 2128 388 2347 550 
Q 2566 713 2694 1069 
z
M 847 1978 
L 2700 1978 
Q 2663 2397 2488 2606 
Q 2219 2931 1791 2931 
Q 1403 2931 1139 2672 
Q 875 2413 847 1978 
z
" transform="scale(0.015625)"/>
       <path id="ArialMT-6d" d="M 422 0 
L 422 3319 
L 925 3319 
L 925 2853 
Q 1081 3097 1340 3245 
Q 1600 3394 1931 3394 
Q 2300 3394 2536 3241 
Q 2772 3088 2869 2813 
Q 3263 3394 3894 3394 
Q 4388 3394 4653 3120 
Q 4919 2847 4919 2278 
L 4919 0 
L 4359 0 
L 4359 2091 
Q 4359 2428 4304 2576 
Q 4250 2725 4106 2815 
Q 3963 2906 3769 2906 
Q 3419 2906 3187 2673 
Q 2956 2441 2956 1928 
L 2956 0 
L 2394 0 
L 2394 2156 
Q 2394 2531 2256 2718 
Q 2119 2906 1806 2906 
Q 1569 2906 1367 2781 
Q 1166 2656 1075 2415 
Q 984 2175 984 1722 
L 984 0 
L 422 0 
z
" transform="scale(0.015625)"/>
       <path id="ArialMT-70" d="M 422 -1272 
L 422 3319 
L 934 3319 
L 934 2888 
Q 1116 3141 1344 3267 
Q 1572 3394 1897 3394 
Q 2322 3394 2647 3175 
Q 2972 2956 3137 2557 
Q 3303 2159 3303 1684 
Q 3303 1175 3120 767 
Q 2938 359 2589 142 
Q 2241 -75 1856 -75 
Q 1575 -75 1351 44 
Q 1128 163 984 344 
L 984 -1272 
L 422 -1272 
z
M 931 1641 
Q 931 1000 1190 694 
Q 1450 388 1819 388 
Q 2194 388 2461 705 
Q 2728 1022 2728 1688 
Q 2728 2322 2467 2637 
Q 2206 2953 1844 2953 
Q 1484 2953 1207 2617 
Q 931 2281 931 1641 
z
" transform="scale(0.015625)"/>
       <path id="ArialMT-72" d="M 416 0 
L 416 3319 
L 922 3319 
L 922 2816 
Q 1116 3169 1280 3281 
Q 1444 3394 1641 3394 
Q 1925 3394 2219 3213 
L 2025 2691 
Q 1819 2813 1613 2813 
Q 1428 2813 1281 2702 
Q 1134 2591 1072 2394 
Q 978 2094 978 1738 
L 978 0 
L 416 0 
z
" transform="scale(0.015625)"/>
       <path id="ArialMT-61" d="M 2588 409 
Q 2275 144 1986 34 
Q 1697 -75 1366 -75 
Q 819 -75 525 192 
Q 231 459 231 875 
Q 231 1119 342 1320 
Q 453 1522 633 1644 
Q 813 1766 1038 1828 
Q 1203 1872 1538 1913 
Q 2219 1994 2541 2106 
Q 2544 2222 2544 2253 
Q 2544 2597 2384 2738 
Q 2169 2928 1744 2928 
Q 1347 2928 1158 2789 
Q 969 2650 878 2297 
L 328 2372 
Q 403 2725 575 2942 
Q 747 3159 1072 3276 
Q 1397 3394 1825 3394 
Q 2250 3394 2515 3294 
Q 2781 3194 2906 3042 
Q 3031 2891 3081 2659 
Q 3109 2516 3109 2141 
L 3109 1391 
Q 3109 606 3145 398 
Q 3181 191 3288 0 
L 2700 0 
Q 2613 175 2588 409 
z
M 2541 1666 
Q 2234 1541 1622 1453 
Q 1275 1403 1131 1340 
Q 988 1278 909 1158 
Q 831 1038 831 891 
Q 831 666 1001 516 
Q 1172 366 1500 366 
Q 1825 366 2078 508 
Q 2331 650 2450 897 
Q 2541 1088 2541 1459 
L 2541 1666 
z
" transform="scale(0.015625)"/>
       <path id="ArialMT-74" d="M 1650 503 
L 1731 6 
Q 1494 -44 1306 -44 
Q 1000 -44 831 53 
Q 663 150 594 308 
Q 525 466 525 972 
L 525 2881 
L 113 2881 
L 113 3319 
L 525 3319 
L 525 4141 
L 1084 4478 
L 1084 3319 
L 1650 3319 
L 1650 2881 
L 1084 2881 
L 1084 941 
Q 1084 700 1114 631 
Q 1144 563 1211 522 
Q 1278 481 1403 481 
Q 1497 481 1650 503 
z
" transform="scale(0.015625)"/>
       <path id="ArialMT-75" d="M 2597 0 
L 2597 488 
Q 2209 -75 1544 -75 
Q 1250 -75 995 37 
Q 741 150 617 320 
Q 494 491 444 738 
Q 409 903 409 1263 
L 409 3319 
L 972 3319 
L 972 1478 
Q 972 1038 1006 884 
Q 1059 663 1231 536 
Q 1403 409 1656 409 
Q 1909 409 2131 539 
Q 2353 669 2445 892 
Q 2538 1116 2538 1541 
L 2538 3319 
L 3100 3319 
L 3100 0 
L 2597 0 
z
" transform="scale(0.015625)"/>
       <path id="ArialMT-20" transform="scale(0.015625)"/>
       <path id="ArialMT-28" d="M 1497 -1347 
Q 1031 -759 709 28 
Q 388 816 388 1659 
Q 388 2403 628 3084 
Q 909 3875 1497 4659 
L 1900 4659 
Q 1522 4009 1400 3731 
Q 1209 3300 1100 2831 
Q 966 2247 966 1656 
Q 966 153 1900 -1347 
L 1497 -1347 
z
" transform="scale(0.015625)"/>
       <path id="Cmsy10-b1" d="M 1600 359 
Q 1269 359 983 526 
Q 697 694 528 984 
Q 359 1275 359 1600 
Q 359 1925 528 2215 
Q 697 2506 983 2673 
Q 1269 2841 1600 2841 
Q 1931 2841 2215 2672 
Q 2500 2503 2667 2214 
Q 2834 1925 2834 1600 
Q 2834 1275 2667 986 
Q 2500 697 2215 528 
Q 1931 359 1600 359 
z
M 1600 616 
Q 2000 616 2289 908 
Q 2578 1200 2578 1600 
Q 2578 1856 2445 2086 
Q 2313 2316 2088 2450 
Q 1863 2584 1600 2584 
Q 1403 2584 1225 2507 
Q 1047 2431 906 2290 
Q 766 2150 691 1973 
Q 616 1797 616 1600 
Q 616 1200 905 908 
Q 1194 616 1600 616 
z
" transform="scale(0.015625)"/>
       <path id="ArialMT-43" d="M 3763 1606 
L 4369 1453 
Q 4178 706 3683 314 
Q 3188 -78 2472 -78 
Q 1731 -78 1267 223 
Q 803 525 561 1097 
Q 319 1669 319 2325 
Q 319 3041 592 3573 
Q 866 4106 1370 4382 
Q 1875 4659 2481 4659 
Q 3169 4659 3637 4309 
Q 4106 3959 4291 3325 
L 3694 3184 
Q 3534 3684 3231 3912 
Q 2928 4141 2469 4141 
Q 1941 4141 1586 3887 
Q 1231 3634 1087 3207 
Q 944 2781 944 2328 
Q 944 1744 1114 1308 
Q 1284 872 1643 656 
Q 2003 441 2422 441 
Q 2931 441 3284 734 
Q 3638 1028 3763 1606 
z
" transform="scale(0.015625)"/>
       <path id="ArialMT-29" d="M 791 -1347 
L 388 -1347 
Q 1322 153 1322 1656 
Q 1322 2244 1188 2822 
Q 1081 3291 891 3722 
Q 769 4003 388 4659 
L 791 4659 
Q 1378 3875 1659 3084 
Q 1900 2403 1900 1659 
Q 1900 816 1576 28 
Q 1253 -759 791 -1347 
z
" transform="scale(0.015625)"/>
      </defs>
      <use xlink:href="#ArialMT-54" transform="translate(0 0.203125)"/>
      <use xlink:href="#ArialMT-65" transform="translate(61.083984 0.203125)"/>
      <use xlink:href="#ArialMT-6d" transform="translate(116.699219 0.203125)"/>
      <use xlink:href="#ArialMT-70" transform="translate(200 0.203125)"/>
      <use xlink:href="#ArialMT-65" transform="translate(255.615234 0.203125)"/>
      <use xlink:href="#ArialMT-72" transform="translate(311.230469 0.203125)"/>
      <use xlink:href="#ArialMT-61" transform="translate(344.53125 0.203125)"/>
      <use xlink:href="#ArialMT-74" transform="translate(400.146484 0.203125)"/>
      <use xlink:href="#ArialMT-75" transform="translate(427.929688 0.203125)"/>
      <use xlink:href="#ArialMT-72" transform="translate(483.544922 0.203125)"/>
      <use xlink:href="#ArialMT-65" transform="translate(516.845703 0.203125)"/>
      <use xlink:href="#ArialMT-20" transform="translate(572.460938 0.203125)"/>
      <use xlink:href="#ArialMT-28" transform="translate(600.244141 0.203125)"/>
      <use xlink:href="#Cmsy10-b1" transform="translate(638.009063 38.467188)scale(0.7)"/>
      <use xlink:href="#ArialMT-43" transform="translate(679.386406 0.203125)"/>
      <use xlink:href="#ArialMT-29" transform="translate(751.603203 0.203125)"/>
     </g>
    </g>
   </g>
   <g id="matplotlib.axis_2">
    <g id="ytick_1">
     <g id="line2d_19">
      <path d="M 49.584375 431.814749 
L 495.984375 431.814749 
" clip-path="url(#pa26b248922)" style="fill: none; stroke: #808080; stroke-width: 0.2; stroke-linecap: square"/>
     </g>
     <g id="line2d_20">
      <defs>
       <path id="mb1b4232215" d="M 0 0 
L -3.5 0 
" style="stroke: #000000; stroke-width: 0.8"/>
      </defs>
      <g>
       <use xlink:href="#mb1b4232215" x="49.584375" y="431.814749" style="stroke: #000000; stroke-width: 0.8"/>
      </g>
     </g>
     <g id="text_11">
      <!-- $\mathdefault{10^{-12}}$ -->
      <g transform="translate(20.584375 436.970999)scale(0.1 -0.1)">
       <defs>
        <path id="ArialMT-2d" d="M 203 1375 
L 203 1941 
L 1931 1941 
L 1931 1375 
L 203 1375 
z
" transform="scale(0.015625)"/>
        <path id="ArialMT-32" d="M 3222 541 
L 3222 0 
L 194 0 
Q 188 203 259 391 
Q 375 700 629 1000 
Q 884 1300 1366 1694 
Q 2113 2306 2375 2664 
Q 2638 3022 2638 3341 
Q 2638 3675 2398 3904 
Q 2159 4134 1775 4134 
Q 1369 4134 1125 3890 
Q 881 3647 878 3216 
L 300 3275 
Q 359 3922 746 4261 
Q 1134 4600 1788 4600 
Q 2447 4600 2831 4234 
Q 3216 3869 3216 3328 
Q 3216 3053 3103 2787 
Q 2991 2522 2730 2228 
Q 2469 1934 1863 1422 
Q 1356 997 1212 845 
Q 1069 694 975 541 
L 3222 541 
z
" transform="scale(0.015625)"/>
       </defs>
       <use xlink:href="#ArialMT-31" transform="translate(0 0.99375)"/>
       <use xlink:href="#ArialMT-30" transform="translate(55.615234 0.99375)"/>
       <use xlink:href="#ArialMT-2d" transform="translate(112.972813 70.6875)scale(0.7)"/>
       <use xlink:href="#ArialMT-31" transform="translate(136.283359 70.6875)scale(0.7)"/>
       <use xlink:href="#ArialMT-32" transform="translate(175.214023 70.6875)scale(0.7)"/>
      </g>
     </g>
    </g>
    <g id="ytick_2">
     <g id="line2d_21">
      <path d="M 49.584375 404.767449 
L 495.984375 404.767449 
" clip-path="url(#pa26b248922)" style="fill: none; stroke: #808080; stroke-width: 0.2; stroke-linecap: square"/>
     </g>
     <g id="line2d_22">
      <g>
       <use xlink:href="#mb1b4232215" x="49.584375" y="404.767449" style="stroke: #000000; stroke-width: 0.8"/>
      </g>
     </g>
     <g id="text_12">
      <!-- $\mathdefault{10^{-11}}$ -->
      <g transform="translate(20.584375 409.923699)scale(0.1 -0.1)">
       <use xlink:href="#ArialMT-31" transform="translate(0 0.99375)"/>
       <use xlink:href="#ArialMT-30" transform="translate(55.615234 0.99375)"/>
       <use xlink:href="#ArialMT-2d" transform="translate(112.972813 70.6875)scale(0.7)"/>
       <use xlink:href="#ArialMT-31" transform="translate(136.283359 70.6875)scale(0.7)"/>
       <use xlink:href="#ArialMT-31" transform="translate(175.214023 70.6875)scale(0.7)"/>
      </g>
     </g>
    </g>
    <g id="ytick_3">
     <g id="line2d_23">
      <path d="M 49.584375 377.720149 
L 495.984375 377.720149 
" clip-path="url(#pa26b248922)" style="fill: none; stroke: #808080; stroke-width: 0.2; stroke-linecap: square"/>
     </g>
     <g id="line2d_24">
      <g>
       <use xlink:href="#mb1b4232215" x="49.584375" y="377.720149" style="stroke: #000000; stroke-width: 0.8"/>
      </g>
     </g>
     <g id="text_13">
      <!-- $\mathdefault{10^{-10}}$ -->
      <g transform="translate(20.584375 382.876399)scale(0.1 -0.1)">
       <use xlink:href="#ArialMT-31" transform="translate(0 0.99375)"/>
       <use xlink:href="#ArialMT-30" transform="translate(55.615234 0.99375)"/>
       <use xlink:href="#ArialMT-2d" transform="translate(112.972813 70.6875)scale(0.7)"/>
       <use xlink:href="#ArialMT-31" transform="translate(136.283359 70.6875)scale(0.7)"/>
       <use xlink:href="#ArialMT-30" transform="translate(175.214023 70.6875)scale(0.7)"/>
      </g>
     </g>
    </g>
    <g id="ytick_4">
     <g id="line2d_25">
      <path d="M 49.584375 350.672849 
L 495.984375 350.672849 
" clip-path="url(#pa26b248922)" style="fill: none; stroke: #808080; stroke-width: 0.2; stroke-linecap: square"/>
     </g>
     <g id="line2d_26">
      <g>
       <use xlink:href="#mb1b4232215" x="49.584375" y="350.672849" style="stroke: #000000; stroke-width: 0.8"/>
      </g>
     </g>
     <g id="text_14">
      <!-- $\mathdefault{10^{-9}}$ -->
      <g transform="translate(24.484375 355.829099)scale(0.1 -0.1)">
       <use xlink:href="#ArialMT-31" transform="translate(0 0.99375)"/>
       <use xlink:href="#ArialMT-30" transform="translate(55.615234 0.99375)"/>
       <use xlink:href="#ArialMT-2d" transform="translate(112.972813 70.6875)scale(0.7)"/>
       <use xlink:href="#ArialMT-39" transform="translate(136.283359 70.6875)scale(0.7)"/>
      </g>
     </g>
    </g>
    <g id="ytick_5">
     <g id="line2d_27">
      <path d="M 49.584375 323.625549 
L 495.984375 323.625549 
" clip-path="url(#pa26b248922)" style="fill: none; stroke: #808080; stroke-width: 0.2; stroke-linecap: square"/>
     </g>
     <g id="line2d_28">
      <g>
       <use xlink:href="#mb1b4232215" x="49.584375" y="323.625549" style="stroke: #000000; stroke-width: 0.8"/>
      </g>
     </g>
     <g id="text_15">
      <!-- $\mathdefault{10^{-8}}$ -->
      <g transform="translate(24.484375 328.781799)scale(0.1 -0.1)">
       <use xlink:href="#ArialMT-31" transform="translate(0 0.99375)"/>
       <use xlink:href="#ArialMT-30" transform="translate(55.615234 0.99375)"/>
       <use xlink:href="#ArialMT-2d" transform="translate(112.972813 70.6875)scale(0.7)"/>
       <use xlink:href="#ArialMT-38" transform="translate(136.283359 70.6875)scale(0.7)"/>
      </g>
     </g>
    </g>
    <g id="ytick_6">
     <g id="line2d_29">
      <path d="M 49.584375 296.57825 
L 495.984375 296.57825 
" clip-path="url(#pa26b248922)" style="fill: none; stroke: #808080; stroke-width: 0.2; stroke-linecap: square"/>
     </g>
     <g id="line2d_30">
      <g>
       <use xlink:href="#mb1b4232215" x="49.584375" y="296.57825" style="stroke: #000000; stroke-width: 0.8"/>
      </g>
     </g>
     <g id="text_16">
      <!-- $\mathdefault{10^{-7}}$ -->
      <g transform="translate(24.484375 301.6845)scale(0.1 -0.1)">
       <use xlink:href="#ArialMT-31" transform="translate(0 0.846875)"/>
       <use xlink:href="#ArialMT-30" transform="translate(55.615234 0.846875)"/>
       <use xlink:href="#ArialMT-2d" transform="translate(112.972813 70.540625)scale(0.7)"/>
       <use xlink:href="#ArialMT-37" transform="translate(136.283359 70.540625)scale(0.7)"/>
      </g>
     </g>
    </g>
    <g id="ytick_7">
     <g id="line2d_31">
      <path d="M 49.584375 269.53095 
L 495.984375 269.53095 
" clip-path="url(#pa26b248922)" style="fill: none; stroke: #808080; stroke-width: 0.2; stroke-linecap: square"/>
     </g>
     <g id="line2d_32">
      <g>
       <use xlink:href="#mb1b4232215" x="49.584375" y="269.53095" style="stroke: #000000; stroke-width: 0.8"/>
      </g>
     </g>
     <g id="text_17">
      <!-- $\mathdefault{10^{-6}}$ -->
      <g transform="translate(24.484375 274.6872)scale(0.1 -0.1)">
       <use xlink:href="#ArialMT-31" transform="translate(0 0.99375)"/>
       <use xlink:href="#ArialMT-30" transform="translate(55.615234 0.99375)"/>
       <use xlink:href="#ArialMT-2d" transform="translate(112.972813 70.6875)scale(0.7)"/>
       <use xlink:href="#ArialMT-36" transform="translate(136.283359 70.6875)scale(0.7)"/>
      </g>
     </g>
    </g>
    <g id="ytick_8">
     <g id="line2d_33">
      <path d="M 49.584375 242.48365 
L 495.984375 242.48365 
" clip-path="url(#pa26b248922)" style="fill: none; stroke: #808080; stroke-width: 0.2; stroke-linecap: square"/>
     </g>
     <g id="line2d_34">
      <g>
       <use xlink:href="#mb1b4232215" x="49.584375" y="242.48365" style="stroke: #000000; stroke-width: 0.8"/>
      </g>
     </g>
     <g id="text_18">
      <!-- $\mathdefault{10^{-5}}$ -->
      <g transform="translate(24.484375 247.5899)scale(0.1 -0.1)">
       <use xlink:href="#ArialMT-31" transform="translate(0 0.879688)"/>
       <use xlink:href="#ArialMT-30" transform="translate(55.615234 0.879688)"/>
       <use xlink:href="#ArialMT-2d" transform="translate(112.972813 70.573438)scale(0.7)"/>
       <use xlink:href="#ArialMT-35" transform="translate(136.283359 70.573438)scale(0.7)"/>
      </g>
     </g>
    </g>
    <g id="ytick_9">
     <g id="line2d_35">
      <path d="M 49.584375 215.43635 
L 495.984375 215.43635 
" clip-path="url(#pa26b248922)" style="fill: none; stroke: #808080; stroke-width: 0.2; stroke-linecap: square"/>
     </g>
     <g id="line2d_36">
      <g>
       <use xlink:href="#mb1b4232215" x="49.584375" y="215.43635" style="stroke: #000000; stroke-width: 0.8"/>
      </g>
     </g>
     <g id="text_19">
      <!-- $\mathdefault{10^{-4}}$ -->
      <g transform="translate(24.484375 220.5426)scale(0.1 -0.1)">
       <use xlink:href="#ArialMT-31" transform="translate(0 0.201563)"/>
       <use xlink:href="#ArialMT-30" transform="translate(55.615234 0.201563)"/>
       <use xlink:href="#ArialMT-2d" transform="translate(112.972813 69.895313)scale(0.7)"/>
       <use xlink:href="#ArialMT-34" transform="translate(136.283359 69.895313)scale(0.7)"/>
      </g>
     </g>
    </g>
    <g id="ytick_10">
     <g id="line2d_37">
      <path d="M 49.584375 188.38905 
L 495.984375 188.38905 
" clip-path="url(#pa26b248922)" style="fill: none; stroke: #808080; stroke-width: 0.2; stroke-linecap: square"/>
     </g>
     <g id="line2d_38">
      <g>
       <use xlink:href="#mb1b4232215" x="49.584375" y="188.38905" style="stroke: #000000; stroke-width: 0.8"/>
      </g>
     </g>
     <g id="text_20">
      <!-- $\mathdefault{10^{-3}}$ -->
      <g transform="translate(24.484375 193.5453)scale(0.1 -0.1)">
       <use xlink:href="#ArialMT-31" transform="translate(0 0.99375)"/>
       <use xlink:href="#ArialMT-30" transform="translate(55.615234 0.99375)"/>
       <use xlink:href="#ArialMT-2d" transform="translate(112.972813 70.6875)scale(0.7)"/>
       <use xlink:href="#ArialMT-33" transform="translate(136.283359 70.6875)scale(0.7)"/>
      </g>
     </g>
    </g>
    <g id="ytick_11">
     <g id="line2d_39">
      <path d="M 49.584375 161.34175 
L 495.984375 161.34175 
" clip-path="url(#pa26b248922)" style="fill: none; stroke: #808080; stroke-width: 0.2; stroke-linecap: square"/>
     </g>
     <g id="line2d_40">
      <g>
       <use xlink:href="#mb1b4232215" x="49.584375" y="161.34175" style="stroke: #000000; stroke-width: 0.8"/>
      </g>
     </g>
     <g id="text_21">
      <!-- $\mathdefault{10^{-2}}$ -->
      <g transform="translate(24.484375 166.498)scale(0.1 -0.1)">
       <use xlink:href="#ArialMT-31" transform="translate(0 0.99375)"/>
       <use xlink:href="#ArialMT-30" transform="translate(55.615234 0.99375)"/>
       <use xlink:href="#ArialMT-2d" transform="translate(112.972813 70.6875)scale(0.7)"/>
       <use xlink:href="#ArialMT-32" transform="translate(136.283359 70.6875)scale(0.7)"/>
      </g>
     </g>
    </g>
    <g id="ytick_12">
     <g id="line2d_41">
      <path d="M 49.584375 134.294451 
L 495.984375 134.294451 
" clip-path="url(#pa26b248922)" style="fill: none; stroke: #808080; stroke-width: 0.2; stroke-linecap: square"/>
     </g>
     <g id="line2d_42">
      <g>
       <use xlink:href="#mb1b4232215" x="49.584375" y="134.294451" style="stroke: #000000; stroke-width: 0.8"/>
      </g>
     </g>
     <g id="text_22">
      <!-- $\mathdefault{10^{-1}}$ -->
      <g transform="translate(24.484375 139.450701)scale(0.1 -0.1)">
       <use xlink:href="#ArialMT-31" transform="translate(0 0.99375)"/>
       <use xlink:href="#ArialMT-30" transform="translate(55.615234 0.99375)"/>
       <use xlink:href="#ArialMT-2d" transform="translate(112.972813 70.6875)scale(0.7)"/>
       <use xlink:href="#ArialMT-31" transform="translate(136.283359 70.6875)scale(0.7)"/>
      </g>
     </g>
    </g>
    <g id="ytick_13">
     <g id="line2d_43">
      <path d="M 49.584375 107.247151 
L 495.984375 107.247151 
" clip-path="url(#pa26b248922)" style="fill: none; stroke: #808080; stroke-width: 0.2; stroke-linecap: square"/>
     </g>
     <g id="line2d_44">
      <g>
       <use xlink:href="#mb1b4232215" x="49.584375" y="107.247151" style="stroke: #000000; stroke-width: 0.8"/>
      </g>
     </g>
     <g id="text_23">
      <!-- $\mathdefault{10^{0}}$ -->
      <g transform="translate(26.884375 112.403401)scale(0.1 -0.1)">
       <use xlink:href="#ArialMT-31" transform="translate(0 0.99375)"/>
       <use xlink:href="#ArialMT-30" transform="translate(55.615234 0.99375)"/>
       <use xlink:href="#ArialMT-30" transform="translate(112.972813 70.6875)scale(0.7)"/>
      </g>
     </g>
    </g>
    <g id="ytick_14">
     <g id="line2d_45">
      <path d="M 49.584375 80.199851 
L 495.984375 80.199851 
" clip-path="url(#pa26b248922)" style="fill: none; stroke: #808080; stroke-width: 0.2; stroke-linecap: square"/>
     </g>
     <g id="line2d_46">
      <g>
       <use xlink:href="#mb1b4232215" x="49.584375" y="80.199851" style="stroke: #000000; stroke-width: 0.8"/>
      </g>
     </g>
     <g id="text_24">
      <!-- $\mathdefault{10^{1}}$ -->
      <g transform="translate(26.884375 85.356101)scale(0.1 -0.1)">
       <use xlink:href="#ArialMT-31" transform="translate(0 0.99375)"/>
       <use xlink:href="#ArialMT-30" transform="translate(55.615234 0.99375)"/>
       <use xlink:href="#ArialMT-31" transform="translate(112.972813 70.6875)scale(0.7)"/>
      </g>
     </g>
    </g>
    <g id="ytick_15">
     <g id="line2d_47">
      <path d="M 49.584375 53.152551 
L 495.984375 53.152551 
" clip-path="url(#pa26b248922)" style="fill: none; stroke: #808080; stroke-width: 0.2; stroke-linecap: square"/>
     </g>
     <g id="line2d_48">
      <g>
       <use xlink:href="#mb1b4232215" x="49.584375" y="53.152551" style="stroke: #000000; stroke-width: 0.8"/>
      </g>
     </g>
     <g id="text_25">
      <!-- $\mathdefault{10^{2}}$ -->
      <g transform="translate(26.884375 58.308801)scale(0.1 -0.1)">
       <use xlink:href="#ArialMT-31" transform="translate(0 0.99375)"/>
       <use xlink:href="#ArialMT-30" transform="translate(55.615234 0.99375)"/>
       <use xlink:href="#ArialMT-32" transform="translate(112.972813 70.6875)scale(0.7)"/>
      </g>
     </g>
    </g>
    <g id="ytick_16">
     <g id="line2d_49">
      <path d="M 49.584375 26.105251 
L 495.984375 26.105251 
" clip-path="url(#pa26b248922)" style="fill: none; stroke: #808080; stroke-width: 0.2; stroke-linecap: square"/>
     </g>
     <g id="line2d_50">
      <g>
       <use xlink:href="#mb1b4232215" x="49.584375" y="26.105251" style="stroke: #000000; stroke-width: 0.8"/>
      </g>
     </g>
     <g id="text_26">
      <!-- $\mathdefault{10^{3}}$ -->
      <g transform="translate(26.884375 31.261501)scale(0.1 -0.1)">
       <use xlink:href="#ArialMT-31" transform="translate(0 0.99375)"/>
       <use xlink:href="#ArialMT-30" transform="translate(55.615234 0.99375)"/>
       <use xlink:href="#ArialMT-33" transform="translate(112.972813 70.6875)scale(0.7)"/>
      </g>
     </g>
    </g>
    <g id="text_27">
     <!-- P (bar) -->
     <g transform="translate(14.479687 244.152187)rotate(-90)scale(0.1 -0.1)">
      <defs>
       <path id="ArialMT-50" d="M 494 0 
L 494 4581 
L 2222 4581 
Q 2678 4581 2919 4538 
Q 3256 4481 3484 4323 
Q 3713 4166 3852 3881 
Q 3991 3597 3991 3256 
Q 3991 2672 3619 2267 
Q 3247 1863 2275 1863 
L 1100 1863 
L 1100 0 
L 494 0 
z
M 1100 2403 
L 2284 2403 
Q 2872 2403 3119 2622 
Q 3366 2841 3366 3238 
Q 3366 3525 3220 3729 
Q 3075 3934 2838 4000 
Q 2684 4041 2272 4041 
L 1100 4041 
L 1100 2403 
z
" transform="scale(0.015625)"/>
       <path id="ArialMT-62" d="M 941 0 
L 419 0 
L 419 4581 
L 981 4581 
L 981 2947 
Q 1338 3394 1891 3394 
Q 2197 3394 2470 3270 
Q 2744 3147 2920 2923 
Q 3097 2700 3197 2384 
Q 3297 2069 3297 1709 
Q 3297 856 2875 390 
Q 2453 -75 1863 -75 
Q 1275 -75 941 416 
L 941 0 
z
M 934 1684 
Q 934 1088 1097 822 
Q 1363 388 1816 388 
Q 2184 388 2453 708 
Q 2722 1028 2722 1663 
Q 2722 2313 2464 2622 
Q 2206 2931 1841 2931 
Q 1472 2931 1203 2611 
Q 934 2291 934 1684 
z
" transform="scale(0.015625)"/>
      </defs>
      <use xlink:href="#ArialMT-50"/>
      <use xlink:href="#ArialMT-20" x="64.949219"/>
      <use xlink:href="#ArialMT-28" x="92.732422"/>
      <use xlink:href="#ArialMT-62" x="126.033203"/>
      <use xlink:href="#ArialMT-61" x="181.648438"/>
      <use xlink:href="#ArialMT-72" x="237.263672"/>
      <use xlink:href="#ArialMT-29" x="270.564453"/>
     </g>
    </g>
   </g>
   <g id="line2d_51">
    <path d="M 329.148011 196.462616 
L 333.657102 194.691896 
L 338.166193 192.947423 
L 342.675284 191.228617 
L 347.184375 189.534917 
L 351.693466 187.865776 
L 356.202557 186.220664 
L 360.711648 184.599066 
L 365.220739 183.000482 
L 369.72983 181.424424 
L 374.23892 179.87042 
L 378.748011 178.33801 
L 383.257102 176.826747 
L 387.766193 175.336198 
L 392.275284 173.865937 
L 396.784375 172.415555 
L 401.293466 170.984651 
L 405.802557 169.572834 
L 410.311648 168.179726 
L 414.820739 166.804958 
L 419.32983 165.448168 
L 423.83892 164.109008 
L 428.348011 162.787135 
L 432.857102 161.482217 
L 437.366193 160.19393 
L 441.875284 158.921958 
L 446.384375 157.665993 
L 450.893466 156.425735 
L 455.402557 155.20089 
L 459.911648 153.991174 
L 464.420739 152.796308 
L 468.92983 151.61602 
L 473.43892 150.450044 
L 477.948011 149.298122 
L 482.457102 148.160002 
L 486.966193 147.035437 
L 491.475284 145.924186 
L 495.984375 144.826015 
" clip-path="url(#pa26b248922)" style="fill: none; stroke: #ffa500; stroke-width: 1.5; stroke-linecap: square"/>
   </g>
   <g id="line2d_52">
    <path d="M 49.584375 456.305317 
L 54.093466 448.559482 
L 58.602557 441.026073 
L 63.111648 433.69647 
L 67.620739 426.562513 
L 72.12983 419.616471 
L 76.63892 412.851016 
L 81.148011 406.259196 
L 85.657102 399.834412 
L 90.166193 393.570393 
L 94.675284 387.46118 
L 99.184375 381.501105 
L 103.693466 375.684771 
L 108.202557 370.007042 
L 112.711648 364.463021 
L 117.220739 359.04804 
L 121.72983 353.757645 
L 126.23892 348.587585 
L 130.748011 343.533802 
L 135.257102 338.592416 
L 139.766193 333.759718 
L 144.275284 329.032163 
L 148.784375 324.406354 
L 153.293466 319.879043 
L 157.802557 315.447117 
L 162.311648 311.107593 
L 166.820739 306.857611 
L 171.32983 302.694427 
L 175.83892 298.61541 
L 180.348011 294.618032 
L 184.857102 290.699868 
L 189.366193 286.858585 
L 193.875284 283.091943 
L 198.384375 279.397787 
L 202.893466 275.774044 
L 207.402557 272.218721 
L 211.911648 268.729898 
L 216.420739 265.305726 
L 220.92983 261.944425 
L 225.43892 258.644278 
L 229.948011 255.403633 
L 234.457102 252.220894 
L 238.966193 249.094523 
L 243.475284 246.023036 
L 247.984375 243.004999 
L 252.493466 240.039031 
L 257.002557 237.123794 
L 261.511648 234.257998 
L 266.020739 231.440397 
L 270.52983 228.669784 
L 275.03892 225.944993 
L 279.548011 223.264899 
L 284.057102 220.628408 
L 288.566193 218.034467 
L 293.075284 215.482053 
L 297.584375 212.970176 
L 302.093466 210.49788 
L 306.602557 208.064235 
L 311.111648 205.668342 
L 315.620739 203.30933 
L 320.12983 200.986353 
L 324.63892 198.698592 
" clip-path="url(#pa26b248922)" style="fill: none; stroke: #008000; stroke-width: 1.5; stroke-linecap: square"/>
   </g>
   <g id="line2d_53">
    <path d="M 328.974975 196.531099 
L 329.671799 61.176428 
L 330.368622 53.034438 
L 331.065446 48.271664 
L 331.762269 44.892418 
L 332.459093 42.27127 
L 333.155916 40.129635 
L 333.85274 38.318908 
L 334.549564 36.750384 
L 335.246387 35.366848 
L 335.943211 34.129233 
L 336.640034 33.009674 
L 337.336858 31.987596 
L 338.033681 31.047376 
L 338.730505 30.176868 
L 339.427329 29.366444 
L 340.124152 28.608343 
L 340.820976 27.896217 
L 341.517799 27.224806 
L 342.214623 26.589706 
L 342.911446 25.98719 
L 343.60827 25.414077 
L 344.305093 24.867631 
L 345.001917 24.345479 
L 345.698741 23.845553 
L 346.395564 23.366037 
L 347.092388 22.905332 
L 347.789211 22.462015 
L 348.486035 22.034823 
L 349.182858 21.622624 
L 349.879682 21.224399 
L 350.576506 20.839234 
L 351.273329 20.466298 
L 351.970153 20.104839 
L 352.666976 19.754172 
L 353.3638 19.41367 
L 354.060623 19.082761 
L 354.757447 18.760919 
L 355.454271 18.447661 
L 356.151094 18.14254 
L 356.847918 17.845145 
L 357.544741 17.555093 
L 358.241565 17.272032 
L 358.938388 16.995631 
L 359.635212 16.725585 
L 360.332036 16.461608 
L 361.028859 16.203432 
L 361.725683 15.95081 
L 362.422506 15.703506 
L 363.11933 15.461302 
L 363.816153 15.223991 
L 364.512977 14.99138 
L 365.2098 14.763285 
L 365.906624 14.539536 
L 366.603448 14.319969 
L 367.300271 14.104431 
L 367.997095 13.892777 
L 368.693918 13.684869 
L 369.390742 13.480577 
L 370.087565 13.279777 
L 370.784389 13.082353 
L 371.481213 12.888191 
L 372.178036 12.697187 
L 372.87486 12.509239 
L 373.571683 12.324252 
L 374.268507 12.142132 
L 374.96533 11.962792 
L 375.662154 11.78615 
L 376.358978 11.612125 
L 377.055801 11.44064 
L 377.752625 11.271623 
L 378.449448 11.105003 
L 379.146272 10.940714 
L 379.843095 10.778691 
L 380.539919 10.618872 
L 381.236743 10.461199 
L 381.933566 10.305614 
L 382.63039 10.152063 
L 383.327213 10.000493 
L 384.024037 9.850854 
L 384.72086 9.703098 
L 385.417684 9.557177 
L 386.114507 9.413046 
L 386.811331 9.270663 
L 387.508155 9.129984 
L 388.204978 8.990971 
L 388.901802 8.853584 
L 389.598625 8.717785 
L 390.295449 8.583537 
L 390.992272 8.450807 
L 391.689096 8.31956 
L 392.38592 8.189763 
L 393.082743 8.061385 
L 393.779567 7.934395 
L 394.47639 7.808763 
L 395.173214 7.68446 
L 395.870037 7.561459 
L 396.566861 7.439733 
L 397.263685 7.319255 
L 397.960508 7.2 
" clip-path="url(#pa26b248922)" style="fill: none; stroke: #bf00bf; stroke-width: 1.5; stroke-linecap: square"/>
   </g>
   <g id="line2d_54">
    <defs>
     <path id="m1831d1d863" d="M 0 3 
C 0.795609 3 1.55874 2.683901 2.12132 2.12132 
C 2.683901 1.55874 3 0.795609 3 0 
C 3 -0.795609 2.683901 -1.55874 2.12132 -2.12132 
C 1.55874 -2.683901 0.795609 -3 0 -3 
C -0.795609 -3 -1.55874 -2.683901 -2.12132 -2.12132 
C -2.683901 -1.55874 -3 -0.795609 -3 0 
C -3 0.795609 -2.683901 1.55874 -2.12132 2.12132 
C -1.55874 2.683901 -0.795609 3 0 3 
z
" style="stroke: #ffffff"/>
    </defs>
    <g clip-path="url(#pa26b248922)">
     <use xlink:href="#m1831d1d863" x="328.974975" y="196.531099" style="fill: #ff0000; stroke: #ffffff"/>
    </g>
   </g>
   <g id="line2d_55">
    <path d="M 49.584375 107.247151 
L 495.984375 107.247151 
" clip-path="url(#pa26b248922)" style="fill: none; stroke-dasharray: 5.55,2.4; stroke-dashoffset: 0; stroke: #ff0000; stroke-width: 1.5"/>
   </g>
   <g id="patch_5">
    <path d="M 49.584375 450.72 
L 49.584375 7.2 
" style="fill: none; stroke: #000000; stroke-width: 0.8; stroke-linejoin: miter; stroke-linecap: square"/>
   </g>
   <g id="patch_6">
    <path d="M 495.984375 450.72 
L 495.984375 7.2 
" style="fill: none; stroke: #000000; stroke-width: 0.8; stroke-linejoin: miter; stroke-linecap: square"/>
   </g>
   <g id="patch_7">
    <path d="M 49.584375 450.72 
L 495.984375 450.72 
" style="fill: none; stroke: #000000; stroke-width: 0.8; stroke-linejoin: miter; stroke-linecap: square"/>
   </g>
   <g id="patch_8">
    <path d="M 49.584375 7.2 
L 495.984375 7.2 
" style="fill: none; stroke: #000000; stroke-width: 0.8; stroke-linejoin: miter; stroke-linecap: square"/>
   </g>
   <g id="legend_1">
    <g id="patch_9">
     <path d="M 199.775 445.72 
L 488.984375 445.72 
Q 490.984375 445.72 490.984375 443.72 
L 490.984375 362.705625 
Q 490.984375 360.705625 488.984375 360.705625 
L 199.775 360.705625 
Q 197.775 360.705625 197.775 362.705625 
L 197.775 443.72 
Q 197.775 445.72 199.775 445.72 
z
" style="fill: #ffffff; opacity: 0.8; stroke: #cccccc; stroke-linejoin: miter"/>
    </g>
    <g id="line2d_56">
     <path d="M 201.775 368.485312 
L 211.775 368.485312 
L 221.775 368.485312 
" style="fill: none; stroke: #ffa500; stroke-width: 1.5; stroke-linecap: square"/>
    </g>
    <g id="text_28">
     <!-- Boiling curve -->
     <g transform="translate(229.775 371.985312)scale(0.1 -0.1)">
      <defs>
       <path id="ArialMT-42" d="M 469 0 
L 469 4581 
L 2188 4581 
Q 2713 4581 3030 4442 
Q 3347 4303 3526 4014 
Q 3706 3725 3706 3409 
Q 3706 3116 3547 2856 
Q 3388 2597 3066 2438 
Q 3481 2316 3704 2022 
Q 3928 1728 3928 1328 
Q 3928 1006 3792 729 
Q 3656 453 3456 303 
Q 3256 153 2954 76 
Q 2653 0 2216 0 
L 469 0 
z
M 1075 2656 
L 2066 2656 
Q 2469 2656 2644 2709 
Q 2875 2778 2992 2937 
Q 3109 3097 3109 3338 
Q 3109 3566 3000 3739 
Q 2891 3913 2687 3977 
Q 2484 4041 1991 4041 
L 1075 4041 
L 1075 2656 
z
M 1075 541 
L 2216 541 
Q 2509 541 2628 563 
Q 2838 600 2978 687 
Q 3119 775 3209 942 
Q 3300 1109 3300 1328 
Q 3300 1584 3169 1773 
Q 3038 1963 2805 2039 
Q 2572 2116 2134 2116 
L 1075 2116 
L 1075 541 
z
" transform="scale(0.015625)"/>
       <path id="ArialMT-6f" d="M 213 1659 
Q 213 2581 725 3025 
Q 1153 3394 1769 3394 
Q 2453 3394 2887 2945 
Q 3322 2497 3322 1706 
Q 3322 1066 3130 698 
Q 2938 331 2570 128 
Q 2203 -75 1769 -75 
Q 1072 -75 642 372 
Q 213 819 213 1659 
z
M 791 1659 
Q 791 1022 1069 705 
Q 1347 388 1769 388 
Q 2188 388 2466 706 
Q 2744 1025 2744 1678 
Q 2744 2294 2464 2611 
Q 2184 2928 1769 2928 
Q 1347 2928 1069 2612 
Q 791 2297 791 1659 
z
" transform="scale(0.015625)"/>
       <path id="ArialMT-69" d="M 425 3934 
L 425 4581 
L 988 4581 
L 988 3934 
L 425 3934 
z
M 425 0 
L 425 3319 
L 988 3319 
L 988 0 
L 425 0 
z
" transform="scale(0.015625)"/>
       <path id="ArialMT-6c" d="M 409 0 
L 409 4581 
L 972 4581 
L 972 0 
L 409 0 
z
" transform="scale(0.015625)"/>
       <path id="ArialMT-6e" d="M 422 0 
L 422 3319 
L 928 3319 
L 928 2847 
Q 1294 3394 1984 3394 
Q 2284 3394 2536 3286 
Q 2788 3178 2913 3003 
Q 3038 2828 3088 2588 
Q 3119 2431 3119 2041 
L 3119 0 
L 2556 0 
L 2556 2019 
Q 2556 2363 2490 2533 
Q 2425 2703 2258 2804 
Q 2091 2906 1866 2906 
Q 1506 2906 1245 2678 
Q 984 2450 984 1813 
L 984 0 
L 422 0 
z
" transform="scale(0.015625)"/>
       <path id="ArialMT-67" d="M 319 -275 
L 866 -356 
Q 900 -609 1056 -725 
Q 1266 -881 1628 -881 
Q 2019 -881 2231 -725 
Q 2444 -569 2519 -288 
Q 2563 -116 2559 434 
Q 2191 0 1641 0 
Q 956 0 581 494 
Q 206 988 206 1678 
Q 206 2153 378 2554 
Q 550 2956 876 3175 
Q 1203 3394 1644 3394 
Q 2231 3394 2613 2919 
L 2613 3319 
L 3131 3319 
L 3131 450 
Q 3131 -325 2973 -648 
Q 2816 -972 2473 -1159 
Q 2131 -1347 1631 -1347 
Q 1038 -1347 672 -1080 
Q 306 -813 319 -275 
z
M 784 1719 
Q 784 1066 1043 766 
Q 1303 466 1694 466 
Q 2081 466 2343 764 
Q 2606 1063 2606 1700 
Q 2606 2309 2336 2618 
Q 2066 2928 1684 2928 
Q 1309 2928 1046 2623 
Q 784 2319 784 1719 
z
" transform="scale(0.015625)"/>
       <path id="ArialMT-63" d="M 2588 1216 
L 3141 1144 
Q 3050 572 2676 248 
Q 2303 -75 1759 -75 
Q 1078 -75 664 370 
Q 250 816 250 1647 
Q 250 2184 428 2587 
Q 606 2991 970 3192 
Q 1334 3394 1763 3394 
Q 2303 3394 2647 3120 
Q 2991 2847 3088 2344 
L 2541 2259 
Q 2463 2594 2264 2762 
Q 2066 2931 1784 2931 
Q 1359 2931 1093 2626 
Q 828 2322 828 1663 
Q 828 994 1084 691 
Q 1341 388 1753 388 
Q 2084 388 2306 591 
Q 2528 794 2588 1216 
z
" transform="scale(0.015625)"/>
       <path id="ArialMT-76" d="M 1344 0 
L 81 3319 
L 675 3319 
L 1388 1331 
Q 1503 1009 1600 663 
Q 1675 925 1809 1294 
L 2547 3319 
L 3125 3319 
L 1869 0 
L 1344 0 
z
" transform="scale(0.015625)"/>
      </defs>
      <use xlink:href="#ArialMT-42"/>
      <use xlink:href="#ArialMT-6f" x="66.699219"/>
      <use xlink:href="#ArialMT-69" x="122.314453"/>
      <use xlink:href="#ArialMT-6c" x="144.53125"/>
      <use xlink:href="#ArialMT-69" x="166.748047"/>
      <use xlink:href="#ArialMT-6e" x="188.964844"/>
      <use xlink:href="#ArialMT-67" x="244.580078"/>
      <use xlink:href="#ArialMT-20" x="300.195312"/>
      <use xlink:href="#ArialMT-63" x="327.978516"/>
      <use xlink:href="#ArialMT-75" x="377.978516"/>
      <use xlink:href="#ArialMT-72" x="433.59375"/>
      <use xlink:href="#ArialMT-76" x="466.894531"/>
      <use xlink:href="#ArialMT-65" x="516.894531"/>
     </g>
    </g>
    <g id="line2d_57">
     <path d="M 201.775 382.747812 
L 211.775 382.747812 
L 221.775 382.747812 
" style="fill: none; stroke: #008000; stroke-width: 1.5; stroke-linecap: square"/>
    </g>
    <g id="text_29">
     <!-- Sublimation curve -->
     <g transform="translate(229.775 386.247812)scale(0.1 -0.1)">
      <defs>
       <path id="ArialMT-53" d="M 288 1472 
L 859 1522 
Q 900 1178 1048 958 
Q 1197 738 1509 602 
Q 1822 466 2213 466 
Q 2559 466 2825 569 
Q 3091 672 3220 851 
Q 3350 1031 3350 1244 
Q 3350 1459 3225 1620 
Q 3100 1781 2813 1891 
Q 2628 1963 1997 2114 
Q 1366 2266 1113 2400 
Q 784 2572 623 2826 
Q 463 3081 463 3397 
Q 463 3744 659 4045 
Q 856 4347 1234 4503 
Q 1613 4659 2075 4659 
Q 2584 4659 2973 4495 
Q 3363 4331 3572 4012 
Q 3781 3694 3797 3291 
L 3216 3247 
Q 3169 3681 2898 3903 
Q 2628 4125 2100 4125 
Q 1550 4125 1298 3923 
Q 1047 3722 1047 3438 
Q 1047 3191 1225 3031 
Q 1400 2872 2139 2705 
Q 2878 2538 3153 2413 
Q 3553 2228 3743 1945 
Q 3934 1663 3934 1294 
Q 3934 928 3725 604 
Q 3516 281 3123 101 
Q 2731 -78 2241 -78 
Q 1619 -78 1198 103 
Q 778 284 539 648 
Q 300 1013 288 1472 
z
" transform="scale(0.015625)"/>
      </defs>
      <use xlink:href="#ArialMT-53"/>
      <use xlink:href="#ArialMT-75" x="66.699219"/>
      <use xlink:href="#ArialMT-62" x="122.314453"/>
      <use xlink:href="#ArialMT-6c" x="177.929688"/>
      <use xlink:href="#ArialMT-69" x="200.146484"/>
      <use xlink:href="#ArialMT-6d" x="222.363281"/>
      <use xlink:href="#ArialMT-61" x="305.664062"/>
      <use xlink:href="#ArialMT-74" x="361.279297"/>
      <use xlink:href="#ArialMT-69" x="389.0625"/>
      <use xlink:href="#ArialMT-6f" x="411.279297"/>
      <use xlink:href="#ArialMT-6e" x="466.894531"/>
      <use xlink:href="#ArialMT-20" x="522.509766"/>
      <use xlink:href="#ArialMT-63" x="550.292969"/>
      <use xlink:href="#ArialMT-75" x="600.292969"/>
      <use xlink:href="#ArialMT-72" x="655.908203"/>
      <use xlink:href="#ArialMT-76" x="689.208984"/>
      <use xlink:href="#ArialMT-65" x="739.208984"/>
     </g>
    </g>
    <g id="line2d_58">
     <path d="M 201.775 396.893125 
L 211.775 396.893125 
L 221.775 396.893125 
" style="fill: none; stroke: #bf00bf; stroke-width: 1.5; stroke-linecap: square"/>
    </g>
    <g id="text_30">
     <!-- Melting curve -->
     <g transform="translate(229.775 400.393125)scale(0.1 -0.1)">
      <defs>
       <path id="ArialMT-4d" d="M 475 0 
L 475 4581 
L 1388 4581 
L 2472 1338 
Q 2622 884 2691 659 
Q 2769 909 2934 1394 
L 4031 4581 
L 4847 4581 
L 4847 0 
L 4263 0 
L 4263 3834 
L 2931 0 
L 2384 0 
L 1059 3900 
L 1059 0 
L 475 0 
z
" transform="scale(0.015625)"/>
      </defs>
      <use xlink:href="#ArialMT-4d"/>
      <use xlink:href="#ArialMT-65" x="83.300781"/>
      <use xlink:href="#ArialMT-6c" x="138.916016"/>
      <use xlink:href="#ArialMT-74" x="161.132812"/>
      <use xlink:href="#ArialMT-69" x="188.916016"/>
      <use xlink:href="#ArialMT-6e" x="211.132812"/>
      <use xlink:href="#ArialMT-67" x="266.748047"/>
      <use xlink:href="#ArialMT-20" x="322.363281"/>
      <use xlink:href="#ArialMT-63" x="350.146484"/>
      <use xlink:href="#ArialMT-75" x="400.146484"/>
      <use xlink:href="#ArialMT-72" x="455.761719"/>
      <use xlink:href="#ArialMT-76" x="489.0625"/>
      <use xlink:href="#ArialMT-65" x="539.0625"/>
     </g>
    </g>
    <g id="line2d_59">
     <g>
      <use xlink:href="#m1831d1d863" x="211.775" y="411.297812" style="fill: #ff0000; stroke: #ffffff"/>
     </g>
    </g>
    <g id="text_31">
     <!-- Triple point: (800.70 $^{\circ}$C, 50.00 Pa) -->
     <g transform="translate(229.775 414.797812)scale(0.1 -0.1)">
      <defs>
       <path id="ArialMT-3a" d="M 578 2678 
L 578 3319 
L 1219 3319 
L 1219 2678 
L 578 2678 
z
M 578 0 
L 578 641 
L 1219 641 
L 1219 0 
L 578 0 
z
" transform="scale(0.015625)"/>
       <path id="ArialMT-2e" d="M 581 0 
L 581 641 
L 1222 641 
L 1222 0 
L 581 0 
z
" transform="scale(0.015625)"/>
       <path id="ArialMT-2c" d="M 569 0 
L 569 641 
L 1209 641 
L 1209 0 
Q 1209 -353 1084 -570 
Q 959 -788 688 -906 
L 531 -666 
Q 709 -588 793 -436 
Q 878 -284 888 0 
L 569 0 
z
" transform="scale(0.015625)"/>
      </defs>
      <use xlink:href="#ArialMT-54" transform="translate(0 0.203125)"/>
      <use xlink:href="#ArialMT-72" transform="translate(61.083984 0.203125)"/>
      <use xlink:href="#ArialMT-69" transform="translate(94.384766 0.203125)"/>
      <use xlink:href="#ArialMT-70" transform="translate(116.601562 0.203125)"/>
      <use xlink:href="#ArialMT-6c" transform="translate(172.216797 0.203125)"/>
      <use xlink:href="#ArialMT-65" transform="translate(194.433594 0.203125)"/>
      <use xlink:href="#ArialMT-20" transform="translate(250.048828 0.203125)"/>
      <use xlink:href="#ArialMT-70" transform="translate(277.832031 0.203125)"/>
      <use xlink:href="#ArialMT-6f" transform="translate(333.447266 0.203125)"/>
      <use xlink:href="#ArialMT-69" transform="translate(389.0625 0.203125)"/>
      <use xlink:href="#ArialMT-6e" transform="translate(411.279297 0.203125)"/>
      <use xlink:href="#ArialMT-74" transform="translate(466.894531 0.203125)"/>
      <use xlink:href="#ArialMT-3a" transform="translate(494.677734 0.203125)"/>
      <use xlink:href="#ArialMT-20" transform="translate(522.460938 0.203125)"/>
      <use xlink:href="#ArialMT-28" transform="translate(550.244141 0.203125)"/>
      <use xlink:href="#ArialMT-38" transform="translate(583.544922 0.203125)"/>
      <use xlink:href="#ArialMT-30" transform="translate(639.160156 0.203125)"/>
      <use xlink:href="#ArialMT-30" transform="translate(694.775391 0.203125)"/>
      <use xlink:href="#ArialMT-2e" transform="translate(750.390625 0.203125)"/>
      <use xlink:href="#ArialMT-37" transform="translate(778.173828 0.203125)"/>
      <use xlink:href="#ArialMT-30" transform="translate(833.789062 0.203125)"/>
      <use xlink:href="#ArialMT-20" transform="translate(889.404297 0.203125)"/>
      <use xlink:href="#Cmsy10-b1" transform="translate(921.651641 38.467188)scale(0.7)"/>
      <use xlink:href="#ArialMT-43" transform="translate(963.028984 0.203125)"/>
      <use xlink:href="#ArialMT-2c" transform="translate(1035.245781 0.203125)"/>
      <use xlink:href="#ArialMT-20" transform="translate(1063.028984 0.203125)"/>
      <use xlink:href="#ArialMT-35" transform="translate(1090.812188 0.203125)"/>
      <use xlink:href="#ArialMT-30" transform="translate(1146.427422 0.203125)"/>
      <use xlink:href="#ArialMT-2e" transform="translate(1202.042656 0.203125)"/>
      <use xlink:href="#ArialMT-30" transform="translate(1229.825859 0.203125)"/>
      <use xlink:href="#ArialMT-30" transform="translate(1285.441094 0.203125)"/>
      <use xlink:href="#ArialMT-20" transform="translate(1341.056328 0.203125)"/>
      <use xlink:href="#ArialMT-50" transform="translate(1368.839531 0.203125)"/>
      <use xlink:href="#ArialMT-61" transform="translate(1435.53875 0.203125)"/>
      <use xlink:href="#ArialMT-29" transform="translate(1491.153984 0.203125)"/>
     </g>
    </g>
    <g id="line2d_60">
     <path d="M 201.775 431.937812 
L 211.775 431.937812 
L 221.775 431.937812 
" style="fill: none; stroke-dasharray: 5.55,2.4; stroke-dashoffset: 0; stroke: #ff0000; stroke-width: 1.5"/>
    </g>
    <g id="text_32">
     <!-- Valid $P_{min}$ = 1.0 bar -->
     <g transform="translate(229.775 429.155625)scale(0.1 -0.1)">
      <defs>
       <path id="ArialMT-56" d="M 1803 0 
L 28 4581 
L 684 4581 
L 1875 1253 
Q 2019 853 2116 503 
Q 2222 878 2363 1253 
L 3600 4581 
L 4219 4581 
L 2425 0 
L 1803 0 
z
" transform="scale(0.015625)"/>
       <path id="ArialMT-64" d="M 2575 0 
L 2575 419 
Q 2259 -75 1647 -75 
Q 1250 -75 917 144 
Q 584 363 401 755 
Q 219 1147 219 1656 
Q 219 2153 384 2558 
Q 550 2963 881 3178 
Q 1213 3394 1622 3394 
Q 1922 3394 2156 3267 
Q 2391 3141 2538 2938 
L 2538 4581 
L 3097 4581 
L 3097 0 
L 2575 0 
z
M 797 1656 
Q 797 1019 1065 703 
Q 1334 388 1700 388 
Q 2069 388 2326 689 
Q 2584 991 2584 1609 
Q 2584 2291 2321 2609 
Q 2059 2928 1675 2928 
Q 1300 2928 1048 2622 
Q 797 2316 797 1656 
z
" transform="scale(0.015625)"/>
       <path id="Cmmi10-50" d="M 313 0 
Q 250 0 250 84 
Q 253 100 262 139 
Q 272 178 289 201 
Q 306 225 331 225 
Q 722 225 878 269 
Q 959 297 997 441 
L 1875 3956 
Q 1888 4019 1888 4044 
Q 1888 4113 1813 4122 
Q 1691 4147 1350 4147 
Q 1288 4147 1288 4231 
Q 1291 4247 1300 4286 
Q 1309 4325 1326 4348 
Q 1344 4372 1369 4372 
L 3578 4372 
Q 3881 4372 4165 4264 
Q 4450 4156 4631 3934 
Q 4813 3713 4813 3397 
Q 4813 2991 4527 2672 
Q 4241 2353 3814 2175 
Q 3388 1997 2988 1997 
L 1947 1997 
L 1556 416 
Q 1544 353 1544 325 
Q 1544 300 1551 283 
Q 1559 266 1573 261 
Q 1588 256 1619 250 
Q 1741 225 2081 225 
Q 2144 225 2144 141 
Q 2122 50 2109 25 
Q 2097 0 2034 0 
L 313 0 
z
M 1978 2188 
L 2875 2188 
Q 3497 2188 3822 2522 
Q 3988 2688 4092 3000 
Q 4197 3313 4197 3566 
Q 4197 3881 3956 4014 
Q 3716 4147 3359 4147 
L 2747 4147 
Q 2572 4147 2515 4117 
Q 2459 4088 2413 3928 
L 1978 2188 
z
" transform="scale(0.015625)"/>
       <path id="Cmmi10-6d" d="M 494 109 
Q 494 147 500 166 
L 978 2075 
Q 1025 2253 1025 2388 
Q 1025 2663 838 2663 
Q 638 2663 541 2423 
Q 444 2184 353 1819 
Q 353 1800 334 1789 
Q 316 1778 300 1778 
L 225 1778 
Q 203 1778 187 1801 
Q 172 1825 172 1844 
Q 241 2122 305 2315 
Q 369 2509 505 2668 
Q 641 2828 844 2828 
Q 1084 2828 1268 2676 
Q 1453 2525 1453 2291 
Q 1644 2541 1900 2684 
Q 2156 2828 2444 2828 
Q 2747 2828 2967 2673 
Q 3188 2519 3188 2234 
Q 3384 2513 3648 2670 
Q 3913 2828 4225 2828 
Q 4556 2828 4757 2648 
Q 4959 2469 4959 2138 
Q 4959 1875 4842 1503 
Q 4725 1131 4550 672 
Q 4459 450 4459 288 
Q 4459 97 4609 97 
Q 4859 97 5025 365 
Q 5191 634 5259 941 
Q 5278 978 5313 978 
L 5388 978 
Q 5413 978 5430 961 
Q 5447 944 5447 922 
Q 5447 916 5441 903 
Q 5353 541 5136 234 
Q 4919 -72 4594 -72 
Q 4369 -72 4209 83 
Q 4050 238 4050 459 
Q 4050 572 4103 709 
Q 4284 1191 4404 1569 
Q 4525 1947 4525 2234 
Q 4525 2413 4453 2538 
Q 4381 2663 4213 2663 
Q 3863 2663 3606 2448 
Q 3350 2234 3163 1881 
Q 3150 1819 3144 1784 
L 2731 141 
Q 2709 53 2632 -9 
Q 2556 -72 2463 -72 
Q 2388 -72 2330 -22 
Q 2272 28 2272 109 
Q 2272 147 2278 166 
L 2688 1797 
Q 2753 2059 2753 2234 
Q 2753 2413 2679 2538 
Q 2606 2663 2431 2663 
Q 2197 2663 2000 2559 
Q 1803 2456 1656 2286 
Q 1509 2116 1388 1881 
L 953 141 
Q 931 53 854 -9 
Q 778 -72 684 -72 
Q 606 -72 550 -22 
Q 494 28 494 109 
z
" transform="scale(0.015625)"/>
       <path id="Cmmi10-69" d="M 500 459 
Q 500 578 550 709 
L 1069 2088 
Q 1153 2322 1153 2472 
Q 1153 2663 1013 2663 
Q 759 2663 595 2402 
Q 431 2141 353 1819 
Q 341 1778 300 1778 
L 225 1778 
Q 172 1778 172 1838 
L 172 1856 
Q 275 2238 487 2533 
Q 700 2828 1025 2828 
Q 1253 2828 1411 2678 
Q 1569 2528 1569 2297 
Q 1569 2178 1516 2047 
L 997 672 
Q 909 459 909 288 
Q 909 97 1056 97 
Q 1306 97 1473 364 
Q 1641 631 1709 941 
Q 1722 978 1759 978 
L 1838 978 
Q 1863 978 1878 961 
Q 1894 944 1894 922 
Q 1894 916 1888 903 
Q 1800 541 1583 234 
Q 1366 -72 1044 -72 
Q 819 -72 659 83 
Q 500 238 500 459 
z
M 1222 3878 
Q 1222 4013 1334 4122 
Q 1447 4231 1581 4231 
Q 1691 4231 1761 4164 
Q 1831 4097 1831 3994 
Q 1831 3850 1717 3742 
Q 1603 3634 1466 3634 
Q 1363 3634 1292 3704 
Q 1222 3775 1222 3878 
z
" transform="scale(0.015625)"/>
       <path id="Cmmi10-6e" d="M 494 109 
Q 494 147 500 166 
L 978 2075 
Q 1025 2253 1025 2388 
Q 1025 2663 838 2663 
Q 638 2663 541 2423 
Q 444 2184 353 1819 
Q 353 1800 334 1789 
Q 316 1778 300 1778 
L 225 1778 
Q 203 1778 187 1801 
Q 172 1825 172 1844 
Q 241 2122 305 2315 
Q 369 2509 505 2668 
Q 641 2828 844 2828 
Q 1084 2828 1268 2676 
Q 1453 2525 1453 2291 
Q 1644 2541 1900 2684 
Q 2156 2828 2444 2828 
Q 2672 2828 2837 2750 
Q 3003 2672 3095 2514 
Q 3188 2356 3188 2138 
Q 3188 1875 3070 1503 
Q 2953 1131 2778 672 
Q 2688 463 2688 288 
Q 2688 97 2834 97 
Q 3084 97 3251 365 
Q 3419 634 3488 941 
Q 3500 978 3541 978 
L 3616 978 
Q 3641 978 3658 962 
Q 3675 947 3675 922 
Q 3675 916 3669 903 
Q 3581 541 3364 234 
Q 3147 -72 2822 -72 
Q 2597 -72 2437 83 
Q 2278 238 2278 459 
Q 2278 578 2328 709 
Q 2409 919 2514 1209 
Q 2619 1500 2686 1765 
Q 2753 2031 2753 2234 
Q 2753 2413 2679 2538 
Q 2606 2663 2431 2663 
Q 2197 2663 2000 2559 
Q 1803 2456 1656 2286 
Q 1509 2116 1388 1881 
L 953 141 
Q 931 53 854 -9 
Q 778 -72 684 -72 
Q 606 -72 550 -22 
Q 494 28 494 109 
z
" transform="scale(0.015625)"/>
       <path id="ArialMT-3d" d="M 3381 2694 
L 356 2694 
L 356 3219 
L 3381 3219 
L 3381 2694 
z
M 3381 1303 
L 356 1303 
L 356 1828 
L 3381 1828 
L 3381 1303 
z
" transform="scale(0.015625)"/>
      </defs>
      <use xlink:href="#ArialMT-56" transform="translate(0 0.125)"/>
      <use xlink:href="#ArialMT-61" transform="translate(66.699219 0.125)"/>
      <use xlink:href="#ArialMT-6c" transform="translate(122.314453 0.125)"/>
      <use xlink:href="#ArialMT-69" transform="translate(144.53125 0.125)"/>
      <use xlink:href="#ArialMT-64" transform="translate(166.748047 0.125)"/>
      <use xlink:href="#ArialMT-20" transform="translate(222.363281 0.125)"/>
      <use xlink:href="#Cmmi10-50" transform="translate(250.146484 0.125)"/>
      <use xlink:href="#Cmmi10-6d" transform="translate(314.355469 -16.88125)scale(0.7)"/>
      <use xlink:href="#Cmmi10-69" transform="translate(375.810547 -16.88125)scale(0.7)"/>
      <use xlink:href="#Cmmi10-6e" transform="translate(399.907227 -16.88125)scale(0.7)"/>
      <use xlink:href="#ArialMT-20" transform="translate(448.291406 0.125)"/>
      <use xlink:href="#ArialMT-3d" transform="translate(476.074609 0.125)"/>
      <use xlink:href="#ArialMT-20" transform="translate(534.473047 0.125)"/>
      <use xlink:href="#ArialMT-31" transform="translate(562.25625 0.125)"/>
      <use xlink:href="#ArialMT-2e" transform="translate(617.871484 0.125)"/>
      <use xlink:href="#ArialMT-30" transform="translate(645.654688 0.125)"/>
      <use xlink:href="#ArialMT-20" transform="translate(701.269922 0.125)"/>
      <use xlink:href="#ArialMT-62" transform="translate(729.053125 0.125)"/>
      <use xlink:href="#ArialMT-61" transform="translate(784.668359 0.125)"/>
      <use xlink:href="#ArialMT-72" transform="translate(840.283594 0.125)"/>
     </g>
     <!-- $H2O-NaCl$ lib -->
     <g transform="translate(229.775 439.7325)scale(0.1 -0.1)">
      <defs>
       <path id="Cmmi10-48" d="M 300 0 
Q 238 0 238 84 
Q 241 100 250 139 
Q 259 178 276 201 
Q 294 225 319 225 
Q 709 225 863 269 
Q 947 297 984 441 
L 1863 3956 
Q 1875 4019 1875 4044 
Q 1875 4113 1797 4122 
Q 1678 4147 1338 4147 
Q 1275 4147 1275 4231 
Q 1297 4313 1309 4342 
Q 1322 4372 1381 4372 
L 3103 4372 
Q 3169 4372 3169 4288 
Q 3166 4272 3156 4234 
Q 3147 4197 3131 4172 
Q 3116 4147 3084 4147 
Q 2694 4147 2541 4103 
Q 2456 4072 2419 3928 
L 2034 2388 
L 3956 2388 
L 4347 3956 
Q 4359 4019 4359 4044 
Q 4359 4113 4281 4122 
Q 4159 4147 3822 4147 
Q 3756 4147 3756 4231 
Q 3778 4313 3790 4342 
Q 3803 4372 3866 4372 
L 5588 4372 
Q 5650 4372 5650 4288 
Q 5647 4272 5637 4233 
Q 5628 4194 5611 4170 
Q 5594 4147 5569 4147 
Q 5178 4147 5025 4103 
Q 4941 4075 4903 3928 
L 4025 416 
Q 4013 353 4013 325 
Q 4013 259 4091 250 
Q 4213 225 4550 225 
Q 4616 225 4616 141 
Q 4597 66 4578 33 
Q 4559 0 4506 0 
L 2784 0 
Q 2719 0 2719 84 
Q 2731 131 2737 153 
Q 2744 175 2761 200 
Q 2778 225 2803 225 
Q 3194 225 3347 269 
Q 3431 297 3469 441 
L 3897 2163 
L 1978 2163 
L 1544 416 
Q 1528 338 1528 325 
Q 1528 259 1606 250 
Q 1728 225 2069 225 
Q 2131 225 2131 141 
Q 2109 56 2095 28 
Q 2081 0 2022 0 
L 300 0 
z
" transform="scale(0.015625)"/>
       <path id="Cmr10-32" d="M 319 0 
L 319 172 
Q 319 188 331 206 
L 1325 1306 
Q 1550 1550 1690 1715 
Q 1831 1881 1968 2097 
Q 2106 2313 2186 2536 
Q 2266 2759 2266 3009 
Q 2266 3272 2169 3511 
Q 2072 3750 1880 3894 
Q 1688 4038 1416 4038 
Q 1138 4038 916 3870 
Q 694 3703 603 3438 
Q 628 3444 672 3444 
Q 816 3444 917 3347 
Q 1019 3250 1019 3097 
Q 1019 2950 917 2848 
Q 816 2747 672 2747 
Q 522 2747 420 2851 
Q 319 2956 319 3097 
Q 319 3338 409 3548 
Q 500 3759 670 3923 
Q 841 4088 1055 4175 
Q 1269 4263 1509 4263 
Q 1875 4263 2190 4108 
Q 2506 3953 2690 3670 
Q 2875 3388 2875 3009 
Q 2875 2731 2753 2481 
Q 2631 2231 2440 2026 
Q 2250 1822 1953 1562 
Q 1656 1303 1563 1216 
L 838 519 
L 1453 519 
Q 1906 519 2211 526 
Q 2516 534 2534 550 
Q 2609 631 2688 1141 
L 2875 1141 
L 2694 0 
L 319 0 
z
" transform="scale(0.015625)"/>
       <path id="Cmmi10-4f" d="M 1947 -141 
Q 1466 -141 1094 79 
Q 722 300 520 692 
Q 319 1084 319 1563 
Q 319 2259 714 2950 
Q 1109 3641 1756 4077 
Q 2403 4513 3109 4513 
Q 3475 4513 3778 4381 
Q 4081 4250 4290 4017 
Q 4500 3784 4614 3471 
Q 4728 3159 4728 2791 
Q 4728 2263 4503 1739 
Q 4278 1216 3879 786 
Q 3481 356 2984 107 
Q 2488 -141 1947 -141 
z
M 1997 50 
Q 2463 50 2866 345 
Q 3269 641 3553 1108 
Q 3838 1575 3989 2089 
Q 4141 2603 4141 3047 
Q 4141 3394 4022 3683 
Q 3903 3972 3656 4148 
Q 3409 4325 3066 4325 
Q 2728 4325 2409 4162 
Q 2091 4000 1831 3731 
Q 1566 3459 1359 3057 
Q 1153 2656 1047 2214 
Q 941 1772 941 1381 
Q 941 838 1208 444 
Q 1475 50 1997 50 
z
" transform="scale(0.015625)"/>
       <path id="Cmsy10-a1" d="M 653 1472 
Q 600 1472 565 1512 
Q 531 1553 531 1600 
Q 531 1647 565 1687 
Q 600 1728 653 1728 
L 4325 1728 
Q 4375 1728 4408 1687 
Q 4441 1647 4441 1600 
Q 4441 1553 4408 1512 
Q 4375 1472 4325 1472 
L 653 1472 
z
" transform="scale(0.015625)"/>
       <path id="Cmmi10-4e" d="M 300 0 
Q 238 0 238 84 
Q 241 100 250 139 
Q 259 178 276 201 
Q 294 225 319 225 
Q 931 225 1031 616 
L 1900 4116 
Q 1722 4147 1338 4147 
Q 1275 4147 1275 4231 
Q 1278 4247 1287 4286 
Q 1297 4325 1314 4348 
Q 1331 4372 1356 4372 
L 2463 4372 
Q 2509 4372 2522 4331 
L 3944 947 
L 4653 3781 
Q 4666 3850 4666 3878 
Q 4666 4147 4172 4147 
Q 4109 4147 4109 4231 
Q 4131 4313 4143 4342 
Q 4156 4372 4219 4372 
L 5588 4372 
Q 5650 4372 5650 4288 
Q 5647 4272 5637 4233 
Q 5628 4194 5611 4170 
Q 5594 4147 5569 4147 
Q 4956 4147 4856 3756 
L 3938 56 
Q 3916 0 3872 0 
L 3794 0 
Q 3750 0 3738 44 
L 2106 3916 
L 2094 3956 
Q 2081 3969 2081 3975 
L 1234 588 
Q 1228 572 1225 548 
Q 1222 525 1216 494 
Q 1216 328 1359 276 
Q 1503 225 1716 225 
Q 1778 225 1778 141 
Q 1756 53 1740 26 
Q 1725 0 1672 0 
L 300 0 
z
" transform="scale(0.015625)"/>
       <path id="Cmmi10-61" d="M 1113 -72 
Q 709 -72 476 233 
Q 244 538 244 953 
Q 244 1363 456 1803 
Q 669 2244 1030 2536 
Q 1391 2828 1806 2828 
Q 1997 2828 2147 2725 
Q 2297 2622 2381 2444 
Q 2453 2700 2663 2700 
Q 2744 2700 2798 2651 
Q 2853 2603 2853 2522 
Q 2853 2503 2851 2493 
Q 2850 2484 2847 2472 
L 2400 684 
Q 2356 494 2356 372 
Q 2356 97 2541 97 
Q 2741 97 2845 351 
Q 2950 606 3022 941 
Q 3034 978 3072 978 
L 3150 978 
Q 3175 978 3190 956 
Q 3206 934 3206 916 
Q 3094 469 2961 198 
Q 2828 -72 2528 -72 
Q 2313 -72 2147 54 
Q 1981 181 1941 391 
Q 1528 -72 1113 -72 
z
M 1119 97 
Q 1350 97 1567 270 
Q 1784 444 1941 678 
Q 1947 684 1947 697 
L 2291 2088 
L 2297 2106 
Q 2259 2334 2132 2498 
Q 2006 2663 1791 2663 
Q 1575 2663 1389 2486 
Q 1203 2309 1075 2069 
Q 950 1813 836 1366 
Q 722 919 722 672 
Q 722 450 817 273 
Q 913 97 1119 97 
z
" transform="scale(0.015625)"/>
       <path id="Cmmi10-43" d="M 934 1381 
Q 934 997 1082 705 
Q 1231 413 1514 248 
Q 1797 84 2181 84 
Q 2584 84 2957 290 
Q 3331 497 3595 842 
Q 3859 1188 3956 1575 
Q 3969 1613 4006 1613 
L 4084 1613 
Q 4109 1613 4125 1595 
Q 4141 1578 4141 1556 
Q 4141 1550 4134 1538 
Q 4025 1094 3711 705 
Q 3397 316 2959 87 
Q 2522 -141 2059 -141 
Q 1559 -141 1162 84 
Q 766 309 545 709 
Q 325 1109 325 1613 
Q 325 2150 565 2676 
Q 806 3203 1212 3614 
Q 1619 4025 2139 4269 
Q 2659 4513 3194 4513 
Q 3406 4513 3600 4448 
Q 3794 4384 3959 4253 
Q 4125 4122 4231 3950 
L 4738 4500 
Q 4738 4513 4769 4513 
L 4806 4513 
Q 4831 4513 4847 4491 
Q 4863 4469 4863 4447 
L 4428 2719 
Q 4428 2675 4378 2675 
L 4263 2675 
Q 4213 2675 4213 2747 
Q 4238 2888 4238 3084 
Q 4238 3397 4131 3673 
Q 4025 3950 3801 4119 
Q 3578 4288 3256 4288 
Q 2734 4288 2300 4025 
Q 1866 3763 1564 3336 
Q 1263 2909 1098 2389 
Q 934 1869 934 1381 
z
" transform="scale(0.015625)"/>
       <path id="Cmmi10-6c" d="M 281 519 
Q 281 538 286 575 
Q 291 613 295 648 
Q 300 684 300 703 
L 1094 3872 
Q 1119 3981 1125 4044 
Q 1125 4147 709 4147 
Q 647 4147 647 4231 
Q 650 4247 661 4287 
Q 672 4328 689 4350 
Q 706 4372 738 4372 
L 1600 4441 
Q 1678 4441 1678 4359 
L 756 678 
Q 709 575 709 372 
Q 709 97 897 97 
Q 1094 97 1192 342 
Q 1291 588 1369 941 
Q 1381 978 1422 978 
L 1497 978 
Q 1522 978 1539 958 
Q 1556 938 1556 916 
Q 1481 606 1420 426 
Q 1359 247 1225 87 
Q 1091 -72 884 -72 
Q 628 -72 454 93 
Q 281 259 281 519 
z
" transform="scale(0.015625)"/>
      </defs>
      <use xlink:href="#Cmmi10-48" transform="translate(0 0.421875)"/>
      <use xlink:href="#Cmr10-32" transform="translate(83.105469 0.421875)"/>
      <use xlink:href="#Cmmi10-4f" transform="translate(133.105469 0.421875)"/>
      <use xlink:href="#Cmsy10-a1" transform="translate(226.884766 0.421875)"/>
      <use xlink:href="#Cmmi10-4e" transform="translate(322.128906 0.421875)"/>
      <use xlink:href="#Cmmi10-61" transform="translate(402.451172 0.421875)"/>
      <use xlink:href="#Cmmi10-43" transform="translate(455.234375 0.421875)"/>
      <use xlink:href="#Cmmi10-6c" transform="translate(526.621094 0.421875)"/>
      <use xlink:href="#ArialMT-20" transform="translate(556.40625 0.421875)"/>
      <use xlink:href="#ArialMT-6c" transform="translate(584.189453 0.421875)"/>
      <use xlink:href="#ArialMT-69" transform="translate(606.40625 0.421875)"/>
      <use xlink:href="#ArialMT-62" transform="translate(628.623047 0.421875)"/>
     </g>
    </g>
    <g id="patch_10">
     <path d="M 402.275 371.985312 
L 422.275 371.985312 
L 422.275 364.985312 
L 402.275 364.985312 
z
" style="fill: #add8e6"/>
    </g>
    <g id="text_33">
     <!-- Solid phase -->
     <g transform="translate(430.275 371.985312)scale(0.1 -0.1)">
      <defs>
       <path id="ArialMT-68" d="M 422 0 
L 422 4581 
L 984 4581 
L 984 2938 
Q 1378 3394 1978 3394 
Q 2347 3394 2619 3248 
Q 2891 3103 3008 2847 
Q 3125 2591 3125 2103 
L 3125 0 
L 2563 0 
L 2563 2103 
Q 2563 2525 2380 2717 
Q 2197 2909 1863 2909 
Q 1613 2909 1392 2779 
Q 1172 2650 1078 2428 
Q 984 2206 984 1816 
L 984 0 
L 422 0 
z
" transform="scale(0.015625)"/>
       <path id="ArialMT-73" d="M 197 991 
L 753 1078 
Q 800 744 1014 566 
Q 1228 388 1613 388 
Q 2000 388 2187 545 
Q 2375 703 2375 916 
Q 2375 1106 2209 1216 
Q 2094 1291 1634 1406 
Q 1016 1563 777 1677 
Q 538 1791 414 1992 
Q 291 2194 291 2438 
Q 291 2659 392 2848 
Q 494 3038 669 3163 
Q 800 3259 1026 3326 
Q 1253 3394 1513 3394 
Q 1903 3394 2198 3281 
Q 2494 3169 2634 2976 
Q 2775 2784 2828 2463 
L 2278 2388 
Q 2241 2644 2061 2787 
Q 1881 2931 1553 2931 
Q 1166 2931 1000 2803 
Q 834 2675 834 2503 
Q 834 2394 903 2306 
Q 972 2216 1119 2156 
Q 1203 2125 1616 2013 
Q 2213 1853 2448 1751 
Q 2684 1650 2818 1456 
Q 2953 1263 2953 975 
Q 2953 694 2789 445 
Q 2625 197 2315 61 
Q 2006 -75 1616 -75 
Q 969 -75 630 194 
Q 291 463 197 991 
z
" transform="scale(0.015625)"/>
      </defs>
      <use xlink:href="#ArialMT-53"/>
      <use xlink:href="#ArialMT-6f" x="66.699219"/>
      <use xlink:href="#ArialMT-6c" x="122.314453"/>
      <use xlink:href="#ArialMT-69" x="144.53125"/>
      <use xlink:href="#ArialMT-64" x="166.748047"/>
      <use xlink:href="#ArialMT-20" x="222.363281"/>
      <use xlink:href="#ArialMT-70" x="250.146484"/>
      <use xlink:href="#ArialMT-68" x="305.761719"/>
      <use xlink:href="#ArialMT-61" x="361.376953"/>
      <use xlink:href="#ArialMT-73" x="416.992188"/>
      <use xlink:href="#ArialMT-65" x="466.992188"/>
     </g>
    </g>
    <g id="patch_11">
     <path d="M 402.275 386.130625 
L 422.275 386.130625 
L 422.275 379.130625 
L 402.275 379.130625 
z
" style="fill: #90ee90"/>
    </g>
    <g id="text_34">
     <!-- Liquid phase -->
     <g transform="translate(430.275 386.130625)scale(0.1 -0.1)">
      <defs>
       <path id="ArialMT-4c" d="M 469 0 
L 469 4581 
L 1075 4581 
L 1075 541 
L 3331 541 
L 3331 0 
L 469 0 
z
" transform="scale(0.015625)"/>
       <path id="ArialMT-71" d="M 2538 -1272 
L 2538 353 
Q 2406 169 2170 47 
Q 1934 -75 1669 -75 
Q 1078 -75 651 397 
Q 225 869 225 1691 
Q 225 2191 398 2587 
Q 572 2984 901 3189 
Q 1231 3394 1625 3394 
Q 2241 3394 2594 2875 
L 2594 3319 
L 3100 3319 
L 3100 -1272 
L 2538 -1272 
z
M 803 1669 
Q 803 1028 1072 708 
Q 1341 388 1716 388 
Q 2075 388 2334 692 
Q 2594 997 2594 1619 
Q 2594 2281 2320 2615 
Q 2047 2950 1678 2950 
Q 1313 2950 1058 2639 
Q 803 2328 803 1669 
z
" transform="scale(0.015625)"/>
      </defs>
      <use xlink:href="#ArialMT-4c"/>
      <use xlink:href="#ArialMT-69" x="55.615234"/>
      <use xlink:href="#ArialMT-71" x="77.832031"/>
      <use xlink:href="#ArialMT-75" x="133.447266"/>
      <use xlink:href="#ArialMT-69" x="189.0625"/>
      <use xlink:href="#ArialMT-64" x="211.279297"/>
      <use xlink:href="#ArialMT-20" x="266.894531"/>
      <use xlink:href="#ArialMT-70" x="294.677734"/>
      <use xlink:href="#ArialMT-68" x="350.292969"/>
      <use xlink:href="#ArialMT-61" x="405.908203"/>
      <use xlink:href="#ArialMT-73" x="461.523438"/>
      <use xlink:href="#ArialMT-65" x="511.523438"/>
     </g>
    </g>
    <g id="patch_12">
     <path d="M 402.275 400.275937 
L 422.275 400.275937 
L 422.275 393.275937 
L 402.275 393.275937 
z
" style="fill: #90ee90"/>
    </g>
    <g id="text_35">
     <!-- Liquid phase -->
     <g transform="translate(430.275 400.275937)scale(0.1 -0.1)">
      <use xlink:href="#ArialMT-4c"/>
      <use xlink:href="#ArialMT-69" x="55.615234"/>
      <use xlink:href="#ArialMT-71" x="77.832031"/>
      <use xlink:href="#ArialMT-75" x="133.447266"/>
      <use xlink:href="#ArialMT-69" x="189.0625"/>
      <use xlink:href="#ArialMT-64" x="211.279297"/>
      <use xlink:href="#ArialMT-20" x="266.894531"/>
      <use xlink:href="#ArialMT-70" x="294.677734"/>
      <use xlink:href="#ArialMT-68" x="350.292969"/>
      <use xlink:href="#ArialMT-61" x="405.908203"/>
      <use xlink:href="#ArialMT-73" x="461.523438"/>
      <use xlink:href="#ArialMT-65" x="511.523438"/>
     </g>
    </g>
    <g id="patch_13">
     <path d="M 402.275 414.42125 
L 422.275 414.42125 
L 422.275 407.42125 
L 402.275 407.42125 
z
" style="fill: #808080"/>
    </g>
    <g id="text_36">
     <!-- Vapor phase -->
     <g transform="translate(430.275 414.42125)scale(0.1 -0.1)">
      <use xlink:href="#ArialMT-56"/>
      <use xlink:href="#ArialMT-61" x="59.324219"/>
      <use xlink:href="#ArialMT-70" x="114.939453"/>
      <use xlink:href="#ArialMT-6f" x="170.554688"/>
      <use xlink:href="#ArialMT-72" x="226.169922"/>
      <use xlink:href="#ArialMT-20" x="259.470703"/>
      <use xlink:href="#ArialMT-70" x="287.253906"/>
      <use xlink:href="#ArialMT-68" x="342.869141"/>
      <use xlink:href="#ArialMT-61" x="398.484375"/>
      <use xlink:href="#ArialMT-73" x="454.099609"/>
      <use xlink:href="#ArialMT-65" x="504.099609"/>
     </g>
    </g>
   </g>
  </g>
 </g>
 <defs>
  <clipPath id="pa26b248922">
   <rect x="49.584375" y="7.2" width="446.4" height="443.52"/>
  </clipPath>
 </defs>
</svg>
