<?xml version="1.0" encoding="utf-8" standalone="no"?>
<!DOCTYPE svg PUBLIC "-//W3C//DTD SVG 1.1//EN"
  "http://www.w3.org/Graphics/SVG/1.1/DTD/svg11.dtd">
<svg xmlns:xlink="http://www.w3.org/1999/xlink" width="864.289063pt" height="383.303281pt" viewBox="0 0 864.289063 383.303281" xmlns="http://www.w3.org/2000/svg" version="1.1">
 <metadata>
  <rdf:RDF xmlns:dc="http://purl.org/dc/elements/1.1/" xmlns:cc="http://creativecommons.org/ns#" xmlns:rdf="http://www.w3.org/1999/02/22-rdf-syntax-ns#">
   <cc:Work>
    <dc:type rdf:resource="http://purl.org/dc/dcmitype/StillImage"/>
    <dc:date>2022-05-10T15:23:09.592453</dc:date>
    <dc:format>image/svg+xml</dc:format>
    <dc:creator>
     <cc:Agent>
      <dc:title>Matplotlib v3.5.2, https://matplotlib.org/</dc:title>
     </cc:Agent>
    </dc:creator>
   </cc:Work>
  </rdf:RDF>
 </metadata>
 <defs>
  <style type="text/css">*{stroke-linejoin: round; stroke-linecap: butt}</style>
 </defs>
 <g id="figure_1">
  <g id="patch_1">
   <path d="M 0 383.303281 
L 864.289063 383.303281 
L 864.289063 0 
L 0 0 
z
" style="fill: #ffffff"/>
  </g>
  <g id="axes_1">
   <g id="patch_2">
    <path d="M 49.94375 343.418906 
L 434.771336 343.418906 
L 434.771336 10.778906 
L 49.94375 10.778906 
z
" style="fill: #ffffff"/>
   </g>
   <g id="matplotlib.axis_1">
    <g id="xtick_1">
     <g id="line2d_1">
      <defs>
       <path id="m2157bd506a" d="M 0 0 
L 0 3.5 
" style="stroke: #000000; stroke-width: 0.8"/>
      </defs>
      <g>
       <use xlink:href="#m2157bd506a" x="109.796484" y="343.418906" style="stroke: #000000; stroke-width: 0.8"/>
      </g>
     </g>
     <g id="text_1">
      <!-- $\mathdefault{10^{-1}}$ -->
      <g transform="translate(100.746484 360.731406)scale(0.1 -0.1)">
       <defs>
        <path id="ArialMT-31" d="M 2384 0 
L 1822 0 
L 1822 3584 
Q 1619 3391 1289 3197 
Q 959 3003 697 2906 
L 697 3450 
Q 1169 3672 1522 3987 
Q 1875 4303 2022 4600 
L 2384 4600 
L 2384 0 
z
" transform="scale(0.015625)"/>
        <path id="ArialMT-30" d="M 266 2259 
Q 266 3072 433 3567 
Q 600 4063 929 4331 
Q 1259 4600 1759 4600 
Q 2128 4600 2406 4451 
Q 2684 4303 2865 4023 
Q 3047 3744 3150 3342 
Q 3253 2941 3253 2259 
Q 3253 1453 3087 958 
Q 2922 463 2592 192 
Q 2263 -78 1759 -78 
Q 1097 -78 719 397 
Q 266 969 266 2259 
z
M 844 2259 
Q 844 1131 1108 757 
Q 1372 384 1759 384 
Q 2147 384 2411 759 
Q 2675 1134 2675 2259 
Q 2675 3391 2411 3762 
Q 2147 4134 1753 4134 
Q 1366 4134 1134 3806 
Q 844 3388 844 2259 
z
" transform="scale(0.015625)"/>
        <path id="ArialMT-2d" d="M 203 1375 
L 203 1941 
L 1931 1941 
L 1931 1375 
L 203 1375 
z
" transform="scale(0.015625)"/>
       </defs>
       <use xlink:href="#ArialMT-31" transform="translate(0 0.99375)"/>
       <use xlink:href="#ArialMT-30" transform="translate(55.615234 0.99375)"/>
       <use xlink:href="#ArialMT-2d" transform="translate(112.972813 70.6875)scale(0.7)"/>
       <use xlink:href="#ArialMT-31" transform="translate(136.283359 70.6875)scale(0.7)"/>
      </g>
     </g>
    </g>
    <g id="xtick_2">
     <g id="line2d_2">
      <g>
       <use xlink:href="#m2157bd506a" x="218.121435" y="343.418906" style="stroke: #000000; stroke-width: 0.8"/>
      </g>
     </g>
     <g id="text_2">
      <!-- $\mathdefault{10^{0}}$ -->
      <g transform="translate(210.271435 360.731406)scale(0.1 -0.1)">
       <use xlink:href="#ArialMT-31" transform="translate(0 0.99375)"/>
       <use xlink:href="#ArialMT-30" transform="translate(55.615234 0.99375)"/>
       <use xlink:href="#ArialMT-30" transform="translate(112.972813 70.6875)scale(0.7)"/>
      </g>
     </g>
    </g>
    <g id="xtick_3">
     <g id="line2d_3">
      <g>
       <use xlink:href="#m2157bd506a" x="326.446386" y="343.418906" style="stroke: #000000; stroke-width: 0.8"/>
      </g>
     </g>
     <g id="text_3">
      <!-- $\mathdefault{10^{1}}$ -->
      <g transform="translate(318.596386 360.731406)scale(0.1 -0.1)">
       <use xlink:href="#ArialMT-31" transform="translate(0 0.99375)"/>
       <use xlink:href="#ArialMT-30" transform="translate(55.615234 0.99375)"/>
       <use xlink:href="#ArialMT-31" transform="translate(112.972813 70.6875)scale(0.7)"/>
      </g>
     </g>
    </g>
    <g id="xtick_4">
     <g id="line2d_4">
      <g>
       <use xlink:href="#m2157bd506a" x="434.771336" y="343.418906" style="stroke: #000000; stroke-width: 0.8"/>
      </g>
     </g>
     <g id="text_4">
      <!-- $\mathdefault{10^{2}}$ -->
      <g transform="translate(426.921336 360.731406)scale(0.1 -0.1)">
       <defs>
        <path id="ArialMT-32" d="M 3222 541 
L 3222 0 
L 194 0 
Q 188 203 259 391 
Q 375 700 629 1000 
Q 884 1300 1366 1694 
Q 2113 2306 2375 2664 
Q 2638 3022 2638 3341 
Q 2638 3675 2398 3904 
Q 2159 4134 1775 4134 
Q 1369 4134 1125 3890 
Q 881 3647 878 3216 
L 300 3275 
Q 359 3922 746 4261 
Q 1134 4600 1788 4600 
Q 2447 4600 2831 4234 
Q 3216 3869 3216 3328 
Q 3216 3053 3103 2787 
Q 2991 2522 2730 2228 
Q 2469 1934 1863 1422 
Q 1356 997 1212 845 
Q 1069 694 975 541 
L 3222 541 
z
" transform="scale(0.015625)"/>
       </defs>
       <use xlink:href="#ArialMT-31" transform="translate(0 0.99375)"/>
       <use xlink:href="#ArialMT-30" transform="translate(55.615234 0.99375)"/>
       <use xlink:href="#ArialMT-32" transform="translate(112.972813 70.6875)scale(0.7)"/>
      </g>
     </g>
    </g>
    <g id="xtick_5">
     <g id="line2d_5">
      <defs>
       <path id="mc7f74f4e4a" d="M 0 0 
L 0 2 
" style="stroke: #000000; stroke-width: 0.6"/>
      </defs>
      <g>
       <use xlink:href="#mc7f74f4e4a" x="53.15567" y="343.418906" style="stroke: #000000; stroke-width: 0.6"/>
      </g>
     </g>
    </g>
    <g id="xtick_6">
     <g id="line2d_6">
      <g>
       <use xlink:href="#mc7f74f4e4a" x="66.689653" y="343.418906" style="stroke: #000000; stroke-width: 0.6"/>
      </g>
     </g>
    </g>
    <g id="xtick_7">
     <g id="line2d_7">
      <g>
       <use xlink:href="#mc7f74f4e4a" x="77.187425" y="343.418906" style="stroke: #000000; stroke-width: 0.6"/>
      </g>
     </g>
    </g>
    <g id="xtick_8">
     <g id="line2d_8">
      <g>
       <use xlink:href="#mc7f74f4e4a" x="85.76473" y="343.418906" style="stroke: #000000; stroke-width: 0.6"/>
      </g>
     </g>
    </g>
    <g id="xtick_9">
     <g id="line2d_9">
      <g>
       <use xlink:href="#mc7f74f4e4a" x="93.016737" y="343.418906" style="stroke: #000000; stroke-width: 0.6"/>
      </g>
     </g>
    </g>
    <g id="xtick_10">
     <g id="line2d_10">
      <g>
       <use xlink:href="#mc7f74f4e4a" x="99.298712" y="343.418906" style="stroke: #000000; stroke-width: 0.6"/>
      </g>
     </g>
    </g>
    <g id="xtick_11">
     <g id="line2d_11">
      <g>
       <use xlink:href="#mc7f74f4e4a" x="104.839807" y="343.418906" style="stroke: #000000; stroke-width: 0.6"/>
      </g>
     </g>
    </g>
    <g id="xtick_12">
     <g id="line2d_12">
      <g>
       <use xlink:href="#mc7f74f4e4a" x="142.405544" y="343.418906" style="stroke: #000000; stroke-width: 0.6"/>
      </g>
     </g>
    </g>
    <g id="xtick_13">
     <g id="line2d_13">
      <g>
       <use xlink:href="#mc7f74f4e4a" x="161.480621" y="343.418906" style="stroke: #000000; stroke-width: 0.6"/>
      </g>
     </g>
    </g>
    <g id="xtick_14">
     <g id="line2d_14">
      <g>
       <use xlink:href="#mc7f74f4e4a" x="175.014603" y="343.418906" style="stroke: #000000; stroke-width: 0.6"/>
      </g>
     </g>
    </g>
    <g id="xtick_15">
     <g id="line2d_15">
      <g>
       <use xlink:href="#mc7f74f4e4a" x="185.512376" y="343.418906" style="stroke: #000000; stroke-width: 0.6"/>
      </g>
     </g>
    </g>
    <g id="xtick_16">
     <g id="line2d_16">
      <g>
       <use xlink:href="#mc7f74f4e4a" x="194.08968" y="343.418906" style="stroke: #000000; stroke-width: 0.6"/>
      </g>
     </g>
    </g>
    <g id="xtick_17">
     <g id="line2d_17">
      <g>
       <use xlink:href="#mc7f74f4e4a" x="201.341688" y="343.418906" style="stroke: #000000; stroke-width: 0.6"/>
      </g>
     </g>
    </g>
    <g id="xtick_18">
     <g id="line2d_18">
      <g>
       <use xlink:href="#mc7f74f4e4a" x="207.623663" y="343.418906" style="stroke: #000000; stroke-width: 0.6"/>
      </g>
     </g>
    </g>
    <g id="xtick_19">
     <g id="line2d_19">
      <g>
       <use xlink:href="#mc7f74f4e4a" x="213.164757" y="343.418906" style="stroke: #000000; stroke-width: 0.6"/>
      </g>
     </g>
    </g>
    <g id="xtick_20">
     <g id="line2d_20">
      <g>
       <use xlink:href="#mc7f74f4e4a" x="250.730494" y="343.418906" style="stroke: #000000; stroke-width: 0.6"/>
      </g>
     </g>
    </g>
    <g id="xtick_21">
     <g id="line2d_21">
      <g>
       <use xlink:href="#mc7f74f4e4a" x="269.805571" y="343.418906" style="stroke: #000000; stroke-width: 0.6"/>
      </g>
     </g>
    </g>
    <g id="xtick_22">
     <g id="line2d_22">
      <g>
       <use xlink:href="#mc7f74f4e4a" x="283.339554" y="343.418906" style="stroke: #000000; stroke-width: 0.6"/>
      </g>
     </g>
    </g>
    <g id="xtick_23">
     <g id="line2d_23">
      <g>
       <use xlink:href="#mc7f74f4e4a" x="293.837326" y="343.418906" style="stroke: #000000; stroke-width: 0.6"/>
      </g>
     </g>
    </g>
    <g id="xtick_24">
     <g id="line2d_24">
      <g>
       <use xlink:href="#mc7f74f4e4a" x="302.414631" y="343.418906" style="stroke: #000000; stroke-width: 0.6"/>
      </g>
     </g>
    </g>
    <g id="xtick_25">
     <g id="line2d_25">
      <g>
       <use xlink:href="#mc7f74f4e4a" x="309.666638" y="343.418906" style="stroke: #000000; stroke-width: 0.6"/>
      </g>
     </g>
    </g>
    <g id="xtick_26">
     <g id="line2d_26">
      <g>
       <use xlink:href="#mc7f74f4e4a" x="315.948613" y="343.418906" style="stroke: #000000; stroke-width: 0.6"/>
      </g>
     </g>
    </g>
    <g id="xtick_27">
     <g id="line2d_27">
      <g>
       <use xlink:href="#mc7f74f4e4a" x="321.489708" y="343.418906" style="stroke: #000000; stroke-width: 0.6"/>
      </g>
     </g>
    </g>
    <g id="xtick_28">
     <g id="line2d_28">
      <g>
       <use xlink:href="#mc7f74f4e4a" x="359.055445" y="343.418906" style="stroke: #000000; stroke-width: 0.6"/>
      </g>
     </g>
    </g>
    <g id="xtick_29">
     <g id="line2d_29">
      <g>
       <use xlink:href="#mc7f74f4e4a" x="378.130522" y="343.418906" style="stroke: #000000; stroke-width: 0.6"/>
      </g>
     </g>
    </g>
    <g id="xtick_30">
     <g id="line2d_30">
      <g>
       <use xlink:href="#mc7f74f4e4a" x="391.664504" y="343.418906" style="stroke: #000000; stroke-width: 0.6"/>
      </g>
     </g>
    </g>
    <g id="xtick_31">
     <g id="line2d_31">
      <g>
       <use xlink:href="#mc7f74f4e4a" x="402.162277" y="343.418906" style="stroke: #000000; stroke-width: 0.6"/>
      </g>
     </g>
    </g>
    <g id="xtick_32">
     <g id="line2d_32">
      <g>
       <use xlink:href="#mc7f74f4e4a" x="410.739581" y="343.418906" style="stroke: #000000; stroke-width: 0.6"/>
      </g>
     </g>
    </g>
    <g id="xtick_33">
     <g id="line2d_33">
      <g>
       <use xlink:href="#mc7f74f4e4a" x="417.991589" y="343.418906" style="stroke: #000000; stroke-width: 0.6"/>
      </g>
     </g>
    </g>
    <g id="xtick_34">
     <g id="line2d_34">
      <g>
       <use xlink:href="#mc7f74f4e4a" x="424.273564" y="343.418906" style="stroke: #000000; stroke-width: 0.6"/>
      </g>
     </g>
    </g>
    <g id="xtick_35">
     <g id="line2d_35">
      <g>
       <use xlink:href="#mc7f74f4e4a" x="429.814658" y="343.418906" style="stroke: #000000; stroke-width: 0.6"/>
      </g>
     </g>
    </g>
    <g id="text_5">
     <!-- Salinity (wt.% NaCl) -->
     <g transform="translate(198.183324 373.998594)scale(0.1 -0.1)">
      <defs>
       <path id="ArialMT-53" d="M 288 1472 
L 859 1522 
Q 900 1178 1048 958 
Q 1197 738 1509 602 
Q 1822 466 2213 466 
Q 2559 466 2825 569 
Q 3091 672 3220 851 
Q 3350 1031 3350 1244 
Q 3350 1459 3225 1620 
Q 3100 1781 2813 1891 
Q 2628 1963 1997 2114 
Q 1366 2266 1113 2400 
Q 784 2572 623 2826 
Q 463 3081 463 3397 
Q 463 3744 659 4045 
Q 856 4347 1234 4503 
Q 1613 4659 2075 4659 
Q 2584 4659 2973 4495 
Q 3363 4331 3572 4012 
Q 3781 3694 3797 3291 
L 3216 3247 
Q 3169 3681 2898 3903 
Q 2628 4125 2100 4125 
Q 1550 4125 1298 3923 
Q 1047 3722 1047 3438 
Q 1047 3191 1225 3031 
Q 1400 2872 2139 2705 
Q 2878 2538 3153 2413 
Q 3553 2228 3743 1945 
Q 3934 1663 3934 1294 
Q 3934 928 3725 604 
Q 3516 281 3123 101 
Q 2731 -78 2241 -78 
Q 1619 -78 1198 103 
Q 778 284 539 648 
Q 300 1013 288 1472 
z
" transform="scale(0.015625)"/>
       <path id="ArialMT-61" d="M 2588 409 
Q 2275 144 1986 34 
Q 1697 -75 1366 -75 
Q 819 -75 525 192 
Q 231 459 231 875 
Q 231 1119 342 1320 
Q 453 1522 633 1644 
Q 813 1766 1038 1828 
Q 1203 1872 1538 1913 
Q 2219 1994 2541 2106 
Q 2544 2222 2544 2253 
Q 2544 2597 2384 2738 
Q 2169 2928 1744 2928 
Q 1347 2928 1158 2789 
Q 969 2650 878 2297 
L 328 2372 
Q 403 2725 575 2942 
Q 747 3159 1072 3276 
Q 1397 3394 1825 3394 
Q 2250 3394 2515 3294 
Q 2781 3194 2906 3042 
Q 3031 2891 3081 2659 
Q 3109 2516 3109 2141 
L 3109 1391 
Q 3109 606 3145 398 
Q 3181 191 3288 0 
L 2700 0 
Q 2613 175 2588 409 
z
M 2541 1666 
Q 2234 1541 1622 1453 
Q 1275 1403 1131 1340 
Q 988 1278 909 1158 
Q 831 1038 831 891 
Q 831 666 1001 516 
Q 1172 366 1500 366 
Q 1825 366 2078 508 
Q 2331 650 2450 897 
Q 2541 1088 2541 1459 
L 2541 1666 
z
" transform="scale(0.015625)"/>
       <path id="ArialMT-6c" d="M 409 0 
L 409 4581 
L 972 4581 
L 972 0 
L 409 0 
z
" transform="scale(0.015625)"/>
       <path id="ArialMT-69" d="M 425 3934 
L 425 4581 
L 988 4581 
L 988 3934 
L 425 3934 
z
M 425 0 
L 425 3319 
L 988 3319 
L 988 0 
L 425 0 
z
" transform="scale(0.015625)"/>
       <path id="ArialMT-6e" d="M 422 0 
L 422 3319 
L 928 3319 
L 928 2847 
Q 1294 3394 1984 3394 
Q 2284 3394 2536 3286 
Q 2788 3178 2913 3003 
Q 3038 2828 3088 2588 
Q 3119 2431 3119 2041 
L 3119 0 
L 2556 0 
L 2556 2019 
Q 2556 2363 2490 2533 
Q 2425 2703 2258 2804 
Q 2091 2906 1866 2906 
Q 1506 2906 1245 2678 
Q 984 2450 984 1813 
L 984 0 
L 422 0 
z
" transform="scale(0.015625)"/>
       <path id="ArialMT-74" d="M 1650 503 
L 1731 6 
Q 1494 -44 1306 -44 
Q 1000 -44 831 53 
Q 663 150 594 308 
Q 525 466 525 972 
L 525 2881 
L 113 2881 
L 113 3319 
L 525 3319 
L 525 4141 
L 1084 4478 
L 1084 3319 
L 1650 3319 
L 1650 2881 
L 1084 2881 
L 1084 941 
Q 1084 700 1114 631 
Q 1144 563 1211 522 
Q 1278 481 1403 481 
Q 1497 481 1650 503 
z
" transform="scale(0.015625)"/>
       <path id="ArialMT-79" d="M 397 -1278 
L 334 -750 
Q 519 -800 656 -800 
Q 844 -800 956 -737 
Q 1069 -675 1141 -563 
Q 1194 -478 1313 -144 
Q 1328 -97 1363 -6 
L 103 3319 
L 709 3319 
L 1400 1397 
Q 1534 1031 1641 628 
Q 1738 1016 1872 1384 
L 2581 3319 
L 3144 3319 
L 1881 -56 
Q 1678 -603 1566 -809 
Q 1416 -1088 1222 -1217 
Q 1028 -1347 759 -1347 
Q 597 -1347 397 -1278 
z
" transform="scale(0.015625)"/>
       <path id="ArialMT-20" transform="scale(0.015625)"/>
       <path id="ArialMT-28" d="M 1497 -1347 
Q 1031 -759 709 28 
Q 388 816 388 1659 
Q 388 2403 628 3084 
Q 909 3875 1497 4659 
L 1900 4659 
Q 1522 4009 1400 3731 
Q 1209 3300 1100 2831 
Q 966 2247 966 1656 
Q 966 153 1900 -1347 
L 1497 -1347 
z
" transform="scale(0.015625)"/>
       <path id="ArialMT-77" d="M 1034 0 
L 19 3319 
L 600 3319 
L 1128 1403 
L 1325 691 
Q 1338 744 1497 1375 
L 2025 3319 
L 2603 3319 
L 3100 1394 
L 3266 759 
L 3456 1400 
L 4025 3319 
L 4572 3319 
L 3534 0 
L 2950 0 
L 2422 1988 
L 2294 2553 
L 1622 0 
L 1034 0 
z
" transform="scale(0.015625)"/>
       <path id="ArialMT-2e" d="M 581 0 
L 581 641 
L 1222 641 
L 1222 0 
L 581 0 
z
" transform="scale(0.015625)"/>
       <path id="ArialMT-25" d="M 372 3481 
Q 372 3972 619 4315 
Q 866 4659 1334 4659 
Q 1766 4659 2048 4351 
Q 2331 4044 2331 3447 
Q 2331 2866 2045 2552 
Q 1759 2238 1341 2238 
Q 925 2238 648 2547 
Q 372 2856 372 3481 
z
M 1350 4272 
Q 1141 4272 1002 4090 
Q 863 3909 863 3425 
Q 863 2984 1003 2804 
Q 1144 2625 1350 2625 
Q 1563 2625 1702 2806 
Q 1841 2988 1841 3469 
Q 1841 3913 1700 4092 
Q 1559 4272 1350 4272 
z
M 1353 -169 
L 3859 4659 
L 4316 4659 
L 1819 -169 
L 1353 -169 
z
M 3334 1075 
Q 3334 1569 3581 1911 
Q 3828 2253 4300 2253 
Q 4731 2253 5014 1945 
Q 5297 1638 5297 1041 
Q 5297 459 5011 145 
Q 4725 -169 4303 -169 
Q 3888 -169 3611 142 
Q 3334 453 3334 1075 
z
M 4316 1866 
Q 4103 1866 3964 1684 
Q 3825 1503 3825 1019 
Q 3825 581 3965 400 
Q 4106 219 4313 219 
Q 4528 219 4667 400 
Q 4806 581 4806 1063 
Q 4806 1506 4665 1686 
Q 4525 1866 4316 1866 
z
" transform="scale(0.015625)"/>
       <path id="ArialMT-4e" d="M 488 0 
L 488 4581 
L 1109 4581 
L 3516 984 
L 3516 4581 
L 4097 4581 
L 4097 0 
L 3475 0 
L 1069 3600 
L 1069 0 
L 488 0 
z
" transform="scale(0.015625)"/>
       <path id="ArialMT-43" d="M 3763 1606 
L 4369 1453 
Q 4178 706 3683 314 
Q 3188 -78 2472 -78 
Q 1731 -78 1267 223 
Q 803 525 561 1097 
Q 319 1669 319 2325 
Q 319 3041 592 3573 
Q 866 4106 1370 4382 
Q 1875 4659 2481 4659 
Q 3169 4659 3637 4309 
Q 4106 3959 4291 3325 
L 3694 3184 
Q 3534 3684 3231 3912 
Q 2928 4141 2469 4141 
Q 1941 4141 1586 3887 
Q 1231 3634 1087 3207 
Q 944 2781 944 2328 
Q 944 1744 1114 1308 
Q 1284 872 1643 656 
Q 2003 441 2422 441 
Q 2931 441 3284 734 
Q 3638 1028 3763 1606 
z
" transform="scale(0.015625)"/>
       <path id="ArialMT-29" d="M 791 -1347 
L 388 -1347 
Q 1322 153 1322 1656 
Q 1322 2244 1188 2822 
Q 1081 3291 891 3722 
Q 769 4003 388 4659 
L 791 4659 
Q 1378 3875 1659 3084 
Q 1900 2403 1900 1659 
Q 1900 816 1576 28 
Q 1253 -759 791 -1347 
z
" transform="scale(0.015625)"/>
      </defs>
      <use xlink:href="#ArialMT-53"/>
      <use xlink:href="#ArialMT-61" x="66.699219"/>
      <use xlink:href="#ArialMT-6c" x="122.314453"/>
      <use xlink:href="#ArialMT-69" x="144.53125"/>
      <use xlink:href="#ArialMT-6e" x="166.748047"/>
      <use xlink:href="#ArialMT-69" x="222.363281"/>
      <use xlink:href="#ArialMT-74" x="244.580078"/>
      <use xlink:href="#ArialMT-79" x="272.363281"/>
      <use xlink:href="#ArialMT-20" x="322.363281"/>
      <use xlink:href="#ArialMT-28" x="350.146484"/>
      <use xlink:href="#ArialMT-77" x="383.447266"/>
      <use xlink:href="#ArialMT-74" x="455.664062"/>
      <use xlink:href="#ArialMT-2e" x="483.447266"/>
      <use xlink:href="#ArialMT-25" x="511.230469"/>
      <use xlink:href="#ArialMT-20" x="600.146484"/>
      <use xlink:href="#ArialMT-4e" x="627.929688"/>
      <use xlink:href="#ArialMT-61" x="700.146484"/>
      <use xlink:href="#ArialMT-43" x="755.761719"/>
      <use xlink:href="#ArialMT-6c" x="827.978516"/>
      <use xlink:href="#ArialMT-29" x="850.195312"/>
     </g>
    </g>
   </g>
   <g id="matplotlib.axis_2">
    <g id="ytick_1">
     <g id="line2d_36">
      <defs>
       <path id="mb76d2eb194" d="M 0 0 
L -3.5 0 
" style="stroke: #000000; stroke-width: 0.8"/>
      </defs>
      <g>
       <use xlink:href="#mb76d2eb194" x="49.94375" y="343.418906" style="stroke: #000000; stroke-width: 0.8"/>
      </g>
     </g>
     <g id="text_6">
      <!-- 0 -->
      <g transform="translate(37.382813 346.997812)scale(0.1 -0.1)">
       <use xlink:href="#ArialMT-30"/>
      </g>
     </g>
    </g>
    <g id="ytick_2">
     <g id="line2d_37">
      <g>
       <use xlink:href="#mb76d2eb194" x="49.94375" y="276.890906" style="stroke: #000000; stroke-width: 0.8"/>
      </g>
     </g>
     <g id="text_7">
      <!-- 200 -->
      <g transform="translate(26.260938 280.469812)scale(0.1 -0.1)">
       <use xlink:href="#ArialMT-32"/>
       <use xlink:href="#ArialMT-30" x="55.615234"/>
       <use xlink:href="#ArialMT-30" x="111.230469"/>
      </g>
     </g>
    </g>
    <g id="ytick_3">
     <g id="line2d_38">
      <g>
       <use xlink:href="#mb76d2eb194" x="49.94375" y="210.362906" style="stroke: #000000; stroke-width: 0.8"/>
      </g>
     </g>
     <g id="text_8">
      <!-- 400 -->
      <g transform="translate(26.260938 213.941812)scale(0.1 -0.1)">
       <defs>
        <path id="ArialMT-34" d="M 2069 0 
L 2069 1097 
L 81 1097 
L 81 1613 
L 2172 4581 
L 2631 4581 
L 2631 1613 
L 3250 1613 
L 3250 1097 
L 2631 1097 
L 2631 0 
L 2069 0 
z
M 2069 1613 
L 2069 3678 
L 634 1613 
L 2069 1613 
z
" transform="scale(0.015625)"/>
       </defs>
       <use xlink:href="#ArialMT-34"/>
       <use xlink:href="#ArialMT-30" x="55.615234"/>
       <use xlink:href="#ArialMT-30" x="111.230469"/>
      </g>
     </g>
    </g>
    <g id="ytick_4">
     <g id="line2d_39">
      <g>
       <use xlink:href="#mb76d2eb194" x="49.94375" y="143.834906" style="stroke: #000000; stroke-width: 0.8"/>
      </g>
     </g>
     <g id="text_9">
      <!-- 600 -->
      <g transform="translate(26.260938 147.413812)scale(0.1 -0.1)">
       <defs>
        <path id="ArialMT-36" d="M 3184 3459 
L 2625 3416 
Q 2550 3747 2413 3897 
Q 2184 4138 1850 4138 
Q 1581 4138 1378 3988 
Q 1113 3794 959 3422 
Q 806 3050 800 2363 
Q 1003 2672 1297 2822 
Q 1591 2972 1913 2972 
Q 2475 2972 2870 2558 
Q 3266 2144 3266 1488 
Q 3266 1056 3080 686 
Q 2894 316 2569 119 
Q 2244 -78 1831 -78 
Q 1128 -78 684 439 
Q 241 956 241 2144 
Q 241 3472 731 4075 
Q 1159 4600 1884 4600 
Q 2425 4600 2770 4297 
Q 3116 3994 3184 3459 
z
M 888 1484 
Q 888 1194 1011 928 
Q 1134 663 1356 523 
Q 1578 384 1822 384 
Q 2178 384 2434 671 
Q 2691 959 2691 1453 
Q 2691 1928 2437 2201 
Q 2184 2475 1800 2475 
Q 1419 2475 1153 2201 
Q 888 1928 888 1484 
z
" transform="scale(0.015625)"/>
       </defs>
       <use xlink:href="#ArialMT-36"/>
       <use xlink:href="#ArialMT-30" x="55.615234"/>
       <use xlink:href="#ArialMT-30" x="111.230469"/>
      </g>
     </g>
    </g>
    <g id="ytick_5">
     <g id="line2d_40">
      <g>
       <use xlink:href="#mb76d2eb194" x="49.94375" y="77.306906" style="stroke: #000000; stroke-width: 0.8"/>
      </g>
     </g>
     <g id="text_10">
      <!-- 800 -->
      <g transform="translate(26.260938 80.885812)scale(0.1 -0.1)">
       <defs>
        <path id="ArialMT-38" d="M 1131 2484 
Q 781 2613 612 2850 
Q 444 3088 444 3419 
Q 444 3919 803 4259 
Q 1163 4600 1759 4600 
Q 2359 4600 2725 4251 
Q 3091 3903 3091 3403 
Q 3091 3084 2923 2848 
Q 2756 2613 2416 2484 
Q 2838 2347 3058 2040 
Q 3278 1734 3278 1309 
Q 3278 722 2862 322 
Q 2447 -78 1769 -78 
Q 1091 -78 675 323 
Q 259 725 259 1325 
Q 259 1772 486 2073 
Q 713 2375 1131 2484 
z
M 1019 3438 
Q 1019 3113 1228 2906 
Q 1438 2700 1772 2700 
Q 2097 2700 2305 2904 
Q 2513 3109 2513 3406 
Q 2513 3716 2298 3927 
Q 2084 4138 1766 4138 
Q 1444 4138 1231 3931 
Q 1019 3725 1019 3438 
z
M 838 1322 
Q 838 1081 952 856 
Q 1066 631 1291 507 
Q 1516 384 1775 384 
Q 2178 384 2440 643 
Q 2703 903 2703 1303 
Q 2703 1709 2433 1975 
Q 2163 2241 1756 2241 
Q 1359 2241 1098 1978 
Q 838 1716 838 1322 
z
" transform="scale(0.015625)"/>
       </defs>
       <use xlink:href="#ArialMT-38"/>
       <use xlink:href="#ArialMT-30" x="55.615234"/>
       <use xlink:href="#ArialMT-30" x="111.230469"/>
      </g>
     </g>
    </g>
    <g id="ytick_6">
     <g id="line2d_41">
      <g>
       <use xlink:href="#mb76d2eb194" x="49.94375" y="10.778906" style="stroke: #000000; stroke-width: 0.8"/>
      </g>
     </g>
     <g id="text_11">
      <!-- 1000 -->
      <g transform="translate(20.7 14.357812)scale(0.1 -0.1)">
       <use xlink:href="#ArialMT-31"/>
       <use xlink:href="#ArialMT-30" x="55.615234"/>
       <use xlink:href="#ArialMT-30" x="111.230469"/>
       <use xlink:href="#ArialMT-30" x="166.845703"/>
      </g>
     </g>
    </g>
    <g id="text_12">
     <!-- Temperature ($^{\circ}$C) -->
     <g transform="translate(14.5 216.348906)rotate(-90)scale(0.1 -0.1)">
      <defs>
       <path id="ArialMT-54" d="M 1659 0 
L 1659 4041 
L 150 4041 
L 150 4581 
L 3781 4581 
L 3781 4041 
L 2266 4041 
L 2266 0 
L 1659 0 
z
" transform="scale(0.015625)"/>
       <path id="ArialMT-65" d="M 2694 1069 
L 3275 997 
Q 3138 488 2766 206 
Q 2394 -75 1816 -75 
Q 1088 -75 661 373 
Q 234 822 234 1631 
Q 234 2469 665 2931 
Q 1097 3394 1784 3394 
Q 2450 3394 2872 2941 
Q 3294 2488 3294 1666 
Q 3294 1616 3291 1516 
L 816 1516 
Q 847 969 1125 678 
Q 1403 388 1819 388 
Q 2128 388 2347 550 
Q 2566 713 2694 1069 
z
M 847 1978 
L 2700 1978 
Q 2663 2397 2488 2606 
Q 2219 2931 1791 2931 
Q 1403 2931 1139 2672 
Q 875 2413 847 1978 
z
" transform="scale(0.015625)"/>
       <path id="ArialMT-6d" d="M 422 0 
L 422 3319 
L 925 3319 
L 925 2853 
Q 1081 3097 1340 3245 
Q 1600 3394 1931 3394 
Q 2300 3394 2536 3241 
Q 2772 3088 2869 2813 
Q 3263 3394 3894 3394 
Q 4388 3394 4653 3120 
Q 4919 2847 4919 2278 
L 4919 0 
L 4359 0 
L 4359 2091 
Q 4359 2428 4304 2576 
Q 4250 2725 4106 2815 
Q 3963 2906 3769 2906 
Q 3419 2906 3187 2673 
Q 2956 2441 2956 1928 
L 2956 0 
L 2394 0 
L 2394 2156 
Q 2394 2531 2256 2718 
Q 2119 2906 1806 2906 
Q 1569 2906 1367 2781 
Q 1166 2656 1075 2415 
Q 984 2175 984 1722 
L 984 0 
L 422 0 
z
" transform="scale(0.015625)"/>
       <path id="ArialMT-70" d="M 422 -1272 
L 422 3319 
L 934 3319 
L 934 2888 
Q 1116 3141 1344 3267 
Q 1572 3394 1897 3394 
Q 2322 3394 2647 3175 
Q 2972 2956 3137 2557 
Q 3303 2159 3303 1684 
Q 3303 1175 3120 767 
Q 2938 359 2589 142 
Q 2241 -75 1856 -75 
Q 1575 -75 1351 44 
Q 1128 163 984 344 
L 984 -1272 
L 422 -1272 
z
M 931 1641 
Q 931 1000 1190 694 
Q 1450 388 1819 388 
Q 2194 388 2461 705 
Q 2728 1022 2728 1688 
Q 2728 2322 2467 2637 
Q 2206 2953 1844 2953 
Q 1484 2953 1207 2617 
Q 931 2281 931 1641 
z
" transform="scale(0.015625)"/>
       <path id="ArialMT-72" d="M 416 0 
L 416 3319 
L 922 3319 
L 922 2816 
Q 1116 3169 1280 3281 
Q 1444 3394 1641 3394 
Q 1925 3394 2219 3213 
L 2025 2691 
Q 1819 2813 1613 2813 
Q 1428 2813 1281 2702 
Q 1134 2591 1072 2394 
Q 978 2094 978 1738 
L 978 0 
L 416 0 
z
" transform="scale(0.015625)"/>
       <path id="ArialMT-75" d="M 2597 0 
L 2597 488 
Q 2209 -75 1544 -75 
Q 1250 -75 995 37 
Q 741 150 617 320 
Q 494 491 444 738 
Q 409 903 409 1263 
L 409 3319 
L 972 3319 
L 972 1478 
Q 972 1038 1006 884 
Q 1059 663 1231 536 
Q 1403 409 1656 409 
Q 1909 409 2131 539 
Q 2353 669 2445 892 
Q 2538 1116 2538 1541 
L 2538 3319 
L 3100 3319 
L 3100 0 
L 2597 0 
z
" transform="scale(0.015625)"/>
       <path id="Cmsy10-b1" d="M 1600 359 
Q 1269 359 983 526 
Q 697 694 528 984 
Q 359 1275 359 1600 
Q 359 1925 528 2215 
Q 697 2506 983 2673 
Q 1269 2841 1600 2841 
Q 1931 2841 2215 2672 
Q 2500 2503 2667 2214 
Q 2834 1925 2834 1600 
Q 2834 1275 2667 986 
Q 2500 697 2215 528 
Q 1931 359 1600 359 
z
M 1600 616 
Q 2000 616 2289 908 
Q 2578 1200 2578 1600 
Q 2578 1856 2445 2086 
Q 2313 2316 2088 2450 
Q 1863 2584 1600 2584 
Q 1403 2584 1225 2507 
Q 1047 2431 906 2290 
Q 766 2150 691 1973 
Q 616 1797 616 1600 
Q 616 1200 905 908 
Q 1194 616 1600 616 
z
" transform="scale(0.015625)"/>
      </defs>
      <use xlink:href="#ArialMT-54" transform="translate(0 0.203125)"/>
      <use xlink:href="#ArialMT-65" transform="translate(61.083984 0.203125)"/>
      <use xlink:href="#ArialMT-6d" transform="translate(116.699219 0.203125)"/>
      <use xlink:href="#ArialMT-70" transform="translate(200 0.203125)"/>
      <use xlink:href="#ArialMT-65" transform="translate(255.615234 0.203125)"/>
      <use xlink:href="#ArialMT-72" transform="translate(311.230469 0.203125)"/>
      <use xlink:href="#ArialMT-61" transform="translate(344.53125 0.203125)"/>
      <use xlink:href="#ArialMT-74" transform="translate(400.146484 0.203125)"/>
      <use xlink:href="#ArialMT-75" transform="translate(427.929688 0.203125)"/>
      <use xlink:href="#ArialMT-72" transform="translate(483.544922 0.203125)"/>
      <use xlink:href="#ArialMT-65" transform="translate(516.845703 0.203125)"/>
      <use xlink:href="#ArialMT-20" transform="translate(572.460938 0.203125)"/>
      <use xlink:href="#ArialMT-28" transform="translate(600.244141 0.203125)"/>
      <use xlink:href="#Cmsy10-b1" transform="translate(638.009063 38.467188)scale(0.7)"/>
      <use xlink:href="#ArialMT-43" transform="translate(679.386406 0.203125)"/>
      <use xlink:href="#ArialMT-29" transform="translate(751.603203 0.203125)"/>
     </g>
    </g>
   </g>
   <g id="line2d_42">
    <defs>
     <path id="m1912805556" d="M 0 1.5 
C 0.397805 1.5 0.77937 1.341951 1.06066 1.06066 
C 1.341951 0.77937 1.5 0.397805 1.5 0 
C 1.5 -0.397805 1.341951 -0.77937 1.06066 -1.06066 
C 0.77937 -1.341951 0.397805 -1.5 0 -1.5 
C -0.397805 -1.5 -0.77937 -1.341951 -1.06066 -1.06066 
C -1.341951 -0.77937 -1.5 -0.397805 -1.5 0 
C -1.5 0.397805 -1.341951 0.77937 -1.06066 1.06066 
C -0.77937 1.341951 -0.397805 1.5 0 1.5 
z
" style="stroke: #1f77b4"/>
    </defs>
    <g clip-path="url(#p8ebd6ce564)">
     <use xlink:href="#m1912805556" x="205.88662" y="214.773419" style="fill: #1f77b4; stroke: #1f77b4"/>
     <use xlink:href="#m1912805556" x="249.141011" y="214.563081" style="fill: #1f77b4; stroke: #1f77b4"/>
     <use xlink:href="#m1912805556" x="267.821509" y="214.352742" style="fill: #1f77b4; stroke: #1f77b4"/>
     <use xlink:href="#m1912805556" x="280.745317" y="214.142404" style="fill: #1f77b4; stroke: #1f77b4"/>
     <use xlink:href="#m1912805556" x="290.70007" y="213.932065" style="fill: #1f77b4; stroke: #1f77b4"/>
     <use xlink:href="#m1912805556" x="298.810937" y="213.721727" style="fill: #1f77b4; stroke: #1f77b4"/>
     <use xlink:href="#m1912805556" x="305.654816" y="213.511388" style="fill: #1f77b4; stroke: #1f77b4"/>
     <use xlink:href="#m1912805556" x="311.569595" y="213.30105" style="fill: #1f77b4; stroke: #1f77b4"/>
     <use xlink:href="#m1912805556" x="316.771222" y="213.090711" style="fill: #1f77b4; stroke: #1f77b4"/>
     <use xlink:href="#m1912805556" x="321.406609" y="212.880373" style="fill: #1f77b4; stroke: #1f77b4"/>
     <use xlink:href="#m1912805556" x="325.580549" y="212.670034" style="fill: #1f77b4; stroke: #1f77b4"/>
     <use xlink:href="#m1912805556" x="329.370626" y="212.459696" style="fill: #1f77b4; stroke: #1f77b4"/>
     <use xlink:href="#m1912805556" x="332.836041" y="212.249357" style="fill: #1f77b4; stroke: #1f77b4"/>
     <use xlink:href="#m1912805556" x="336.023106" y="212.039019" style="fill: #1f77b4; stroke: #1f77b4"/>
     <use xlink:href="#m1912805556" x="338.96882" y="211.82868" style="fill: #1f77b4; stroke: #1f77b4"/>
     <use xlink:href="#m1912805556" x="341.703269" y="211.618342" style="fill: #1f77b4; stroke: #1f77b4"/>
     <use xlink:href="#m1912805556" x="344.251297" y="211.408003" style="fill: #1f77b4; stroke: #1f77b4"/>
     <use xlink:href="#m1912805556" x="346.633685" y="211.197665" style="fill: #1f77b4; stroke: #1f77b4"/>
     <use xlink:href="#m1912805556" x="348.868019" y="210.987326" style="fill: #1f77b4; stroke: #1f77b4"/>
     <use xlink:href="#m1912805556" x="350.969324" y="210.776988" style="fill: #1f77b4; stroke: #1f77b4"/>
     <use xlink:href="#m1912805556" x="352.95055" y="210.566649" style="fill: #1f77b4; stroke: #1f77b4"/>
     <use xlink:href="#m1912805556" x="354.822943" y="210.356311" style="fill: #1f77b4; stroke: #1f77b4"/>
     <use xlink:href="#m1912805556" x="356.596332" y="210.145972" style="fill: #1f77b4; stroke: #1f77b4"/>
     <use xlink:href="#m1912805556" x="358.279356" y="209.935634" style="fill: #1f77b4; stroke: #1f77b4"/>
     <use xlink:href="#m1912805556" x="359.879651" y="209.725295" style="fill: #1f77b4; stroke: #1f77b4"/>
     <use xlink:href="#m1912805556" x="361.403991" y="209.514957" style="fill: #1f77b4; stroke: #1f77b4"/>
     <use xlink:href="#m1912805556" x="362.858415" y="209.304618" style="fill: #1f77b4; stroke: #1f77b4"/>
     <use xlink:href="#m1912805556" x="364.248321" y="209.09428" style="fill: #1f77b4; stroke: #1f77b4"/>
     <use xlink:href="#m1912805556" x="365.578554" y="208.883941" style="fill: #1f77b4; stroke: #1f77b4"/>
     <use xlink:href="#m1912805556" x="366.853471" y="208.673603" style="fill: #1f77b4; stroke: #1f77b4"/>
     <use xlink:href="#m1912805556" x="368.077003" y="208.463264" style="fill: #1f77b4; stroke: #1f77b4"/>
     <use xlink:href="#m1912805556" x="369.252705" y="208.252926" style="fill: #1f77b4; stroke: #1f77b4"/>
     <use xlink:href="#m1912805556" x="370.383799" y="208.042587" style="fill: #1f77b4; stroke: #1f77b4"/>
     <use xlink:href="#m1912805556" x="371.47321" y="207.832249" style="fill: #1f77b4; stroke: #1f77b4"/>
     <use xlink:href="#m1912805556" x="372.523601" y="207.62191" style="fill: #1f77b4; stroke: #1f77b4"/>
     <use xlink:href="#m1912805556" x="373.537398" y="207.411572" style="fill: #1f77b4; stroke: #1f77b4"/>
     <use xlink:href="#m1912805556" x="374.516819" y="207.201233" style="fill: #1f77b4; stroke: #1f77b4"/>
     <use xlink:href="#m1912805556" x="375.463888" y="206.990895" style="fill: #1f77b4; stroke: #1f77b4"/>
     <use xlink:href="#m1912805556" x="376.380465" y="206.780556" style="fill: #1f77b4; stroke: #1f77b4"/>
     <use xlink:href="#m1912805556" x="377.268253" y="206.570218" style="fill: #1f77b4; stroke: #1f77b4"/>
     <use xlink:href="#m1912805556" x="378.128819" y="206.359879" style="fill: #1f77b4; stroke: #1f77b4"/>
     <use xlink:href="#m1912805556" x="378.963603" y="206.149541" style="fill: #1f77b4; stroke: #1f77b4"/>
     <use xlink:href="#m1912805556" x="379.773935" y="205.939203" style="fill: #1f77b4; stroke: #1f77b4"/>
     <use xlink:href="#m1912805556" x="380.561041" y="205.728864" style="fill: #1f77b4; stroke: #1f77b4"/>
     <use xlink:href="#m1912805556" x="381.326055" y="205.518526" style="fill: #1f77b4; stroke: #1f77b4"/>
     <use xlink:href="#m1912805556" x="382.070026" y="205.308187" style="fill: #1f77b4; stroke: #1f77b4"/>
     <use xlink:href="#m1912805556" x="382.793928" y="205.097849" style="fill: #1f77b4; stroke: #1f77b4"/>
     <use xlink:href="#m1912805556" x="383.498663" y="204.88751" style="fill: #1f77b4; stroke: #1f77b4"/>
     <use xlink:href="#m1912805556" x="384.185071" y="204.677172" style="fill: #1f77b4; stroke: #1f77b4"/>
     <use xlink:href="#m1912805556" x="384.853934" y="204.466833" style="fill: #1f77b4; stroke: #1f77b4"/>
     <use xlink:href="#m1912805556" x="385.505981" y="204.256495" style="fill: #1f77b4; stroke: #1f77b4"/>
     <use xlink:href="#m1912805556" x="386.141892" y="204.046156" style="fill: #1f77b4; stroke: #1f77b4"/>
     <use xlink:href="#m1912805556" x="386.762302" y="203.835818" style="fill: #1f77b4; stroke: #1f77b4"/>
     <use xlink:href="#m1912805556" x="387.367807" y="203.625479" style="fill: #1f77b4; stroke: #1f77b4"/>
     <use xlink:href="#m1912805556" x="387.958966" y="203.415141" style="fill: #1f77b4; stroke: #1f77b4"/>
     <use xlink:href="#m1912805556" x="388.536303" y="203.204802" style="fill: #1f77b4; stroke: #1f77b4"/>
     <use xlink:href="#m1912805556" x="389.10031" y="202.994464" style="fill: #1f77b4; stroke: #1f77b4"/>
     <use xlink:href="#m1912805556" x="389.651452" y="202.784125" style="fill: #1f77b4; stroke: #1f77b4"/>
     <use xlink:href="#m1912805556" x="390.190166" y="202.573787" style="fill: #1f77b4; stroke: #1f77b4"/>
     <use xlink:href="#m1912805556" x="390.716865" y="202.363448" style="fill: #1f77b4; stroke: #1f77b4"/>
     <use xlink:href="#m1912805556" x="391.231941" y="202.15311" style="fill: #1f77b4; stroke: #1f77b4"/>
     <use xlink:href="#m1912805556" x="391.735763" y="201.942771" style="fill: #1f77b4; stroke: #1f77b4"/>
     <use xlink:href="#m1912805556" x="392.228682" y="201.732433" style="fill: #1f77b4; stroke: #1f77b4"/>
     <use xlink:href="#m1912805556" x="392.711032" y="201.522094" style="fill: #1f77b4; stroke: #1f77b4"/>
     <use xlink:href="#m1912805556" x="393.183131" y="201.311756" style="fill: #1f77b4; stroke: #1f77b4"/>
     <use xlink:href="#m1912805556" x="393.64528" y="201.101417" style="fill: #1f77b4; stroke: #1f77b4"/>
     <use xlink:href="#m1912805556" x="394.097767" y="200.891079" style="fill: #1f77b4; stroke: #1f77b4"/>
     <use xlink:href="#m1912805556" x="394.540869" y="200.68074" style="fill: #1f77b4; stroke: #1f77b4"/>
     <use xlink:href="#m1912805556" x="394.974849" y="200.470402" style="fill: #1f77b4; stroke: #1f77b4"/>
     <use xlink:href="#m1912805556" x="395.399959" y="200.260063" style="fill: #1f77b4; stroke: #1f77b4"/>
     <use xlink:href="#m1912805556" x="395.816441" y="200.049725" style="fill: #1f77b4; stroke: #1f77b4"/>
     <use xlink:href="#m1912805556" x="396.224529" y="199.839386" style="fill: #1f77b4; stroke: #1f77b4"/>
     <use xlink:href="#m1912805556" x="396.624446" y="199.629048" style="fill: #1f77b4; stroke: #1f77b4"/>
     <use xlink:href="#m1912805556" x="397.016408" y="199.418709" style="fill: #1f77b4; stroke: #1f77b4"/>
     <use xlink:href="#m1912805556" x="397.400623" y="199.208371" style="fill: #1f77b4; stroke: #1f77b4"/>
     <use xlink:href="#m1912805556" x="397.777292" y="198.998032" style="fill: #1f77b4; stroke: #1f77b4"/>
     <use xlink:href="#m1912805556" x="398.146609" y="198.787694" style="fill: #1f77b4; stroke: #1f77b4"/>
     <use xlink:href="#m1912805556" x="398.508762" y="198.577355" style="fill: #1f77b4; stroke: #1f77b4"/>
     <use xlink:href="#m1912805556" x="398.863933" y="198.367017" style="fill: #1f77b4; stroke: #1f77b4"/>
     <use xlink:href="#m1912805556" x="399.2123" y="198.156678" style="fill: #1f77b4; stroke: #1f77b4"/>
     <use xlink:href="#m1912805556" x="399.554033" y="197.94634" style="fill: #1f77b4; stroke: #1f77b4"/>
     <use xlink:href="#m1912805556" x="399.889298" y="197.736001" style="fill: #1f77b4; stroke: #1f77b4"/>
     <use xlink:href="#m1912805556" x="400.21826" y="197.525663" style="fill: #1f77b4; stroke: #1f77b4"/>
     <use xlink:href="#m1912805556" x="400.541074" y="197.315324" style="fill: #1f77b4; stroke: #1f77b4"/>
     <use xlink:href="#m1912805556" x="400.857896" y="197.104986" style="fill: #1f77b4; stroke: #1f77b4"/>
     <use xlink:href="#m1912805556" x="401.168874" y="196.894647" style="fill: #1f77b4; stroke: #1f77b4"/>
     <use xlink:href="#m1912805556" x="401.474156" y="196.684309" style="fill: #1f77b4; stroke: #1f77b4"/>
     <use xlink:href="#m1912805556" x="401.773883" y="196.473971" style="fill: #1f77b4; stroke: #1f77b4"/>
     <use xlink:href="#m1912805556" x="402.068196" y="196.263632" style="fill: #1f77b4; stroke: #1f77b4"/>
     <use xlink:href="#m1912805556" x="402.357229" y="196.053294" style="fill: #1f77b4; stroke: #1f77b4"/>
     <use xlink:href="#m1912805556" x="402.641117" y="195.842955" style="fill: #1f77b4; stroke: #1f77b4"/>
     <use xlink:href="#m1912805556" x="402.919989" y="195.632617" style="fill: #1f77b4; stroke: #1f77b4"/>
     <use xlink:href="#m1912805556" x="403.193973" y="195.422278" style="fill: #1f77b4; stroke: #1f77b4"/>
     <use xlink:href="#m1912805556" x="403.463193" y="195.21194" style="fill: #1f77b4; stroke: #1f77b4"/>
     <use xlink:href="#m1912805556" x="403.72777" y="195.001601" style="fill: #1f77b4; stroke: #1f77b4"/>
     <use xlink:href="#m1912805556" x="403.987823" y="194.791263" style="fill: #1f77b4; stroke: #1f77b4"/>
     <use xlink:href="#m1912805556" x="404.243469" y="194.580924" style="fill: #1f77b4; stroke: #1f77b4"/>
     <use xlink:href="#m1912805556" x="404.494822" y="194.370586" style="fill: #1f77b4; stroke: #1f77b4"/>
     <use xlink:href="#m1912805556" x="404.741992" y="194.160247" style="fill: #1f77b4; stroke: #1f77b4"/>
     <use xlink:href="#m1912805556" x="404.985089" y="193.949909" style="fill: #1f77b4; stroke: #1f77b4"/>
    </g>
   </g>
   <g id="line2d_43">
    <path d="M 205.88662 214.773419 
L 141.624035 214.563081 
L 139.399882 214.352742 
L 137.838291 214.142404 
L 136.305541 213.932065 
L 134.735591 213.721727 
L 133.135099 213.511388 
L 131.519769 213.30105 
L 129.903483 213.090711 
L 128.296882 212.880373 
L 126.707779 212.670034 
L 125.141825 212.459696 
L 123.60307 212.249357 
L 122.09439 212.039019 
L 120.6178 211.82868 
L 119.174675 211.618342 
L 117.765911 211.408003 
L 116.392042 211.197665 
L 115.053323 210.987326 
L 113.749789 210.776988 
L 112.481308 210.566649 
L 111.247605 210.356311 
L 110.048297 210.145972 
L 108.882908 209.935634 
L 107.750887 209.725295 
L 106.65162 209.514957 
L 105.584439 209.304618 
L 104.548633 209.09428 
L 103.543455 208.883941 
L 102.568126 208.673603 
L 101.621844 208.463264 
L 100.703787 208.252926 
L 99.813117 208.042587 
L 98.948984 207.832249 
L 98.110533 207.62191 
L 97.2969 207.411572 
L 96.507223 207.201233 
L 95.74064 206.990895 
L 94.996292 206.780556 
L 94.273326 206.570218 
L 93.570895 206.359879 
L 92.888164 206.149541 
L 92.224307 205.939203 
L 91.578509 205.728864 
L 90.949972 205.518526 
L 90.337908 205.308187 
L 89.741547 205.097849 
L 89.160134 204.88751 
L 88.592932 204.677172 
L 88.03922 204.466833 
L 87.498296 204.256495 
L 86.969474 204.046156 
L 86.452088 203.835818 
L 85.945492 203.625479 
L 85.449056 203.415141 
L 84.96217 203.204802 
L 84.484243 202.994464 
L 84.014704 202.784125 
L 83.552999 202.573787 
L 83.098594 202.363448 
L 82.650973 202.15311 
L 82.20964 201.942771 
L 81.774116 201.732433 
L 81.343941 201.522094 
L 80.918671 201.311756 
L 80.497883 201.101417 
L 80.081169 200.891079 
L 79.66814 200.68074 
L 79.258421 200.470402 
L 78.851659 200.260063 
L 78.447511 200.049725 
L 78.045655 199.839386 
L 77.645783 199.629048 
L 77.247603 199.418709 
L 76.850836 199.208371 
L 76.455221 198.998032 
L 76.06051 198.787694 
L 75.666469 198.577355 
L 75.272878 198.367017 
L 74.87953 198.156678 
L 74.486233 197.94634 
L 74.092806 197.736001 
L 73.699081 197.525663 
L 73.304902 197.315324 
L 72.910125 197.104986 
L 72.514616 196.894647 
L 72.118256 196.684309 
L 71.720931 196.473971 
L 71.322542 196.263632 
L 70.922998 196.053294 
L 70.522217 195.842955 
L 70.120129 195.632617 
L 69.716669 195.422278 
L 69.311783 195.21194 
L 68.905426 195.001601 
L 68.497559 194.791263 
L 68.088151 194.580924 
L 67.677179 194.370586 
L 67.264625 194.160247 
L 66.85048 193.949909 
" clip-path="url(#p8ebd6ce564)" style="fill: none; stroke: #ff7f0e; stroke-width: 1.5; stroke-linecap: square"/>
   </g>
   <g id="patch_3">
    <path d="M 49.94375 343.418906 
L 49.94375 10.778906 
" style="fill: none; stroke: #000000; stroke-width: 0.8; stroke-linejoin: miter; stroke-linecap: square"/>
   </g>
   <g id="patch_4">
    <path d="M 434.771336 343.418906 
L 434.771336 10.778906 
" style="fill: none; stroke: #000000; stroke-width: 0.8; stroke-linejoin: miter; stroke-linecap: square"/>
   </g>
   <g id="patch_5">
    <path d="M 49.94375 343.418906 
L 434.771336 343.418906 
" style="fill: none; stroke: #000000; stroke-width: 0.8; stroke-linejoin: miter; stroke-linecap: square"/>
   </g>
   <g id="patch_6">
    <path d="M 49.94375 10.778906 
L 434.771336 10.778906 
" style="fill: none; stroke: #000000; stroke-width: 0.8; stroke-linejoin: miter; stroke-linecap: square"/>
   </g>
   <g id="text_13">
    <!-- P = 250 bar -->
    <g transform="translate(375.270097 334.778606)scale(0.1 -0.1)">
     <defs>
      <path id="ArialMT-50" d="M 494 0 
L 494 4581 
L 2222 4581 
Q 2678 4581 2919 4538 
Q 3256 4481 3484 4323 
Q 3713 4166 3852 3881 
Q 3991 3597 3991 3256 
Q 3991 2672 3619 2267 
Q 3247 1863 2275 1863 
L 1100 1863 
L 1100 0 
L 494 0 
z
M 1100 2403 
L 2284 2403 
Q 2872 2403 3119 2622 
Q 3366 2841 3366 3238 
Q 3366 3525 3220 3729 
Q 3075 3934 2838 4000 
Q 2684 4041 2272 4041 
L 1100 4041 
L 1100 2403 
z
" transform="scale(0.015625)"/>
      <path id="ArialMT-3d" d="M 3381 2694 
L 356 2694 
L 356 3219 
L 3381 3219 
L 3381 2694 
z
M 3381 1303 
L 356 1303 
L 356 1828 
L 3381 1828 
L 3381 1303 
z
" transform="scale(0.015625)"/>
      <path id="ArialMT-35" d="M 266 1200 
L 856 1250 
Q 922 819 1161 601 
Q 1400 384 1738 384 
Q 2144 384 2425 690 
Q 2706 997 2706 1503 
Q 2706 1984 2436 2262 
Q 2166 2541 1728 2541 
Q 1456 2541 1237 2417 
Q 1019 2294 894 2097 
L 366 2166 
L 809 4519 
L 3088 4519 
L 3088 3981 
L 1259 3981 
L 1013 2750 
Q 1425 3038 1878 3038 
Q 2478 3038 2890 2622 
Q 3303 2206 3303 1553 
Q 3303 931 2941 478 
Q 2500 -78 1738 -78 
Q 1113 -78 717 272 
Q 322 622 266 1200 
z
" transform="scale(0.015625)"/>
      <path id="ArialMT-62" d="M 941 0 
L 419 0 
L 419 4581 
L 981 4581 
L 981 2947 
Q 1338 3394 1891 3394 
Q 2197 3394 2470 3270 
Q 2744 3147 2920 2923 
Q 3097 2700 3197 2384 
Q 3297 2069 3297 1709 
Q 3297 856 2875 390 
Q 2453 -75 1863 -75 
Q 1275 -75 941 416 
L 941 0 
z
M 934 1684 
Q 934 1088 1097 822 
Q 1363 388 1816 388 
Q 2184 388 2453 708 
Q 2722 1028 2722 1663 
Q 2722 2313 2464 2622 
Q 2206 2931 1841 2931 
Q 1472 2931 1203 2611 
Q 934 2291 934 1684 
z
" transform="scale(0.015625)"/>
     </defs>
     <use xlink:href="#ArialMT-50"/>
     <use xlink:href="#ArialMT-20" x="64.949219"/>
     <use xlink:href="#ArialMT-3d" x="92.732422"/>
     <use xlink:href="#ArialMT-20" x="151.130859"/>
     <use xlink:href="#ArialMT-32" x="178.914062"/>
     <use xlink:href="#ArialMT-35" x="234.529297"/>
     <use xlink:href="#ArialMT-30" x="290.144531"/>
     <use xlink:href="#ArialMT-20" x="345.759766"/>
     <use xlink:href="#ArialMT-62" x="373.542969"/>
     <use xlink:href="#ArialMT-61" x="429.158203"/>
     <use xlink:href="#ArialMT-72" x="484.773438"/>
    </g>
   </g>
  </g>
  <g id="axes_2">
   <g id="patch_7">
    <path d="M 446.316164 343.418906 
L 831.14375 343.418906 
L 831.14375 10.778906 
L 446.316164 10.778906 
z
" style="fill: #ffffff"/>
   </g>
   <g id="matplotlib.axis_3">
    <g id="xtick_36">
     <g id="line2d_44">
      <g>
       <use xlink:href="#m2157bd506a" x="506.168898" y="343.418906" style="stroke: #000000; stroke-width: 0.8"/>
      </g>
     </g>
     <g id="text_14">
      <!-- $\mathdefault{10^{-1}}$ -->
      <g transform="translate(497.118898 360.731406)scale(0.1 -0.1)">
       <use xlink:href="#ArialMT-31" transform="translate(0 0.99375)"/>
       <use xlink:href="#ArialMT-30" transform="translate(55.615234 0.99375)"/>
       <use xlink:href="#ArialMT-2d" transform="translate(112.972813 70.6875)scale(0.7)"/>
       <use xlink:href="#ArialMT-31" transform="translate(136.283359 70.6875)scale(0.7)"/>
      </g>
     </g>
    </g>
    <g id="xtick_37">
     <g id="line2d_45">
      <g>
       <use xlink:href="#m2157bd506a" x="614.493849" y="343.418906" style="stroke: #000000; stroke-width: 0.8"/>
      </g>
     </g>
     <g id="text_15">
      <!-- $\mathdefault{10^{0}}$ -->
      <g transform="translate(606.643849 360.731406)scale(0.1 -0.1)">
       <use xlink:href="#ArialMT-31" transform="translate(0 0.99375)"/>
       <use xlink:href="#ArialMT-30" transform="translate(55.615234 0.99375)"/>
       <use xlink:href="#ArialMT-30" transform="translate(112.972813 70.6875)scale(0.7)"/>
      </g>
     </g>
    </g>
    <g id="xtick_38">
     <g id="line2d_46">
      <g>
       <use xlink:href="#m2157bd506a" x="722.818799" y="343.418906" style="stroke: #000000; stroke-width: 0.8"/>
      </g>
     </g>
     <g id="text_16">
      <!-- $\mathdefault{10^{1}}$ -->
      <g transform="translate(714.968799 360.731406)scale(0.1 -0.1)">
       <use xlink:href="#ArialMT-31" transform="translate(0 0.99375)"/>
       <use xlink:href="#ArialMT-30" transform="translate(55.615234 0.99375)"/>
       <use xlink:href="#ArialMT-31" transform="translate(112.972813 70.6875)scale(0.7)"/>
      </g>
     </g>
    </g>
    <g id="xtick_39">
     <g id="line2d_47">
      <g>
       <use xlink:href="#m2157bd506a" x="831.14375" y="343.418906" style="stroke: #000000; stroke-width: 0.8"/>
      </g>
     </g>
     <g id="text_17">
      <!-- $\mathdefault{10^{2}}$ -->
      <g transform="translate(823.29375 360.731406)scale(0.1 -0.1)">
       <use xlink:href="#ArialMT-31" transform="translate(0 0.99375)"/>
       <use xlink:href="#ArialMT-30" transform="translate(55.615234 0.99375)"/>
       <use xlink:href="#ArialMT-32" transform="translate(112.972813 70.6875)scale(0.7)"/>
      </g>
     </g>
    </g>
    <g id="xtick_40">
     <g id="line2d_48">
      <g>
       <use xlink:href="#mc7f74f4e4a" x="449.528084" y="343.418906" style="stroke: #000000; stroke-width: 0.6"/>
      </g>
     </g>
    </g>
    <g id="xtick_41">
     <g id="line2d_49">
      <g>
       <use xlink:href="#mc7f74f4e4a" x="463.062067" y="343.418906" style="stroke: #000000; stroke-width: 0.6"/>
      </g>
     </g>
    </g>
    <g id="xtick_42">
     <g id="line2d_50">
      <g>
       <use xlink:href="#mc7f74f4e4a" x="473.559839" y="343.418906" style="stroke: #000000; stroke-width: 0.6"/>
      </g>
     </g>
    </g>
    <g id="xtick_43">
     <g id="line2d_51">
      <g>
       <use xlink:href="#mc7f74f4e4a" x="482.137143" y="343.418906" style="stroke: #000000; stroke-width: 0.6"/>
      </g>
     </g>
    </g>
    <g id="xtick_44">
     <g id="line2d_52">
      <g>
       <use xlink:href="#mc7f74f4e4a" x="489.389151" y="343.418906" style="stroke: #000000; stroke-width: 0.6"/>
      </g>
     </g>
    </g>
    <g id="xtick_45">
     <g id="line2d_53">
      <g>
       <use xlink:href="#mc7f74f4e4a" x="495.671126" y="343.418906" style="stroke: #000000; stroke-width: 0.6"/>
      </g>
     </g>
    </g>
    <g id="xtick_46">
     <g id="line2d_54">
      <g>
       <use xlink:href="#mc7f74f4e4a" x="501.21222" y="343.418906" style="stroke: #000000; stroke-width: 0.6"/>
      </g>
     </g>
    </g>
    <g id="xtick_47">
     <g id="line2d_55">
      <g>
       <use xlink:href="#mc7f74f4e4a" x="538.777958" y="343.418906" style="stroke: #000000; stroke-width: 0.6"/>
      </g>
     </g>
    </g>
    <g id="xtick_48">
     <g id="line2d_56">
      <g>
       <use xlink:href="#mc7f74f4e4a" x="557.853035" y="343.418906" style="stroke: #000000; stroke-width: 0.6"/>
      </g>
     </g>
    </g>
    <g id="xtick_49">
     <g id="line2d_57">
      <g>
       <use xlink:href="#mc7f74f4e4a" x="571.387017" y="343.418906" style="stroke: #000000; stroke-width: 0.6"/>
      </g>
     </g>
    </g>
    <g id="xtick_50">
     <g id="line2d_58">
      <g>
       <use xlink:href="#mc7f74f4e4a" x="581.884789" y="343.418906" style="stroke: #000000; stroke-width: 0.6"/>
      </g>
     </g>
    </g>
    <g id="xtick_51">
     <g id="line2d_59">
      <g>
       <use xlink:href="#mc7f74f4e4a" x="590.462094" y="343.418906" style="stroke: #000000; stroke-width: 0.6"/>
      </g>
     </g>
    </g>
    <g id="xtick_52">
     <g id="line2d_60">
      <g>
       <use xlink:href="#mc7f74f4e4a" x="597.714102" y="343.418906" style="stroke: #000000; stroke-width: 0.6"/>
      </g>
     </g>
    </g>
    <g id="xtick_53">
     <g id="line2d_61">
      <g>
       <use xlink:href="#mc7f74f4e4a" x="603.996076" y="343.418906" style="stroke: #000000; stroke-width: 0.6"/>
      </g>
     </g>
    </g>
    <g id="xtick_54">
     <g id="line2d_62">
      <g>
       <use xlink:href="#mc7f74f4e4a" x="609.537171" y="343.418906" style="stroke: #000000; stroke-width: 0.6"/>
      </g>
     </g>
    </g>
    <g id="xtick_55">
     <g id="line2d_63">
      <g>
       <use xlink:href="#mc7f74f4e4a" x="647.102908" y="343.418906" style="stroke: #000000; stroke-width: 0.6"/>
      </g>
     </g>
    </g>
    <g id="xtick_56">
     <g id="line2d_64">
      <g>
       <use xlink:href="#mc7f74f4e4a" x="666.177985" y="343.418906" style="stroke: #000000; stroke-width: 0.6"/>
      </g>
     </g>
    </g>
    <g id="xtick_57">
     <g id="line2d_65">
      <g>
       <use xlink:href="#mc7f74f4e4a" x="679.711968" y="343.418906" style="stroke: #000000; stroke-width: 0.6"/>
      </g>
     </g>
    </g>
    <g id="xtick_58">
     <g id="line2d_66">
      <g>
       <use xlink:href="#mc7f74f4e4a" x="690.20974" y="343.418906" style="stroke: #000000; stroke-width: 0.6"/>
      </g>
     </g>
    </g>
    <g id="xtick_59">
     <g id="line2d_67">
      <g>
       <use xlink:href="#mc7f74f4e4a" x="698.787045" y="343.418906" style="stroke: #000000; stroke-width: 0.6"/>
      </g>
     </g>
    </g>
    <g id="xtick_60">
     <g id="line2d_68">
      <g>
       <use xlink:href="#mc7f74f4e4a" x="706.039052" y="343.418906" style="stroke: #000000; stroke-width: 0.6"/>
      </g>
     </g>
    </g>
    <g id="xtick_61">
     <g id="line2d_69">
      <g>
       <use xlink:href="#mc7f74f4e4a" x="712.321027" y="343.418906" style="stroke: #000000; stroke-width: 0.6"/>
      </g>
     </g>
    </g>
    <g id="xtick_62">
     <g id="line2d_70">
      <g>
       <use xlink:href="#mc7f74f4e4a" x="717.862122" y="343.418906" style="stroke: #000000; stroke-width: 0.6"/>
      </g>
     </g>
    </g>
    <g id="xtick_63">
     <g id="line2d_71">
      <g>
       <use xlink:href="#mc7f74f4e4a" x="755.427859" y="343.418906" style="stroke: #000000; stroke-width: 0.6"/>
      </g>
     </g>
    </g>
    <g id="xtick_64">
     <g id="line2d_72">
      <g>
       <use xlink:href="#mc7f74f4e4a" x="774.502936" y="343.418906" style="stroke: #000000; stroke-width: 0.6"/>
      </g>
     </g>
    </g>
    <g id="xtick_65">
     <g id="line2d_73">
      <g>
       <use xlink:href="#mc7f74f4e4a" x="788.036918" y="343.418906" style="stroke: #000000; stroke-width: 0.6"/>
      </g>
     </g>
    </g>
    <g id="xtick_66">
     <g id="line2d_74">
      <g>
       <use xlink:href="#mc7f74f4e4a" x="798.534691" y="343.418906" style="stroke: #000000; stroke-width: 0.6"/>
      </g>
     </g>
    </g>
    <g id="xtick_67">
     <g id="line2d_75">
      <g>
       <use xlink:href="#mc7f74f4e4a" x="807.111995" y="343.418906" style="stroke: #000000; stroke-width: 0.6"/>
      </g>
     </g>
    </g>
    <g id="xtick_68">
     <g id="line2d_76">
      <g>
       <use xlink:href="#mc7f74f4e4a" x="814.364003" y="343.418906" style="stroke: #000000; stroke-width: 0.6"/>
      </g>
     </g>
    </g>
    <g id="xtick_69">
     <g id="line2d_77">
      <g>
       <use xlink:href="#mc7f74f4e4a" x="820.645978" y="343.418906" style="stroke: #000000; stroke-width: 0.6"/>
      </g>
     </g>
    </g>
    <g id="xtick_70">
     <g id="line2d_78">
      <g>
       <use xlink:href="#mc7f74f4e4a" x="826.187072" y="343.418906" style="stroke: #000000; stroke-width: 0.6"/>
      </g>
     </g>
    </g>
    <g id="text_18">
     <!-- Salinity (wt.% NaCl) -->
     <g transform="translate(594.555738 373.998594)scale(0.1 -0.1)">
      <use xlink:href="#ArialMT-53"/>
      <use xlink:href="#ArialMT-61" x="66.699219"/>
      <use xlink:href="#ArialMT-6c" x="122.314453"/>
      <use xlink:href="#ArialMT-69" x="144.53125"/>
      <use xlink:href="#ArialMT-6e" x="166.748047"/>
      <use xlink:href="#ArialMT-69" x="222.363281"/>
      <use xlink:href="#ArialMT-74" x="244.580078"/>
      <use xlink:href="#ArialMT-79" x="272.363281"/>
      <use xlink:href="#ArialMT-20" x="322.363281"/>
      <use xlink:href="#ArialMT-28" x="350.146484"/>
      <use xlink:href="#ArialMT-77" x="383.447266"/>
      <use xlink:href="#ArialMT-74" x="455.664062"/>
      <use xlink:href="#ArialMT-2e" x="483.447266"/>
      <use xlink:href="#ArialMT-25" x="511.230469"/>
      <use xlink:href="#ArialMT-20" x="600.146484"/>
      <use xlink:href="#ArialMT-4e" x="627.929688"/>
      <use xlink:href="#ArialMT-61" x="700.146484"/>
      <use xlink:href="#ArialMT-43" x="755.761719"/>
      <use xlink:href="#ArialMT-6c" x="827.978516"/>
      <use xlink:href="#ArialMT-29" x="850.195312"/>
     </g>
    </g>
   </g>
   <g id="matplotlib.axis_4">
    <g id="ytick_7">
     <g id="line2d_79">
      <defs>
       <path id="mce340dd4f7" d="M 0 0 
L 3.5 0 
" style="stroke: #000000; stroke-width: 0.8"/>
      </defs>
      <g>
       <use xlink:href="#mce340dd4f7" x="831.14375" y="343.418906" style="stroke: #000000; stroke-width: 0.8"/>
      </g>
     </g>
     <g id="text_19">
      <!-- 0 -->
      <g transform="translate(838.14375 346.997812)scale(0.1 -0.1)">
       <use xlink:href="#ArialMT-30"/>
      </g>
     </g>
    </g>
    <g id="ytick_8">
     <g id="line2d_80">
      <g>
       <use xlink:href="#mce340dd4f7" x="831.14375" y="272.644438" style="stroke: #000000; stroke-width: 0.8"/>
      </g>
     </g>
     <g id="text_20">
      <!-- 1 -->
      <g transform="translate(838.14375 276.223344)scale(0.1 -0.1)">
       <use xlink:href="#ArialMT-31"/>
      </g>
     </g>
    </g>
    <g id="ytick_9">
     <g id="line2d_81">
      <g>
       <use xlink:href="#mce340dd4f7" x="831.14375" y="201.86997" style="stroke: #000000; stroke-width: 0.8"/>
      </g>
     </g>
     <g id="text_21">
      <!-- 2 -->
      <g transform="translate(838.14375 205.448876)scale(0.1 -0.1)">
       <use xlink:href="#ArialMT-32"/>
      </g>
     </g>
    </g>
    <g id="ytick_10">
     <g id="line2d_82">
      <g>
       <use xlink:href="#mce340dd4f7" x="831.14375" y="131.095502" style="stroke: #000000; stroke-width: 0.8"/>
      </g>
     </g>
     <g id="text_22">
      <!-- 3 -->
      <g transform="translate(838.14375 134.674408)scale(0.1 -0.1)">
       <defs>
        <path id="ArialMT-33" d="M 269 1209 
L 831 1284 
Q 928 806 1161 595 
Q 1394 384 1728 384 
Q 2125 384 2398 659 
Q 2672 934 2672 1341 
Q 2672 1728 2419 1979 
Q 2166 2231 1775 2231 
Q 1616 2231 1378 2169 
L 1441 2663 
Q 1497 2656 1531 2656 
Q 1891 2656 2178 2843 
Q 2466 3031 2466 3422 
Q 2466 3731 2256 3934 
Q 2047 4138 1716 4138 
Q 1388 4138 1169 3931 
Q 950 3725 888 3313 
L 325 3413 
Q 428 3978 793 4289 
Q 1159 4600 1703 4600 
Q 2078 4600 2393 4439 
Q 2709 4278 2876 4000 
Q 3044 3722 3044 3409 
Q 3044 3113 2884 2869 
Q 2725 2625 2413 2481 
Q 2819 2388 3044 2092 
Q 3269 1797 3269 1353 
Q 3269 753 2831 336 
Q 2394 -81 1725 -81 
Q 1122 -81 723 278 
Q 325 638 269 1209 
z
" transform="scale(0.015625)"/>
       </defs>
       <use xlink:href="#ArialMT-33"/>
      </g>
     </g>
    </g>
    <g id="ytick_11">
     <g id="line2d_83">
      <g>
       <use xlink:href="#mce340dd4f7" x="831.14375" y="60.321034" style="stroke: #000000; stroke-width: 0.8"/>
      </g>
     </g>
     <g id="text_23">
      <!-- 4 -->
      <g transform="translate(838.14375 63.89994)scale(0.1 -0.1)">
       <use xlink:href="#ArialMT-34"/>
      </g>
     </g>
    </g>
    <g id="text_24">
     <!-- Specific enthalpy (MJ/kg) -->
     <g transform="translate(854.984375 232.950469)rotate(-90)scale(0.1 -0.1)">
      <defs>
       <path id="ArialMT-63" d="M 2588 1216 
L 3141 1144 
Q 3050 572 2676 248 
Q 2303 -75 1759 -75 
Q 1078 -75 664 370 
Q 250 816 250 1647 
Q 250 2184 428 2587 
Q 606 2991 970 3192 
Q 1334 3394 1763 3394 
Q 2303 3394 2647 3120 
Q 2991 2847 3088 2344 
L 2541 2259 
Q 2463 2594 2264 2762 
Q 2066 2931 1784 2931 
Q 1359 2931 1093 2626 
Q 828 2322 828 1663 
Q 828 994 1084 691 
Q 1341 388 1753 388 
Q 2084 388 2306 591 
Q 2528 794 2588 1216 
z
" transform="scale(0.015625)"/>
       <path id="ArialMT-66" d="M 556 0 
L 556 2881 
L 59 2881 
L 59 3319 
L 556 3319 
L 556 3672 
Q 556 4006 616 4169 
Q 697 4388 901 4523 
Q 1106 4659 1475 4659 
Q 1713 4659 2000 4603 
L 1916 4113 
Q 1741 4144 1584 4144 
Q 1328 4144 1222 4034 
Q 1116 3925 1116 3625 
L 1116 3319 
L 1763 3319 
L 1763 2881 
L 1116 2881 
L 1116 0 
L 556 0 
z
" transform="scale(0.015625)"/>
       <path id="ArialMT-68" d="M 422 0 
L 422 4581 
L 984 4581 
L 984 2938 
Q 1378 3394 1978 3394 
Q 2347 3394 2619 3248 
Q 2891 3103 3008 2847 
Q 3125 2591 3125 2103 
L 3125 0 
L 2563 0 
L 2563 2103 
Q 2563 2525 2380 2717 
Q 2197 2909 1863 2909 
Q 1613 2909 1392 2779 
Q 1172 2650 1078 2428 
Q 984 2206 984 1816 
L 984 0 
L 422 0 
z
" transform="scale(0.015625)"/>
       <path id="ArialMT-4d" d="M 475 0 
L 475 4581 
L 1388 4581 
L 2472 1338 
Q 2622 884 2691 659 
Q 2769 909 2934 1394 
L 4031 4581 
L 4847 4581 
L 4847 0 
L 4263 0 
L 4263 3834 
L 2931 0 
L 2384 0 
L 1059 3900 
L 1059 0 
L 475 0 
z
" transform="scale(0.015625)"/>
       <path id="ArialMT-4a" d="M 184 1300 
L 731 1375 
Q 753 850 928 656 
Q 1103 463 1413 463 
Q 1641 463 1806 567 
Q 1972 672 2034 851 
Q 2097 1031 2097 1425 
L 2097 4581 
L 2703 4581 
L 2703 1459 
Q 2703 884 2564 568 
Q 2425 253 2123 87 
Q 1822 -78 1416 -78 
Q 813 -78 492 269 
Q 172 616 184 1300 
z
" transform="scale(0.015625)"/>
       <path id="ArialMT-2f" d="M 0 -78 
L 1328 4659 
L 1778 4659 
L 453 -78 
L 0 -78 
z
" transform="scale(0.015625)"/>
       <path id="ArialMT-6b" d="M 425 0 
L 425 4581 
L 988 4581 
L 988 1969 
L 2319 3319 
L 3047 3319 
L 1778 2088 
L 3175 0 
L 2481 0 
L 1384 1697 
L 988 1316 
L 988 0 
L 425 0 
z
" transform="scale(0.015625)"/>
       <path id="ArialMT-67" d="M 319 -275 
L 866 -356 
Q 900 -609 1056 -725 
Q 1266 -881 1628 -881 
Q 2019 -881 2231 -725 
Q 2444 -569 2519 -288 
Q 2563 -116 2559 434 
Q 2191 0 1641 0 
Q 956 0 581 494 
Q 206 988 206 1678 
Q 206 2153 378 2554 
Q 550 2956 876 3175 
Q 1203 3394 1644 3394 
Q 2231 3394 2613 2919 
L 2613 3319 
L 3131 3319 
L 3131 450 
Q 3131 -325 2973 -648 
Q 2816 -972 2473 -1159 
Q 2131 -1347 1631 -1347 
Q 1038 -1347 672 -1080 
Q 306 -813 319 -275 
z
M 784 1719 
Q 784 1066 1043 766 
Q 1303 466 1694 466 
Q 2081 466 2343 764 
Q 2606 1063 2606 1700 
Q 2606 2309 2336 2618 
Q 2066 2928 1684 2928 
Q 1309 2928 1046 2623 
Q 784 2319 784 1719 
z
" transform="scale(0.015625)"/>
      </defs>
      <use xlink:href="#ArialMT-53"/>
      <use xlink:href="#ArialMT-70" x="66.699219"/>
      <use xlink:href="#ArialMT-65" x="122.314453"/>
      <use xlink:href="#ArialMT-63" x="177.929688"/>
      <use xlink:href="#ArialMT-69" x="227.929688"/>
      <use xlink:href="#ArialMT-66" x="250.146484"/>
      <use xlink:href="#ArialMT-69" x="277.929688"/>
      <use xlink:href="#ArialMT-63" x="300.146484"/>
      <use xlink:href="#ArialMT-20" x="350.146484"/>
      <use xlink:href="#ArialMT-65" x="377.929688"/>
      <use xlink:href="#ArialMT-6e" x="433.544922"/>
      <use xlink:href="#ArialMT-74" x="489.160156"/>
      <use xlink:href="#ArialMT-68" x="516.943359"/>
      <use xlink:href="#ArialMT-61" x="572.558594"/>
      <use xlink:href="#ArialMT-6c" x="628.173828"/>
      <use xlink:href="#ArialMT-70" x="650.390625"/>
      <use xlink:href="#ArialMT-79" x="706.005859"/>
      <use xlink:href="#ArialMT-20" x="756.005859"/>
      <use xlink:href="#ArialMT-28" x="783.789062"/>
      <use xlink:href="#ArialMT-4d" x="817.089844"/>
      <use xlink:href="#ArialMT-4a" x="900.390625"/>
      <use xlink:href="#ArialMT-2f" x="950.390625"/>
      <use xlink:href="#ArialMT-6b" x="978.173828"/>
      <use xlink:href="#ArialMT-67" x="1028.173828"/>
      <use xlink:href="#ArialMT-29" x="1083.789062"/>
     </g>
    </g>
   </g>
   <g id="line2d_84">
    <g clip-path="url(#p5055ee25e2)">
     <use xlink:href="#m1912805556" x="602.259033" y="194.182732" style="fill: #1f77b4; stroke: #1f77b4"/>
     <use xlink:href="#m1912805556" x="645.513424" y="203.972353" style="fill: #1f77b4; stroke: #1f77b4"/>
     <use xlink:href="#m1912805556" x="664.193922" y="207.906157" style="fill: #1f77b4; stroke: #1f77b4"/>
     <use xlink:href="#m1912805556" x="677.117731" y="210.617371" style="fill: #1f77b4; stroke: #1f77b4"/>
     <use xlink:href="#m1912805556" x="687.072484" y="212.764636" style="fill: #1f77b4; stroke: #1f77b4"/>
     <use xlink:href="#m1912805556" x="695.18335" y="214.582074" style="fill: #1f77b4; stroke: #1f77b4"/>
     <use xlink:href="#m1912805556" x="702.02723" y="216.179396" style="fill: #1f77b4; stroke: #1f77b4"/>
     <use xlink:href="#m1912805556" x="707.942009" y="217.616872" style="fill: #1f77b4; stroke: #1f77b4"/>
     <use xlink:href="#m1912805556" x="713.143635" y="218.931252" style="fill: #1f77b4; stroke: #1f77b4"/>
     <use xlink:href="#m1912805556" x="717.779023" y="220.146677" style="fill: #1f77b4; stroke: #1f77b4"/>
     <use xlink:href="#m1912805556" x="721.952963" y="221.279927" style="fill: #1f77b4; stroke: #1f77b4"/>
     <use xlink:href="#m1912805556" x="725.74304" y="222.3432" style="fill: #1f77b4; stroke: #1f77b4"/>
     <use xlink:href="#m1912805556" x="729.208455" y="223.345704" style="fill: #1f77b4; stroke: #1f77b4"/>
     <use xlink:href="#m1912805556" x="732.39552" y="224.294607" style="fill: #1f77b4; stroke: #1f77b4"/>
     <use xlink:href="#m1912805556" x="735.341234" y="225.195647" style="fill: #1f77b4; stroke: #1f77b4"/>
     <use xlink:href="#m1912805556" x="738.075683" y="226.053521" style="fill: #1f77b4; stroke: #1f77b4"/>
     <use xlink:href="#m1912805556" x="740.623711" y="226.87216" style="fill: #1f77b4; stroke: #1f77b4"/>
     <use xlink:href="#m1912805556" x="743.006099" y="227.654908" style="fill: #1f77b4; stroke: #1f77b4"/>
     <use xlink:href="#m1912805556" x="745.240432" y="228.404654" style="fill: #1f77b4; stroke: #1f77b4"/>
     <use xlink:href="#m1912805556" x="747.341737" y="229.123928" style="fill: #1f77b4; stroke: #1f77b4"/>
     <use xlink:href="#m1912805556" x="749.322964" y="229.814971" style="fill: #1f77b4; stroke: #1f77b4"/>
     <use xlink:href="#m1912805556" x="751.195357" y="230.479782" style="fill: #1f77b4; stroke: #1f77b4"/>
     <use xlink:href="#m1912805556" x="752.968745" y="231.120163" style="fill: #1f77b4; stroke: #1f77b4"/>
     <use xlink:href="#m1912805556" x="754.65177" y="231.737744" style="fill: #1f77b4; stroke: #1f77b4"/>
     <use xlink:href="#m1912805556" x="756.252065" y="232.334011" style="fill: #1f77b4; stroke: #1f77b4"/>
     <use xlink:href="#m1912805556" x="757.776405" y="232.910321" style="fill: #1f77b4; stroke: #1f77b4"/>
     <use xlink:href="#m1912805556" x="759.230829" y="233.467917" style="fill: #1f77b4; stroke: #1f77b4"/>
     <use xlink:href="#m1912805556" x="760.620735" y="234.007943" style="fill: #1f77b4; stroke: #1f77b4"/>
     <use xlink:href="#m1912805556" x="761.950968" y="234.531453" style="fill: #1f77b4; stroke: #1f77b4"/>
     <use xlink:href="#m1912805556" x="763.225884" y="235.039419" style="fill: #1f77b4; stroke: #1f77b4"/>
     <use xlink:href="#m1912805556" x="764.449416" y="235.532737" style="fill: #1f77b4; stroke: #1f77b4"/>
     <use xlink:href="#m1912805556" x="765.625119" y="236.012237" style="fill: #1f77b4; stroke: #1f77b4"/>
     <use xlink:href="#m1912805556" x="766.756212" y="236.478686" style="fill: #1f77b4; stroke: #1f77b4"/>
     <use xlink:href="#m1912805556" x="767.845624" y="236.932793" style="fill: #1f77b4; stroke: #1f77b4"/>
     <use xlink:href="#m1912805556" x="768.896015" y="237.375216" style="fill: #1f77b4; stroke: #1f77b4"/>
     <use xlink:href="#m1912805556" x="769.909812" y="237.806563" style="fill: #1f77b4; stroke: #1f77b4"/>
     <use xlink:href="#m1912805556" x="770.889232" y="238.227396" style="fill: #1f77b4; stroke: #1f77b4"/>
     <use xlink:href="#m1912805556" x="771.836302" y="238.638237" style="fill: #1f77b4; stroke: #1f77b4"/>
     <use xlink:href="#m1912805556" x="772.752879" y="239.039568" style="fill: #1f77b4; stroke: #1f77b4"/>
     <use xlink:href="#m1912805556" x="773.640667" y="239.431838" style="fill: #1f77b4; stroke: #1f77b4"/>
     <use xlink:href="#m1912805556" x="774.501232" y="239.815459" style="fill: #1f77b4; stroke: #1f77b4"/>
     <use xlink:href="#m1912805556" x="775.336017" y="240.190815" style="fill: #1f77b4; stroke: #1f77b4"/>
     <use xlink:href="#m1912805556" x="776.146349" y="240.558262" style="fill: #1f77b4; stroke: #1f77b4"/>
     <use xlink:href="#m1912805556" x="776.933455" y="240.918129" style="fill: #1f77b4; stroke: #1f77b4"/>
     <use xlink:href="#m1912805556" x="777.698469" y="241.270719" style="fill: #1f77b4; stroke: #1f77b4"/>
     <use xlink:href="#m1912805556" x="778.44244" y="241.616317" style="fill: #1f77b4; stroke: #1f77b4"/>
     <use xlink:href="#m1912805556" x="779.166342" y="241.955182" style="fill: #1f77b4; stroke: #1f77b4"/>
     <use xlink:href="#m1912805556" x="779.871077" y="242.287558" style="fill: #1f77b4; stroke: #1f77b4"/>
     <use xlink:href="#m1912805556" x="780.557485" y="242.613669" style="fill: #1f77b4; stroke: #1f77b4"/>
     <use xlink:href="#m1912805556" x="781.226348" y="242.933724" style="fill: #1f77b4; stroke: #1f77b4"/>
     <use xlink:href="#m1912805556" x="781.878395" y="243.247916" style="fill: #1f77b4; stroke: #1f77b4"/>
     <use xlink:href="#m1912805556" x="782.514305" y="243.556425" style="fill: #1f77b4; stroke: #1f77b4"/>
     <use xlink:href="#m1912805556" x="783.134716" y="243.859417" style="fill: #1f77b4; stroke: #1f77b4"/>
     <use xlink:href="#m1912805556" x="783.740221" y="244.157047" style="fill: #1f77b4; stroke: #1f77b4"/>
     <use xlink:href="#m1912805556" x="784.33138" y="244.449459" style="fill: #1f77b4; stroke: #1f77b4"/>
     <use xlink:href="#m1912805556" x="784.908717" y="244.736787" style="fill: #1f77b4; stroke: #1f77b4"/>
     <use xlink:href="#m1912805556" x="785.472724" y="245.019157" style="fill: #1f77b4; stroke: #1f77b4"/>
     <use xlink:href="#m1912805556" x="786.023866" y="245.296684" style="fill: #1f77b4; stroke: #1f77b4"/>
     <use xlink:href="#m1912805556" x="786.56258" y="245.569478" style="fill: #1f77b4; stroke: #1f77b4"/>
     <use xlink:href="#m1912805556" x="787.089279" y="245.837641" style="fill: #1f77b4; stroke: #1f77b4"/>
     <use xlink:href="#m1912805556" x="787.604355" y="246.101268" style="fill: #1f77b4; stroke: #1f77b4"/>
     <use xlink:href="#m1912805556" x="788.108177" y="246.360449" style="fill: #1f77b4; stroke: #1f77b4"/>
     <use xlink:href="#m1912805556" x="788.601096" y="246.615268" style="fill: #1f77b4; stroke: #1f77b4"/>
     <use xlink:href="#m1912805556" x="789.083446" y="246.865806" style="fill: #1f77b4; stroke: #1f77b4"/>
     <use xlink:href="#m1912805556" x="789.555545" y="247.112137" style="fill: #1f77b4; stroke: #1f77b4"/>
     <use xlink:href="#m1912805556" x="790.017694" y="247.354334" style="fill: #1f77b4; stroke: #1f77b4"/>
     <use xlink:href="#m1912805556" x="790.470181" y="247.592463" style="fill: #1f77b4; stroke: #1f77b4"/>
     <use xlink:href="#m1912805556" x="790.913283" y="247.826591" style="fill: #1f77b4; stroke: #1f77b4"/>
     <use xlink:href="#m1912805556" x="791.347263" y="248.056779" style="fill: #1f77b4; stroke: #1f77b4"/>
     <use xlink:href="#m1912805556" x="791.772373" y="248.283087" style="fill: #1f77b4; stroke: #1f77b4"/>
     <use xlink:href="#m1912805556" x="792.188855" y="248.505572" style="fill: #1f77b4; stroke: #1f77b4"/>
     <use xlink:href="#m1912805556" x="792.596943" y="248.724291" style="fill: #1f77b4; stroke: #1f77b4"/>
     <use xlink:href="#m1912805556" x="792.99686" y="248.939297" style="fill: #1f77b4; stroke: #1f77b4"/>
     <use xlink:href="#m1912805556" x="793.388822" y="249.150644" style="fill: #1f77b4; stroke: #1f77b4"/>
     <use xlink:href="#m1912805556" x="793.773037" y="249.358382" style="fill: #1f77b4; stroke: #1f77b4"/>
     <use xlink:href="#m1912805556" x="794.149706" y="249.562563" style="fill: #1f77b4; stroke: #1f77b4"/>
     <use xlink:href="#m1912805556" x="794.519023" y="249.763236" style="fill: #1f77b4; stroke: #1f77b4"/>
     <use xlink:href="#m1912805556" x="794.881176" y="249.960451" style="fill: #1f77b4; stroke: #1f77b4"/>
     <use xlink:href="#m1912805556" x="795.236347" y="250.154256" style="fill: #1f77b4; stroke: #1f77b4"/>
     <use xlink:href="#m1912805556" x="795.584714" y="250.3447" style="fill: #1f77b4; stroke: #1f77b4"/>
     <use xlink:href="#m1912805556" x="795.926446" y="250.531831" style="fill: #1f77b4; stroke: #1f77b4"/>
     <use xlink:href="#m1912805556" x="796.261712" y="250.715696" style="fill: #1f77b4; stroke: #1f77b4"/>
     <use xlink:href="#m1912805556" x="796.590674" y="250.896346" style="fill: #1f77b4; stroke: #1f77b4"/>
     <use xlink:href="#m1912805556" x="796.913488" y="251.073826" style="fill: #1f77b4; stroke: #1f77b4"/>
     <use xlink:href="#m1912805556" x="797.23031" y="251.248186" style="fill: #1f77b4; stroke: #1f77b4"/>
     <use xlink:href="#m1912805556" x="797.541288" y="251.419475" style="fill: #1f77b4; stroke: #1f77b4"/>
     <use xlink:href="#m1912805556" x="797.84657" y="251.58774" style="fill: #1f77b4; stroke: #1f77b4"/>
     <use xlink:href="#m1912805556" x="798.146297" y="251.753031" style="fill: #1f77b4; stroke: #1f77b4"/>
     <use xlink:href="#m1912805556" x="798.440609" y="251.915398" style="fill: #1f77b4; stroke: #1f77b4"/>
     <use xlink:href="#m1912805556" x="798.729643" y="252.074889" style="fill: #1f77b4; stroke: #1f77b4"/>
     <use xlink:href="#m1912805556" x="799.013531" y="252.231555" style="fill: #1f77b4; stroke: #1f77b4"/>
     <use xlink:href="#m1912805556" x="799.292403" y="252.385446" style="fill: #1f77b4; stroke: #1f77b4"/>
     <use xlink:href="#m1912805556" x="799.566387" y="252.536612" style="fill: #1f77b4; stroke: #1f77b4"/>
     <use xlink:href="#m1912805556" x="799.835607" y="252.685105" style="fill: #1f77b4; stroke: #1f77b4"/>
     <use xlink:href="#m1912805556" x="800.100183" y="252.830976" style="fill: #1f77b4; stroke: #1f77b4"/>
     <use xlink:href="#m1912805556" x="800.360237" y="252.974275" style="fill: #1f77b4; stroke: #1f77b4"/>
     <use xlink:href="#m1912805556" x="800.615883" y="253.115055" style="fill: #1f77b4; stroke: #1f77b4"/>
     <use xlink:href="#m1912805556" x="800.867235" y="253.253368" style="fill: #1f77b4; stroke: #1f77b4"/>
     <use xlink:href="#m1912805556" x="801.114406" y="253.389265" style="fill: #1f77b4; stroke: #1f77b4"/>
     <use xlink:href="#m1912805556" x="801.357503" y="253.522798" style="fill: #1f77b4; stroke: #1f77b4"/>
    </g>
   </g>
   <g id="line2d_85">
    <path d="M 602.259033 194.182732 
L 537.996449 183.22746 
L 535.772295 180.947133 
L 534.210705 178.980008 
L 532.677955 177.241969 
L 531.108005 175.686314 
L 529.507513 174.278582 
L 527.892183 172.992407 
L 526.275897 171.807404 
L 524.669295 170.707652 
L 523.080192 169.680578 
L 521.514239 168.716124 
L 519.975483 167.806147 
L 518.466804 166.943983 
L 516.990214 166.124112 
L 515.547089 165.341919 
L 514.138325 164.59351 
L 512.764456 163.875568 
L 511.425736 163.185249 
L 510.122203 162.520093 
L 508.853721 161.877962 
L 507.620019 161.256984 
L 506.420711 160.655508 
L 505.255322 160.072078 
L 504.123301 159.505396 
L 503.024034 158.954304 
L 501.956853 158.417761 
L 500.921047 157.894832 
L 499.915868 157.384671 
L 498.94054 156.886511 
L 497.994258 156.399654 
L 497.076201 155.923462 
L 496.185531 155.457353 
L 495.321398 155.000792 
L 494.482946 154.553285 
L 493.669314 154.114382 
L 492.879637 153.68366 
L 492.113054 153.260732 
L 491.368706 152.845238 
L 490.64574 152.436841 
L 489.943309 152.03523 
L 489.260578 151.640114 
L 488.596721 151.251219 
L 487.950923 150.86829 
L 487.322385 150.49109 
L 486.710321 150.119392 
L 486.11396 149.752986 
L 485.532548 149.391673 
L 484.965346 149.035265 
L 484.411634 148.683585 
L 483.87071 148.336467 
L 483.341888 147.993751 
L 482.824502 147.655289 
L 482.317906 147.320937 
L 481.821469 146.990561 
L 481.334583 146.664033 
L 480.856657 146.341231 
L 480.387117 146.022039 
L 479.925412 145.706346 
L 479.471007 145.394047 
L 479.023387 145.085042 
L 478.582054 144.779234 
L 478.14653 144.476532 
L 477.716354 144.176848 
L 477.291085 143.880098 
L 476.870297 143.586202 
L 476.453583 143.295082 
L 476.040553 143.006665 
L 475.630835 142.72088 
L 475.224072 142.437658 
L 474.819925 142.156935 
L 474.418069 141.878647 
L 474.018197 141.602734 
L 473.620016 141.329138 
L 473.22325 141.057802 
L 472.827635 140.788673 
L 472.432924 140.521698 
L 472.038882 140.256828 
L 471.645291 139.994014 
L 471.251944 139.733209 
L 470.858647 139.474369 
L 470.46522 139.217449 
L 470.071495 138.962408 
L 469.677316 138.709204 
L 469.282538 138.457799 
L 468.88703 138.208154 
L 468.490669 137.960232 
L 468.093345 137.713998 
L 467.694956 137.469417 
L 467.295412 137.226456 
L 466.894631 136.985081 
L 466.492543 136.745262 
L 466.089083 136.506968 
L 465.684197 136.270169 
L 465.27784 136.034836 
L 464.869973 135.800941 
L 464.460565 135.568458 
L 464.049593 135.337359 
L 463.637039 135.107619 
L 463.222894 134.879213 
" clip-path="url(#p5055ee25e2)" style="fill: none; stroke: #ff7f0e; stroke-width: 1.5; stroke-linecap: square"/>
   </g>
   <g id="patch_8">
    <path d="M 446.316164 343.418906 
L 446.316164 10.778906 
" style="fill: none; stroke: #000000; stroke-width: 0.8; stroke-linejoin: miter; stroke-linecap: square"/>
   </g>
   <g id="patch_9">
    <path d="M 831.14375 343.418906 
L 831.14375 10.778906 
" style="fill: none; stroke: #000000; stroke-width: 0.8; stroke-linejoin: miter; stroke-linecap: square"/>
   </g>
   <g id="patch_10">
    <path d="M 446.316164 343.418906 
L 831.14375 343.418906 
" style="fill: none; stroke: #000000; stroke-width: 0.8; stroke-linejoin: miter; stroke-linecap: square"/>
   </g>
   <g id="patch_11">
    <path d="M 446.316164 10.778906 
L 831.14375 10.778906 
" style="fill: none; stroke: #000000; stroke-width: 0.8; stroke-linejoin: miter; stroke-linecap: square"/>
   </g>
   <g id="text_25">
    <!-- P = 250 bar -->
    <g transform="translate(771.642511 334.778606)scale(0.1 -0.1)">
     <use xlink:href="#ArialMT-50"/>
     <use xlink:href="#ArialMT-20" x="64.949219"/>
     <use xlink:href="#ArialMT-3d" x="92.732422"/>
     <use xlink:href="#ArialMT-20" x="151.130859"/>
     <use xlink:href="#ArialMT-32" x="178.914062"/>
     <use xlink:href="#ArialMT-35" x="234.529297"/>
     <use xlink:href="#ArialMT-30" x="290.144531"/>
     <use xlink:href="#ArialMT-20" x="345.759766"/>
     <use xlink:href="#ArialMT-62" x="373.542969"/>
     <use xlink:href="#ArialMT-61" x="429.158203"/>
     <use xlink:href="#ArialMT-72" x="484.773438"/>
    </g>
   </g>
  </g>
 </g>
 <defs>
  <clipPath id="p8ebd6ce564">
   <rect x="49.94375" y="10.778906" width="384.827586" height="332.64"/>
  </clipPath>
  <clipPath id="p5055ee25e2">
   <rect x="446.316164" y="10.778906" width="384.827586" height="332.64"/>
  </clipPath>
 </defs>
</svg>
