<?xml version="1.0" encoding="utf-8" standalone="no"?>
<!DOCTYPE svg PUBLIC "-//W3C//DTD SVG 1.1//EN"
  "http://www.w3.org/Graphics/SVG/1.1/DTD/svg11.dtd">
<svg xmlns:xlink="http://www.w3.org/1999/xlink" width="510.40625pt" height="487.565312pt" viewBox="0 0 510.40625 487.565312" xmlns="http://www.w3.org/2000/svg" version="1.1">
 <metadata>
  <rdf:RDF xmlns:dc="http://purl.org/dc/elements/1.1/" xmlns:cc="http://creativecommons.org/ns#" xmlns:rdf="http://www.w3.org/1999/02/22-rdf-syntax-ns#">
   <cc:Work>
    <dc:type rdf:resource="http://purl.org/dc/dcmitype/StillImage"/>
    <dc:date>2022-05-10T15:33:08.600923</dc:date>
    <dc:format>image/svg+xml</dc:format>
    <dc:creator>
     <cc:Agent>
      <dc:title>Matplotlib v3.5.2, https://matplotlib.org/</dc:title>
     </cc:Agent>
    </dc:creator>
   </cc:Work>
  </rdf:RDF>
 </metadata>
 <defs>
  <style type="text/css">*{stroke-linejoin: round; stroke-linecap: butt}</style>
 </defs>
 <g id="figure_1">
  <g id="patch_1">
   <path d="M 0 487.565312 
L 510.40625 487.565312 
L 510.40625 0 
L 0 0 
z
" style="fill: #ffffff"/>
  </g>
  <g id="axes_1">
   <g id="patch_2">
    <path d="M 45.684375 450.72 
L 492.084375 450.72 
L 492.084375 7.2 
L 45.684375 7.2 
z
" style="fill: #ffffff"/>
   </g>
   <g id="matplotlib.axis_1">
    <g id="xtick_1">
     <g id="line2d_1">
      <defs>
       <path id="m259a358631" d="M 0 0 
L 0 3.5 
" style="stroke: #000000; stroke-width: 0.8"/>
      </defs>
      <g>
       <use xlink:href="#m259a358631" x="45.684375" y="450.72" style="stroke: #000000; stroke-width: 0.8"/>
      </g>
     </g>
     <g id="text_1">
      <!-- 600 -->
      <g transform="translate(37.342969 464.877812)scale(0.1 -0.1)">
       <defs>
        <path id="ArialMT-36" d="M 3184 3459 
L 2625 3416 
Q 2550 3747 2413 3897 
Q 2184 4138 1850 4138 
Q 1581 4138 1378 3988 
Q 1113 3794 959 3422 
Q 806 3050 800 2363 
Q 1003 2672 1297 2822 
Q 1591 2972 1913 2972 
Q 2475 2972 2870 2558 
Q 3266 2144 3266 1488 
Q 3266 1056 3080 686 
Q 2894 316 2569 119 
Q 2244 -78 1831 -78 
Q 1128 -78 684 439 
Q 241 956 241 2144 
Q 241 3472 731 4075 
Q 1159 4600 1884 4600 
Q 2425 4600 2770 4297 
Q 3116 3994 3184 3459 
z
M 888 1484 
Q 888 1194 1011 928 
Q 1134 663 1356 523 
Q 1578 384 1822 384 
Q 2178 384 2434 671 
Q 2691 959 2691 1453 
Q 2691 1928 2437 2201 
Q 2184 2475 1800 2475 
Q 1419 2475 1153 2201 
Q 888 1928 888 1484 
z
" transform="scale(0.015625)"/>
        <path id="ArialMT-30" d="M 266 2259 
Q 266 3072 433 3567 
Q 600 4063 929 4331 
Q 1259 4600 1759 4600 
Q 2128 4600 2406 4451 
Q 2684 4303 2865 4023 
Q 3047 3744 3150 3342 
Q 3253 2941 3253 2259 
Q 3253 1453 3087 958 
Q 2922 463 2592 192 
Q 2263 -78 1759 -78 
Q 1097 -78 719 397 
Q 266 969 266 2259 
z
M 844 2259 
Q 844 1131 1108 757 
Q 1372 384 1759 384 
Q 2147 384 2411 759 
Q 2675 1134 2675 2259 
Q 2675 3391 2411 3762 
Q 2147 4134 1753 4134 
Q 1366 4134 1134 3806 
Q 844 3388 844 2259 
z
" transform="scale(0.015625)"/>
       </defs>
       <use xlink:href="#ArialMT-36"/>
       <use xlink:href="#ArialMT-30" x="55.615234"/>
       <use xlink:href="#ArialMT-30" x="111.230469"/>
      </g>
     </g>
    </g>
    <g id="xtick_2">
     <g id="line2d_2">
      <g>
       <use xlink:href="#m259a358631" x="101.484375" y="450.72" style="stroke: #000000; stroke-width: 0.8"/>
      </g>
     </g>
     <g id="text_2">
      <!-- 650 -->
      <g transform="translate(93.142969 464.877812)scale(0.1 -0.1)">
       <defs>
        <path id="ArialMT-35" d="M 266 1200 
L 856 1250 
Q 922 819 1161 601 
Q 1400 384 1738 384 
Q 2144 384 2425 690 
Q 2706 997 2706 1503 
Q 2706 1984 2436 2262 
Q 2166 2541 1728 2541 
Q 1456 2541 1237 2417 
Q 1019 2294 894 2097 
L 366 2166 
L 809 4519 
L 3088 4519 
L 3088 3981 
L 1259 3981 
L 1013 2750 
Q 1425 3038 1878 3038 
Q 2478 3038 2890 2622 
Q 3303 2206 3303 1553 
Q 3303 931 2941 478 
Q 2500 -78 1738 -78 
Q 1113 -78 717 272 
Q 322 622 266 1200 
z
" transform="scale(0.015625)"/>
       </defs>
       <use xlink:href="#ArialMT-36"/>
       <use xlink:href="#ArialMT-35" x="55.615234"/>
       <use xlink:href="#ArialMT-30" x="111.230469"/>
      </g>
     </g>
    </g>
    <g id="xtick_3">
     <g id="line2d_3">
      <g>
       <use xlink:href="#m259a358631" x="157.284375" y="450.72" style="stroke: #000000; stroke-width: 0.8"/>
      </g>
     </g>
     <g id="text_3">
      <!-- 700 -->
      <g transform="translate(148.942969 464.877812)scale(0.1 -0.1)">
       <defs>
        <path id="ArialMT-37" d="M 303 3981 
L 303 4522 
L 3269 4522 
L 3269 4084 
Q 2831 3619 2401 2847 
Q 1972 2075 1738 1259 
Q 1569 684 1522 0 
L 944 0 
Q 953 541 1156 1306 
Q 1359 2072 1739 2783 
Q 2119 3494 2547 3981 
L 303 3981 
z
" transform="scale(0.015625)"/>
       </defs>
       <use xlink:href="#ArialMT-37"/>
       <use xlink:href="#ArialMT-30" x="55.615234"/>
       <use xlink:href="#ArialMT-30" x="111.230469"/>
      </g>
     </g>
    </g>
    <g id="xtick_4">
     <g id="line2d_4">
      <g>
       <use xlink:href="#m259a358631" x="213.084375" y="450.72" style="stroke: #000000; stroke-width: 0.8"/>
      </g>
     </g>
     <g id="text_4">
      <!-- 750 -->
      <g transform="translate(204.742969 464.877812)scale(0.1 -0.1)">
       <use xlink:href="#ArialMT-37"/>
       <use xlink:href="#ArialMT-35" x="55.615234"/>
       <use xlink:href="#ArialMT-30" x="111.230469"/>
      </g>
     </g>
    </g>
    <g id="xtick_5">
     <g id="line2d_5">
      <g>
       <use xlink:href="#m259a358631" x="268.884375" y="450.72" style="stroke: #000000; stroke-width: 0.8"/>
      </g>
     </g>
     <g id="text_5">
      <!-- 800 -->
      <g transform="translate(260.542969 464.877812)scale(0.1 -0.1)">
       <defs>
        <path id="ArialMT-38" d="M 1131 2484 
Q 781 2613 612 2850 
Q 444 3088 444 3419 
Q 444 3919 803 4259 
Q 1163 4600 1759 4600 
Q 2359 4600 2725 4251 
Q 3091 3903 3091 3403 
Q 3091 3084 2923 2848 
Q 2756 2613 2416 2484 
Q 2838 2347 3058 2040 
Q 3278 1734 3278 1309 
Q 3278 722 2862 322 
Q 2447 -78 1769 -78 
Q 1091 -78 675 323 
Q 259 725 259 1325 
Q 259 1772 486 2073 
Q 713 2375 1131 2484 
z
M 1019 3438 
Q 1019 3113 1228 2906 
Q 1438 2700 1772 2700 
Q 2097 2700 2305 2904 
Q 2513 3109 2513 3406 
Q 2513 3716 2298 3927 
Q 2084 4138 1766 4138 
Q 1444 4138 1231 3931 
Q 1019 3725 1019 3438 
z
M 838 1322 
Q 838 1081 952 856 
Q 1066 631 1291 507 
Q 1516 384 1775 384 
Q 2178 384 2440 643 
Q 2703 903 2703 1303 
Q 2703 1709 2433 1975 
Q 2163 2241 1756 2241 
Q 1359 2241 1098 1978 
Q 838 1716 838 1322 
z
" transform="scale(0.015625)"/>
       </defs>
       <use xlink:href="#ArialMT-38"/>
       <use xlink:href="#ArialMT-30" x="55.615234"/>
       <use xlink:href="#ArialMT-30" x="111.230469"/>
      </g>
     </g>
    </g>
    <g id="xtick_6">
     <g id="line2d_6">
      <g>
       <use xlink:href="#m259a358631" x="324.684375" y="450.72" style="stroke: #000000; stroke-width: 0.8"/>
      </g>
     </g>
     <g id="text_6">
      <!-- 850 -->
      <g transform="translate(316.342969 464.877812)scale(0.1 -0.1)">
       <use xlink:href="#ArialMT-38"/>
       <use xlink:href="#ArialMT-35" x="55.615234"/>
       <use xlink:href="#ArialMT-30" x="111.230469"/>
      </g>
     </g>
    </g>
    <g id="xtick_7">
     <g id="line2d_7">
      <g>
       <use xlink:href="#m259a358631" x="380.484375" y="450.72" style="stroke: #000000; stroke-width: 0.8"/>
      </g>
     </g>
     <g id="text_7">
      <!-- 900 -->
      <g transform="translate(372.142969 464.877812)scale(0.1 -0.1)">
       <defs>
        <path id="ArialMT-39" d="M 350 1059 
L 891 1109 
Q 959 728 1153 556 
Q 1347 384 1650 384 
Q 1909 384 2104 503 
Q 2300 622 2425 820 
Q 2550 1019 2634 1356 
Q 2719 1694 2719 2044 
Q 2719 2081 2716 2156 
Q 2547 1888 2255 1720 
Q 1963 1553 1622 1553 
Q 1053 1553 659 1965 
Q 266 2378 266 3053 
Q 266 3750 677 4175 
Q 1088 4600 1706 4600 
Q 2153 4600 2523 4359 
Q 2894 4119 3086 3673 
Q 3278 3228 3278 2384 
Q 3278 1506 3087 986 
Q 2897 466 2520 194 
Q 2144 -78 1638 -78 
Q 1100 -78 759 220 
Q 419 519 350 1059 
z
M 2653 3081 
Q 2653 3566 2395 3850 
Q 2138 4134 1775 4134 
Q 1400 4134 1122 3828 
Q 844 3522 844 3034 
Q 844 2597 1108 2323 
Q 1372 2050 1759 2050 
Q 2150 2050 2401 2323 
Q 2653 2597 2653 3081 
z
" transform="scale(0.015625)"/>
       </defs>
       <use xlink:href="#ArialMT-39"/>
       <use xlink:href="#ArialMT-30" x="55.615234"/>
       <use xlink:href="#ArialMT-30" x="111.230469"/>
      </g>
     </g>
    </g>
    <g id="xtick_8">
     <g id="line2d_8">
      <g>
       <use xlink:href="#m259a358631" x="436.284375" y="450.72" style="stroke: #000000; stroke-width: 0.8"/>
      </g>
     </g>
     <g id="text_8">
      <!-- 950 -->
      <g transform="translate(427.942969 464.877812)scale(0.1 -0.1)">
       <use xlink:href="#ArialMT-39"/>
       <use xlink:href="#ArialMT-35" x="55.615234"/>
       <use xlink:href="#ArialMT-30" x="111.230469"/>
      </g>
     </g>
    </g>
    <g id="xtick_9">
     <g id="line2d_9">
      <g>
       <use xlink:href="#m259a358631" x="492.084375" y="450.72" style="stroke: #000000; stroke-width: 0.8"/>
      </g>
     </g>
     <g id="text_9">
      <!-- 1000 -->
      <g transform="translate(480.9625 464.877812)scale(0.1 -0.1)">
       <defs>
        <path id="ArialMT-31" d="M 2384 0 
L 1822 0 
L 1822 3584 
Q 1619 3391 1289 3197 
Q 959 3003 697 2906 
L 697 3450 
Q 1169 3672 1522 3987 
Q 1875 4303 2022 4600 
L 2384 4600 
L 2384 0 
z
" transform="scale(0.015625)"/>
       </defs>
       <use xlink:href="#ArialMT-31"/>
       <use xlink:href="#ArialMT-30" x="55.615234"/>
       <use xlink:href="#ArialMT-30" x="111.230469"/>
       <use xlink:href="#ArialMT-30" x="166.845703"/>
      </g>
     </g>
    </g>
    <g id="text_10">
     <!-- Temperature ($^{\circ}$C) -->
     <g transform="translate(229.634375 478.165312)scale(0.1 -0.1)">
      <defs>
       <path id="ArialMT-54" d="M 1659 0 
L 1659 4041 
L 150 4041 
L 150 4581 
L 3781 4581 
L 3781 4041 
L 2266 4041 
L 2266 0 
L 1659 0 
z
" transform="scale(0.015625)"/>
       <path id="ArialMT-65" d="M 2694 1069 
L 3275 997 
Q 3138 488 2766 206 
Q 2394 -75 1816 -75 
Q 1088 -75 661 373 
Q 234 822 234 1631 
Q 234 2469 665 2931 
Q 1097 3394 1784 3394 
Q 2450 3394 2872 2941 
Q 3294 2488 3294 1666 
Q 3294 1616 3291 1516 
L 816 1516 
Q 847 969 1125 678 
Q 1403 388 1819 388 
Q 2128 388 2347 550 
Q 2566 713 2694 1069 
z
M 847 1978 
L 2700 1978 
Q 2663 2397 2488 2606 
Q 2219 2931 1791 2931 
Q 1403 2931 1139 2672 
Q 875 2413 847 1978 
z
" transform="scale(0.015625)"/>
       <path id="ArialMT-6d" d="M 422 0 
L 422 3319 
L 925 3319 
L 925 2853 
Q 1081 3097 1340 3245 
Q 1600 3394 1931 3394 
Q 2300 3394 2536 3241 
Q 2772 3088 2869 2813 
Q 3263 3394 3894 3394 
Q 4388 3394 4653 3120 
Q 4919 2847 4919 2278 
L 4919 0 
L 4359 0 
L 4359 2091 
Q 4359 2428 4304 2576 
Q 4250 2725 4106 2815 
Q 3963 2906 3769 2906 
Q 3419 2906 3187 2673 
Q 2956 2441 2956 1928 
L 2956 0 
L 2394 0 
L 2394 2156 
Q 2394 2531 2256 2718 
Q 2119 2906 1806 2906 
Q 1569 2906 1367 2781 
Q 1166 2656 1075 2415 
Q 984 2175 984 1722 
L 984 0 
L 422 0 
z
" transform="scale(0.015625)"/>
       <path id="ArialMT-70" d="M 422 -1272 
L 422 3319 
L 934 3319 
L 934 2888 
Q 1116 3141 1344 3267 
Q 1572 3394 1897 3394 
Q 2322 3394 2647 3175 
Q 2972 2956 3137 2557 
Q 3303 2159 3303 1684 
Q 3303 1175 3120 767 
Q 2938 359 2589 142 
Q 2241 -75 1856 -75 
Q 1575 -75 1351 44 
Q 1128 163 984 344 
L 984 -1272 
L 422 -1272 
z
M 931 1641 
Q 931 1000 1190 694 
Q 1450 388 1819 388 
Q 2194 388 2461 705 
Q 2728 1022 2728 1688 
Q 2728 2322 2467 2637 
Q 2206 2953 1844 2953 
Q 1484 2953 1207 2617 
Q 931 2281 931 1641 
z
" transform="scale(0.015625)"/>
       <path id="ArialMT-72" d="M 416 0 
L 416 3319 
L 922 3319 
L 922 2816 
Q 1116 3169 1280 3281 
Q 1444 3394 1641 3394 
Q 1925 3394 2219 3213 
L 2025 2691 
Q 1819 2813 1613 2813 
Q 1428 2813 1281 2702 
Q 1134 2591 1072 2394 
Q 978 2094 978 1738 
L 978 0 
L 416 0 
z
" transform="scale(0.015625)"/>
       <path id="ArialMT-61" d="M 2588 409 
Q 2275 144 1986 34 
Q 1697 -75 1366 -75 
Q 819 -75 525 192 
Q 231 459 231 875 
Q 231 1119 342 1320 
Q 453 1522 633 1644 
Q 813 1766 1038 1828 
Q 1203 1872 1538 1913 
Q 2219 1994 2541 2106 
Q 2544 2222 2544 2253 
Q 2544 2597 2384 2738 
Q 2169 2928 1744 2928 
Q 1347 2928 1158 2789 
Q 969 2650 878 2297 
L 328 2372 
Q 403 2725 575 2942 
Q 747 3159 1072 3276 
Q 1397 3394 1825 3394 
Q 2250 3394 2515 3294 
Q 2781 3194 2906 3042 
Q 3031 2891 3081 2659 
Q 3109 2516 3109 2141 
L 3109 1391 
Q 3109 606 3145 398 
Q 3181 191 3288 0 
L 2700 0 
Q 2613 175 2588 409 
z
M 2541 1666 
Q 2234 1541 1622 1453 
Q 1275 1403 1131 1340 
Q 988 1278 909 1158 
Q 831 1038 831 891 
Q 831 666 1001 516 
Q 1172 366 1500 366 
Q 1825 366 2078 508 
Q 2331 650 2450 897 
Q 2541 1088 2541 1459 
L 2541 1666 
z
" transform="scale(0.015625)"/>
       <path id="ArialMT-74" d="M 1650 503 
L 1731 6 
Q 1494 -44 1306 -44 
Q 1000 -44 831 53 
Q 663 150 594 308 
Q 525 466 525 972 
L 525 2881 
L 113 2881 
L 113 3319 
L 525 3319 
L 525 4141 
L 1084 4478 
L 1084 3319 
L 1650 3319 
L 1650 2881 
L 1084 2881 
L 1084 941 
Q 1084 700 1114 631 
Q 1144 563 1211 522 
Q 1278 481 1403 481 
Q 1497 481 1650 503 
z
" transform="scale(0.015625)"/>
       <path id="ArialMT-75" d="M 2597 0 
L 2597 488 
Q 2209 -75 1544 -75 
Q 1250 -75 995 37 
Q 741 150 617 320 
Q 494 491 444 738 
Q 409 903 409 1263 
L 409 3319 
L 972 3319 
L 972 1478 
Q 972 1038 1006 884 
Q 1059 663 1231 536 
Q 1403 409 1656 409 
Q 1909 409 2131 539 
Q 2353 669 2445 892 
Q 2538 1116 2538 1541 
L 2538 3319 
L 3100 3319 
L 3100 0 
L 2597 0 
z
" transform="scale(0.015625)"/>
       <path id="ArialMT-20" transform="scale(0.015625)"/>
       <path id="ArialMT-28" d="M 1497 -1347 
Q 1031 -759 709 28 
Q 388 816 388 1659 
Q 388 2403 628 3084 
Q 909 3875 1497 4659 
L 1900 4659 
Q 1522 4009 1400 3731 
Q 1209 3300 1100 2831 
Q 966 2247 966 1656 
Q 966 153 1900 -1347 
L 1497 -1347 
z
" transform="scale(0.015625)"/>
       <path id="Cmsy10-b1" d="M 1600 359 
Q 1269 359 983 526 
Q 697 694 528 984 
Q 359 1275 359 1600 
Q 359 1925 528 2215 
Q 697 2506 983 2673 
Q 1269 2841 1600 2841 
Q 1931 2841 2215 2672 
Q 2500 2503 2667 2214 
Q 2834 1925 2834 1600 
Q 2834 1275 2667 986 
Q 2500 697 2215 528 
Q 1931 359 1600 359 
z
M 1600 616 
Q 2000 616 2289 908 
Q 2578 1200 2578 1600 
Q 2578 1856 2445 2086 
Q 2313 2316 2088 2450 
Q 1863 2584 1600 2584 
Q 1403 2584 1225 2507 
Q 1047 2431 906 2290 
Q 766 2150 691 1973 
Q 616 1797 616 1600 
Q 616 1200 905 908 
Q 1194 616 1600 616 
z
" transform="scale(0.015625)"/>
       <path id="ArialMT-43" d="M 3763 1606 
L 4369 1453 
Q 4178 706 3683 314 
Q 3188 -78 2472 -78 
Q 1731 -78 1267 223 
Q 803 525 561 1097 
Q 319 1669 319 2325 
Q 319 3041 592 3573 
Q 866 4106 1370 4382 
Q 1875 4659 2481 4659 
Q 3169 4659 3637 4309 
Q 4106 3959 4291 3325 
L 3694 3184 
Q 3534 3684 3231 3912 
Q 2928 4141 2469 4141 
Q 1941 4141 1586 3887 
Q 1231 3634 1087 3207 
Q 944 2781 944 2328 
Q 944 1744 1114 1308 
Q 1284 872 1643 656 
Q 2003 441 2422 441 
Q 2931 441 3284 734 
Q 3638 1028 3763 1606 
z
" transform="scale(0.015625)"/>
       <path id="ArialMT-29" d="M 791 -1347 
L 388 -1347 
Q 1322 153 1322 1656 
Q 1322 2244 1188 2822 
Q 1081 3291 891 3722 
Q 769 4003 388 4659 
L 791 4659 
Q 1378 3875 1659 3084 
Q 1900 2403 1900 1659 
Q 1900 816 1576 28 
Q 1253 -759 791 -1347 
z
" transform="scale(0.015625)"/>
      </defs>
      <use xlink:href="#ArialMT-54" transform="translate(0 0.203125)"/>
      <use xlink:href="#ArialMT-65" transform="translate(61.083984 0.203125)"/>
      <use xlink:href="#ArialMT-6d" transform="translate(116.699219 0.203125)"/>
      <use xlink:href="#ArialMT-70" transform="translate(200 0.203125)"/>
      <use xlink:href="#ArialMT-65" transform="translate(255.615234 0.203125)"/>
      <use xlink:href="#ArialMT-72" transform="translate(311.230469 0.203125)"/>
      <use xlink:href="#ArialMT-61" transform="translate(344.53125 0.203125)"/>
      <use xlink:href="#ArialMT-74" transform="translate(400.146484 0.203125)"/>
      <use xlink:href="#ArialMT-75" transform="translate(427.929688 0.203125)"/>
      <use xlink:href="#ArialMT-72" transform="translate(483.544922 0.203125)"/>
      <use xlink:href="#ArialMT-65" transform="translate(516.845703 0.203125)"/>
      <use xlink:href="#ArialMT-20" transform="translate(572.460938 0.203125)"/>
      <use xlink:href="#ArialMT-28" transform="translate(600.244141 0.203125)"/>
      <use xlink:href="#Cmsy10-b1" transform="translate(638.009063 38.467188)scale(0.7)"/>
      <use xlink:href="#ArialMT-43" transform="translate(679.386406 0.203125)"/>
      <use xlink:href="#ArialMT-29" transform="translate(751.603203 0.203125)"/>
     </g>
    </g>
   </g>
   <g id="matplotlib.axis_2">
    <g id="ytick_1">
     <g id="line2d_10">
      <defs>
       <path id="m61aef8e5e2" d="M 0 0 
L -3.5 0 
" style="stroke: #000000; stroke-width: 0.8"/>
      </defs>
      <g>
       <use xlink:href="#m61aef8e5e2" x="45.684375" y="450.72" style="stroke: #000000; stroke-width: 0.8"/>
      </g>
     </g>
     <g id="text_11">
      <!-- $\mathdefault{10^{-5}}$ -->
      <g transform="translate(20.584375 455.82625)scale(0.1 -0.1)">
       <defs>
        <path id="ArialMT-2d" d="M 203 1375 
L 203 1941 
L 1931 1941 
L 1931 1375 
L 203 1375 
z
" transform="scale(0.015625)"/>
       </defs>
       <use xlink:href="#ArialMT-31" transform="translate(0 0.879688)"/>
       <use xlink:href="#ArialMT-30" transform="translate(55.615234 0.879688)"/>
       <use xlink:href="#ArialMT-2d" transform="translate(112.972813 70.573438)scale(0.7)"/>
       <use xlink:href="#ArialMT-35" transform="translate(136.283359 70.573438)scale(0.7)"/>
      </g>
     </g>
    </g>
    <g id="ytick_2">
     <g id="line2d_11">
      <g>
       <use xlink:href="#m61aef8e5e2" x="45.684375" y="348.749307" style="stroke: #000000; stroke-width: 0.8"/>
      </g>
     </g>
     <g id="text_12">
      <!-- $\mathdefault{10^{-3}}$ -->
      <g transform="translate(20.584375 353.905557)scale(0.1 -0.1)">
       <defs>
        <path id="ArialMT-33" d="M 269 1209 
L 831 1284 
Q 928 806 1161 595 
Q 1394 384 1728 384 
Q 2125 384 2398 659 
Q 2672 934 2672 1341 
Q 2672 1728 2419 1979 
Q 2166 2231 1775 2231 
Q 1616 2231 1378 2169 
L 1441 2663 
Q 1497 2656 1531 2656 
Q 1891 2656 2178 2843 
Q 2466 3031 2466 3422 
Q 2466 3731 2256 3934 
Q 2047 4138 1716 4138 
Q 1388 4138 1169 3931 
Q 950 3725 888 3313 
L 325 3413 
Q 428 3978 793 4289 
Q 1159 4600 1703 4600 
Q 2078 4600 2393 4439 
Q 2709 4278 2876 4000 
Q 3044 3722 3044 3409 
Q 3044 3113 2884 2869 
Q 2725 2625 2413 2481 
Q 2819 2388 3044 2092 
Q 3269 1797 3269 1353 
Q 3269 753 2831 336 
Q 2394 -81 1725 -81 
Q 1122 -81 723 278 
Q 325 638 269 1209 
z
" transform="scale(0.015625)"/>
       </defs>
       <use xlink:href="#ArialMT-31" transform="translate(0 0.99375)"/>
       <use xlink:href="#ArialMT-30" transform="translate(55.615234 0.99375)"/>
       <use xlink:href="#ArialMT-2d" transform="translate(112.972813 70.6875)scale(0.7)"/>
       <use xlink:href="#ArialMT-33" transform="translate(136.283359 70.6875)scale(0.7)"/>
      </g>
     </g>
    </g>
    <g id="ytick_3">
     <g id="line2d_12">
      <g>
       <use xlink:href="#m61aef8e5e2" x="45.684375" y="246.778614" style="stroke: #000000; stroke-width: 0.8"/>
      </g>
     </g>
     <g id="text_13">
      <!-- $\mathdefault{10^{-1}}$ -->
      <g transform="translate(20.584375 251.934864)scale(0.1 -0.1)">
       <use xlink:href="#ArialMT-31" transform="translate(0 0.99375)"/>
       <use xlink:href="#ArialMT-30" transform="translate(55.615234 0.99375)"/>
       <use xlink:href="#ArialMT-2d" transform="translate(112.972813 70.6875)scale(0.7)"/>
       <use xlink:href="#ArialMT-31" transform="translate(136.283359 70.6875)scale(0.7)"/>
      </g>
     </g>
    </g>
    <g id="ytick_4">
     <g id="line2d_13">
      <g>
       <use xlink:href="#m61aef8e5e2" x="45.684375" y="144.807921" style="stroke: #000000; stroke-width: 0.8"/>
      </g>
     </g>
     <g id="text_14">
      <!-- $\mathdefault{10^{1}}$ -->
      <g transform="translate(22.984375 149.964171)scale(0.1 -0.1)">
       <use xlink:href="#ArialMT-31" transform="translate(0 0.99375)"/>
       <use xlink:href="#ArialMT-30" transform="translate(55.615234 0.99375)"/>
       <use xlink:href="#ArialMT-31" transform="translate(112.972813 70.6875)scale(0.7)"/>
      </g>
     </g>
    </g>
    <g id="ytick_5">
     <g id="line2d_14">
      <g>
       <use xlink:href="#m61aef8e5e2" x="45.684375" y="42.837228" style="stroke: #000000; stroke-width: 0.8"/>
      </g>
     </g>
     <g id="text_15">
      <!-- $\mathdefault{10^{3}}$ -->
      <g transform="translate(22.984375 47.993478)scale(0.1 -0.1)">
       <use xlink:href="#ArialMT-31" transform="translate(0 0.99375)"/>
       <use xlink:href="#ArialMT-30" transform="translate(55.615234 0.99375)"/>
       <use xlink:href="#ArialMT-33" transform="translate(112.972813 70.6875)scale(0.7)"/>
      </g>
     </g>
    </g>
    <g id="text_16">
     <!-- P (bar) -->
     <g transform="translate(14.479687 244.152187)rotate(-90)scale(0.1 -0.1)">
      <defs>
       <path id="ArialMT-50" d="M 494 0 
L 494 4581 
L 2222 4581 
Q 2678 4581 2919 4538 
Q 3256 4481 3484 4323 
Q 3713 4166 3852 3881 
Q 3991 3597 3991 3256 
Q 3991 2672 3619 2267 
Q 3247 1863 2275 1863 
L 1100 1863 
L 1100 0 
L 494 0 
z
M 1100 2403 
L 2284 2403 
Q 2872 2403 3119 2622 
Q 3366 2841 3366 3238 
Q 3366 3525 3220 3729 
Q 3075 3934 2838 4000 
Q 2684 4041 2272 4041 
L 1100 4041 
L 1100 2403 
z
" transform="scale(0.015625)"/>
       <path id="ArialMT-62" d="M 941 0 
L 419 0 
L 419 4581 
L 981 4581 
L 981 2947 
Q 1338 3394 1891 3394 
Q 2197 3394 2470 3270 
Q 2744 3147 2920 2923 
Q 3097 2700 3197 2384 
Q 3297 2069 3297 1709 
Q 3297 856 2875 390 
Q 2453 -75 1863 -75 
Q 1275 -75 941 416 
L 941 0 
z
M 934 1684 
Q 934 1088 1097 822 
Q 1363 388 1816 388 
Q 2184 388 2453 708 
Q 2722 1028 2722 1663 
Q 2722 2313 2464 2622 
Q 2206 2931 1841 2931 
Q 1472 2931 1203 2611 
Q 934 2291 934 1684 
z
" transform="scale(0.015625)"/>
      </defs>
      <use xlink:href="#ArialMT-50"/>
      <use xlink:href="#ArialMT-20" x="64.949219"/>
      <use xlink:href="#ArialMT-28" x="92.732422"/>
      <use xlink:href="#ArialMT-62" x="126.033203"/>
      <use xlink:href="#ArialMT-61" x="181.648438"/>
      <use xlink:href="#ArialMT-72" x="237.263672"/>
      <use xlink:href="#ArialMT-29" x="270.564453"/>
     </g>
    </g>
   </g>
   <g id="line2d_15">
    <path d="M 269.665575 364.097426 
L 274.464375 81.569988 
L 280.044375 64.489192 
L 285.624375 54.962433 
L 291.204375 48.323061 
L 296.784375 43.222033 
L 302.364375 39.078897 
L 307.944375 35.59015 
L 313.524375 32.576997 
L 319.104375 29.92519 
L 324.684375 27.557268 
L 330.264375 25.418285 
L 335.844375 23.467848 
L 341.424375 21.675393 
L 347.004375 20.017235 
L 352.584375 18.474644 
L 358.164375 17.032555 
L 363.744375 15.678671 
L 369.324375 14.40282 
L 374.904375 13.196495 
L 380.484375 12.052508 
L 386.064375 10.964733 
L 391.644375 9.927903 
L 397.224375 8.937458 
L 402.804375 7.989426 
" clip-path="url(#p1321e8768e)" style="fill: none; stroke: #1f77b4; stroke-width: 4; stroke-linecap: square"/>
   </g>
   <g id="line2d_16">
    <defs>
     <path id="m0c81adc34d" d="M 0 1.5 
C 0.397805 1.5 0.77937 1.341951 1.06066 1.06066 
C 1.341951 0.77937 1.5 0.397805 1.5 0 
C 1.5 -0.397805 1.341951 -0.77937 1.06066 -1.06066 
C 0.77937 -1.341951 0.397805 -1.5 0 -1.5 
C -0.397805 -1.5 -0.77937 -1.341951 -1.06066 -1.06066 
C -1.341951 -0.77937 -1.5 -0.397805 -1.5 0 
C -1.5 0.397805 -1.341951 0.77937 -1.06066 1.06066 
C -0.77937 1.341951 -0.397805 1.5 0 1.5 
z
" style="stroke: #ffffff; stroke-width: 0.5"/>
    </defs>
    <g clip-path="url(#p1321e8768e)">
     <use xlink:href="#m0c81adc34d" x="269.665575" y="364.097426" style="fill: #ff0000; stroke: #ffffff; stroke-width: 0.5"/>
     <use xlink:href="#m0c81adc34d" x="274.464375" y="81.570053" style="fill: #ff0000; stroke: #ffffff; stroke-width: 0.5"/>
     <use xlink:href="#m0c81adc34d" x="280.044375" y="64.489239" style="fill: #ff0000; stroke: #ffffff; stroke-width: 0.5"/>
     <use xlink:href="#m0c81adc34d" x="285.624375" y="54.962437" style="fill: #ff0000; stroke: #ffffff; stroke-width: 0.5"/>
     <use xlink:href="#m0c81adc34d" x="291.204375" y="48.323072" style="fill: #ff0000; stroke: #ffffff; stroke-width: 0.5"/>
     <use xlink:href="#m0c81adc34d" x="296.784375" y="43.222048" style="fill: #ff0000; stroke: #ffffff; stroke-width: 0.5"/>
     <use xlink:href="#m0c81adc34d" x="302.364375" y="39.078859" style="fill: #ff0000; stroke: #ffffff; stroke-width: 0.5"/>
     <use xlink:href="#m0c81adc34d" x="307.944375" y="35.590218" style="fill: #ff0000; stroke: #ffffff; stroke-width: 0.5"/>
     <use xlink:href="#m0c81adc34d" x="313.524375" y="32.577004" style="fill: #ff0000; stroke: #ffffff; stroke-width: 0.5"/>
     <use xlink:href="#m0c81adc34d" x="319.104375" y="29.925151" style="fill: #ff0000; stroke: #ffffff; stroke-width: 0.5"/>
     <use xlink:href="#m0c81adc34d" x="324.684375" y="27.557303" style="fill: #ff0000; stroke: #ffffff; stroke-width: 0.5"/>
     <use xlink:href="#m0c81adc34d" x="330.264375" y="25.418279" style="fill: #ff0000; stroke: #ffffff; stroke-width: 0.5"/>
     <use xlink:href="#m0c81adc34d" x="335.844375" y="23.467808" style="fill: #ff0000; stroke: #ffffff; stroke-width: 0.5"/>
     <use xlink:href="#m0c81adc34d" x="341.424375" y="21.67541" style="fill: #ff0000; stroke: #ffffff; stroke-width: 0.5"/>
     <use xlink:href="#m0c81adc34d" x="347.004375" y="20.017221" style="fill: #ff0000; stroke: #ffffff; stroke-width: 0.5"/>
     <use xlink:href="#m0c81adc34d" x="352.584375" y="18.474677" style="fill: #ff0000; stroke: #ffffff; stroke-width: 0.5"/>
     <use xlink:href="#m0c81adc34d" x="358.164375" y="17.032561" style="fill: #ff0000; stroke: #ffffff; stroke-width: 0.5"/>
     <use xlink:href="#m0c81adc34d" x="363.744375" y="15.678653" style="fill: #ff0000; stroke: #ffffff; stroke-width: 0.5"/>
     <use xlink:href="#m0c81adc34d" x="369.324375" y="14.402841" style="fill: #ff0000; stroke: #ffffff; stroke-width: 0.5"/>
     <use xlink:href="#m0c81adc34d" x="374.904375" y="13.196493" style="fill: #ff0000; stroke: #ffffff; stroke-width: 0.5"/>
     <use xlink:href="#m0c81adc34d" x="380.484375" y="12.052486" style="fill: #ff0000; stroke: #ffffff; stroke-width: 0.5"/>
     <use xlink:href="#m0c81adc34d" x="386.064375" y="10.964745" style="fill: #ff0000; stroke: #ffffff; stroke-width: 0.5"/>
     <use xlink:href="#m0c81adc34d" x="391.644375" y="9.927896" style="fill: #ff0000; stroke: #ffffff; stroke-width: 0.5"/>
     <use xlink:href="#m0c81adc34d" x="397.224375" y="8.937481" style="fill: #ff0000; stroke: #ffffff; stroke-width: 0.5"/>
     <use xlink:href="#m0c81adc34d" x="402.804375" y="7.989431" style="fill: #ff0000; stroke: #ffffff; stroke-width: 0.5"/>
    </g>
   </g>
   <g id="line2d_17">
    <path d="M 269.665575 364.097426 
L 274.464375 362.313999 
L 280.044375 360.258053 
L 285.624375 358.221 
L 291.204375 356.202582 
L 296.784375 354.202544 
L 302.364375 352.220637 
L 307.944375 350.256614 
L 313.524375 348.310236 
L 319.104375 346.381264 
L 324.684375 344.469467 
L 330.264375 342.574616 
L 335.844375 340.696488 
L 341.424375 338.834861 
L 347.004375 336.989519 
L 352.584375 335.160249 
L 358.164375 333.346842 
L 363.744375 331.549094 
L 369.324375 329.766801 
L 374.904375 327.999765 
L 380.484375 326.247792 
L 386.064375 324.51069 
L 391.644375 322.788269 
L 397.224375 321.080345 
L 402.804375 319.386736 
L 408.384375 317.707261 
L 413.964375 316.041746 
L 419.544375 314.390016 
L 425.124375 312.751902 
L 430.704375 311.127235 
L 436.284375 309.515851 
L 441.864375 307.917587 
L 447.444375 306.332284 
L 453.024375 304.759785 
L 458.604375 303.199935 
L 464.184375 301.652582 
L 469.764375 300.117578 
L 475.344375 298.594773 
L 480.924375 297.084024 
L 486.504375 295.585189 
L 492.084375 294.098125 
" clip-path="url(#p1321e8768e)" style="fill: none; stroke: #2ca02c; stroke-width: 4; stroke-linecap: square"/>
   </g>
   <g id="line2d_18">
    <g clip-path="url(#p1321e8768e)">
     <use xlink:href="#m0c81adc34d" x="269.665575" y="364.097426" style="fill: #ff0000; stroke: #ffffff; stroke-width: 0.5"/>
     <use xlink:href="#m0c81adc34d" x="274.464375" y="362.313999" style="fill: #ff0000; stroke: #ffffff; stroke-width: 0.5"/>
     <use xlink:href="#m0c81adc34d" x="280.044375" y="360.258052" style="fill: #ff0000; stroke: #ffffff; stroke-width: 0.5"/>
     <use xlink:href="#m0c81adc34d" x="285.624375" y="358.221" style="fill: #ff0000; stroke: #ffffff; stroke-width: 0.5"/>
     <use xlink:href="#m0c81adc34d" x="291.204375" y="356.202582" style="fill: #ff0000; stroke: #ffffff; stroke-width: 0.5"/>
     <use xlink:href="#m0c81adc34d" x="296.784375" y="354.202544" style="fill: #ff0000; stroke: #ffffff; stroke-width: 0.5"/>
     <use xlink:href="#m0c81adc34d" x="302.364375" y="352.220636" style="fill: #ff0000; stroke: #ffffff; stroke-width: 0.5"/>
     <use xlink:href="#m0c81adc34d" x="307.944375" y="350.256614" style="fill: #ff0000; stroke: #ffffff; stroke-width: 0.5"/>
     <use xlink:href="#m0c81adc34d" x="313.524375" y="348.310238" style="fill: #ff0000; stroke: #ffffff; stroke-width: 0.5"/>
     <use xlink:href="#m0c81adc34d" x="319.104375" y="346.381262" style="fill: #ff0000; stroke: #ffffff; stroke-width: 0.5"/>
     <use xlink:href="#m0c81adc34d" x="324.684375" y="344.469473" style="fill: #ff0000; stroke: #ffffff; stroke-width: 0.5"/>
     <use xlink:href="#m0c81adc34d" x="330.264375" y="342.574611" style="fill: #ff0000; stroke: #ffffff; stroke-width: 0.5"/>
     <use xlink:href="#m0c81adc34d" x="335.844375" y="340.696494" style="fill: #ff0000; stroke: #ffffff; stroke-width: 0.5"/>
     <use xlink:href="#m0c81adc34d" x="341.424375" y="338.834855" style="fill: #ff0000; stroke: #ffffff; stroke-width: 0.5"/>
     <use xlink:href="#m0c81adc34d" x="347.004375" y="336.989514" style="fill: #ff0000; stroke: #ffffff; stroke-width: 0.5"/>
     <use xlink:href="#m0c81adc34d" x="352.584375" y="335.160247" style="fill: #ff0000; stroke: #ffffff; stroke-width: 0.5"/>
     <use xlink:href="#m0c81adc34d" x="358.164375" y="333.34684" style="fill: #ff0000; stroke: #ffffff; stroke-width: 0.5"/>
     <use xlink:href="#m0c81adc34d" x="363.744375" y="331.549094" style="fill: #ff0000; stroke: #ffffff; stroke-width: 0.5"/>
     <use xlink:href="#m0c81adc34d" x="369.324375" y="329.766802" style="fill: #ff0000; stroke: #ffffff; stroke-width: 0.5"/>
     <use xlink:href="#m0c81adc34d" x="374.904375" y="327.999766" style="fill: #ff0000; stroke: #ffffff; stroke-width: 0.5"/>
     <use xlink:href="#m0c81adc34d" x="380.484375" y="326.247794" style="fill: #ff0000; stroke: #ffffff; stroke-width: 0.5"/>
     <use xlink:href="#m0c81adc34d" x="386.064375" y="324.510692" style="fill: #ff0000; stroke: #ffffff; stroke-width: 0.5"/>
     <use xlink:href="#m0c81adc34d" x="391.644375" y="322.788269" style="fill: #ff0000; stroke: #ffffff; stroke-width: 0.5"/>
     <use xlink:href="#m0c81adc34d" x="397.224375" y="321.080348" style="fill: #ff0000; stroke: #ffffff; stroke-width: 0.5"/>
     <use xlink:href="#m0c81adc34d" x="402.804375" y="319.386738" style="fill: #ff0000; stroke: #ffffff; stroke-width: 0.5"/>
     <use xlink:href="#m0c81adc34d" x="408.384375" y="317.707259" style="fill: #ff0000; stroke: #ffffff; stroke-width: 0.5"/>
     <use xlink:href="#m0c81adc34d" x="413.964375" y="316.041748" style="fill: #ff0000; stroke: #ffffff; stroke-width: 0.5"/>
     <use xlink:href="#m0c81adc34d" x="419.544375" y="314.390017" style="fill: #ff0000; stroke: #ffffff; stroke-width: 0.5"/>
     <use xlink:href="#m0c81adc34d" x="425.124375" y="312.751903" style="fill: #ff0000; stroke: #ffffff; stroke-width: 0.5"/>
     <use xlink:href="#m0c81adc34d" x="430.704375" y="311.127237" style="fill: #ff0000; stroke: #ffffff; stroke-width: 0.5"/>
     <use xlink:href="#m0c81adc34d" x="436.284375" y="309.51585" style="fill: #ff0000; stroke: #ffffff; stroke-width: 0.5"/>
     <use xlink:href="#m0c81adc34d" x="441.864375" y="307.917586" style="fill: #ff0000; stroke: #ffffff; stroke-width: 0.5"/>
     <use xlink:href="#m0c81adc34d" x="447.444375" y="306.332284" style="fill: #ff0000; stroke: #ffffff; stroke-width: 0.5"/>
     <use xlink:href="#m0c81adc34d" x="453.024375" y="304.759784" style="fill: #ff0000; stroke: #ffffff; stroke-width: 0.5"/>
     <use xlink:href="#m0c81adc34d" x="458.604375" y="303.199934" style="fill: #ff0000; stroke: #ffffff; stroke-width: 0.5"/>
     <use xlink:href="#m0c81adc34d" x="464.184375" y="301.652583" style="fill: #ff0000; stroke: #ffffff; stroke-width: 0.5"/>
     <use xlink:href="#m0c81adc34d" x="469.764375" y="300.117578" style="fill: #ff0000; stroke: #ffffff; stroke-width: 0.5"/>
     <use xlink:href="#m0c81adc34d" x="475.344375" y="298.594772" style="fill: #ff0000; stroke: #ffffff; stroke-width: 0.5"/>
     <use xlink:href="#m0c81adc34d" x="480.924375" y="297.084033" style="fill: #ff0000; stroke: #ffffff; stroke-width: 0.5"/>
     <use xlink:href="#m0c81adc34d" x="486.504375" y="295.585185" style="fill: #ff0000; stroke: #ffffff; stroke-width: 0.5"/>
     <use xlink:href="#m0c81adc34d" x="492.084375" y="294.098131" style="fill: #ff0000; stroke: #ffffff; stroke-width: 0.5"/>
    </g>
   </g>
   <g id="line2d_19">
    <path d="M 51.913769 488.565312 
L 68.004375 477.504974 
L 84.744375 466.373284 
L 101.484375 455.603345 
L 118.224375 445.177806 
L 134.964375 435.080406 
L 151.704375 425.295893 
L 168.444375 415.809947 
L 185.184375 406.609107 
L 201.924375 397.680709 
L 218.664375 389.012829 
L 235.404375 380.59423 
L 252.144375 372.414309 
L 269.665575 364.097426 
L 269.665575 364.097426 
" clip-path="url(#p1321e8768e)" style="fill: none; stroke: #9467bd; stroke-width: 4; stroke-linecap: square"/>
   </g>
   <g id="line2d_20">
    <g clip-path="url(#p1321e8768e)">
     <use xlink:href="#m0c81adc34d" x="-1" y="527.63817" style="fill: #ff0000; stroke: #ffffff; stroke-width: 0.5"/>
     <use xlink:href="#m0c81adc34d" x="1.044375" y="526.040026" style="fill: #ff0000; stroke: #ffffff; stroke-width: 0.5"/>
     <use xlink:href="#m0c81adc34d" x="6.624375" y="521.73003" style="fill: #ff0000; stroke: #ffffff; stroke-width: 0.5"/>
     <use xlink:href="#m0c81adc34d" x="12.204375" y="517.471151" style="fill: #ff0000; stroke: #ffffff; stroke-width: 0.5"/>
     <use xlink:href="#m0c81adc34d" x="17.784375" y="513.262484" style="fill: #ff0000; stroke: #ffffff; stroke-width: 0.5"/>
     <use xlink:href="#m0c81adc34d" x="23.364375" y="509.103151" style="fill: #ff0000; stroke: #ffffff; stroke-width: 0.5"/>
     <use xlink:href="#m0c81adc34d" x="28.944375" y="504.992285" style="fill: #ff0000; stroke: #ffffff; stroke-width: 0.5"/>
     <use xlink:href="#m0c81adc34d" x="34.524375" y="500.929043" style="fill: #ff0000; stroke: #ffffff; stroke-width: 0.5"/>
     <use xlink:href="#m0c81adc34d" x="40.104375" y="496.912605" style="fill: #ff0000; stroke: #ffffff; stroke-width: 0.5"/>
     <use xlink:href="#m0c81adc34d" x="45.684375" y="492.942181" style="fill: #ff0000; stroke: #ffffff; stroke-width: 0.5"/>
     <use xlink:href="#m0c81adc34d" x="51.264375" y="489.016954" style="fill: #ff0000; stroke: #ffffff; stroke-width: 0.5"/>
     <use xlink:href="#m0c81adc34d" x="56.844375" y="485.136178" style="fill: #ff0000; stroke: #ffffff; stroke-width: 0.5"/>
     <use xlink:href="#m0c81adc34d" x="62.424375" y="481.299094" style="fill: #ff0000; stroke: #ffffff; stroke-width: 0.5"/>
     <use xlink:href="#m0c81adc34d" x="68.004375" y="477.504971" style="fill: #ff0000; stroke: #ffffff; stroke-width: 0.5"/>
     <use xlink:href="#m0c81adc34d" x="73.584375" y="473.753096" style="fill: #ff0000; stroke: #ffffff; stroke-width: 0.5"/>
     <use xlink:href="#m0c81adc34d" x="79.164375" y="470.042761" style="fill: #ff0000; stroke: #ffffff; stroke-width: 0.5"/>
     <use xlink:href="#m0c81adc34d" x="84.744375" y="466.373283" style="fill: #ff0000; stroke: #ffffff; stroke-width: 0.5"/>
     <use xlink:href="#m0c81adc34d" x="90.324375" y="462.743988" style="fill: #ff0000; stroke: #ffffff; stroke-width: 0.5"/>
     <use xlink:href="#m0c81adc34d" x="95.904375" y="459.154225" style="fill: #ff0000; stroke: #ffffff; stroke-width: 0.5"/>
     <use xlink:href="#m0c81adc34d" x="101.484375" y="455.603345" style="fill: #ff0000; stroke: #ffffff; stroke-width: 0.5"/>
     <use xlink:href="#m0c81adc34d" x="107.064375" y="452.090724" style="fill: #ff0000; stroke: #ffffff; stroke-width: 0.5"/>
     <use xlink:href="#m0c81adc34d" x="112.644375" y="448.61574" style="fill: #ff0000; stroke: #ffffff; stroke-width: 0.5"/>
     <use xlink:href="#m0c81adc34d" x="118.224375" y="445.177809" style="fill: #ff0000; stroke: #ffffff; stroke-width: 0.5"/>
     <use xlink:href="#m0c81adc34d" x="123.804375" y="441.776318" style="fill: #ff0000; stroke: #ffffff; stroke-width: 0.5"/>
     <use xlink:href="#m0c81adc34d" x="129.384375" y="438.410713" style="fill: #ff0000; stroke: #ffffff; stroke-width: 0.5"/>
     <use xlink:href="#m0c81adc34d" x="134.964375" y="435.080407" style="fill: #ff0000; stroke: #ffffff; stroke-width: 0.5"/>
     <use xlink:href="#m0c81adc34d" x="140.544375" y="431.784861" style="fill: #ff0000; stroke: #ffffff; stroke-width: 0.5"/>
     <use xlink:href="#m0c81adc34d" x="146.124375" y="428.523533" style="fill: #ff0000; stroke: #ffffff; stroke-width: 0.5"/>
     <use xlink:href="#m0c81adc34d" x="151.704375" y="425.29589" style="fill: #ff0000; stroke: #ffffff; stroke-width: 0.5"/>
     <use xlink:href="#m0c81adc34d" x="157.284375" y="422.101421" style="fill: #ff0000; stroke: #ffffff; stroke-width: 0.5"/>
     <use xlink:href="#m0c81adc34d" x="162.864375" y="418.939602" style="fill: #ff0000; stroke: #ffffff; stroke-width: 0.5"/>
     <use xlink:href="#m0c81adc34d" x="168.444375" y="415.809946" style="fill: #ff0000; stroke: #ffffff; stroke-width: 0.5"/>
     <use xlink:href="#m0c81adc34d" x="174.024375" y="412.711961" style="fill: #ff0000; stroke: #ffffff; stroke-width: 0.5"/>
     <use xlink:href="#m0c81adc34d" x="179.604375" y="409.645172" style="fill: #ff0000; stroke: #ffffff; stroke-width: 0.5"/>
     <use xlink:href="#m0c81adc34d" x="185.184375" y="406.609106" style="fill: #ff0000; stroke: #ffffff; stroke-width: 0.5"/>
     <use xlink:href="#m0c81adc34d" x="190.764375" y="403.603307" style="fill: #ff0000; stroke: #ffffff; stroke-width: 0.5"/>
     <use xlink:href="#m0c81adc34d" x="196.344375" y="400.627322" style="fill: #ff0000; stroke: #ffffff; stroke-width: 0.5"/>
     <use xlink:href="#m0c81adc34d" x="201.924375" y="397.680708" style="fill: #ff0000; stroke: #ffffff; stroke-width: 0.5"/>
     <use xlink:href="#m0c81adc34d" x="207.504375" y="394.763039" style="fill: #ff0000; stroke: #ffffff; stroke-width: 0.5"/>
     <use xlink:href="#m0c81adc34d" x="213.084375" y="391.873882" style="fill: #ff0000; stroke: #ffffff; stroke-width: 0.5"/>
     <use xlink:href="#m0c81adc34d" x="218.664375" y="389.012828" style="fill: #ff0000; stroke: #ffffff; stroke-width: 0.5"/>
     <use xlink:href="#m0c81adc34d" x="224.244375" y="386.17947" style="fill: #ff0000; stroke: #ffffff; stroke-width: 0.5"/>
     <use xlink:href="#m0c81adc34d" x="229.824375" y="383.373396" style="fill: #ff0000; stroke: #ffffff; stroke-width: 0.5"/>
     <use xlink:href="#m0c81adc34d" x="235.404375" y="380.59423" style="fill: #ff0000; stroke: #ffffff; stroke-width: 0.5"/>
     <use xlink:href="#m0c81adc34d" x="240.984375" y="377.841578" style="fill: #ff0000; stroke: #ffffff; stroke-width: 0.5"/>
     <use xlink:href="#m0c81adc34d" x="246.564375" y="375.11506" style="fill: #ff0000; stroke: #ffffff; stroke-width: 0.5"/>
     <use xlink:href="#m0c81adc34d" x="252.144375" y="372.414311" style="fill: #ff0000; stroke: #ffffff; stroke-width: 0.5"/>
     <use xlink:href="#m0c81adc34d" x="257.724375" y="369.738965" style="fill: #ff0000; stroke: #ffffff; stroke-width: 0.5"/>
     <use xlink:href="#m0c81adc34d" x="263.304375" y="367.088664" style="fill: #ff0000; stroke: #ffffff; stroke-width: 0.5"/>
     <use xlink:href="#m0c81adc34d" x="268.884375" y="364.463058" style="fill: #ff0000; stroke: #ffffff; stroke-width: 0.5"/>
     <use xlink:href="#m0c81adc34d" x="269.665575" y="364.097426" style="fill: #ff0000; stroke: #ffffff; stroke-width: 0.5"/>
    </g>
   </g>
   <g id="patch_3">
    <path d="M 45.684375 450.72 
L 45.684375 7.2 
" style="fill: none; stroke: #000000; stroke-width: 0.8; stroke-linejoin: miter; stroke-linecap: square"/>
   </g>
   <g id="patch_4">
    <path d="M 492.084375 450.72 
L 492.084375 7.2 
" style="fill: none; stroke: #000000; stroke-width: 0.8; stroke-linejoin: miter; stroke-linecap: square"/>
   </g>
   <g id="patch_5">
    <path d="M 45.684375 450.72 
L 492.084375 450.72 
" style="fill: none; stroke: #000000; stroke-width: 0.8; stroke-linejoin: miter; stroke-linecap: square"/>
   </g>
   <g id="patch_6">
    <path d="M 45.684375 7.2 
L 492.084375 7.2 
" style="fill: none; stroke: #000000; stroke-width: 0.8; stroke-linejoin: miter; stroke-linecap: square"/>
   </g>
   <g id="legend_1">
    <g id="patch_7">
     <path d="M 400.835937 57.870312 
L 485.084375 57.870312 
Q 487.084375 57.870312 487.084375 55.870312 
L 487.084375 14.2 
Q 487.084375 12.2 485.084375 12.2 
L 400.835937 12.2 
Q 398.835937 12.2 398.835937 14.2 
L 398.835937 55.870312 
Q 398.835937 57.870312 400.835937 57.870312 
z
" style="fill: #ffffff; opacity: 0.8; stroke: #cccccc; stroke-linejoin: miter"/>
    </g>
    <g id="line2d_21">
     <path d="M 402.835937 19.857812 
L 412.835937 19.857812 
L 422.835937 19.857812 
" style="fill: none; stroke: #1f77b4; stroke-width: 4; stroke-linecap: square"/>
    </g>
    <g id="text_17">
     <!-- Melting -->
     <g transform="translate(430.835937 23.357812)scale(0.1 -0.1)">
      <defs>
       <path id="ArialMT-4d" d="M 475 0 
L 475 4581 
L 1388 4581 
L 2472 1338 
Q 2622 884 2691 659 
Q 2769 909 2934 1394 
L 4031 4581 
L 4847 4581 
L 4847 0 
L 4263 0 
L 4263 3834 
L 2931 0 
L 2384 0 
L 1059 3900 
L 1059 0 
L 475 0 
z
" transform="scale(0.015625)"/>
       <path id="ArialMT-6c" d="M 409 0 
L 409 4581 
L 972 4581 
L 972 0 
L 409 0 
z
" transform="scale(0.015625)"/>
       <path id="ArialMT-69" d="M 425 3934 
L 425 4581 
L 988 4581 
L 988 3934 
L 425 3934 
z
M 425 0 
L 425 3319 
L 988 3319 
L 988 0 
L 425 0 
z
" transform="scale(0.015625)"/>
       <path id="ArialMT-6e" d="M 422 0 
L 422 3319 
L 928 3319 
L 928 2847 
Q 1294 3394 1984 3394 
Q 2284 3394 2536 3286 
Q 2788 3178 2913 3003 
Q 3038 2828 3088 2588 
Q 3119 2431 3119 2041 
L 3119 0 
L 2556 0 
L 2556 2019 
Q 2556 2363 2490 2533 
Q 2425 2703 2258 2804 
Q 2091 2906 1866 2906 
Q 1506 2906 1245 2678 
Q 984 2450 984 1813 
L 984 0 
L 422 0 
z
" transform="scale(0.015625)"/>
       <path id="ArialMT-67" d="M 319 -275 
L 866 -356 
Q 900 -609 1056 -725 
Q 1266 -881 1628 -881 
Q 2019 -881 2231 -725 
Q 2444 -569 2519 -288 
Q 2563 -116 2559 434 
Q 2191 0 1641 0 
Q 956 0 581 494 
Q 206 988 206 1678 
Q 206 2153 378 2554 
Q 550 2956 876 3175 
Q 1203 3394 1644 3394 
Q 2231 3394 2613 2919 
L 2613 3319 
L 3131 3319 
L 3131 450 
Q 3131 -325 2973 -648 
Q 2816 -972 2473 -1159 
Q 2131 -1347 1631 -1347 
Q 1038 -1347 672 -1080 
Q 306 -813 319 -275 
z
M 784 1719 
Q 784 1066 1043 766 
Q 1303 466 1694 466 
Q 2081 466 2343 764 
Q 2606 1063 2606 1700 
Q 2606 2309 2336 2618 
Q 2066 2928 1684 2928 
Q 1309 2928 1046 2623 
Q 784 2319 784 1719 
z
" transform="scale(0.015625)"/>
      </defs>
      <use xlink:href="#ArialMT-4d"/>
      <use xlink:href="#ArialMT-65" x="83.300781"/>
      <use xlink:href="#ArialMT-6c" x="138.916016"/>
      <use xlink:href="#ArialMT-74" x="161.132812"/>
      <use xlink:href="#ArialMT-69" x="188.916016"/>
      <use xlink:href="#ArialMT-6e" x="211.132812"/>
      <use xlink:href="#ArialMT-67" x="266.748047"/>
     </g>
    </g>
    <g id="line2d_22">
     <path d="M 402.835937 34.120312 
L 412.835937 34.120312 
L 422.835937 34.120312 
" style="fill: none; stroke: #2ca02c; stroke-width: 4; stroke-linecap: square"/>
    </g>
    <g id="text_18">
     <!-- Boiling -->
     <g transform="translate(430.835937 37.620312)scale(0.1 -0.1)">
      <defs>
       <path id="ArialMT-42" d="M 469 0 
L 469 4581 
L 2188 4581 
Q 2713 4581 3030 4442 
Q 3347 4303 3526 4014 
Q 3706 3725 3706 3409 
Q 3706 3116 3547 2856 
Q 3388 2597 3066 2438 
Q 3481 2316 3704 2022 
Q 3928 1728 3928 1328 
Q 3928 1006 3792 729 
Q 3656 453 3456 303 
Q 3256 153 2954 76 
Q 2653 0 2216 0 
L 469 0 
z
M 1075 2656 
L 2066 2656 
Q 2469 2656 2644 2709 
Q 2875 2778 2992 2937 
Q 3109 3097 3109 3338 
Q 3109 3566 3000 3739 
Q 2891 3913 2687 3977 
Q 2484 4041 1991 4041 
L 1075 4041 
L 1075 2656 
z
M 1075 541 
L 2216 541 
Q 2509 541 2628 563 
Q 2838 600 2978 687 
Q 3119 775 3209 942 
Q 3300 1109 3300 1328 
Q 3300 1584 3169 1773 
Q 3038 1963 2805 2039 
Q 2572 2116 2134 2116 
L 1075 2116 
L 1075 541 
z
" transform="scale(0.015625)"/>
       <path id="ArialMT-6f" d="M 213 1659 
Q 213 2581 725 3025 
Q 1153 3394 1769 3394 
Q 2453 3394 2887 2945 
Q 3322 2497 3322 1706 
Q 3322 1066 3130 698 
Q 2938 331 2570 128 
Q 2203 -75 1769 -75 
Q 1072 -75 642 372 
Q 213 819 213 1659 
z
M 791 1659 
Q 791 1022 1069 705 
Q 1347 388 1769 388 
Q 2188 388 2466 706 
Q 2744 1025 2744 1678 
Q 2744 2294 2464 2611 
Q 2184 2928 1769 2928 
Q 1347 2928 1069 2612 
Q 791 2297 791 1659 
z
" transform="scale(0.015625)"/>
      </defs>
      <use xlink:href="#ArialMT-42"/>
      <use xlink:href="#ArialMT-6f" x="66.699219"/>
      <use xlink:href="#ArialMT-69" x="122.314453"/>
      <use xlink:href="#ArialMT-6c" x="144.53125"/>
      <use xlink:href="#ArialMT-69" x="166.748047"/>
      <use xlink:href="#ArialMT-6e" x="188.964844"/>
      <use xlink:href="#ArialMT-67" x="244.580078"/>
     </g>
    </g>
    <g id="line2d_23">
     <path d="M 402.835937 48.382812 
L 412.835937 48.382812 
L 422.835937 48.382812 
" style="fill: none; stroke: #9467bd; stroke-width: 4; stroke-linecap: square"/>
    </g>
    <g id="text_19">
     <!-- Sublimation -->
     <g transform="translate(430.835937 51.882812)scale(0.1 -0.1)">
      <defs>
       <path id="ArialMT-53" d="M 288 1472 
L 859 1522 
Q 900 1178 1048 958 
Q 1197 738 1509 602 
Q 1822 466 2213 466 
Q 2559 466 2825 569 
Q 3091 672 3220 851 
Q 3350 1031 3350 1244 
Q 3350 1459 3225 1620 
Q 3100 1781 2813 1891 
Q 2628 1963 1997 2114 
Q 1366 2266 1113 2400 
Q 784 2572 623 2826 
Q 463 3081 463 3397 
Q 463 3744 659 4045 
Q 856 4347 1234 4503 
Q 1613 4659 2075 4659 
Q 2584 4659 2973 4495 
Q 3363 4331 3572 4012 
Q 3781 3694 3797 3291 
L 3216 3247 
Q 3169 3681 2898 3903 
Q 2628 4125 2100 4125 
Q 1550 4125 1298 3923 
Q 1047 3722 1047 3438 
Q 1047 3191 1225 3031 
Q 1400 2872 2139 2705 
Q 2878 2538 3153 2413 
Q 3553 2228 3743 1945 
Q 3934 1663 3934 1294 
Q 3934 928 3725 604 
Q 3516 281 3123 101 
Q 2731 -78 2241 -78 
Q 1619 -78 1198 103 
Q 778 284 539 648 
Q 300 1013 288 1472 
z
" transform="scale(0.015625)"/>
      </defs>
      <use xlink:href="#ArialMT-53"/>
      <use xlink:href="#ArialMT-75" x="66.699219"/>
      <use xlink:href="#ArialMT-62" x="122.314453"/>
      <use xlink:href="#ArialMT-6c" x="177.929688"/>
      <use xlink:href="#ArialMT-69" x="200.146484"/>
      <use xlink:href="#ArialMT-6d" x="222.363281"/>
      <use xlink:href="#ArialMT-61" x="305.664062"/>
      <use xlink:href="#ArialMT-74" x="361.279297"/>
      <use xlink:href="#ArialMT-69" x="389.0625"/>
      <use xlink:href="#ArialMT-6f" x="411.279297"/>
      <use xlink:href="#ArialMT-6e" x="466.894531"/>
     </g>
    </g>
   </g>
  </g>
 </g>
 <defs>
  <clipPath id="p1321e8768e">
   <rect x="45.684375" y="7.2" width="446.4" height="443.52"/>
  </clipPath>
 </defs>
</svg>
